<svg width="36" height="37" viewBox="0 0 36 37" fill="none" xmlns="http://www.w3.org/2000/svg">
<g clip-path="url(#clip0)">
<path d="M25.3075 9.98772C24.9315 9.99399 24.563 9.88472 24.2543 9.67541C23.9456 9.46611 23.7123 9.16738 23.5874 8.82157C23.4626 8.47576 23.4526 8.10042 23.5588 7.74874C23.665 7.39706 23.882 7.08689 24.1791 6.86219C24.3045 6.73997 25.3791 5.53515 26.0776 1.48418C26.1584 1.02109 26.4245 0.608233 26.8175 0.336443C27.2105 0.0646522 27.6981 -0.0438101 28.1732 0.0349162C28.6482 0.113643 29.0717 0.373109 29.3504 0.756235C29.6292 1.13936 29.7405 1.61476 29.6597 2.07786C28.6567 7.73525 26.8657 9.3242 26.3105 9.67343C26.011 9.87721 25.6548 9.98688 25.2896 9.98772" fill="#010101"/>
<path fill-rule="evenodd" clip-rule="evenodd" d="M17.9998 35.2364C21.1879 35.2364 24.3044 34.3147 26.9552 32.588C29.6061 30.8612 31.6721 28.4068 32.8922 25.5353C34.1122 22.6638 34.4314 19.504 33.8094 16.4556C33.1875 13.4072 31.6523 10.6071 29.3979 8.4093C27.1436 6.21152 24.2714 4.71482 21.1445 4.10845C18.0177 3.50209 14.7766 3.8133 11.8311 5.00273C8.88571 6.19215 6.3682 8.20638 4.59698 10.7907C2.82576 13.375 1.88037 16.4133 1.88037 19.5215C1.90853 23.6808 3.61587 27.6621 6.63276 30.6033C9.64965 33.5445 13.7333 35.209 17.9998 35.2364Z" fill="#263C82"/>
<path d="M18 37C14.4407 37 10.9613 35.9713 8.0016 34.0438C5.0419 32.1163 2.73479 29.3767 1.37189 26.1711C0.00898596 22.9656 -0.348518 19.4381 0.344565 16.0345C1.03765 12.631 2.7502 9.50412 5.26576 7.04924C7.78131 4.59436 10.9869 2.92166 14.4774 2.24259C17.9679 1.56351 21.5865 1.90853 24.8759 3.23405C28.1653 4.55957 30.9777 6.80607 32.9577 9.68959C34.9378 12.5731 35.9965 15.9642 36 19.4342C36 24.0899 34.1041 28.5552 30.729 31.8489C27.3539 35.1427 22.7755 36.9954 18 37ZM18 5.41294C15.1661 5.41294 12.3959 6.2322 10.0396 7.76712C7.6833 9.30204 5.8468 11.4837 4.76232 14.0361C3.67784 16.5886 3.39409 19.3973 3.94696 22.107C4.49982 24.8167 5.86446 27.3057 7.86832 29.2593C9.87218 31.2128 12.4252 32.5432 15.2047 33.0822C17.9841 33.6212 20.8651 33.3446 23.4832 32.2873C26.1014 31.2301 28.3392 29.4396 29.9136 27.1425C31.488 24.8453 32.3284 22.1446 32.3284 19.3818C32.3284 15.677 30.8188 12.124 28.1317 9.50432C25.4446 6.88466 21.8001 5.41294 18 5.41294Z" fill="#010101"/>
<path fill-rule="evenodd" clip-rule="evenodd" d="M10.5314 25.8075C11.1046 25.0042 12.6986 25.0916 14.1135 26.0345C15.5285 26.9773 16.1374 28.3917 15.5464 29.1949C14.9553 29.9981 13.3792 29.9108 11.9643 28.9679C10.5494 28.025 9.95831 26.6107 10.5314 25.8075Z" fill="#010101"/>
<path fill-rule="evenodd" clip-rule="evenodd" d="M16.4598 7.75271C17.0164 7.83452 17.5356 8.07529 17.9519 8.44461C18.3682 8.81394 18.6629 9.29525 18.7988 9.82776C18.9347 10.3603 18.9056 10.9201 18.7154 11.4365C18.5251 11.953 18.1821 12.4028 17.7297 12.7293C17.2773 13.0559 16.7359 13.2443 16.1737 13.271C15.6115 13.2977 15.0538 13.1613 14.571 12.8792C14.0883 12.597 13.7021 12.1817 13.4613 11.6858C13.2205 11.1898 13.1358 10.6353 13.218 10.0925C13.2728 9.7311 13.4001 9.3838 13.5928 9.07048C13.7854 8.75716 14.0396 8.48399 14.3408 8.26663C14.642 8.04927 14.9842 7.89198 15.3478 7.80379C15.7114 7.71561 16.0893 7.69825 16.4598 7.75271Z" fill="white"/>
<path fill-rule="evenodd" clip-rule="evenodd" d="M10.191 12.8513C10.4784 12.9084 10.7425 13.0462 10.9506 13.2477C11.1588 13.4491 11.302 13.7055 11.3627 13.9853C11.4233 14.2651 11.3987 14.5561 11.292 14.8225C11.1852 15.0888 11.0009 15.319 10.7617 15.4845C10.5225 15.6501 10.2389 15.7439 9.94575 15.7543C9.65261 15.7648 9.36272 15.6915 9.11176 15.5434C8.8608 15.3953 8.65972 15.179 8.53324 14.9209C8.40677 14.6629 8.36044 14.3745 8.39993 14.0911C8.42766 13.8922 8.49697 13.7009 8.60358 13.5292C8.7102 13.3574 8.85183 13.2088 9.01973 13.0926C9.18763 12.9764 9.37821 12.895 9.57968 12.8535C9.78115 12.812 9.9892 12.8113 10.191 12.8513Z" fill="white"/>
</g>
<defs>
<clipPath id="clip0">
<rect width="36" height="37" fill="white"/>
</clipPath>
</defs>
</svg>
