<svg width="65" height="57" viewBox="0 0 65 57" fill="none" xmlns="http://www.w3.org/2000/svg">
<path d="M17.298 5.93488C17.4594 5.50383 17.7889 5.15681 18.2141 4.97017C18.6394 4.78353 19.1255 4.77255 19.5655 4.93965C20.0055 5.10675 20.3634 5.43824 20.5604 5.8612C20.7574 6.28416 20.7775 6.76393 20.6161 7.19498C15.868 25.5085 31.2997 42.657 31.4503 42.8291C31.7666 43.1748 31.933 43.6277 31.913 44.0884C31.8929 44.549 31.688 44.9795 31.3433 45.2853C30.9986 45.591 30.5424 45.7469 30.075 45.7187C29.6076 45.6905 29.1673 45.4804 28.851 45.1347C28.1616 44.3832 11.9693 26.4282 17.1905 6.26706L17.3531 5.94322" fill="#ED2224"/>
<path fill-rule="evenodd" clip-rule="evenodd" d="M27.085 25.9069C25.7072 28.652 25.193 31.7534 25.6077 34.819C26.0223 37.8846 27.3471 40.7767 29.4145 43.1296C31.4819 45.4825 34.1991 47.1906 37.2224 48.0377C40.2457 48.8848 43.4394 48.833 46.3996 47.8888C49.3599 46.9446 51.9536 45.1504 53.8529 42.7332C55.7523 40.3159 56.8718 37.3841 57.0701 34.3086C57.2683 31.233 56.5363 28.1518 54.9667 25.4546C53.397 22.7574 51.0602 20.5653 48.2517 19.1556C44.4811 17.2933 40.1458 16.9576 36.1843 18.2211C32.2228 19.4847 28.9538 22.2459 27.085 25.9069Z" fill="#208DC0"/>
<path d="M25.5074 25.1149C27.0444 22.053 29.475 19.5254 32.4923 17.8513C35.5097 16.1771 38.9786 15.4314 42.4614 15.7082C45.9441 15.985 49.2846 17.272 52.0613 19.4066C54.8379 21.5413 56.9263 24.428 58.0629 27.7024C59.1995 30.9769 59.3333 34.4924 58.4475 37.8053C57.5617 41.1181 55.696 44.0799 53.0857 46.3168C50.4755 48.5537 47.2377 49.9655 43.7811 50.374C40.3244 50.7825 36.8037 50.1695 33.6634 48.6122C29.4748 46.5047 26.2709 42.8639 24.7505 38.4838C23.2301 34.1037 23.5166 29.34 25.5475 25.2316L25.5074 25.1149ZM54.065 39.4497C55.2898 37.0096 55.7468 34.2528 55.3783 31.5278C55.0097 28.8028 53.8321 26.2321 51.9944 24.1406C50.1567 22.0491 47.7415 20.5309 45.054 19.7779C42.3666 19.0249 39.5278 19.0709 36.8965 19.9102C34.2652 20.7495 31.9596 22.3443 30.2713 24.493C28.5831 26.6417 27.5879 29.2477 27.4117 31.9815C27.2355 34.7153 27.8861 37.4542 29.2814 39.8517C30.6766 42.2492 32.7538 44.1978 35.2502 45.4509C38.6016 47.1078 42.4558 47.407 45.9776 46.2837C49.4994 45.1604 52.4051 42.705 54.065 39.4497Z" fill="#010101"/>
<path d="M31.3137 28.0295C32.2873 26.0899 33.8266 24.4887 35.7375 23.4276C37.6484 22.3665 39.8455 21.893 42.0517 22.0668C44.2579 22.2406 46.3745 23.0539 48.1348 24.4043C49.895 25.7546 51.2201 27.5815 51.9431 29.6547C52.666 31.7279 52.7544 33.9546 52.1971 36.0542C51.6398 38.1537 50.4618 40.0321 48.8116 41.4526C47.1613 42.8731 45.1127 43.7721 42.9239 44.0363C40.7351 44.3005 38.5041 43.9181 36.5121 42.9373C33.8465 41.5993 31.8097 39.2812 30.8496 36.4928C29.8895 33.7045 30.0848 30.6744 31.3925 28.0691L31.3137 28.0295ZM49.7894 37.3035C50.5993 35.69 50.9015 33.8671 50.6577 32.0652C50.414 30.2633 49.6353 28.5634 48.4202 27.1804C47.205 25.7974 45.6079 24.7934 43.8308 24.2955C42.0538 23.7976 40.1766 23.8281 38.4367 24.383C36.6967 24.938 35.1722 25.9926 34.0558 27.4134C32.9394 28.8342 32.2813 30.5574 32.1648 32.3652C32.0483 34.1729 32.4786 35.984 33.4012 37.5694C34.3238 39.1547 35.6973 40.4432 37.3481 41.2718C39.5624 42.3782 42.115 42.5818 44.4469 41.8381C46.7787 41.0943 48.6998 39.4637 49.7894 37.3035Z" fill="#010101"/>
<path fill-rule="evenodd" clip-rule="evenodd" d="M43.7571 30.5495C43.5412 30.9795 43.4607 31.4654 43.5256 31.9457C43.5906 32.426 43.7981 32.8791 44.122 33.2477C44.4459 33.6163 44.8716 33.8839 45.3453 34.0166C45.8189 34.1493 46.3193 34.1412 46.783 33.9933C47.2468 33.8454 47.6532 33.5643 47.9507 33.1856C48.2483 32.8069 48.4237 32.3476 48.4547 31.8657C48.4858 31.3839 48.3711 30.9012 48.1252 30.4786C47.8793 30.056 47.5132 29.7126 47.0732 29.4917C46.4824 29.2003 45.8033 29.1478 45.1828 29.3457C44.5622 29.5437 44.0501 29.9761 43.7571 30.5495Z" fill="#010101"/>
<path fill-rule="evenodd" clip-rule="evenodd" d="M40.7537 36.5329C40.5378 36.9629 40.4572 37.4488 40.5222 37.9291C40.5872 38.4094 40.7947 38.8625 41.1186 39.2311C41.4425 39.5997 41.8682 39.8673 42.3419 40C42.8155 40.1327 43.3159 40.1246 43.7796 39.9767C44.2434 39.8288 44.6497 39.5477 44.9473 39.169C45.2449 38.7903 45.4203 38.331 45.4513 37.8491C45.4824 37.3673 45.3677 36.8846 45.1218 36.462C44.8759 36.0394 44.5098 35.696 44.0698 35.4751C43.479 35.1837 42.7999 35.1312 42.1793 35.3291C41.5588 35.5271 41.0466 35.9595 40.7537 36.5329Z" fill="#010101"/>
<path fill-rule="evenodd" clip-rule="evenodd" d="M37.4934 27.4053C37.2791 27.8328 37.1983 28.3154 37.2614 28.7929C37.3244 29.2704 37.5283 29.7215 37.8477 30.09C38.1671 30.4584 38.5878 30.7278 39.0572 30.8645C39.5266 31.0012 40.0239 30.9991 40.4869 30.8585C40.95 30.7179 41.3583 30.445 41.6607 30.074C41.9632 29.7029 42.1465 29.2502 42.1876 28.7723C42.2288 28.2943 42.126 27.8125 41.8921 27.3869C41.6582 26.9613 41.3036 26.6108 40.8726 26.3793C40.2819 26.0878 39.6028 26.0354 38.9822 26.2333C38.3616 26.4312 37.8495 26.8636 37.5565 27.437" fill="#010101"/>
<path fill-rule="evenodd" clip-rule="evenodd" d="M34.4899 33.3887C34.279 33.8171 34.2016 34.2995 34.2675 34.7759C34.3334 35.2523 34.5397 35.7016 34.8605 36.0679C35.1814 36.4341 35.6027 36.7011 36.0719 36.8355C36.5412 36.9699 37.0376 36.9659 37.4994 36.8239C37.9612 36.6819 38.3679 36.4082 38.6689 36.037C38.9699 35.6657 39.1519 35.2132 39.1921 34.7359C39.2324 34.2587 39.1291 33.7777 38.8952 33.353C38.6614 32.9282 38.3072 32.5785 37.8768 32.3473C37.5818 32.1914 37.2592 32.0947 36.928 32.0628C36.5968 32.0309 36.2638 32.0645 35.9483 32.1615C35.6328 32.2585 35.3413 32.417 35.0909 32.6277C34.8405 32.8385 34.6361 33.0972 34.4899 33.3887Z" fill="#010101"/>
<path d="M13.5037 6.13479C13.6504 5.83577 13.8825 5.58664 14.1721 5.41746C14.4616 5.24828 14.7961 5.16629 15.1352 5.18137C15.4743 5.19646 15.8036 5.30797 16.0832 5.50247C16.3628 5.69696 16.5809 5.96612 16.7111 6.27745C18.891 11.842 22.7101 16.6591 27.6694 20.0993C28.5232 20.7595 29.4008 21.451 30.3024 22.2126C34.2314 25.2693 37.0866 29.47 38.4491 34.1983C38.49 34.4242 38.4856 34.6551 38.4361 34.8777C38.3865 35.1002 38.2928 35.3102 38.1603 35.4956C38.0278 35.681 37.8591 35.8382 37.6639 35.9581C37.4686 36.0781 37.2506 36.1584 37.0223 36.1947C36.794 36.231 36.5598 36.2224 36.3332 36.1694C36.1066 36.1164 35.892 36.0201 35.7016 35.886C35.5112 35.7519 35.3488 35.5826 35.2236 35.3878C35.0984 35.1929 35.0129 34.9763 34.9719 34.7504C33.7426 30.8554 31.3381 27.4044 28.083 24.8633C27.2209 24.141 26.3671 23.4807 25.5291 22.8284C20.0637 19.026 15.8489 13.7161 13.4283 7.58357C13.3266 7.34915 13.2778 7.09653 13.2854 6.84349C13.2929 6.59044 13.3567 6.34313 13.4721 6.11895" fill="#ED2224"/>
</svg>
