<svg width="55" height="41" viewBox="0 0 55 41" fill="none" xmlns="http://www.w3.org/2000/svg">
<path d="M52.2229 3.43079C52.1608 2.79085 51.9371 2.17717 51.5731 1.64725C51.209 1.11732 50.7163 0.688503 50.1412 0.400968C49.5662 0.113432 48.9275 -0.0234072 48.2851 0.00327156C47.6427 0.0299503 47.0176 0.219274 46.4683 0.553502L27.766 11.4009L5.12178 3.28692C4.51016 3.05948 3.85025 2.99347 3.20569 3.09523C2.56114 3.197 1.95367 3.46312 1.44187 3.86794C0.930072 4.27275 0.531204 4.8026 0.28373 5.40639C0.0362553 6.01019 -0.0514786 6.66756 0.0289881 7.31512L3.53927 37.0375C3.61423 37.6917 3.85799 38.3152 4.24664 38.8467C4.63529 39.3783 5.15546 39.7997 5.75612 40.0696C6.35678 40.3394 7.01728 40.4485 7.6728 40.386C8.32833 40.3236 8.95636 40.0918 9.49525 39.7133L28.8018 26.2189L48.9428 33.671C49.5413 33.8958 50.1868 33.9659 50.8195 33.8748C51.4523 33.7837 52.0518 33.5343 52.5625 33.1499C53.0732 32.7654 53.4786 32.2582 53.7412 31.6753C54.0037 31.0925 54.1149 30.4528 54.0644 29.8155L52.2229 3.43079Z" fill="black"/>
</svg>
