<svg width="38" height="43" viewBox="0 0 38 43" fill="none" xmlns="http://www.w3.org/2000/svg">
<g clip-path="url(#clip0)">
<path fill-rule="evenodd" clip-rule="evenodd" d="M31.004 10.3323L18.8474 5.51626C16.1477 13.1698 14.1637 14.0114 8.91489 19.1878C8.91489 19.1878 5.77044 21.5987 5.16304 28.2241C4.83225 33.5149 7.50166 34.0681 8.98673 31.9398C10.4718 29.8115 10.7304 27.2202 12.1854 25.5729C12.1854 25.5729 10.4898 31.068 11.8605 33.8577C13.4176 36.7557 16.5019 35.3068 17.3618 30.8217C18.2217 26.3366 18.3178 27.8878 18.3178 27.8878C18.3178 27.8878 17.9029 29.8898 18.4199 32.433C19.0631 36.0464 23.5603 35.1687 24.2338 30.5754C24.8291 25.6874 23.6327 24.7435 25.8753 21.3106C28.3044 17.9859 31.004 10.3323 31.004 10.3323Z" fill="#E96025"/>
<path fill-rule="evenodd" clip-rule="evenodd" d="M17.4342 4.94494C17.6807 4.09121 18.5645 3.85675 19.2319 3.99505C20.0856 4.24157 20.3201 5.12537 20.1818 5.79273C17.7286 12.5925 15.979 14.318 12.1852 17.8471C11.566 18.4843 10.8385 19.308 9.92458 20.0234C9.92458 20.0234 9.92458 20.0234 9.81636 20.2098C9.81636 20.2098 7.07473 22.3561 6.60564 28.3142C6.51542 29.7571 6.64165 30.8273 6.90618 31.2302C7.09255 31.3384 7.09256 31.3384 7.09256 31.3384C7.38716 31.2602 7.49538 31.0738 7.60361 30.8875C8.14473 29.9556 8.57763 29.2101 8.93237 28.17C9.50357 26.7571 9.96654 25.5306 11.0969 24.4424C11.7161 23.8052 12.4917 23.7571 13.129 24.3764C13.5799 24.8874 13.7362 25.4766 13.5979 26.144C13.5979 26.144 11.9324 31.1581 13.1468 33.3586C13.5196 33.5751 13.5977 33.8697 13.7841 33.9779C13.9705 34.0861 13.9705 34.0861 14.0787 33.8998C14.3733 33.8216 14.4815 33.6352 14.7761 33.5571C15.2872 33.1062 15.6419 32.0661 15.9185 30.7314C18.7567 14.6848 19.574 27.8696 19.574 27.8696L19.6522 28.1642C19.4357 28.537 19.4237 30.2745 19.7843 32.2285C19.9407 32.8177 20.0188 33.1123 20.2052 33.2205C20.3916 33.3287 20.3916 33.3287 20.6862 33.2506C20.9808 33.1724 21.2754 33.0943 21.3836 32.9079C22.081 32.5652 22.6221 31.6333 22.7905 30.485C22.9889 28.8557 22.9709 27.5992 23.0311 26.6372C23.0732 24.4187 23.0552 23.1621 24.865 20.4747C26.9994 17.2282 29.7772 9.86925 29.7772 9.86925C30.0237 9.01552 30.9075 8.78106 31.5749 8.91936C32.4286 9.16588 32.6631 10.0497 32.5248 10.717C32.5248 10.717 29.7169 18.5569 27.1796 22.068C25.911 23.8235 26.0372 24.8937 25.8388 26.523C25.7787 27.485 25.7967 28.7415 25.6764 30.6655C25.3396 32.9621 24.2875 34.3449 23.079 35.1385C22.3816 35.4812 21.6841 35.8238 21.2032 35.7938C20.2111 36.2146 19.5438 36.0763 18.9846 35.7516C18.4255 35.427 17.9746 34.9159 17.5237 34.4049C17.3073 34.7776 17.0908 35.1504 16.688 35.4149C16.0687 36.0522 15.3713 36.3949 14.6738 36.7375C13.79 36.972 13.1227 36.8337 12.3772 36.4008C11.8181 36.0761 11.1808 35.4569 10.6517 34.6512C10.3872 34.2484 10.2309 33.6592 10.1828 32.8836C9.56353 33.5209 8.94425 34.1582 8.06045 34.3926C7.47125 34.5489 6.69567 34.597 6.13654 34.2723C5.57741 33.9476 5.01828 33.623 4.6756 32.9255C4.06839 31.8253 3.67763 30.3523 3.90615 28.242C4.62176 21.4302 7.79629 18.5384 8.01274 18.1656C8.74024 17.3419 9.65412 16.6265 10.2734 15.9892C13.7726 12.5383 15.414 10.9992 17.4342 4.94494Z" fill="black"/>
</g>
<defs>
<clipPath id="clip0">
<rect x="0.172852" y="30.8096" width="34.6987" height="22.6296" transform="rotate(-59.8572 0.172852 30.8096)" fill="white"/>
</clipPath>
</defs>
</svg>
