<svg width="53" height="52" viewBox="0 0 53 52" fill="none" xmlns="http://www.w3.org/2000/svg">
<path fill-rule="evenodd" clip-rule="evenodd" d="M10.5369 18.1108L18.957 2.79297C18.957 2.79297 22.6078 12.7441 27.1218 17.5292C29.8934 20.3861 31.8828 21.9274 35.0246 24.2038C37.5902 26.1126 38.7974 26.3383 41.0482 32.1297C43.1617 37.289 38.0588 38.9339 36.1242 36.8832C34.3817 34.9549 33.8326 32.4268 32.6663 30.8661C32.6663 30.8661 34.9995 37.7991 34.2042 39.4695C32.8603 42.4234 30.1304 42.0431 27.4684 38.1672C26.3021 36.6065 25.4374 34.1493 25.4374 34.1493C25.4374 34.1493 28.1681 38.3412 27.1945 40.7147C25.7272 43.8621 21.6666 43.4496 20.0198 39.6768C18.565 36.0266 16.5479 32.8343 15.5321 28.9196C14.5711 24.4954 10.5369 18.1108 10.5369 18.1108Z" fill="#E96025"/>
<path fill-rule="evenodd" clip-rule="evenodd" d="M17.9563 3.5167C17.6269 2.76215 18.052 1.67218 18.683 1.53025C19.4374 1.19483 20.5212 1.61397 20.6585 2.246C20.6585 2.246 24.2406 11.8811 28.5626 16.5437C29.8523 17.9109 31.0734 18.9621 32.2945 20.0132C33.5156 21.0644 34.8601 21.9221 36.2732 23.0958C36.4653 23.2183 36.8495 23.4633 37.0415 23.5859C39.5385 25.1787 40.6909 25.9138 42.9417 31.7052C43.7377 33.8464 43.7655 35.4974 42.9015 36.8518C42.4077 37.6258 42.0375 38.2062 41.1596 38.7352C40.5972 39.1931 39.6507 39.406 39.0197 39.5479C38.1967 39.5673 37.1815 39.4642 36.4132 38.9741C36.3584 39.4836 36.3036 39.9931 36.0568 40.3801C35.7551 41.2766 35.0694 41.928 34.3836 42.5794C33.8212 43.0374 33.1902 43.1793 32.3671 43.1987C31.7361 43.3406 31.0365 43.1665 30.4603 42.7989C29.884 42.4314 29.4999 42.1863 28.9237 41.8187C28.3752 43.1022 27.3739 43.8246 26.496 44.3535C25.865 44.4954 25.234 44.6374 24.4109 44.6568C23.9034 44.6052 23.2037 44.4311 22.5041 44.257C21.2282 43.7154 19.9385 42.3482 19.2111 40.5231C18.7444 39.1365 18.1544 37.9434 17.5643 36.7503C16.5762 34.4866 15.396 32.1004 14.6548 29.4498C13.4469 25.4126 9.48131 19.344 9.28924 19.2215C9.15194 18.5894 9.26151 17.5704 10.0159 17.235C10.5783 16.7771 11.5935 16.8802 12.1149 17.7573C12.1149 17.7573 16.3412 24.2644 17.8098 28.7402C18.4824 31.0748 19.4705 33.3385 20.582 35.4086C21.1721 36.6017 21.7622 37.7948 22.4209 39.3039C22.8189 40.3745 23.4638 41.0581 24.1634 41.2322C24.3555 41.3547 24.671 41.2837 24.8631 41.4063C25.1786 41.3353 25.3706 41.4578 25.4941 41.2643C25.933 40.9999 26.3719 40.7354 26.4267 40.2259C26.797 39.6455 26.4676 38.8909 26.2617 37.9429C25.2875 36.5047 24.7522 34.8021 24.7522 34.8021C24.4228 34.0476 24.7244 33.1511 25.4789 32.8157C26.2333 32.4802 26.933 32.6543 27.2623 33.4089C27.2623 33.4089 28.0445 34.7245 28.5798 36.4271C28.8405 36.8656 28.9091 37.1817 29.1012 37.3042C30.0754 38.7423 30.9124 39.5484 31.612 39.7225C31.8041 39.8451 31.9962 39.9676 32.3117 39.8966L32.6272 39.8257C32.7506 39.6322 33.1895 39.3677 33.2443 38.8582C33.6694 37.7682 31.8028 32.2219 31.6655 31.5899C31.5282 30.9579 31.7064 30.2549 32.2688 29.7969C32.8311 29.339 33.8463 29.4421 34.2991 30.0032C34.8205 30.8802 35.1499 31.6348 35.6713 32.5119C36.0693 33.5824 36.6594 34.7755 37.565 35.8977C37.7571 36.0202 38.1412 36.2652 38.4567 36.1943C39.2798 36.1749 39.5953 36.1039 39.9108 36.033C40.2263 35.962 40.3497 35.7685 40.5966 35.3815C40.9669 34.8011 40.953 33.9755 40.3629 32.7824C38.5102 28.0616 37.5498 27.449 35.437 26.1012C35.2449 25.9787 34.8608 25.7336 34.6687 25.6111C32.94 24.5084 31.7189 23.4572 30.3058 22.2835C29.0847 21.2324 27.8636 20.1812 26.3818 18.6915C21.7991 13.5904 17.9563 3.5167 17.9563 3.5167Z" fill="black"/>
</svg>
