<svg width="285" height="46" viewBox="0 0 285 46" fill="none" xmlns="http://www.w3.org/2000/svg">
<mask id="mask0" mask-type="alpha" maskUnits="userSpaceOnUse" x="0" y="0" width="285" height="46">
<rect width="285" height="46" rx="23" fill="#F55853"/>
</mask>
<g mask="url(#mask0)">
<g opacity="0.34">
<path fill-rule="evenodd" clip-rule="evenodd" d="M282.78 2.30991C282.78 2.30991 273.198 9.13976 279.586 14.3935C288.104 21.7487 298.751 7.56363 290.233 -5.57067C282.78 -16.6035 263.083 -19.2304 254.565 -8.19754C255.098 -8.19754 280.118 -15.5527 282.78 2.30991Z" fill="white"/>
<path fill-rule="evenodd" clip-rule="evenodd" d="M227.416 0.734045C227.416 2.83554 224.754 4.93702 222.625 4.41165C220.495 4.41165 218.366 2.31016 218.898 -0.316705C218.898 -2.94357 221.56 -4.51968 223.689 -3.99431C225.819 -3.46894 227.948 -1.36745 227.416 0.734045Z" fill="white"/>
<path fill-rule="evenodd" clip-rule="evenodd" d="M260.954 42.2393C260.422 45.3915 257.76 47.493 254.566 47.493C251.372 46.9676 249.242 44.3408 249.242 41.1885C249.775 38.0363 252.436 35.9348 255.63 35.9348C258.825 35.9348 261.486 39.087 260.954 42.2393Z" fill="white"/>
<path fill-rule="evenodd" clip-rule="evenodd" d="M287.039 43.8159C287.039 43.8159 295.024 46.4428 290.233 54.8488C286.506 61.6786 268.406 61.6786 266.277 46.4428C263.083 27.5294 284.909 19.1235 298.75 25.9533C314.189 33.3085 311.527 59.5771 301.945 64.3055C301.945 64.3055 308.865 46.9682 300.348 38.0369C294.492 31.7324 283.312 29.1055 276.392 39.0876C272.133 45.3921 275.859 52.2219 282.248 52.7473C286.506 52.7473 289.168 49.0697 287.039 43.8159Z" fill="white"/>
<path fill-rule="evenodd" clip-rule="evenodd" d="M250.839 14.395C250.839 14.395 257.228 16.4965 253.501 23.3263C250.307 29.1054 235.401 29.1054 233.804 16.4965C231.675 1.26072 248.71 -5.56912 259.889 -0.315398C272.666 5.98907 270.536 27.0039 262.551 30.6816C262.551 30.6816 267.875 17.0219 261.486 9.1413C256.695 3.88758 247.645 1.78609 242.322 9.66667C239.128 14.395 241.789 20.1741 247.113 20.6995C250.307 21.7502 252.436 18.598 250.839 14.395Z" fill="white"/>
</g>
</g>
</svg>
