<svg width="255" height="258" viewBox="0 0 255 258" fill="none" xmlns="http://www.w3.org/2000/svg">
<g opacity="0.34">
<path fill-rule="evenodd" clip-rule="evenodd" d="M112.668 101.168C112.668 101.168 104.717 106.911 110.018 111.329C117.085 117.514 125.92 105.586 118.852 94.5411C112.668 85.2637 96.3237 83.0548 89.2559 92.3322C89.6976 92.3322 110.459 86.1472 112.668 101.168Z" fill="white"/>
<path fill-rule="evenodd" clip-rule="evenodd" d="M79.5381 223.541C79.5381 223.541 75.1207 229.726 79.9798 231.935C87.9311 235.469 89.6981 222.216 82.6303 217.356C75.5624 212.055 63.1937 213.822 60.1016 222.658C60.1016 222.658 74.2372 213.38 79.5381 223.541Z" fill="white"/>
<path fill-rule="evenodd" clip-rule="evenodd" d="M94.1152 202.336C94.1152 202.336 101.183 204.986 102.066 199.685C102.95 190.849 90.1395 193.058 87.0473 201.452C83.9552 209.846 89.256 221.332 98.5326 221.774C98.0908 221.332 85.2804 210.288 94.1152 202.336Z" fill="white"/>
<path fill-rule="evenodd" clip-rule="evenodd" d="M191.298 73.3357C191.298 73.3357 186.881 79.5206 191.74 81.7295C199.691 85.2637 201.458 72.4521 194.39 67.1507C187.323 61.8494 174.954 63.6165 171.862 72.4521C171.862 72.4521 186.439 63.1747 191.298 73.3357Z" fill="white"/>
<path fill-rule="evenodd" clip-rule="evenodd" d="M140.498 164.784C140.498 164.784 134.755 159.925 132.105 164.343C128.129 172.295 140.498 174.945 146.682 168.319C152.425 161.692 151.983 149.322 143.59 145.346C143.59 145.346 151.541 160.808 140.498 164.784Z" fill="white"/>
<path fill-rule="evenodd" clip-rule="evenodd" d="M7.53418 24.2979C7.53418 24.2979 18.5777 27.3904 23.4368 21.6473C27.8542 16.7877 26.0872 13.6952 23.4368 6.62671C23.4368 6.62671 35.3638 12.3699 27.8542 27.8322C27.8542 27.8322 41.5481 26.0651 41.5481 37.1096C41.5481 48.1541 23.4368 47.7123 25.6455 40.6438C27.4124 35.3425 34.4803 43.7363 35.3637 37.1096C36.2472 30.4829 23.4368 30.9247 12.8351 33.1336L7.53418 24.2979Z" fill="white"/>
<path fill-rule="evenodd" clip-rule="evenodd" d="M139.615 76.4281C139.615 76.4281 151.1 80.4041 159.051 79.9623C161.26 79.9623 162.585 78.637 163.469 77.3116C164.352 75.9863 164.794 73.3356 164.352 71.5685C164.352 71.5685 169.653 75.1027 163.469 81.7294C163.469 81.7294 172.745 83.4966 170.978 91.4486C169.211 98.5171 157.284 97.1918 160.376 91.8904C161.26 90.565 162.585 90.5651 163.469 91.4486C164.352 92.3322 165.677 91.8904 166.119 91.0068C168.769 85.2637 143.59 82.613 136.522 82.1712L139.615 76.4281Z" fill="white"/>
<path fill-rule="evenodd" clip-rule="evenodd" d="M122.387 241.212C121.503 241.654 119.737 242.979 119.737 242.979C119.737 242.979 112.669 232.818 106.484 228.401C104.717 227.075 102.95 227.075 101.183 227.959C99.4165 228.401 98.0913 230.168 97.2078 231.935C97.2078 231.935 94.9991 225.75 103.834 224.425C103.834 224.425 97.2078 217.356 103.834 212.055C109.577 207.195 117.97 215.589 112.669 218.24C110.902 218.681 110.018 217.798 110.018 216.473C110.018 215.147 108.693 214.705 107.368 215.147C101.625 218.24 119.295 234.586 125.037 239.003C124.596 239.445 122.829 240.771 122.387 241.212Z" fill="white"/>
<path fill-rule="evenodd" clip-rule="evenodd" d="M89.6976 169.202C89.6976 167.877 89.2559 166.11 89.2559 166.11C89.2559 166.11 101.625 166.11 108.692 163.017C110.901 162.134 111.785 160.808 112.226 159.041C112.668 157.274 111.785 155.065 111.343 153.298C111.343 153.298 117.527 155.065 113.993 163.017C113.993 163.017 123.27 161.692 124.153 169.644C125.037 177.154 113.11 179.363 114.435 173.62C114.877 171.853 116.202 171.411 117.527 172.295C118.411 172.736 119.736 172.295 120.178 170.969C120.619 164.342 97.6489 170.527 90.5811 172.736C90.1393 172.295 89.6976 169.644 89.6976 169.202Z" fill="white"/>
<path fill-rule="evenodd" clip-rule="evenodd" d="M131.663 219.123C131.222 221.332 129.455 223.099 127.246 222.658C125.037 222.216 123.27 220.449 123.712 218.24C124.154 216.031 125.921 214.264 128.13 214.705C130.338 214.705 132.105 216.914 131.663 219.123Z" fill="white"/>
<path fill-rule="evenodd" clip-rule="evenodd" d="M79.5383 246.955C79.0965 250.048 76.4461 251.815 73.7957 251.815C70.7035 251.373 68.9365 248.723 68.9365 246.072C69.3783 242.979 71.587 241.212 74.6791 241.212C77.3296 241.212 79.5383 243.863 79.5383 246.955Z" fill="white"/>
<path fill-rule="evenodd" clip-rule="evenodd" d="M114.877 201.01C114.877 202.777 113.11 203.661 111.785 203.661C110.018 203.661 109.134 201.894 109.134 200.569C109.134 198.801 110.901 197.918 112.226 197.918C113.993 197.918 115.319 199.685 114.877 201.01Z" fill="white"/>
<path fill-rule="evenodd" clip-rule="evenodd" d="M69.8198 230.168C69.8198 231.935 68.0528 232.818 66.7276 232.818C64.9606 232.818 64.0771 231.051 64.0771 229.726C64.0771 227.959 65.8441 227.075 67.1693 227.075C68.9363 227.075 69.8198 228.401 69.8198 230.168Z" fill="white"/>
<path fill-rule="evenodd" clip-rule="evenodd" d="M34.039 246.072C34.039 247.839 32.272 248.723 30.9468 248.723C29.1799 248.723 28.2964 246.956 28.2964 245.63C28.2964 243.863 30.0633 242.979 31.3886 242.979C33.1555 242.979 34.4807 244.305 34.039 246.072Z" fill="white"/>
<path fill-rule="evenodd" clip-rule="evenodd" d="M103.392 74.661C103.392 76.8699 101.183 78.1953 99.4162 77.7535C97.6492 77.7535 95.8823 75.9864 96.324 73.7775C96.324 71.5686 98.5327 70.2432 100.3 70.685C102.067 70.685 103.392 72.4521 103.392 74.661Z" fill="white"/>
<path fill-rule="evenodd" clip-rule="evenodd" d="M213.385 73.7773C213.385 75.5445 211.176 77.3116 209.409 76.8698C207.642 76.8698 205.875 75.1027 206.317 72.8938C206.317 70.6849 208.526 69.3595 210.293 69.8013C212.06 69.8013 213.827 71.5684 213.385 73.7773Z" fill="white"/>
<path fill-rule="evenodd" clip-rule="evenodd" d="M198.365 26.5068C197.924 28.274 196.157 30.0411 194.39 29.5993C192.623 29.5993 190.856 27.8322 191.298 25.6233C191.298 23.4144 193.506 22.089 195.273 22.5308C197.04 22.9726 198.365 24.7397 198.365 26.5068Z" fill="white"/>
<path fill-rule="evenodd" clip-rule="evenodd" d="M240.331 8.3938C240.331 10.1609 238.122 11.928 236.355 11.4863C234.588 11.4863 232.821 9.71914 233.263 7.51024C233.263 5.30134 235.472 3.976 237.239 4.41778C239.006 4.41778 240.331 6.1849 240.331 8.3938Z" fill="white"/>
<path fill-rule="evenodd" clip-rule="evenodd" d="M50.8249 72.8938C50.3831 75.9863 47.7327 78.1952 44.6405 77.7534C41.5483 77.3116 39.3396 74.6609 39.7814 71.5685C40.2231 68.476 42.8736 66.2671 45.9657 66.2671C48.6162 67.1507 50.8249 69.8013 50.8249 72.8938Z" fill="white"/>
<path fill-rule="evenodd" clip-rule="evenodd" d="M66.7278 99.8424C66.7278 101.61 64.5191 103.377 62.7521 102.935C60.9852 102.935 59.2182 101.168 59.66 98.9588C59.66 96.7499 61.8687 95.4246 63.6356 95.8664C65.4026 96.3082 67.1695 98.0753 66.7278 99.8424Z" fill="white"/>
<path fill-rule="evenodd" clip-rule="evenodd" d="M35.8061 55.2226C35.8061 56.5479 34.4809 57.8733 32.7139 57.8733C31.3887 57.8733 30.0635 56.5479 30.0635 54.7808C30.0635 53.4555 31.3887 52.1301 33.1556 52.1301C34.9226 52.1301 35.8061 53.4555 35.8061 55.2226Z" fill="white"/>
<path fill-rule="evenodd" clip-rule="evenodd" d="M100.741 154.182C100.741 155.949 98.5328 157.716 96.7658 157.274C94.9988 157.274 93.2319 155.507 93.6736 153.298C93.6736 151.089 95.8823 149.764 97.6493 150.205C99.4162 150.205 101.183 151.973 100.741 154.182Z" fill="white"/>
<path fill-rule="evenodd" clip-rule="evenodd" d="M166.561 158.599C166.119 160.366 164.352 162.133 162.585 161.692C160.818 161.692 159.051 159.925 159.493 157.716C159.493 155.507 161.702 154.181 163.469 154.623C165.236 155.065 166.561 156.832 166.561 158.599Z" fill="white"/>
<path fill-rule="evenodd" clip-rule="evenodd" d="M203.667 91.8904C203.225 93.6575 201.459 95.4246 199.692 94.9829C197.925 94.9829 196.158 93.2157 196.599 91.0068C196.599 88.7979 198.808 87.4726 200.575 87.9144C202.342 88.3561 204.109 90.1233 203.667 91.8904Z" fill="white"/>
<path fill-rule="evenodd" clip-rule="evenodd" d="M94.5571 134.743C94.1154 137.394 91.9067 139.161 89.2563 139.161C86.6058 138.719 84.8389 136.51 84.8389 133.86C85.2806 131.209 87.4893 129.442 90.1397 129.442C92.7902 129.442 94.9989 132.092 94.5571 134.743Z" fill="white"/>
<path fill-rule="evenodd" clip-rule="evenodd" d="M47.7331 14.1369C47.7331 17.6712 44.1992 20.3219 40.6653 19.8801C37.1314 19.8801 34.4809 16.3458 34.9227 12.8116C35.3644 9.27734 38.4566 6.62665 41.9905 7.06843C45.5244 7.51022 48.1749 10.6027 47.7331 14.1369Z" fill="white"/>
<path fill-rule="evenodd" clip-rule="evenodd" d="M94.5568 57.4315C94.1151 60.524 91.4646 62.7329 88.3724 62.2911C85.2803 61.8493 83.0716 59.1986 83.5133 56.1062C83.9551 53.0137 86.6055 50.8048 89.6977 51.2466C92.7898 51.6884 94.9985 54.3391 94.5568 57.4315Z" fill="white"/>
<path fill-rule="evenodd" clip-rule="evenodd" d="M99.4161 243.863C98.9743 247.397 96.3239 249.606 92.79 249.164C89.2561 248.723 87.0474 246.072 87.4891 242.538C87.9309 239.003 90.5813 236.795 94.1152 237.236C97.6491 237.678 99.8578 240.771 99.4161 243.863Z" fill="white"/>
<path fill-rule="evenodd" clip-rule="evenodd" d="M160.818 173.62C160.376 176.271 158.167 178.038 155.517 178.038C152.867 177.596 151.1 175.387 151.1 172.736C151.541 170.086 153.75 168.318 156.4 168.318C159.051 168.76 160.818 170.969 160.818 173.62Z" fill="white"/>
<path fill-rule="evenodd" clip-rule="evenodd" d="M19.0198 208.962C19.0198 211.171 16.8111 212.497 15.0442 212.497C12.8355 212.497 11.5103 210.288 11.5103 208.521C11.5103 206.312 13.7189 204.986 15.4859 204.986C17.6946 204.986 19.0198 206.753 19.0198 208.962Z" fill="white"/>
<path fill-rule="evenodd" clip-rule="evenodd" d="M110.018 183.339C109.576 185.99 107.368 188.199 104.717 187.757C102.067 187.315 99.858 185.106 100.3 182.455C100.741 179.805 102.95 177.596 105.601 178.038C108.251 178.038 110.46 180.688 110.018 183.339Z" fill="white"/>
<path fill-rule="evenodd" clip-rule="evenodd" d="M43.7575 257.116C42.874 257.116 39.3401 256.233 39.3401 256.233C39.3401 256.233 49.9418 239.445 44.641 238.12C39.7818 236.794 40.2236 244.747 40.2236 244.747C40.2236 244.747 35.8062 238.562 39.7818 235.027C45.9662 229.284 52.1505 236.353 50.3836 239.445C50.3836 239.445 57.0097 232.818 61.8688 239.003C65.4027 242.979 60.1018 246.955 60.1018 246.955C60.1018 246.955 61.8688 242.979 58.3349 241.212C56.1262 239.887 53.034 243.421 50.3836 247.397C47.7331 251.815 47.7331 257.116 47.7331 257.116C47.7331 257.116 45.0827 257.558 43.7575 257.116Z" fill="white"/>
<path fill-rule="evenodd" clip-rule="evenodd" d="M226.637 0C226.637 0 217.802 20.3219 223.987 20.7637C229.288 21.2055 227.521 12.3699 227.521 12.3699C227.521 12.3699 233.263 18.113 229.729 22.9726C223.987 30.4829 216.035 24.2979 216.919 19.8801C216.919 19.8801 211.176 28.274 204.55 22.5308C200.133 18.5548 204.992 13.2534 204.992 13.2534C204.992 13.2534 203.667 18.113 208.084 19.4384C211.176 20.3219 214.269 18.113 216.035 11.4863C217.802 6.18493 217.361 0 217.361 0H226.637Z" fill="white"/>
<path fill-rule="evenodd" clip-rule="evenodd" d="M170.978 14.5788C170.978 14.5788 179.813 18.9966 184.23 14.137C192.623 5.30138 197.483 6.62672 201.017 9.71919C201.017 9.71919 195.274 7.0685 189.09 13.2534C186.881 15.4623 183.789 20.7637 178.488 20.3219C172.745 19.8801 185.556 20.7637 185.114 29.5993C184.23 37.9932 175.396 40.6438 171.862 35.7843C168.328 30.4829 173.187 29.5993 174.512 32.25C176.279 34.9007 178.488 34.4589 179.813 31.8082C182.905 26.5069 178.488 23.4144 174.954 22.0891C171.42 20.3219 167.444 20.7637 167.444 20.7637C167.444 20.7637 170.095 16.3459 170.978 14.5788Z" fill="white"/>
<path fill-rule="evenodd" clip-rule="evenodd" d="M16.3694 83.0547C13.719 79.5205 13.2773 73.7773 17.2529 72.0102C17.2529 72.0102 19.4616 74.2191 22.9955 71.5684C26.9712 68.9178 26.9712 64.5 23.879 60.9657C16.3694 52.1301 -1.74188 64.0582 6.20943 82.1712C12.3938 96.3082 30.9468 98.0753 45.0825 92.3321C45.5242 92.3321 24.3207 93.2157 16.3694 83.0547Z" fill="white"/>
<path fill-rule="evenodd" clip-rule="evenodd" d="M242.098 83.0547C244.749 79.5205 245.19 73.7773 241.215 72.0102C241.215 72.0102 239.006 74.2191 235.472 71.5684C231.497 68.9178 231.497 64.5 234.589 60.9657C242.098 52.1301 260.21 64.0582 252.258 82.1712C246.074 96.3082 227.521 98.0753 213.385 92.3321C212.943 92.3321 234.147 93.2157 242.098 83.0547Z" fill="white"/>
<path fill-rule="evenodd" clip-rule="evenodd" d="M182.022 147.997C180.696 150.205 177.604 156.39 177.604 156.39C177.604 156.39 165.236 132.976 160.818 140.486C158.609 144.462 164.794 146.671 164.794 146.671C164.794 146.671 154.634 147.113 156.401 139.161C157.726 132.092 164.352 132.534 167.886 135.627C167.886 135.627 163.027 125.908 171.42 124.582C178.046 123.699 180.696 130.325 180.696 130.325C180.696 130.325 177.162 127.233 174.07 129C171.42 130.767 171.42 135.185 176.279 138.719C180.255 141.37 186.439 139.161 186.439 139.161C186.439 139.161 183.347 145.788 182.022 147.997Z" fill="white"/>
<path fill-rule="evenodd" clip-rule="evenodd" d="M56.5675 46.8288C56.5675 46.8288 63.1936 49.0377 59.2179 56.1062C56.1257 61.8493 41.1066 61.8493 39.3396 49.0377C36.6892 33.1336 54.8005 26.5068 65.844 31.8082C78.6544 37.9931 76.4457 59.6404 68.4944 64.0582C68.4944 64.0582 74.237 49.9212 67.1692 41.9692C62.3101 36.6678 53.0336 34.4589 47.2909 42.8527C43.757 48.1541 46.8492 53.8973 52.1501 54.339C55.684 54.339 57.8927 51.2466 56.5675 46.8288Z" fill="white"/>
<path fill-rule="evenodd" clip-rule="evenodd" d="M116.202 136.069C116.202 136.069 122.828 138.277 118.853 145.346C115.76 151.089 100.741 151.089 98.9743 138.277C96.3238 122.373 114.435 115.305 125.92 121.048C138.731 127.233 136.522 149.322 128.571 153.298C128.571 153.298 134.313 138.719 127.246 131.209C122.386 125.908 113.11 123.699 107.367 132.093C103.833 137.394 106.926 143.137 112.226 143.579C115.76 143.579 117.969 140.486 116.202 136.069Z" fill="white"/>
<path fill-rule="evenodd" clip-rule="evenodd" d="M86.1641 111.329C86.1641 111.329 91.465 113.096 88.3728 118.839C85.7224 123.699 73.3537 123.699 72.0285 113.096C70.2615 100.284 84.3972 94.5411 93.6737 98.9589C104.275 104.26 102.508 121.932 95.8824 125.024C95.8824 125.024 100.3 113.538 94.9989 106.911C91.0232 102.493 83.5137 100.726 79.0963 107.353C76.4459 111.329 78.6545 116.188 83.0719 116.63C85.7224 117.514 87.4893 114.863 86.1641 111.329Z" fill="white"/>
<path fill-rule="evenodd" clip-rule="evenodd" d="M182.022 106.911C182.022 106.911 184.672 102.935 188.648 106.911C192.182 110.003 189.09 119.723 180.255 118.839C169.212 117.514 167.886 104.702 173.629 98.0753C180.255 90.565 193.949 96.3082 195.274 102.051C195.274 102.051 186.881 95.8664 180.255 98.9588C175.838 101.168 172.745 106.911 177.163 112.212C179.813 115.305 184.231 114.421 185.556 111.329C186.881 108.678 185.556 106.911 182.022 106.911Z" fill="white"/>
<path fill-rule="evenodd" clip-rule="evenodd" d="M168.327 52.5719C168.327 52.5719 172.745 52.5719 171.861 57.8733C170.978 62.2911 162.143 64.9417 158.167 57.4315C153.308 48.1541 163.027 40.202 170.978 41.5274C180.254 42.8527 183.347 56.5479 178.929 60.9657C178.929 60.9657 179.371 51.2465 173.628 47.7123C169.653 45.5034 163.468 45.9452 161.701 52.1301C160.818 55.2226 163.468 59.1986 167.002 58.315C169.653 56.9897 170.536 54.7808 168.327 52.5719Z" fill="white"/>
<path fill-rule="evenodd" clip-rule="evenodd" d="M43.3154 223.099C43.3154 223.099 46.4076 223.099 45.5241 226.634C45.0824 229.284 39.3398 231.051 36.6894 226.634C33.5972 220.89 39.7815 215.589 45.0824 216.473C50.825 217.356 53.0337 226.192 50.3833 228.842C50.3833 228.842 50.825 222.216 46.8494 220.449C44.1989 219.123 40.2233 219.123 38.898 223.099C38.4563 224.866 40.2233 227.517 42.432 227.075C44.1989 226.192 44.6407 224.866 43.3154 223.099Z" fill="white"/>
<path fill-rule="evenodd" clip-rule="evenodd" d="M148.45 108.678C148.45 108.678 143.149 111.329 140.94 104.702C139.173 99.4007 148.45 90.1233 157.284 96.75C168.328 105.144 161.702 120.164 151.542 123.699C139.615 127.675 129.896 116.63 130.338 105.586C130.338 105.586 135.639 117.956 144.474 118.397C150.658 118.839 157.284 114.421 156.401 106.027C155.959 101.61 150.216 98.5172 146.683 101.61C144.032 103.819 144.474 106.911 148.45 108.678Z" fill="white"/>
<path fill-rule="evenodd" clip-rule="evenodd" d="M208.084 45.5035C208.084 45.5035 201.9 48.5959 199.691 41.0857C197.924 34.9007 208.084 24.7398 218.244 32.25C231.054 41.5274 223.103 58.7569 211.618 62.7329C198.366 67.1507 185.114 50.8048 187.764 41.9692C187.764 41.9692 193.507 55.6644 203.667 56.548C210.293 56.9898 218.244 52.1302 216.919 42.411C216.035 37.9932 209.851 34.4589 205.875 37.9932C203.225 40.2021 204.108 43.7363 208.084 45.5035Z" fill="white"/>
<path fill-rule="evenodd" clip-rule="evenodd" d="M74.2372 78.1952C74.2372 78.1952 68.9363 75.9863 72.4702 69.8014C75.5624 64.9418 88.3728 66.2672 89.2563 77.3117C90.1398 91.0069 74.2372 95.8665 64.9606 90.1233C54.3589 83.4966 57.8928 67.5925 65.4024 62.2911C65.4024 62.2911 59.218 74.2192 64.5189 81.2877C68.0528 86.1473 76.0041 88.798 81.7467 82.1713C84.3972 79.0788 83.072 72.8939 78.6546 72.0103C75.5624 72.0103 73.3537 74.2192 74.2372 78.1952Z" fill="white"/>
<path fill-rule="evenodd" clip-rule="evenodd" d="M15.9276 228.401C15.9276 228.401 10.185 226.192 14.1606 220.007C17.2528 215.147 30.0633 216.473 30.9467 227.517C31.8302 241.212 15.9276 246.072 6.65108 240.329C-3.95066 233.702 -0.416747 215.589 7.09282 212.497C7.09282 212.497 0.908471 224.425 6.20934 231.493C9.74325 236.353 17.6946 239.003 23.4372 232.377C26.0876 229.284 24.7624 223.099 20.345 222.216C17.2528 222.216 15.0441 224.425 15.9276 228.401Z" fill="white"/>
<path fill-rule="evenodd" clip-rule="evenodd" d="M135.639 192.175C135.639 192.175 140.94 190.849 141.823 197.476C142.265 202.777 132.105 209.404 125.479 201.452C116.644 191.733 125.92 179.363 136.08 178.038C147.566 176.712 155.517 192.175 151.983 198.801C151.983 198.801 149.333 186.873 141.381 184.664C136.08 183.339 129.013 185.548 128.571 193.942C128.571 197.918 132.988 201.452 136.522 199.685C138.289 197.476 138.731 194.825 135.639 192.175Z" fill="white"/>
<path fill-rule="evenodd" clip-rule="evenodd" d="M65.4027 19.4384C65.4027 19.4384 60.9853 21.6473 59.6601 15.9041C58.3349 11.4863 65.8445 4.85959 72.4705 10.161C80.8636 16.7877 75.121 27.8322 67.1697 30.9247C57.0097 34.9007 49.9418 23.4144 51.2671 16.3459C51.2671 16.3459 55.2427 26.0651 61.8688 26.5069C66.7279 26.9486 72.0288 23.8562 71.1453 17.2295C70.7036 14.137 66.2862 11.4863 63.6358 13.6952C62.3105 15.4623 62.3105 18.113 65.4027 19.4384Z" fill="white"/>
<path fill-rule="evenodd" clip-rule="evenodd" d="M158.168 68.4761C157.726 70.685 155.959 72.0103 154.192 71.5685C152.425 71.5685 150.658 69.8014 151.1 67.5925C151.1 65.3836 153.309 64.0583 155.076 64.5001C156.843 64.5001 158.168 66.2672 158.168 68.4761Z" fill="white"/>
<path fill-rule="evenodd" clip-rule="evenodd" d="M85.2807 37.5514C85.2807 39.3185 83.5138 40.6439 81.7468 40.2021C79.9798 40.2021 78.6546 38.435 79.0964 36.6678C79.0964 34.9007 80.8633 33.5754 82.6303 34.0171C83.9555 34.0171 85.2807 35.7843 85.2807 37.5514Z" fill="white"/>
<path fill-rule="evenodd" clip-rule="evenodd" d="M16.811 12.8117C16.3693 14.5788 14.6023 16.3459 12.3936 15.9041C10.1849 15.9041 8.8597 14.137 9.30143 11.9281C9.74317 10.161 11.5101 8.39385 13.2771 8.83563C15.4858 8.83563 16.811 10.6028 16.811 12.8117Z" fill="white"/>
<path fill-rule="evenodd" clip-rule="evenodd" d="M151.1 134.301C150.658 136.51 148.891 138.277 146.682 137.836C144.473 137.836 142.706 135.627 143.148 133.418C143.148 131.209 145.357 129.442 147.566 129.884C149.774 130.325 151.1 132.092 151.1 134.301Z" fill="white"/>
<path fill-rule="evenodd" clip-rule="evenodd" d="M184.672 83.0548C184.23 85.2637 182.463 87.0308 180.254 86.5891C178.046 86.1473 176.279 84.3802 176.72 82.1712C176.72 79.9623 178.929 78.1952 181.138 78.637C182.905 79.0788 184.672 80.8459 184.672 83.0548Z" fill="white"/>
</g>
</svg>
