<svg width="148" height="91" viewBox="0 0 148 91" fill="none" xmlns="http://www.w3.org/2000/svg">
<g opacity="0.34">
<path fill-rule="evenodd" clip-rule="evenodd" d="M109.375 57.4307C109.375 57.4307 107.318 63.1354 111.527 63.7825C118.398 64.7796 116.892 54.2183 110.414 52.0123C103.84 49.467 94.7216 53.4959 94.255 60.9502C94.255 60.9502 103.108 50.7712 109.375 57.4307Z" fill="white"/>
<path fill-rule="evenodd" clip-rule="evenodd" d="M115.991 37.9948C115.991 37.9948 121.992 38.5042 121.526 34.2415C120.296 27.2642 110.933 31.7277 110.371 38.8428C109.809 45.9578 116.362 53.6353 123.582 51.971C123.148 51.727 110.923 46.0109 115.991 37.9948Z" fill="white"/>
<path fill-rule="evenodd" clip-rule="evenodd" d="M143.506 -0.866236C143.506 -0.866236 138.046 -3.35844 136.964 0.607268C135.628 7.5738 145.701 6.9382 149.02 0.512581C151.999 -5.81762 148.988 -15.2233 141.683 -16.4643C141.683 -16.4643 151.13 -6.30544 143.506 -0.866236Z" fill="white"/>
<path fill-rule="evenodd" clip-rule="evenodd" d="M146.103 61.7489C145.52 62.279 144.449 63.6787 144.449 63.6787C144.449 63.6787 136.825 57.4008 131.121 55.3433C129.478 54.707 128.12 55.0887 126.954 56.149C125.692 56.8699 125.056 58.5135 124.759 60.0616C124.759 60.0616 121.727 55.7881 128.227 52.8619C128.227 52.8619 121.61 48.8639 125.555 43.3609C128.916 38.3879 137.175 43.0223 133.676 46.2031C132.415 46.9241 131.545 46.4363 131.259 45.4183C130.973 44.4003 129.859 44.3473 128.937 44.9728C125.194 48.5884 142.296 57.3269 147.661 59.4798C147.418 59.9145 146.347 61.3142 146.103 61.7489Z" fill="white"/>
<path fill-rule="evenodd" clip-rule="evenodd" d="M105.441 13.4996C105.155 12.4817 104.434 11.2198 104.434 11.2198C104.434 11.2198 113.934 8.54825 118.695 4.6464C120.201 3.49069 120.593 2.28189 120.551 0.829184C120.508 -0.623522 119.353 -2.12931 118.632 -3.3912C118.632 -3.3912 123.763 -3.36966 122.767 3.50145C122.767 3.50145 129.605 0.479835 132.002 6.39683C134.302 11.9745 125.619 16.2472 125.396 11.5498C125.354 10.0971 126.276 9.47154 127.485 9.86395C128.259 10.0124 129.181 9.38689 129.234 8.27351C128.142 3.08824 111.835 12.8002 106.883 16.0234C106.449 15.7795 105.537 13.839 105.441 13.4996Z" fill="white"/>
<path fill-rule="evenodd" clip-rule="evenodd" d="M148.457 42.7789C148.594 44.5709 147.619 46.3099 145.827 46.4476C144.035 46.5853 142.296 45.6097 142.159 43.8177C142.021 42.0256 142.996 40.2867 144.788 40.1489C146.485 39.6719 148.319 40.9869 148.457 42.7789Z" fill="white"/>
<path fill-rule="evenodd" clip-rule="evenodd" d="M114.432 75.4148C114.76 77.8855 113.106 79.8152 111.071 80.3877C108.6 80.7163 106.67 79.062 106.098 77.026C105.769 74.5553 107.084 72.721 109.459 72.0531C111.495 71.4806 113.764 73.0395 114.432 75.4148Z" fill="white"/>
<path fill-rule="evenodd" clip-rule="evenodd" d="M131.651 32.4928C132.033 33.8501 130.866 34.9104 129.848 35.1966C128.491 35.5783 127.431 34.4118 127.145 33.3939C126.763 32.0366 127.929 30.9763 128.947 30.69C130.304 30.3084 131.704 31.3794 131.651 32.4928Z" fill="white"/>
<path fill-rule="evenodd" clip-rule="evenodd" d="M103.341 64.6198C103.723 65.9771 102.557 67.0374 101.539 67.3236C100.182 67.7053 99.1215 66.5388 98.8352 65.5208C98.4535 64.1635 99.6199 63.1032 100.638 62.817C101.995 62.4353 102.96 63.2625 103.341 64.6198Z" fill="white"/>
<path fill-rule="evenodd" clip-rule="evenodd" d="M79.2941 84.5636C79.6758 85.9209 78.5094 86.9812 77.4916 87.2674C76.1344 87.6491 75.0741 86.4826 74.7879 85.4646C74.4062 84.1074 75.5725 83.0471 76.5904 82.7608C77.9475 82.3792 79.2517 83.1109 79.2941 84.5636Z" fill="white"/>
<path fill-rule="evenodd" clip-rule="evenodd" d="M110.68 -0.422483C111.061 0.934813 109.747 2.76916 108.294 2.81148C106.937 3.19313 105.198 2.21749 105.06 0.425456C104.583 -1.27116 105.993 -2.7662 107.446 -2.80852C108.803 -3.19017 110.542 -2.21451 110.68 -0.422483Z" fill="white"/>
<path fill-rule="evenodd" clip-rule="evenodd" d="M129.032 68.7463C129.456 71.5563 127.897 73.8254 125.088 74.2494C122.278 74.6734 120.009 73.1145 119.585 70.3045C119.161 67.4945 120.72 65.2254 123.529 64.8014C126.339 64.3774 128.703 66.2756 129.032 68.7463Z" fill="white"/>
<path fill-rule="evenodd" clip-rule="evenodd" d="M59.743 59.3045C60.2201 61.0011 58.8099 62.4961 57.4527 62.8778C55.7562 63.3548 54.2613 61.9444 53.8796 60.5871C53.4025 58.8905 54.8127 57.3955 56.1698 57.0139C57.8663 56.5368 59.2658 57.6078 59.743 59.3045Z" fill="white"/>
<path fill-rule="evenodd" clip-rule="evenodd" d="M124.103 19.9689C124.336 22.1003 123.117 24.2739 120.985 24.5071C118.854 24.7402 116.681 23.5207 116.447 21.3893C116.214 19.258 117.433 17.0843 119.565 16.8511C121.6 16.2787 123.869 17.8375 124.103 19.9689Z" fill="white"/>
<path fill-rule="evenodd" clip-rule="evenodd" d="M89.1444 90.9479C88.4658 91.1388 85.5606 91.2234 85.5606 91.2234C85.5606 91.2234 90.0776 76.0392 85.7198 76.1662C81.7014 76.1978 83.7582 82.2102 83.7582 82.2102C83.7582 82.2102 79.0294 78.4138 81.3197 74.8405C84.8293 69.0935 91.1061 73.1869 90.4169 75.9438C90.4169 75.9438 94.075 69.4228 99.143 73.1238C102.716 75.4144 99.5035 79.6133 99.5035 79.6133C99.5035 79.6133 100.002 76.1777 96.9058 75.5837C94.9231 75.0428 93.3114 78.4253 92.1345 82.0517C91.0529 86.0174 92.198 90.0892 92.198 90.0892C92.198 90.0892 90.2576 91.001 89.1444 90.9479Z" fill="white"/>
<path fill-rule="evenodd" clip-rule="evenodd" d="M81.4574 64.9151C81.4574 64.9151 83.8324 64.2472 83.9172 67.1526C84.1504 69.2839 80.1213 71.8816 77.1314 69.0608C73.5159 65.3175 77.1209 59.9099 81.3832 59.4436C85.9849 58.8819 89.5897 65.1913 88.1265 67.7997C88.1265 67.7997 87.0345 62.6144 83.5992 62.1158C81.2772 61.6703 78.2236 62.529 78.0645 65.8692C78.1069 67.3219 80.0366 68.9762 81.6376 68.1598C82.8039 67.0995 82.8569 65.9861 81.4574 64.9151Z" fill="white"/>
<path fill-rule="evenodd" clip-rule="evenodd" d="M61.5663 74.9024C61.5663 74.9024 56.6784 74.4461 58.3961 68.8369C59.7215 64.4364 69.8473 62.6875 72.9114 70.9797C76.548 81.3079 65.3831 88.4753 57.0175 86.0678C47.4432 83.2678 46.2453 68.5922 51.3453 64.595C51.3453 64.595 49.1716 75.0925 54.7698 79.3767C58.5338 82.346 65.2136 82.6645 68.193 76.3343C69.5608 73.3865 67.2071 68.9223 63.6233 69.1977C61.2483 69.8656 60.0289 72.0393 61.5663 74.9024Z" fill="white"/>
<path fill-rule="evenodd" clip-rule="evenodd" d="M145.689 21.2216C145.689 21.2216 149.475 19.0587 151.585 23.9577C153.069 27.9342 146.697 35.2185 139.89 30.5419C131.005 24.985 135.458 13.4803 142.975 10.2679C151.511 6.76917 160.958 16.9281 159.675 22.7812C159.675 22.7812 155.062 14.192 148.478 14.2128C144.12 14.3397 139.169 17.5629 140.642 24.1055C141.501 27.1594 145.658 28.9199 147.99 26.7993C148.87 24.721 148.637 22.5897 145.689 21.2216Z" fill="white"/>
</g>
</svg>
