<svg width="140" height="48" viewBox="0 0 140 48" fill="none" xmlns="http://www.w3.org/2000/svg">
<mask id="mask0" mask-type="alpha" maskUnits="userSpaceOnUse" x="0" y="0" width="140" height="48">
<rect width="140" height="48" rx="24" fill="#FF6666"/>
</mask>
<g mask="url(#mask0)">
<g opacity="0.34">
<path fill-rule="evenodd" clip-rule="evenodd" d="M116.389 -5.71802C116.389 -5.71802 111.522 0.410608 116.548 2.6589C123.313 5.88284 127.522 -5.18714 119.708 -12.1436C112.954 -17.9337 99.9231 -16.1 96.4983 -7.44766C96.8376 -7.54307 111.448 -16.778 116.389 -5.71802Z" fill="white"/>
<path fill-rule="evenodd" clip-rule="evenodd" d="M151.506 37.1334C151.506 37.1334 146.045 34.6412 144.964 38.6069C143.628 45.5735 153.7 44.9379 157.019 38.5122C159.998 32.182 156.987 22.7764 149.682 21.5353C149.682 21.5353 159.129 31.6942 151.506 37.1334Z" fill="white"/>
<path fill-rule="evenodd" clip-rule="evenodd" d="M113.441 51.4992C113.155 50.4812 112.434 49.2193 112.434 49.2193C112.434 49.2193 121.934 46.5478 126.695 42.646C128.201 41.4903 128.593 40.2815 128.551 38.8288C128.508 37.3761 127.353 35.8703 126.632 34.6084C126.632 34.6084 131.763 34.6299 130.767 41.501C130.767 41.501 137.605 38.4794 140.002 44.3964C142.302 49.9741 133.619 54.2468 133.396 49.5494C133.354 48.0967 134.276 47.4711 135.485 47.8635C136.259 48.012 137.181 47.3865 137.234 46.2731C136.142 41.0878 119.835 50.7998 114.883 54.023C114.449 53.779 113.537 51.8385 113.441 51.4992Z" fill="white"/>
<path fill-rule="evenodd" clip-rule="evenodd" d="M80.8175 3.18689C81.1991 4.54418 79.8844 6.37853 78.4318 6.42086C77.0746 6.8025 75.3358 5.82686 75.1979 4.03482C74.7208 2.33821 76.131 0.843179 77.5836 0.800855C79.0362 0.758532 80.7751 1.73418 80.8175 3.18689Z" fill="white"/>
<path fill-rule="evenodd" clip-rule="evenodd" d="M118.68 37.5768C119.061 38.9341 117.747 40.7685 116.294 40.8108C114.937 41.1925 113.198 40.2168 113.06 38.4248C112.583 36.7282 113.993 35.2331 115.446 35.1908C116.803 34.8092 118.542 35.7848 118.68 37.5768Z" fill="white"/>
<path fill-rule="evenodd" clip-rule="evenodd" d="M109.731 23.9825C109.964 26.1138 108.649 27.9482 106.613 28.5206C104.482 28.7538 102.648 27.4388 102.075 25.4029C101.842 23.2715 103.157 21.4372 105.193 20.8647C107.228 20.2922 109.497 21.8511 109.731 23.9825Z" fill="white"/>
<path fill-rule="evenodd" clip-rule="evenodd" d="M38.5117 1.16934C35.7126 -0.972774 34.1328 -5.28857 36.8047 -7.50457C36.8047 -7.50457 38.9783 -6.285 41.1201 -9.08424C43.6012 -11.9789 42.647 -15.3721 39.5086 -17.4188C31.8322 -22.5833 20.4976 -9.50968 30.5171 2.68517C38.3207 12.2078 52.9526 9.55775 62.5695 2.09337C62.9087 1.99795 46.8136 7.25637 38.5117 1.16934Z" fill="white"/>
<path fill-rule="evenodd" clip-rule="evenodd" d="M126.642 20.3252C126.642 20.3252 132.208 20.5906 130.681 26.8785C129.547 31.9576 118.011 35.2016 113.887 25.7428C108.416 14.0997 120.8 4.75862 130.862 6.68911C142.037 8.6727 145.112 26.1159 139.863 30.8873C139.863 30.8873 141.125 18.4492 134.074 14.2073C129.197 11.185 121.595 11.492 118.997 19.1795C117.428 24.0147 121.043 27.758 125.21 26.9524C127.925 26.1891 128.953 23.3368 126.642 20.3252Z" fill="white"/>
<path fill-rule="evenodd" clip-rule="evenodd" d="M98.2272 7.81118C98.2272 7.81118 102.68 8.02353 101.546 13.1026C100.56 17.4076 91.0595 20.0792 87.7515 12.2217C83.6271 2.76292 93.244 -4.70146 101.323 -3.31188C110.611 -1.52988 113.071 12.4247 108.65 16.2311C108.65 16.2311 109.562 6.45462 104.059 2.50971C100.051 -0.0248143 93.9013 0.239889 91.9397 6.28386C90.7627 9.91024 93.5088 13.1657 96.9972 12.5509C99.2238 12.6571 100.008 10.2395 98.2272 7.81118Z" fill="white"/>
<path fill-rule="evenodd" clip-rule="evenodd" d="M145.495 -7.67793C145.495 -7.67793 141.996 -4.49705 138.868 -9.10984C136.366 -12.8001 141.487 -21.9295 149.704 -18.7479C160 -14.686 158.155 -1.71788 151.114 3.19118C142.812 8.82121 132.962 2.43719 130.916 -6.14131C130.916 -6.14131 137.659 2.2148 144.541 0.645887C149.386 -0.350554 153.521 -5.17497 151.03 -11.4313C149.736 -14.7291 144.658 -15.864 142.611 -12.7255C141.052 -10.4564 142.06 -8.17652 145.495 -7.67793Z" fill="white"/>
<path fill-rule="evenodd" clip-rule="evenodd" d="M81.91 -15.0622C81.91 -15.0622 77.3614 -15.6139 78.7399 -21.1277C80.0653 -25.5282 90.191 -27.2771 93.2551 -18.9849C96.8917 -8.65668 85.7269 -1.48929 77.3613 -3.89685C67.787 -6.69682 67.0662 -19.6758 71.6891 -25.3696C71.6891 -25.3696 69.5154 -14.8721 75.1136 -10.5879C78.8775 -7.61864 85.5573 -7.30011 88.5368 -13.6303C89.9046 -16.5781 87.5508 -21.0423 83.9671 -20.7669C81.592 -20.099 80.3727 -17.9253 81.91 -15.0622Z" fill="white"/>
<path fill-rule="evenodd" clip-rule="evenodd" d="M153.69 59.2211C153.69 59.2211 157.475 57.0582 159.585 61.9572C161.069 65.9337 154.697 73.218 147.89 68.5413C139.005 62.9844 143.458 51.4797 150.976 48.2673C159.511 44.7686 168.958 54.9275 167.675 60.7807C167.675 60.7807 163.063 52.1914 156.479 52.2122C152.121 52.3392 147.169 55.5624 148.643 62.105C149.502 65.1589 153.658 66.9193 155.991 64.7987C156.871 62.7205 156.638 60.5891 153.69 59.2211Z" fill="white"/>
</g>
</g>
</svg>
