<svg width="15" height="15" viewBox="0 0 15 15" fill="none" xmlns="http://www.w3.org/2000/svg">
<path d="M14.7344 12.9799C14.2349 14.3873 12.4368 15.0911 11.1382 14.9906C9.34012 14.7895 7.44213 13.8847 5.94372 12.8793C3.84593 11.3713 1.74815 8.95847 0.649313 6.4451C-0.149842 4.63548 -0.34963 2.52425 0.849102 0.915696C1.34857 0.312488 1.74815 0.0108841 2.54731 0.0108841C3.54625 -0.0896506 3.74604 0.513557 4.04572 1.5189C4.34541 2.22265 4.64509 2.92639 4.84488 3.63013C5.24445 4.93708 3.94583 5.03762 3.74604 6.1435C3.64614 6.84724 4.4453 7.75205 4.84488 8.25473C5.54414 9.26007 6.44319 10.0644 7.44213 10.6676C8.0415 11.0697 8.94055 11.6729 9.53991 11.2708C10.5389 10.7681 10.439 9.059 11.8375 9.56168C12.5367 9.86328 13.236 10.2654 13.9353 10.6676C15.2339 11.1702 15.134 11.7734 14.7344 12.9799C15.0341 12.075 14.4347 13.8847 14.7344 12.9799Z" fill="white"/>
</svg>
