<svg width="200" height="224" viewBox="0 0 200 224" fill="none" xmlns="http://www.w3.org/2000/svg">
<g clip-path="url(#clip0)">
<path d="M198.292 142.163C197.751 141.619 197.21 141.346 196.669 141.073C196.945 139.174 197.493 136.733 197.498 134.562C197.781 129.949 197.515 127.777 197.249 125.605L197.251 125.062C196.987 122.347 196.724 119.09 194.017 117.998C193.475 117.725 192.933 117.724 192.12 117.993C192.121 117.45 192.393 116.908 192.395 116.094C192.673 113.381 193.226 109.04 189.163 108.487C189.163 108.487 188.892 108.486 188.621 108.485C188.35 108.485 187.537 108.483 186.723 108.752C186.728 106.581 187.006 104.139 187.008 103.053C187.285 100.883 187.564 97.3553 184.044 96.5323C183.502 96.2596 182.689 96.5289 181.876 96.5269C182.153 94.085 182.43 91.6431 182.43 91.6431C182.704 90.2868 182.71 88.1157 181.629 86.756C181.36 86.2125 180.547 85.9391 179.464 85.665C179.738 84.5801 179.74 83.7659 179.742 82.9517L179.743 82.4089C180.02 80.2384 180.024 78.61 178.671 77.5211C178.131 76.9769 177.319 76.7035 176.506 76.7015C177.05 75.6172 177.596 74.2616 177.598 73.176C177.873 71.5483 177.333 70.7328 176.793 70.1886C176.523 69.6452 175.982 69.3724 175.44 69.3711C176.258 67.4733 176.805 65.3035 176.81 63.4037C176.819 59.8756 174.926 58.2425 173.301 57.6956C173.576 56.0679 173.309 54.4389 171.957 53.3499C171.146 52.8051 170.333 52.8031 169.249 52.8004C169.252 51.4434 169.256 49.815 168.176 48.4553C167.636 47.6398 166.553 47.0943 164.927 47.0902C161.675 47.0821 158.145 50.0587 155.151 55.4791C153.523 56.2893 151.621 58.1843 151.077 58.9972C148.63 62.2478 146.724 66.0426 145.628 70.6537C143.733 70.1061 142.646 71.189 142.103 71.7305C138.031 74.7057 136.123 79.0433 134.472 89.0809C132.844 89.891 131.485 91.516 130.938 93.4144C130.665 94.2279 128.479 101.55 131.438 110.242C130.896 110.512 130.624 110.783 130.352 111.054C129.809 111.595 129.537 112.137 129.535 112.952C127.911 112.133 125.746 111.042 124.121 110.495C123.85 110.495 123.309 110.222 123.038 110.221C123.585 108.052 121.966 105.334 118.721 102.611C116.287 100.706 112.225 99.6099 107.349 99.0549C107.351 98.2407 107.081 97.6972 107.082 97.4258C106.003 95.252 103.3 92.5312 96.7965 92.515L95.9835 92.513C93.8156 92.5076 91.3761 92.7729 89.2069 93.3103C88.6663 92.7661 87.8547 92.2213 86.7721 91.6758C88.669 91.6805 90.2956 91.4132 90.8375 91.4145C98.4264 90.8907 103.576 90.3607 108.187 89.0153C114.152 87.4018 119.038 84.1572 121.216 80.0917C123.667 75.2126 125.034 70.6023 125.047 65.1743C125.057 61.1034 123.446 55.1286 120.203 51.8638C118.04 49.6872 115.065 47.5086 109.103 47.4937C109.649 45.8667 110.196 43.9682 110.473 41.5264C110.75 39.0845 110.221 33.9266 109.143 31.4813C109.694 27.9545 108.889 24.6957 107.539 22.7926C107.817 20.0793 107.282 17.0926 106.202 15.4615C106.478 13.5624 106.214 10.5764 104.593 8.67255C104.326 7.04349 102.985 1.61219 98.11 0.514431C96.4848 0.238977 93.7743 0.50361 91.0543 4.56779C90.5096 5.65202 89.694 6.73558 89.1493 7.81981C88.3323 9.44616 87.2436 11.3432 85.8839 13.2396C84.2519 15.6781 82.0786 17.8439 79.9047 20.281L79.0897 21.0932C73.3841 27.0497 71.7454 32.2022 69.8363 37.0826L69.8356 37.354C69.0166 39.7945 67.9198 44.9483 67.6427 47.3902L65.4748 47.3848C65.4796 45.485 64.9464 41.9555 63.332 37.3377C61.7169 32.9913 59.5619 27.8294 53.3476 20.4862C52.2671 19.1265 51.1858 18.0382 50.1039 17.2213C48.7524 15.8609 47.6712 14.7726 46.5913 13.1415C46.0514 12.326 45.7831 11.2397 45.2438 10.1528C44.4363 7.97961 43.3578 5.80574 41.7366 3.90191C38.4923 0.908433 35.7838 0.358878 34.6999 0.356172C34.1579 0.35482 33.6159 0.353467 33.0733 0.623511C29.0045 2.24174 27.9077 7.39556 27.9036 9.02394C26.273 10.9197 25.9952 13.6329 26.2614 15.5334C25.1734 17.1591 24.353 20.1424 24.8882 22.8577C23.7996 24.7548 22.7082 27.7374 23.2407 31.5383C21.6066 34.791 21.3296 37.2329 21.3187 41.5752C21.3133 43.7464 21.5789 45.9183 22.3857 48.3628C21.5728 48.3608 20.4882 48.6295 19.4035 48.8982C16.9633 49.4349 14.7934 50.2437 12.0795 51.8653C7.46536 54.8392 4.74062 60.8031 4.17698 69.4864C4.17427 70.572 4.17156 71.6576 4.71082 72.7445C1.1711 79.5206 0.34054 86.5749 2.21981 93.636C2.48944 94.1794 2.48809 94.7222 2.75839 94.9943C1.39399 98.7904 0.570882 102.859 0.289061 107.201C0.28432 109.101 0.822223 110.731 1.90209 112.362C0.534306 117.515 -0.0191765 122.127 0.513308 125.928C0.780905 127.286 1.04918 128.372 1.85942 129.46C0.221326 134.341 -0.332833 139.224 0.465893 144.926C0.732813 146.555 1.27139 147.913 2.35194 149.273C-0.923569 158.764 0.686076 165.281 0.953673 166.639C1.22127 167.996 2.03083 169.355 3.11274 170.172C2.29098 173.698 1.46719 178.039 2.54029 182.384C2.80856 183.47 3.34782 184.557 3.88776 185.373C2.51794 191.34 3.31598 197.313 6.28326 202.748C7.63208 205.194 10.0675 206.557 12.7774 206.564C14.9344 210.912 18.4497 213.906 18.9904 214.45C20.0716 215.538 21.4251 216.084 22.7801 216.088C24.4012 217.992 26.838 218.812 29.2776 218.546C29.8195 218.548 31.4461 218.28 33.3444 217.742C34.1553 218.559 35.2372 219.376 36.3198 219.921C36.8611 220.194 38.7566 220.741 41.7374 220.749C43.6343 220.753 46.3448 220.489 49.5993 219.411C50.6785 221.314 52.5727 222.404 54.7399 222.681C55.0109 222.682 55.5528 222.683 56.6368 222.686C58.5336 222.69 62.5991 222.429 67.7532 220.271C69.1047 221.631 70.9996 222.45 72.8964 222.455L73.4384 222.456C73.7094 222.457 79.6717 222.2 86.4531 219.503C88.3439 221.951 91.593 223.044 94.5765 221.966C96.2038 221.427 104.34 218.734 108.683 216.031C110.577 217.121 112.745 217.126 114.643 216.588C116.27 216.05 130.645 210.929 136.903 200.903C137.991 199.277 138.809 197.108 139.627 195.21L139.898 195.211C143.419 196.034 148.023 197.131 151.545 197.14L152.629 197.143C166.991 197.178 175.674 192.586 177.575 190.963C180.02 188.798 180.835 187.714 181.381 186.087C185.991 184.741 188.707 182.577 190.341 179.324C190.885 178.24 190.889 176.883 190.35 175.525C190.081 174.981 190.081 174.71 189.811 174.438C193.069 172.003 195.515 169.024 196.334 166.584C197.152 164.686 197.157 162.515 196.348 161.156C196.078 160.612 195.537 160.068 194.996 159.795C198.804 154.105 199.904 147.866 199.904 147.866C199.636 146.508 199.914 143.795 198.292 142.163Z" fill="#010101"/>
<path fill-rule="evenodd" clip-rule="evenodd" d="M165.736 48.721C163.026 48.7142 159.766 51.6914 156.773 56.8405C155.688 57.1092 153.516 59.0036 152.701 59.8157C149.982 63.3371 148.346 67.404 146.706 73.0993C145.356 71.1961 143.998 72.2783 143.184 72.8191C139.654 75.5243 137.747 79.5905 136.095 90.1709C134.467 90.7096 133.109 92.0632 132.562 93.9616C132.29 94.5037 130.102 102.64 133.873 111.606C132.249 110.787 130.622 111.598 131.155 115.127C129.261 114.037 126.013 112.4 124.117 111.853C123.305 111.579 121.68 111.033 121.138 111.031C121.41 110.76 121.682 110.49 121.682 110.218C122.501 108.049 120.61 105.602 118.176 103.696C115.742 101.79 110.868 100.421 105.448 100.407C106.533 99.8674 106.266 98.5097 105.996 97.9663C105.457 96.8793 103.567 94.1606 96.7926 93.8723C94.6248 93.8669 91.6433 94.1309 88.6611 94.6662C88.6611 94.6662 87.8522 93.0358 83.5198 91.668C79.1868 90.5716 77.0162 91.6518 77.2913 90.0241C81.0844 90.305 87.8603 89.7791 90.5708 89.5145C98.9727 88.9926 103.852 88.1906 107.648 87.3859C112.8 86.0417 117.685 83.0686 119.863 79.2744C122.314 74.3954 123.409 70.0558 123.421 64.8992C123.432 60.8283 121.819 55.3963 118.845 52.6749C116.142 50.2256 113.165 48.3184 106.66 48.8449C107.478 46.9472 108.298 44.2352 108.577 40.9792C108.854 38.5373 108.326 32.8366 107.246 31.2055C108.069 27.408 106.722 24.1479 105.642 22.7882C106.191 19.8042 105.115 16.5447 104.305 15.4571C104.582 13.0152 104.318 10.3006 102.966 8.94022C102.966 8.94022 102.441 2.42536 97.5649 1.599C96.2106 1.32422 94.3124 1.86228 92.1364 5.11362C90.7761 7.28141 89.1427 10.2627 86.9654 14.0568C85.0617 16.7661 82.6161 19.474 79.8995 22.1811C74.4649 28.1383 72.5558 33.0187 70.9171 38.1712C69.825 41.4252 68.7214 49.293 68.7214 49.293L64.1147 49.2815C64.1147 49.2815 64.3958 45.2113 61.9746 38.1489C60.6298 34.0746 58.4748 28.9126 52.2598 21.8408C49.5581 18.5772 47.393 17.4863 45.5042 14.2248C44.1561 11.5074 43.0816 7.70517 40.6482 5.52792C37.4052 1.99165 34.696 1.71349 33.6107 2.25358C29.5419 3.87181 29.256 9.84185 29.256 9.84185C27.6274 10.9234 27.3497 13.6367 27.8855 16.0806C26.7989 17.1635 25.7068 20.4175 26.2413 23.4042C25.154 24.7585 24.0619 28.0125 24.5944 31.8134C22.9604 35.0661 22.413 37.236 22.6732 41.579C22.6671 44.0215 23.2023 46.7368 24.0078 49.7242C22.9238 49.7215 21.0263 49.9882 19.3997 50.2555C16.9595 50.7922 14.5179 51.8717 12.6176 53.224C8.81778 55.6571 5.82477 60.5348 5.26045 69.4895C5.25774 70.5751 5.52601 71.6613 6.06527 72.7483C3.34256 77.898 1.15709 84.9489 3.30463 93.0962C3.57426 93.6397 3.84389 94.1832 4.11352 94.7266C3.02078 98.2521 1.92669 102.32 1.64351 107.205C1.63945 108.833 2.17667 110.734 3.2579 111.823C1.89146 116.433 1.06632 121.316 1.59745 125.66C1.86505 127.017 2.4043 128.104 3.21455 129.192C1.57577 134.344 1.02162 139.228 1.54936 144.929C2.08726 146.559 2.89683 147.918 3.97873 148.734C0.431556 158.496 2.04052 165.285 2.30948 166.1C2.84806 167.458 3.65762 168.817 4.7402 169.363C3.64611 173.431 3.09262 178.043 3.89609 181.845C4.16437 182.931 4.70362 184.018 5.51454 184.834C4.41909 189.445 4.13321 195.415 7.63974 201.938C8.71893 203.84 10.6131 204.93 12.781 204.936C13.052 204.936 13.3229 204.937 13.5939 204.938C15.7503 209.557 19.5359 212.823 19.8056 213.367C20.8875 214.184 22.241 214.73 23.5959 214.733C23.5953 215.004 23.8662 215.005 23.8656 215.277C24.9461 216.636 26.57 217.454 28.1959 217.459C28.4669 217.459 28.7378 217.46 29.0088 217.461C29.5508 217.462 31.4484 217.195 33.8892 216.387C34.6995 217.475 35.5104 218.291 36.864 218.837C37.4053 219.11 39.0298 219.657 41.7396 219.664C43.9075 219.669 46.889 219.405 50.1449 217.785C50.9531 219.687 52.5749 221.319 54.7421 221.596C55.0131 221.596 55.5551 221.598 56.368 221.6C58.2649 221.605 62.6013 221.344 68.0271 218.915C69.107 220.546 71.0018 221.365 72.8987 221.37L73.1697 221.37C73.4407 221.371 79.9456 220.844 86.7277 217.876C86.727 218.147 86.9973 218.419 86.9973 218.419C88.0772 220.051 89.972 220.869 91.8689 220.874C92.4109 220.876 93.2238 220.878 93.7665 220.608C95.3937 220.069 104.344 217.106 108.144 214.401C108.144 214.401 108.144 214.401 108.415 214.402C109.497 215.219 110.58 215.493 111.935 215.496C112.477 215.498 113.29 215.5 113.833 215.23C115.46 214.691 129.292 209.84 135.278 200.085C136.638 198.189 137.73 194.934 138.276 193.307C142.068 194.131 146.942 195.5 151.007 195.51C166.181 195.82 174.595 190.684 175.952 189.602C178.668 187.438 178.941 186.353 179.487 184.726C185.724 183.113 187.357 180.131 188.174 178.505C188.991 176.879 188.184 174.706 186.559 174.159C190.36 171.454 193.078 168.204 194.168 165.764C194.986 163.595 194.994 160.61 191.472 160.33C195.821 154.913 197.194 147.588 197.466 147.318C197.743 144.876 197.481 141.347 194.498 142.154C194.774 140.255 195.596 136.457 195.602 134.014C195.884 129.673 195.618 127.501 195.353 125.329C195.088 122.886 194.824 119.9 192.929 119.081C191.576 118.535 189.673 120.973 189.673 120.973C189.949 118.802 190.224 117.446 190.499 115.547C190.78 111.748 190.514 109.847 188.617 109.571C187.804 109.569 185.364 110.106 185.093 110.377C184.828 107.662 185.383 102.507 185.383 102.507C185.66 100.336 185.665 98.1651 183.499 97.3455C182.687 97.0721 181.06 97.6108 180.245 98.423C180.524 95.1669 181.077 90.8259 181.077 90.8259C181.352 88.9268 181.36 85.9415 177.836 86.4755C178.108 85.9334 178.384 83.7629 178.659 82.1352C178.937 79.6933 178.939 78.6077 178.128 77.7915C177.588 77.2473 176.233 77.2439 174.063 78.0527C174.335 77.5106 176.51 74.802 176.788 72.0888C177.064 69.9183 175.44 69.3714 173.812 69.9102C174.631 67.741 175.993 64.759 175.727 62.5872C175.469 57.43 171.944 58.2354 171.944 58.2354C172.22 56.3363 172.496 54.4372 171.413 53.8917C170.331 53.0748 168.975 53.8856 167.889 54.4257C167.887 55.2399 169.8 48.7311 165.736 48.721Z" fill="black"/>
<path fill-rule="evenodd" clip-rule="evenodd" d="M183.333 163.838C193.1 159.248 194.487 146.496 194.487 146.496C188.24 152.18 184.985 153.529 185.528 152.987C186.888 151.091 190.963 147.03 191.798 138.076C192.355 132.107 192.102 125.05 192.102 125.05C188.837 130.198 185.031 135.074 186.129 129.377C187.228 123.409 188.063 114.455 188.063 114.455C185.081 115.262 182.902 119.599 182.902 119.599C180.744 115.522 182.945 102.501 182.945 102.501C179.416 104.663 177.78 109.002 177.78 109.002C176.177 99.77 178.369 90.0051 178.369 90.0051C178.369 90.0051 176.468 91.6288 174.291 95.4229C173.202 97.32 172.109 100.845 172.109 100.845C172.109 100.845 170.756 100.299 173.212 93.249C174.85 88.368 175.67 85.656 176.493 81.5871C176.493 81.5871 173.781 82.3945 170.791 86.1867C169.976 86.9988 168.616 89.1666 168.072 89.9794C168.072 89.708 168.073 89.4366 167.803 88.8932C168.904 82.111 170.262 80.7574 172.447 73.9779C172.447 73.9779 168.921 75.3261 167.019 77.2211C168.38 74.7819 171.102 70.175 171.388 64.2049L165.953 70.1621C165.964 65.8198 167.877 59.311 167.877 59.311C166.52 60.1218 164.888 62.5603 162.709 66.8972C162.722 61.7407 163.546 57.4004 164.097 53.8736C164.097 53.8736 158.945 55.2177 157.014 68.7828C157.014 68.7828 155.668 65.2513 156.765 60.0975C156.765 60.0975 148.616 67.9477 146.937 89.1125C146.937 89.1125 146.419 79.6123 145.346 75.2672C145.346 75.2672 141.817 77.4296 140.702 89.9111C140.426 92.0816 140.956 96.9681 141.221 99.14C139.329 97.2354 138.247 96.4186 137.171 93.1591C137.171 93.1591 133.346 105.905 144.702 115.975C144.702 115.975 143.073 117.328 136.307 113.783C136.307 113.783 136.838 118.127 140.622 122.207C143.054 124.927 144.138 124.93 145.489 126.29C149.544 130.1 139.527 126.547 139.527 126.547C139.527 126.547 139.785 131.704 143.835 137.685C147.885 143.394 149.237 144.755 147.608 146.108C146.25 147.19 143.548 143.926 141.386 141.75C141.386 141.75 143.266 148.268 143.523 153.968C143.521 154.782 143.519 155.596 143.517 156.411C143.515 157.225 143.513 158.039 143.24 158.853C142.966 160.209 141.878 161.563 140.523 161.56C138.355 161.826 138.634 158.57 138.634 158.57C138.93 148.529 136.79 137.396 130.039 127.88C128.959 126.249 128.419 125.705 126.257 123.257C127.614 122.446 133.03 123.817 133.03 123.817C132.493 121.644 128.169 117.02 123.294 115.922C117.607 114.551 116.253 114.005 114.63 112.915C110.032 109.375 118.706 108.583 118.706 108.583C116.004 105.319 110.861 103.135 104.897 103.934C100.289 104.466 97.0447 101.472 101.656 99.8554C101.656 99.8554 98.4132 96.0477 90.2769 98.7414C86.2088 100.088 78.0786 100.339 85.4033 97.1009C85.4033 97.1009 78.0969 93.0116 69.1449 96.7889C63.4482 99.2172 61.556 97.3127 63.7266 96.2326C68.3401 93.5301 74.0342 92.1873 74.0342 92.1873C74.0342 92.1873 43.1414 92.3816 40.187 81.7897C40.187 81.7897 43.436 82.8834 48.0407 83.7091C49.9363 84.2566 52.1028 84.8048 54.8119 85.083C58.8753 85.6359 60.2296 85.9107 62.9394 85.9175C65.6486 86.1956 68.3584 86.2024 71.0689 85.9378C78.1145 85.9554 85.9737 85.7036 93.5633 84.9083C101.423 84.3851 105.762 83.3104 108.474 82.2316C114.442 79.8039 115.533 76.8212 116.894 74.382C118.8 70.8586 118.808 67.6019 118.819 63.2595C118.826 60.2742 117.209 56.742 116.129 55.1109C113.428 51.576 105.569 52.0991 101.232 52.3597C102.593 49.9205 104.502 45.3115 104.514 40.4264C103.424 42.8663 100.441 43.673 100.17 43.6723C101.802 41.2338 105.614 33.9156 102.925 25.4956C102.105 28.4789 100.472 31.1888 98.3027 31.7262C101.026 26.305 102.126 19.7942 100.242 14.633C99.6949 16.8028 97.5203 19.5113 95.622 20.0494C99.4354 12.1884 98.632 8.38678 96.4695 6.2102C92.6724 7.55772 92.1128 14.6127 89.9382 17.3212C83.9575 24.9054 74.4657 27.8671 72.5071 52.5594L58.416 52.5243C56.5814 27.5511 47.9167 24.8155 41.7031 17.2008C39.542 14.4815 38.4763 7.15106 34.9563 6.05668C32.783 8.22244 31.9605 12.02 35.7347 19.8999C33.8391 19.3524 31.678 16.633 31.1415 14.4605C29.2317 19.6123 30.2994 26.1285 32.9957 31.5632C31.1002 31.0157 29.2101 28.297 28.4046 25.3096C25.6737 33.7161 29.4485 41.3247 31.069 43.4999C30.798 43.4992 27.8192 42.6776 27.0117 40.5044C26.9961 46.7465 28.8835 50.5508 30.233 52.7253L24.8113 53.526C16.9508 54.3206 9.08277 58.1005 9.32598 69.2284C9.32598 69.2284 18.8253 63.2814 16.6507 65.9899C13.932 69.5113 4.69555 78.7158 7.10257 91.4775C7.10257 91.4775 10.3679 86.0577 11.4559 84.432C14.1759 80.3678 15.2592 80.6419 15.2592 80.6419C14.4286 87.6962 7.36475 95.0063 6.24762 108.302C6.24762 108.302 14.409 95.5667 15.7632 95.8415C17.6594 96.1176 16.0294 97.7419 14.1258 100.451C11.6781 103.973 5.13998 117.798 6.20427 125.671C6.20427 125.671 12.1896 116.187 15.7124 116.196C17.3383 116.2 15.4367 118.095 12.1707 123.786C8.63229 130.02 5.36355 136.797 6.15686 144.669C6.15686 144.669 13.2241 136.002 15.9306 137.366C16.4718 137.638 14.2952 141.161 12.3902 144.413C4.22814 157.42 6.64735 165.297 6.64735 165.297C6.64735 165.297 13.718 155.272 16.4251 156.365C17.5077 156.91 15.8757 159.349 13.6997 162.6C10.1627 168.291 7.1629 175.882 8.23261 181.584C8.23261 181.584 14.7633 170.745 16.923 174.007C17.1927 174.55 15.5627 176.175 13.928 179.699C12.2947 182.68 7.39392 191.895 12.2513 200.049C12.2513 200.049 14.1753 189.198 18.782 189.21C18.782 189.21 16.5986 195.447 18.4799 201.693C19.8239 206.039 23.8799 209.577 23.8799 209.577C23.8799 209.577 23.3616 200.077 26.8851 199.815C31.2215 199.554 30.9383 204.438 28.7535 211.218C28.7535 211.218 33.3616 210.687 36.3478 208.523C39.3334 206.631 40.1518 204.461 41.7777 204.466C43.9455 204.471 44.4773 208.543 39.5895 212.602C39.5895 212.602 44.4631 214.243 51.2472 210.46C54.2328 208.568 56.95 205.589 59.1186 205.323C61.2871 205.057 65.6134 208.867 56.9263 215.088C56.9263 215.088 65.0531 216.194 76.7285 206.995C78.6206 208.9 78.3428 211.613 74.27 214.86C74.27 214.86 82.6718 214.338 89.9999 209.742C93.5281 207.58 95.702 205.143 97.0515 207.317C98.1301 209.491 94.0524 214.638 94.0524 214.638C94.0524 214.638 103.545 211.405 106.802 209.242C114.947 203.291 114.951 201.663 116.305 201.938C119.285 202.216 114.117 210.074 114.117 210.074C114.117 210.074 124.149 207.928 132.305 197.092C136.383 191.675 136.661 188.961 137.749 187.607C158.32 196.886 176.507 184.718 176.507 184.718C171.631 183.892 170.82 183.076 170.823 181.99C170.824 181.447 171.366 181.449 171.366 181.449C183.558 182.565 185.466 177.956 185.466 177.956C179.233 177.94 177.615 174.951 177.617 174.137C177.618 173.594 177.618 173.594 178.431 173.596C188.731 172.807 192.545 164.404 192.545 164.404C186.307 166.559 183.333 163.838 183.333 163.838Z" fill="#E96025"/>
<path fill-rule="evenodd" clip-rule="evenodd" d="M94.4041 73.783C93.3079 78.6655 88.4221 81.91 83.5471 80.8123C78.6721 79.7145 75.4325 74.8213 76.5286 69.9389C77.6248 65.0564 82.5106 61.8119 87.3856 62.9096C92.5315 64.008 95.5002 68.9006 94.4041 73.783Z" fill="white"/>
<path fill-rule="evenodd" clip-rule="evenodd" d="M89.2566 73.2272C88.7092 75.397 86.5379 76.7486 84.6424 76.201C82.4759 75.6528 81.1264 73.4783 81.6738 71.3085C82.2212 69.1387 84.3924 67.7871 86.2879 68.3346C88.1835 68.8821 89.533 71.0567 89.2566 73.2272Z" fill="black"/>
<path fill-rule="evenodd" clip-rule="evenodd" d="M101.193 68.1008C101.193 68.1008 97.3991 68.0914 94.4216 66.7269C94.1534 65.6407 93.3438 64.2817 92.2619 63.4648C93.3486 62.3819 95.5218 60.2161 95.2576 57.5015C95.2576 57.5015 93.6236 60.7542 91.18 62.6479C90.6387 62.3751 90.3684 62.1031 89.5561 61.8296C88.4729 61.5555 87.3896 61.2814 86.3064 61.0073C84.9596 57.7472 84.9691 53.9477 84.9691 53.9477C83.8783 56.6589 84.4129 59.6456 84.9514 61.004C83.0539 61.2706 81.4266 61.8094 80.3407 62.6208C77.6349 60.9857 75.7461 57.7242 75.7461 57.7242C75.7394 60.4382 78.1728 62.6154 79.254 63.7037C78.439 64.5159 77.895 65.3287 77.622 66.1422C74.6378 67.4918 70.3021 67.4809 70.3021 67.4809C73.2795 68.8454 75.9914 68.0379 76.805 67.7686C76.532 68.5821 76.259 69.3956 76.5286 69.9391C76.5286 69.9391 79.2554 63.1609 86.8409 63.994C93.6134 64.8251 94.6764 73.2411 94.6764 73.2411C94.6764 73.2411 95.2244 70.7999 94.6892 68.0846C96.0428 68.6308 98.4796 69.4511 101.193 68.1008Z" fill="black"/>
<path fill-rule="evenodd" clip-rule="evenodd" d="M60.5324 73.1562C59.9783 78.04 55.3627 81.5566 50.4864 81.0016C45.61 80.4467 42.0988 75.8242 42.6529 70.9404C43.2071 66.0566 47.8226 62.54 52.699 63.0949C57.5753 63.6499 61.0866 68.2724 60.5324 73.1562Z" fill="white"/>
<path fill-rule="evenodd" clip-rule="evenodd" d="M55.9265 72.8731C55.6501 75.0435 53.7491 76.6672 51.5819 76.3904C49.4147 76.1136 47.7936 74.2098 48.07 72.0393C48.3464 69.8688 50.2473 68.2451 52.4145 68.5219C54.5824 68.5273 56.2029 70.7026 55.9265 72.8731Z" fill="black"/>
<path fill-rule="evenodd" clip-rule="evenodd" d="M66.7806 66.9299C66.7806 66.9299 62.9862 67.1918 60.008 66.0988C59.4688 65.0118 58.6585 63.9242 57.5766 63.1073C58.6633 62.0245 60.5663 59.5866 60.0311 56.8713C60.0311 56.8713 58.939 60.1254 56.4947 62.2904C55.9535 62.0177 55.4122 61.7449 54.8702 61.7436C53.7869 61.4695 52.4327 61.1947 51.6191 61.4641C50.0006 58.4747 49.7391 54.6744 49.7391 54.6744C48.9194 57.3864 49.7249 60.3738 50.2635 61.7321C48.3659 61.9988 47.009 62.8096 45.6513 63.8918C42.6739 62.5273 40.7851 59.2659 40.7851 59.2659C41.0494 61.9805 43.4835 63.8864 44.8357 64.9753C44.2917 65.7882 43.7477 66.601 43.2037 67.4138C40.2188 69.0348 36.1534 69.296 36.1534 69.296C39.1315 70.389 41.8433 69.5816 42.6576 69.0409C42.3846 69.8544 42.3826 70.6686 42.3812 71.2114C42.3812 71.2114 44.5667 64.1605 52.1536 64.4508C58.9275 64.7391 60.8041 72.8857 60.8041 72.8857C60.8041 72.8857 61.0811 70.4438 60.275 67.7278C61.6292 68.0026 64.0667 68.5515 66.7806 66.9299Z" fill="black"/>
<path fill-rule="evenodd" clip-rule="evenodd" d="M22.1602 138.467L20.8574 117.566C20.8574 117.566 30.8649 125.191 38.4477 127.109C43.0517 128.206 46.0318 128.485 50.6378 128.768C54.4309 129.049 55.7872 128.51 61.738 132.867C67.1482 136.68 63.0713 141.555 59.8215 140.732C56.8427 139.911 54.6802 137.734 52.5144 136.915C52.5144 136.915 59.2755 142.359 59.541 144.531C60.0735 148.332 57.0893 149.682 51.946 147.498C49.7802 146.678 47.3461 144.772 47.3461 144.772C47.3461 144.772 52.7597 147.228 53.2942 150.215C53.826 154.287 49.4848 156.448 45.4268 153.724C41.6398 151 37.5798 149.09 34.0652 145.825C30.2809 142.016 22.1602 138.467 22.1602 138.467Z" fill="#E96025"/>
<path fill-rule="evenodd" clip-rule="evenodd" d="M92.5597 52.61C92.5597 52.61 95.3122 35.5188 90.4412 32.7926C86.9232 30.8841 83.1186 35.2169 80.9324 42.5392C79.8397 46.0647 79.2862 50.677 79.0105 52.5761L92.5597 52.61Z" fill="black"/>
<path fill-rule="evenodd" clip-rule="evenodd" d="M39.7182 52.4774C39.7182 52.4774 37.051 35.3727 41.9355 32.6709C45.463 30.7799 49.2459 35.1317 51.3955 42.4649C52.4706 45.9957 53.0011 50.6108 53.2673 52.5112L39.7182 52.4774Z" fill="black"/>
</g>
<defs>
<clipPath id="clip0">
<rect x="0.556152" width="199.445" height="222.817" transform="rotate(0.142998 0.556152 0)" fill="white"/>
</clipPath>
</defs>
</svg>
