<svg width="12" height="19" viewBox="0 0 12 19" fill="none" xmlns="http://www.w3.org/2000/svg">
<path d="M7.3 12.25C7.3 9.925 11.7 8 11.7 4.525C11.7 1.35 8.875 0.149999 5.725 0.149999C3.85 0.149999 2.175 0.675 0.875 1.375V4.675C2 4.025 3.55 3.45 5.1 3.45C6.75 3.45 7.95 3.925 7.95 5.325C7.95 7.25 4 9.075 4 12.25H7.3ZM7.775 16.275C7.775 14.875 6.8 14.225 5.675 14.225C4.55 14.225 3.55 14.875 3.55 16.275C3.55 17.675 4.55 18.325 5.675 18.325C6.8 18.325 7.775 17.675 7.775 16.275Z" fill="#4C85F7"/>
</svg>
