<svg width="262" height="275" viewBox="0 0 262 275" fill="none" xmlns="http://www.w3.org/2000/svg">
<path d="M69.5299 227.1C69.4903 233.63 71.6433 237.566 75.8576 238.789C79.842 239.946 83.5589 238.016 86.7853 236.441L87.8101 235.772C90.9818 234.134 94.2685 232.727 97.6446 231.561C98.5274 232.515 99.598 233.276 100.789 233.798C102.509 234.484 104.305 234.959 106.139 235.213C107.058 235.48 108.121 235.54 109.38 235.877C110.397 236.2 111.398 236.573 112.378 236.996L114.362 237.793L115.665 238.171C118.201 238.994 120.956 238.804 123.351 237.641C125.047 239.266 126.611 241.021 128.03 242.891C128.902 244.187 129.663 245.552 130.307 246.974C130.684 247.773 131.069 248.547 131.468 249.27C132.165 250.781 133.163 252.134 134.402 253.248C135.64 254.362 137.093 255.213 138.671 255.749C140.024 256.122 141.439 256.212 142.828 256.011C144.216 255.811 145.546 255.325 146.735 254.584C157.746 248.23 157.236 237.484 156.958 228.903C159.535 224.71 160.931 219.901 160.998 214.979C160.815 212.898 159.986 210.924 158.626 209.333C157.267 207.741 155.444 206.611 153.412 206.099C150.699 205.318 147.82 205.314 145.107 206.09C142.427 207.002 139.809 208.086 137.27 209.335C134.883 210.504 132.43 211.534 129.923 212.419C129.162 211.16 128.226 210.015 127.144 209.018C124.688 206.848 121.753 205.287 118.58 204.463C114.791 203.356 110.836 202.928 106.9 203.198C105.365 201.625 103.924 199.963 102.585 198.22C99.7734 194.645 97.1145 191.306 93.3855 190.224L92.7725 190.046C91.4472 189.795 90.0845 189.821 88.7711 190.125C87.4578 190.428 86.2227 191.001 85.1447 191.807C80.0456 195.35 76.9558 203.23 75.6595 209.891C71.8746 214.81 69.7404 220.796 69.5594 226.998" fill="#010101"/>
<path fill-rule="evenodd" clip-rule="evenodd" d="M144.041 249.939C152.789 244.888 151.904 236.489 151.608 227.489C154.03 223.92 155.454 219.77 155.734 215.466C155.307 210.927 149.447 210.413 146.763 211.262C139.875 213.431 130.526 220.074 123.786 218.394C119.946 221.226 115.68 223.52 118.783 227.236C123.942 230.632 128.509 234.848 132.303 239.715C133.756 241.962 135.046 244.311 136.162 246.741C137.836 249.849 140.349 252.069 144.041 249.939Z" fill="#ED2224"/>
<path d="M152.179 210.35C153.361 210.6 154.433 211.216 155.243 212.11C156.053 213.005 156.559 214.132 156.688 215.329C157.051 219.133 154.271 225.088 152.568 227.712L152.629 229.027C152.908 237.608 153.305 245.783 144.527 250.742C140.974 252.774 137.71 251.523 135.321 247.159C134.965 246.477 134.591 245.761 134.225 245.02C133.469 243.352 132.559 241.758 131.509 240.257C127.793 235.456 123.313 231.293 118.247 227.936L118.018 227.869C117.567 227.401 117.221 226.844 117.002 226.233C116.783 225.622 116.696 224.973 116.747 224.327C117.025 222.034 119.397 220.349 121.908 218.566L123.167 217.662L123.519 217.405L123.953 217.531C128.204 218.627 133.72 216.033 138.94 213.601C141.309 212.423 143.752 211.398 146.254 210.535C148.119 210.027 150.089 210.035 151.952 210.56L152.179 210.35ZM140.202 249.901C140.74 250.03 141.299 250.046 141.843 249.947C142.386 249.848 142.903 249.637 143.36 249.327C151.106 244.868 150.808 237.689 150.495 229.319L150.418 227.392L150.499 227.112C152.801 223.724 154.171 219.792 154.473 215.708C154.391 214.88 154.038 214.102 153.469 213.493C152.901 212.884 152.147 212.478 151.325 212.338C149.826 211.916 148.242 211.904 146.738 212.304C144.323 213.148 141.963 214.141 139.672 215.276C134.189 217.852 128.498 220.478 123.687 219.496L122.772 220.169C120.612 221.695 118.584 223.149 118.408 224.616C118.39 224.98 118.447 225.344 118.577 225.686C118.707 226.028 118.905 226.339 119.161 226.6C124.454 229.997 129.155 234.233 133.079 239.14C134.195 240.733 135.159 242.427 135.959 244.198C136.333 244.914 136.655 245.615 137.018 246.272C137.663 247.813 138.888 249.04 140.429 249.691" fill="#010101"/>
<path fill-rule="evenodd" clip-rule="evenodd" d="M108.457 224.074C100.355 224.691 92.4895 227.072 85.415 231.048C80.6154 233.464 74.7886 237.32 74.8582 227.156C75.0524 221.686 77.0909 216.443 80.6442 212.276C82.0644 203.47 86.6628 194.4 91.6412 195.376C96.6196 196.351 101.599 209.443 109.964 211.153C118.329 212.863 112.021 221.051 108.432 224.066" fill="#ED2224"/>
<path d="M92.2137 194.548C94.5635 195.23 96.7679 197.939 99.1902 201.043C102.263 205.054 105.752 209.351 110.183 210.112C111.282 210.171 112.335 210.568 113.199 211.249C114.063 211.93 114.694 212.861 115.006 213.913C115.866 217.916 111.025 223.052 109.113 224.677L108.86 224.88L108.579 224.799C100.61 225.392 92.8748 227.737 85.928 231.666L84.8232 232.228C82.1781 233.613 79.4417 235.027 77.2196 234.382C74.9975 233.737 73.9572 231.31 73.8547 226.892C74.0417 221.301 76.0864 215.934 79.6676 211.634C80.714 205.451 83.605 198.066 87.5549 195.238C88.1403 194.787 88.8139 194.463 89.5327 194.286C90.2515 194.11 90.9996 194.085 91.729 194.214L92.1122 194.325L92.2137 194.548ZM108.849 211.657C104.2 210.308 100.69 205.895 97.5874 201.986C96.0699 199.708 94.04 197.815 91.6597 196.457L91.4553 196.398C90.9743 196.323 90.4831 196.349 90.013 196.474C89.5429 196.599 89.1042 196.82 88.7248 197.123C85.639 199.263 82.6893 205.611 81.4945 212.495L81.4059 212.8L81.3394 213.029C77.9355 217.013 75.9824 222.028 75.7965 227.263C75.8006 230.493 76.4335 232.415 77.6084 232.756C78.7833 233.097 81.6031 231.873 83.7434 230.7L84.8482 230.138C91.9317 226.131 99.8065 223.708 107.928 223.036C110.327 220.973 113.499 216.815 112.978 214.318C112.737 213.144 111.68 212.396 109.669 211.978L108.852 211.741" fill="#010101"/>
<path fill-rule="evenodd" clip-rule="evenodd" d="M125.666 222.03C125.275 224.859 124.545 227.631 123.492 230.286C121.863 233.511 119.758 234.087 116.332 232.817C114.556 232.163 112.539 231.192 110.584 230.679C108.033 230.253 105.509 229.677 103.025 228.955C102.19 228.552 101.487 227.92 100.999 227.133C100.511 226.346 100.259 225.437 100.272 224.513C99.6481 219.695 103.189 210.263 106.93 208.727C108.312 208.162 118.796 208.583 123.519 213.017C126.974 216.282 126.317 218.355 125.721 221.935" fill="#ED2224"/>
<path d="M117.382 208.779C119.889 209.406 122.214 210.61 124.171 212.295C125.483 213.354 126.438 214.789 126.905 216.406C127.372 218.023 127.329 219.743 126.782 221.333L126.575 222.045C126.194 225.038 125.445 227.972 124.345 230.782C122.521 234.392 120.024 235.268 115.971 233.871L114.107 233.137C112.964 232.643 111.795 232.211 110.605 231.845L110.273 231.749C109.124 231.415 107.956 231.242 106.872 231.065C105.398 230.872 103.951 230.508 102.562 229.98C101.569 229.489 100.738 228.724 100.169 227.775C99.5993 226.827 99.3154 225.736 99.3508 224.632C98.6741 219.33 102.369 209.556 106.582 207.825C110.207 207.344 113.896 207.67 117.382 208.779ZM117.536 232.2C120.09 232.942 121.418 232.278 122.649 229.848C123.672 227.285 124.375 224.607 124.743 221.872L124.957 221.134C125.511 217.983 125.809 216.386 122.958 213.709C121.227 212.226 119.173 211.167 116.96 210.616C113.865 209.668 110.617 209.325 107.394 209.607C104.257 210.876 100.729 219.595 101.327 224.405C101.544 226.235 101.993 227.359 103.521 228.106C104.763 228.571 106.055 228.891 107.371 229.057C108.469 229.376 109.693 229.455 110.926 229.785L111.284 229.889C112.532 230.28 113.758 230.737 114.957 231.259L116.624 231.908L117.492 232.16" fill="#010101"/>
<path fill-rule="evenodd" clip-rule="evenodd" d="M150.574 238.973C150.574 238.973 151.426 232.79 146.597 219.659C149.26 220.952 151.417 223.092 152.724 225.743C151.986 227.046 151.746 236.747 150.588 238.922" fill="#010101"/>
<path fill-rule="evenodd" clip-rule="evenodd" d="M83.2914 205.731C81.9978 209.546 81.8738 213.66 82.9352 217.55C81.0222 216.804 79.4614 215.365 78.5657 213.522C79.5117 212.362 83.2659 205.723 83.2659 205.723" fill="#010101"/>
<path d="M54.2778 143.106C54.552 143.159 54.7958 143.314 54.9589 143.54C55.1221 143.766 55.1922 144.046 55.1547 144.322C55.1173 144.597 54.9753 144.848 54.7578 145.022C54.5404 145.196 54.2641 145.28 53.986 145.257C47.5001 145.244 41.106 146.761 35.3261 149.685C29.5462 152.609 24.5447 156.856 20.7304 162.08C16.916 167.304 14.3971 173.355 13.3796 179.741C12.362 186.126 12.8746 192.664 14.8755 198.819C17.9778 208.431 24.5357 216.564 33.2856 221.651C42.0355 226.738 52.3581 228.42 62.2644 226.371C62.4057 226.342 62.5516 226.34 62.6937 226.367C62.8357 226.393 62.9712 226.447 63.0924 226.526C63.2135 226.605 63.318 226.707 63.3998 226.826C63.4816 226.944 63.5391 227.078 63.5691 227.219C63.5991 227.36 63.601 227.506 63.5746 227.647C63.5482 227.789 63.4941 227.924 63.4154 228.045C63.3367 228.165 63.2348 228.269 63.1157 228.351C62.9966 228.432 62.8626 228.489 62.7212 228.519C52.3135 230.62 41.4871 228.821 32.3127 223.465C23.1383 218.109 16.2597 209.572 12.9925 199.487C10.8819 192.996 10.343 186.102 11.4198 179.369C12.4967 172.636 15.1587 166.257 19.1877 160.753C23.2167 155.249 28.498 150.778 34.5987 147.707C40.6994 144.635 47.4459 143.05 54.2852 143.081L54.5917 143.17L54.2778 143.106ZM51.3928 153.143C51.6527 153.201 51.8826 153.351 52.0391 153.566C52.1956 153.781 52.2678 154.046 52.2423 154.31C52.2167 154.574 52.095 154.82 51.9003 155.001C51.7055 155.181 51.451 155.284 51.1849 155.291C44.4658 155.911 38.1323 158.682 33.1306 163.191C28.1288 167.701 24.7273 173.705 23.4344 180.308C22.1414 186.91 23.0264 193.757 25.957 199.824C28.8876 205.891 33.7066 210.854 39.694 213.97C43.3834 215.871 47.4174 217.013 51.5557 217.327C55.694 217.641 59.8518 217.122 63.7816 215.8C64.0579 215.708 64.3598 215.729 64.6206 215.859C64.8815 215.99 65.0801 216.218 65.1726 216.493C65.2652 216.769 65.2442 217.07 65.1143 217.33C64.9843 217.59 64.7561 217.787 64.4797 217.879C59.9962 219.441 55.2286 220.032 50.4946 219.612C45.7606 219.192 41.1688 217.771 37.0251 215.444C32.8814 213.117 29.2809 209.938 26.4634 206.117C23.6459 202.296 21.6761 197.922 20.6852 193.286C19.6944 188.65 19.7051 183.859 20.7169 179.231C21.7286 174.603 23.718 170.245 26.5526 166.447C29.3872 162.649 33.002 159.498 37.1561 157.205C41.3102 154.912 45.9083 153.528 50.6441 153.146C50.7776 153.159 50.9076 153.197 51.0272 153.258L51.3928 153.143ZM50.9662 163.01C51.2159 163.071 51.4358 163.219 51.5874 163.426C51.7389 163.633 51.8122 163.887 51.7943 164.143C51.7764 164.398 51.6685 164.639 51.4897 164.823C51.3109 165.007 51.0725 165.121 50.8168 165.147C46.3488 165.833 42.2132 167.904 38.9961 171.066C35.7791 174.229 33.6439 178.323 32.8932 182.768C32.1424 187.213 32.8143 191.784 34.8135 195.832C36.8128 199.88 40.0379 203.2 44.0318 205.321C48.1598 207.49 52.8856 208.247 57.4823 207.477C62.0789 206.707 66.2915 204.451 69.4722 201.058C69.6724 200.848 69.9479 200.727 70.238 200.721C70.5281 200.715 70.809 200.823 71.019 201.023C71.2291 201.223 71.351 201.498 71.3579 201.788C71.3648 202.077 71.2562 202.357 71.056 202.566C68.4455 205.299 65.2152 207.367 61.6357 208.598C58.0562 209.828 54.2316 210.185 50.482 209.639C46.7324 209.093 43.1671 207.659 40.0843 205.457C37.0016 203.256 34.4912 200.352 32.7633 196.987C31.0354 193.622 30.1403 189.895 30.1529 186.117C30.1655 182.34 31.0854 178.622 32.8357 175.275C34.586 171.927 37.1157 169.049 40.213 166.879C43.3103 164.709 46.8851 163.312 50.6382 162.804C50.7904 162.814 50.9387 162.857 51.0724 162.93" fill="#F170AA"/>
<path fill-rule="evenodd" clip-rule="evenodd" d="M59.8778 185.357C59.6455 183.97 58.9251 182.71 57.8458 181.803C56.7666 180.896 55.3993 180.401 53.9892 180.408C52.5791 180.416 51.2186 180.923 50.1518 181.841C49.0851 182.759 48.382 184.026 48.1687 185.416C47.9554 186.805 48.2459 188.226 48.988 189.423C49.7301 190.62 50.8753 191.515 52.218 191.947C53.5607 192.379 55.013 192.32 56.3142 191.78C57.6155 191.241 58.6805 190.256 59.3181 189.003C59.5479 188.493 59.7046 187.954 59.7835 187.4C66.6026 186.751 72.9333 183.602 77.5509 178.563C80.0386 176.036 82.2344 173.239 84.0973 170.224L78.4199 166.313C76.6111 169.456 74.5967 172.476 72.3899 175.355C68.7737 179.99 64.275 184.232 59.9107 185.339" fill="#F6EB16"/>
<path d="M79.7094 161.775C80.2042 161.917 80.6732 162.137 81.0987 162.426L86.7761 166.337C87.7892 167.031 88.4948 168.088 88.7454 169.287C88.9961 170.486 88.7724 171.735 88.1211 172.772C86.0678 176.085 83.6521 179.16 80.9183 181.942C76.1715 186.947 69.9953 190.376 63.2243 191.765C62.0696 193.669 60.3426 195.161 58.2879 196.03C56.2333 196.899 53.9553 197.1 51.7771 196.605C49.5988 196.111 47.6308 194.945 46.152 193.274C44.6731 191.602 43.7586 189.51 43.5379 187.294C43.3173 185.078 43.8018 182.85 44.9227 180.926C46.0436 179.002 47.7441 177.48 49.7831 176.575C51.822 175.67 54.096 175.429 56.2825 175.886C58.4691 176.342 60.4573 177.473 61.9653 179.118C64.4907 177.226 66.7218 174.972 68.5866 172.429C70.6819 169.691 72.5898 166.814 74.2975 163.82C74.8336 162.905 75.6602 162.195 76.6469 161.802C77.6335 161.409 78.724 161.354 79.7463 161.648L79.7094 161.775ZM55.1015 186.262L55.1458 186.109C55.12 185.927 55.0515 185.754 54.9461 185.604C54.8406 185.453 54.701 185.33 54.5387 185.243C54.2552 185.139 53.9452 185.132 53.6578 185.224C53.3704 185.315 53.122 185.5 52.952 185.748C52.8092 186.025 52.7827 186.348 52.8783 186.645C52.9739 186.941 53.1838 187.188 53.4618 187.331C53.7399 187.474 54.0632 187.501 54.3608 187.407C54.6583 187.312 54.9057 187.103 55.0485 186.826C55.0857 186.644 55.1376 186.465 55.2037 186.291" fill="#010101"/>
<path fill-rule="evenodd" clip-rule="evenodd" d="M94.5891 26.9122L95.0241 39.1543L95.1244 39.763C95.2487 41.2555 95.1216 42.7578 94.7483 44.2076L58.2221 154.325C57.0518 157.808 57.2269 161.603 58.7133 164.969C60.1997 168.335 62.8905 171.03 66.2598 172.527L85.6799 181.088C86.3157 181.365 86.9688 181.601 87.6352 181.793C90.2664 182.532 93.0254 182.696 95.7239 182.274C98.4224 181.852 100.997 180.854 103.271 179.348L172.326 131.192L155.732 186.845C155.212 188.624 155.05 190.488 155.255 192.33C155.459 194.172 156.026 195.957 156.923 197.581C157.821 199.206 159.031 200.638 160.483 201.797C161.936 202.955 163.604 203.816 165.39 204.331L165.952 204.494L196.708 212.067C200.361 212.928 204.204 212.339 207.426 210.426C210.647 208.514 212.995 205.426 213.973 201.815L245.594 88.1777L245.646 87.9995C246.12 86.6993 246.817 85.4916 247.707 84.43L248.212 83.8317L255.26 74.1474C256.616 72.6674 257.588 70.8776 258.089 68.9348C258.59 66.992 258.605 64.9555 258.134 63.0036C257.553 60.9005 256.426 58.9861 254.868 57.4535C253.31 55.9208 251.375 54.8239 249.258 54.2733L199.734 39.9009C197.634 39.1665 195.371 39.0286 193.199 39.5026C191.028 39.9766 189.032 41.0439 187.435 42.585C185.839 44.1262 184.704 46.0806 184.159 48.2296C183.613 50.3787 183.678 52.6378 184.346 54.7544L184.509 55.2432L146.556 78.4792L153.265 53.9312C153.738 52.7294 154.416 51.6189 155.27 50.6492L159.021 47.2667C160.708 45.8435 161.966 43.9819 162.657 41.888C163.348 39.7942 163.444 37.5495 162.935 35.4023C162.426 33.2551 161.332 31.289 159.773 29.7215C158.214 28.154 156.252 27.0461 154.103 26.5204L110.376 13.8305C108.418 13.1602 106.321 13.0037 104.287 13.3763C102.253 13.7488 100.35 14.6377 98.7622 15.9573C97.1743 17.277 95.9549 18.9828 95.2214 20.9105C94.4878 22.8382 94.265 24.9227 94.5744 26.9631" fill="#231F20"/>
<path fill-rule="evenodd" clip-rule="evenodd" d="M59.8778 185.357C59.6455 183.97 58.9251 182.71 57.8458 181.803C56.7666 180.896 55.3993 180.401 53.9892 180.408C52.5791 180.416 51.2186 180.923 50.1518 181.841C49.0851 182.759 48.382 184.026 48.1687 185.416C47.9554 186.805 48.2459 188.226 48.988 189.423C49.7301 190.62 50.8753 191.515 52.218 191.947C53.5607 192.379 55.013 192.32 56.3142 191.78C57.6155 191.241 58.6805 190.256 59.3181 189.003C59.5479 188.493 59.7046 187.954 59.7835 187.4C66.6026 186.751 72.9333 183.602 77.5509 178.563C80.0386 176.036 82.2344 173.239 84.0973 170.224L78.4199 166.313C76.6111 169.456 74.5967 172.476 72.3899 175.355C68.7737 179.99 64.275 184.232 59.9107 185.339" fill="#F170AA"/>
<path fill-rule="evenodd" clip-rule="evenodd" d="M83.2153 171.927L88.6201 174.296L89.6928 174.608C91.2877 175.045 92.9561 175.146 94.5909 174.902C96.2258 174.659 97.7909 174.078 99.1858 173.195L185.241 113.22L162.764 188.665C162.505 189.532 162.421 190.442 162.518 191.342C162.614 192.242 162.888 193.115 163.325 193.909C163.762 194.703 164.352 195.403 165.061 195.969C165.771 196.534 166.586 196.954 167.459 197.203L167.74 197.285L198.452 204.818C200.295 205.267 202.241 204.97 203.863 203.993C205.485 203.016 206.653 201.438 207.11 199.603L238.717 86.0162C239.509 83.4508 240.855 81.0908 242.662 79.1022L242.706 78.9495L242.758 78.7713L249.64 69.3702C250.263 68.7422 250.719 67.9684 250.966 67.1192C251.212 66.2701 251.241 65.3725 251.051 64.5083C250.774 63.6294 250.271 62.8372 249.594 62.2099C248.916 61.5827 248.087 61.1418 247.188 60.9309L197.791 46.5955C196.928 46.2367 195.978 46.1375 195.06 46.3104C194.142 46.4832 193.295 46.9205 192.624 47.5681C191.953 48.2158 191.488 49.0455 191.285 49.9549C191.082 50.8643 191.15 51.8135 191.482 52.6855L192.192 55.4859C192.347 56.3358 192.256 57.2116 191.931 58.0113C191.606 58.811 191.059 59.5018 190.355 60.0033L134.852 93.9048L146.355 51.7878C147.186 49.2981 148.573 47.0301 150.412 45.1548L154.163 41.7723C154.873 41.2239 155.417 40.4896 155.734 39.651C156.05 38.8124 156.128 37.9022 155.957 37.0216C155.705 36.1301 155.21 35.3257 154.527 34.6983C153.843 34.0709 152.998 33.6455 152.086 33.4696L108.385 20.7871C107.535 20.4474 106.609 20.3395 105.703 20.4745C104.798 20.6094 103.945 20.9824 103.233 21.5551C102.627 22.1455 102.185 22.8824 101.95 23.6941C101.714 24.5058 101.693 25.3649 101.889 26.1879L102.303 38.1203L102.258 38.273L102.221 38.4003C102.553 41.1133 102.32 43.8643 101.538 46.4815L65.1398 156.443C64.563 158.218 64.6613 160.144 65.416 161.854C66.1708 163.564 67.5293 164.939 69.233 165.717L76.8989 169.073L83.2153 171.927Z" fill="#F170AA"/>
<path fill-rule="evenodd" clip-rule="evenodd" d="M51.3045 184.746C51.5753 184.226 51.9943 183.798 52.5089 183.516C53.0234 183.234 53.6104 183.11 54.1961 183.16C54.7817 183.21 55.3397 183.432 55.7998 183.797C56.26 184.162 56.6016 184.655 56.7819 185.213C56.9621 185.771 56.9728 186.37 56.8126 186.933C56.6524 187.497 56.3285 188 55.8816 188.38C55.4348 188.76 54.885 188.999 54.3015 189.067C53.718 189.136 53.1269 189.031 52.6026 188.765C52.2514 188.587 51.9389 188.342 51.6832 188.043C51.4276 187.744 51.2338 187.398 51.1131 187.024C50.9924 186.65 50.9471 186.256 50.98 185.865C51.0129 185.474 51.1232 185.094 51.3045 184.746Z" fill="white"/>
<path fill-rule="evenodd" clip-rule="evenodd" d="M198.033 87.6502C198.78 85.0952 200.27 82.8197 202.315 81.1112C204.36 79.4027 206.868 78.3378 209.523 78.0512C212.177 77.7645 214.858 78.2689 217.228 79.5007C219.597 80.7325 221.549 82.6363 222.836 84.9716C224.123 87.3069 224.687 89.969 224.458 92.6214C224.229 95.2737 223.216 97.7975 221.548 99.8736C219.88 101.95 217.631 103.485 215.086 104.286C212.541 105.087 209.813 105.117 207.248 104.372C203.807 103.366 200.904 101.04 199.176 97.9053C197.448 94.7703 197.037 91.0821 198.033 87.6502Z" fill="white"/>
<path fill-rule="evenodd" clip-rule="evenodd" d="M201.678 88.9288C202.013 87.7738 202.685 86.7447 203.608 85.9722C204.532 85.1997 205.665 84.7186 206.865 84.59C208.064 84.4614 209.275 84.691 210.345 85.2497C211.414 85.8085 212.294 86.6711 212.871 87.7283C213.449 88.7854 213.699 89.9893 213.59 91.1872C213.481 92.385 213.017 93.5229 212.258 94.4564C211.498 95.3899 210.478 96.0768 209.325 96.4301C208.172 96.7834 206.94 96.787 205.784 96.4406C204.237 95.9843 202.932 94.9374 202.153 93.5278C201.374 92.1181 201.185 90.4599 201.627 88.914" fill="#3F91B7"/>
<path fill-rule="evenodd" clip-rule="evenodd" d="M224.895 92.1341C224.895 92.1341 220.875 103.028 209.57 102.286C199.591 101.653 197.194 89.5872 197.194 89.5872C197.194 89.5872 194.587 101.912 205.349 105.477C207.526 106.357 209.886 106.687 212.22 106.436C214.553 106.186 216.787 105.363 218.722 104.042C220.658 102.721 222.234 100.942 223.311 98.8645C224.388 96.7867 224.933 94.4745 224.895 92.1341Z" fill="#231F20"/>
<path fill-rule="evenodd" clip-rule="evenodd" d="M222.597 98.1457C224.278 97.3669 226.106 96.948 227.961 96.916C229.816 96.884 231.658 97.2395 233.368 97.9597C233.368 97.9597 224.895 97.957 220.227 101.542L222.597 98.1457Z" fill="#231F20"/>
<path fill-rule="evenodd" clip-rule="evenodd" d="M198.687 97.8029C196.895 97.3917 195.038 97.3553 193.233 97.696C191.428 98.0366 189.714 98.747 188.199 99.7821C188.199 99.7821 196.498 98.1888 201.752 100.79L198.687 97.8029Z" fill="#231F20"/>
<path fill-rule="evenodd" clip-rule="evenodd" d="M218.689 102.642C218.689 102.642 225.561 106.54 225.699 112.266C223.424 108.593 220.081 105.698 216.117 103.965L218.689 102.642Z" fill="#231F20"/>
<path fill-rule="evenodd" clip-rule="evenodd" d="M203.574 103.389C203.574 103.389 197.382 108.216 198.109 113.919C199.783 109.942 202.636 106.572 206.285 104.258L203.574 103.389Z" fill="#231F20"/>
<path fill-rule="evenodd" clip-rule="evenodd" d="M211.474 105.461C213.062 109.328 213.384 113.594 212.395 117.651C212.159 113.437 210.988 109.326 208.964 105.615L211.474 105.461Z" fill="#231F20"/>
<path fill-rule="evenodd" clip-rule="evenodd" d="M180.807 164.757C181.995 162.573 183.807 160.791 186.013 159.636C188.219 158.48 190.721 158.005 193.201 158.268C195.681 158.532 198.028 159.523 199.946 161.116C201.863 162.709 203.264 164.833 203.972 167.219C204.68 169.604 204.663 172.144 203.922 174.517C203.182 176.891 201.751 178.99 199.812 180.55C197.873 182.11 195.513 183.061 193.029 183.281C190.546 183.502 188.051 182.983 185.861 181.79C182.93 180.193 180.751 177.503 179.804 174.309C178.856 171.116 179.217 167.681 180.807 164.757Z" fill="white"/>
<path fill-rule="evenodd" clip-rule="evenodd" d="M186.503 163.927C187.095 162.903 187.976 162.075 189.037 161.548C190.098 161.021 191.291 160.818 192.469 160.964C193.646 161.11 194.755 161.598 195.656 162.368C196.558 163.138 197.213 164.155 197.539 165.293C197.865 166.431 197.847 167.639 197.489 168.765C197.131 169.892 196.447 170.888 195.523 171.629C194.6 172.369 193.478 172.822 192.297 172.929C191.116 173.037 189.928 172.796 188.883 172.235C187.479 171.464 186.436 170.171 185.984 168.638C185.531 167.106 185.704 165.458 186.466 164.054" fill="#3F91B7"/>
<path fill-rule="evenodd" clip-rule="evenodd" d="M203.148 177.092C201.221 179.371 198.626 180.991 195.727 181.723C192.827 182.456 189.769 182.265 186.981 181.176C178.442 177.677 179.651 166.547 179.651 166.547C179.651 166.547 174.646 177.21 182.655 182.626C194.055 190.295 202.313 181.017 203.148 177.092Z" fill="#231F20"/>
<path fill-rule="evenodd" clip-rule="evenodd" d="M202.321 178.508C203.879 178.041 205.518 177.903 207.134 178.101C208.749 178.299 210.307 178.829 211.707 179.659C207.696 179.106 203.612 179.636 199.88 181.194L202.321 178.508Z" fill="#231F20"/>
<path fill-rule="evenodd" clip-rule="evenodd" d="M178.756 174.401C177.222 173.796 175.579 173.518 173.932 173.587C172.285 173.656 170.672 174.07 169.197 174.801C173.234 174.579 177.258 175.442 180.85 177.3L178.756 174.401Z" fill="#231F20"/>
<path fill-rule="evenodd" clip-rule="evenodd" d="M198.056 182.901C198.056 182.901 203.56 187.12 202.945 192.102C201.44 188.619 198.902 185.677 195.672 183.672L198.056 182.901Z" fill="#231F20"/>
<path fill-rule="evenodd" clip-rule="evenodd" d="M183.017 181.379C183.017 181.379 177.031 184.83 176.982 189.866C178.916 186.617 181.8 184.035 185.249 182.468L183.017 181.379Z" fill="#231F20"/>
<path fill-rule="evenodd" clip-rule="evenodd" d="M191.088 183.914C191.998 187.457 191.757 191.195 190.399 194.588C190.69 190.879 190.134 187.151 188.773 183.684L191.088 183.914Z" fill="#231F20"/>
<path fill-rule="evenodd" clip-rule="evenodd" d="M144.4 99.27C145.65 97.4194 147.422 95.9807 149.494 95.1359C151.565 94.2911 153.843 94.0781 156.038 94.5237C158.233 94.9693 160.248 96.0536 161.827 97.6395C163.407 99.2254 164.48 101.242 164.912 103.434C165.344 105.626 165.114 107.895 164.253 109.955C163.391 112.014 161.936 113.772 160.071 115.005C158.207 116.239 156.016 116.893 153.777 116.885C151.537 116.877 149.349 116.207 147.489 114.96C146.253 114.131 145.192 113.067 144.367 111.829C143.543 110.592 142.971 109.205 142.684 107.748C142.397 106.29 142.401 104.792 142.695 103.337C142.989 101.882 143.569 100.5 144.4 99.27Z" fill="white"/>
<path fill-rule="evenodd" clip-rule="evenodd" d="M151.827 104.02C152.415 103.153 153.247 102.479 154.219 102.083C155.191 101.687 156.259 101.588 157.289 101.797C158.319 102.006 159.264 102.514 160.005 103.258C160.746 104.002 161.25 104.948 161.454 105.976C161.657 107.004 161.55 108.069 161.147 109.035C160.744 110.002 160.063 110.827 159.189 111.408C158.315 111.988 157.288 112.296 156.238 112.295C155.187 112.293 154.16 111.981 153.286 111.398C152.703 111.01 152.203 110.51 151.814 109.929C151.425 109.347 151.155 108.695 151.019 108.009C150.884 107.323 150.885 106.618 151.024 105.933C151.163 105.249 151.436 104.599 151.827 104.02Z" fill="#3F91B7"/>
<path fill-rule="evenodd" clip-rule="evenodd" d="M163.432 112.411C161.344 114.096 158.791 115.11 156.11 115.317C153.43 115.525 150.748 114.917 148.418 113.573C141.332 109.364 143.767 99.6385 143.767 99.6385C143.767 99.6385 137.191 109.129 144.067 115.208C145.409 116.556 147.049 117.571 148.855 118.174C150.661 118.776 152.582 118.948 154.465 118.676C156.348 118.404 158.14 117.695 159.697 116.607C161.255 115.519 162.534 114.082 163.432 112.411Z" fill="#231F20"/>
<path fill-rule="evenodd" clip-rule="evenodd" d="M160.33 114.988C161.723 115.028 163.093 115.359 164.349 115.962C165.606 116.564 166.721 117.424 167.623 118.484C164.574 116.952 161.17 116.26 157.765 116.479L160.33 114.988Z" fill="#231F20"/>
<path fill-rule="evenodd" clip-rule="evenodd" d="M142.503 105.233C140.149 103.433 137.205 102.579 134.253 102.839C137.531 103.797 140.494 105.61 142.837 108.09L142.503 105.233Z" fill="#231F20"/>
<path fill-rule="evenodd" clip-rule="evenodd" d="M155.827 117.435C155.827 117.435 159.05 122.262 157.212 126.116C156.792 122.994 155.482 120.056 153.437 117.652L155.827 117.435Z" fill="#231F20"/>
<path fill-rule="evenodd" clip-rule="evenodd" d="M143.591 112.172C143.591 112.172 137.897 113.28 136.554 117.333C139.002 115.28 142.015 114.01 145.2 113.688L143.591 112.172Z" fill="#231F20"/>
<path fill-rule="evenodd" clip-rule="evenodd" d="M149.42 117.755C149.054 120.729 147.791 123.519 145.796 125.756C147.066 122.909 147.672 119.81 147.568 116.694L149.42 117.755Z" fill="#231F20"/>
<path fill-rule="evenodd" clip-rule="evenodd" d="M114.089 50.3727C115.138 48.5183 116.717 47.0173 118.624 46.06C120.532 45.1026 122.683 44.7319 124.804 44.9948C126.925 45.2578 128.922 46.1425 130.54 47.537C132.159 48.9314 133.327 50.7728 133.896 52.8279C134.465 54.8829 134.411 57.0591 133.738 59.0808C133.066 61.1024 131.807 62.8785 130.12 64.1841C128.433 65.4896 126.395 66.2658 124.263 66.4143C122.132 66.5628 120.003 66.077 118.146 65.0184C115.666 63.6045 113.847 61.2699 113.087 58.5252C112.326 55.7806 112.687 52.8493 114.089 50.3727Z" fill="white"/>
<path fill-rule="evenodd" clip-rule="evenodd" d="M117.406 53.3498C117.933 52.45 118.715 51.7258 119.654 51.2678C120.593 50.8098 121.647 50.6383 122.684 50.7748C123.722 50.9112 124.696 51.3496 125.486 52.0351C126.275 52.7205 126.845 53.6225 127.124 54.6283C127.402 55.6341 127.377 56.699 127.052 57.6897C126.727 58.6804 126.116 59.5529 125.295 60.198C124.474 60.8431 123.481 61.2323 122.438 61.3167C121.396 61.4011 120.351 61.1771 119.435 60.6726C118.813 60.3304 118.266 59.8676 117.826 59.3115C117.386 58.7555 117.062 58.1174 116.873 57.4349C116.684 56.7525 116.633 56.0394 116.725 55.3378C116.817 54.6362 117.048 53.9603 117.406 53.3498Z" fill="#3F91B7"/>
<path fill-rule="evenodd" clip-rule="evenodd" d="M133.043 61.5865C131.128 63.3585 128.726 64.5194 126.142 64.9203C123.559 65.3212 120.914 64.9439 118.544 63.8368C111.419 60.3339 113.419 50.6752 113.419 50.6752C113.419 50.6752 108.147 59.3014 115.268 65.0111C116.54 66.2678 118.101 67.1953 119.814 67.7125C121.527 68.2297 123.341 68.3209 125.096 67.978C126.851 67.6351 128.494 66.8686 129.882 65.7456C131.27 64.6225 132.361 63.1771 133.058 61.5356" fill="#231F20"/>
<path fill-rule="evenodd" clip-rule="evenodd" d="M129.823 64.7639C131.339 64.7064 132.851 64.9644 134.263 65.5214C135.674 66.0784 136.955 66.9222 138.022 67.9991C134.534 66.5639 130.728 66.0785 126.994 66.5924L129.823 64.7639Z" fill="#231F20"/>
<path fill-rule="evenodd" clip-rule="evenodd" d="M112.125 56.5644C109.377 54.6677 106.008 53.8874 102.706 54.3828C106.401 55.1452 109.827 56.873 112.635 59.3893L112.125 56.5644Z" fill="#231F20"/>
<path fill-rule="evenodd" clip-rule="evenodd" d="M126.154 67.4804C126.154 67.4804 130.214 72.5775 128.395 76.9348C127.868 73.4444 126.277 70.1982 123.838 67.6363L126.154 67.4804Z" fill="#231F20"/>
<path fill-rule="evenodd" clip-rule="evenodd" d="M114.107 62.7146C114.107 62.7146 107.245 64.6975 105.989 69.2179C108.502 66.7443 111.715 65.0961 115.197 64.4936L114.107 62.7146Z" fill="#231F20"/>
<path fill-rule="evenodd" clip-rule="evenodd" d="M119.877 67.2592C119.857 70.6868 118.745 74.0173 116.702 76.77C117.859 73.524 118.269 70.0583 117.9 66.6302L119.877 67.2592Z" fill="#231F20"/>
<path fill-rule="evenodd" clip-rule="evenodd" d="M89.827 128.915C91.2592 126.671 93.3282 124.902 95.7718 123.834C98.2154 122.765 100.923 122.445 103.553 122.914C106.182 123.383 108.613 124.619 110.539 126.466C112.466 128.313 113.799 130.688 114.371 133.29C114.943 135.891 114.728 138.602 113.752 141.079C112.777 143.556 111.085 145.686 108.892 147.201C106.699 148.715 104.103 149.545 101.434 149.586C98.7641 149.626 96.1411 148.876 93.8974 147.428C90.8943 145.496 88.7806 142.456 88.0202 138.976C87.2598 135.495 87.915 131.859 89.8418 128.864" fill="white"/>
<path fill-rule="evenodd" clip-rule="evenodd" d="M99.3389 130.682C99.9715 129.698 100.883 128.924 101.958 128.457C103.033 127.991 104.224 127.853 105.378 128.062C106.533 128.27 107.601 128.815 108.446 129.629C109.291 130.442 109.875 131.486 110.125 132.63C110.375 133.773 110.28 134.964 109.85 136.052C109.421 137.14 108.678 138.076 107.714 138.742C106.75 139.407 105.609 139.772 104.436 139.791C103.263 139.809 102.11 139.48 101.124 138.845C99.8035 137.995 98.874 136.659 98.5394 135.129C98.2048 133.598 98.4923 131.999 99.3389 130.682Z" fill="#3F91B7"/>
<path fill-rule="evenodd" clip-rule="evenodd" d="M113.019 143.374C110.776 145.665 107.851 147.174 104.678 147.674C101.504 148.175 98.2518 147.642 95.4025 146.155C86.3491 141.568 89.2269 129.266 89.2269 129.266C89.2269 129.266 82.1107 141 90.3319 147.692C101.828 157.127 111.844 147.614 113.132 143.269" fill="#231F20"/>
<path fill-rule="evenodd" clip-rule="evenodd" d="M110.84 146.302C112.612 146.256 114.374 146.579 116.015 147.25C117.656 147.921 119.139 148.926 120.37 150.199C120.37 150.199 112.974 147.059 107.484 148.419L110.84 146.302Z" fill="#231F20"/>
<path fill-rule="evenodd" clip-rule="evenodd" d="M87.2257 137.02C85.9923 135.749 84.5069 134.748 82.8646 134.081C81.2222 133.415 79.459 133.097 77.6878 133.148C77.6878 133.148 85.1433 136.085 88.1224 140.896L87.2257 137.02Z" fill="#231F20"/>
<path fill-rule="evenodd" clip-rule="evenodd" d="M105.176 149.405C105.176 149.405 109.744 155.422 107.693 160.485C107.129 156.415 105.335 152.611 102.55 149.581L105.176 149.405Z" fill="#231F20"/>
<path fill-rule="evenodd" clip-rule="evenodd" d="M89.0083 143.664C89.0083 143.664 81.6903 145.598 80.194 150.849C83.1654 147.978 86.9521 146.09 91.0404 145.441L89.0083 143.664Z" fill="#231F20"/>
<path fill-rule="evenodd" clip-rule="evenodd" d="M96.603 149.842C96.5831 153.841 95.2903 157.728 92.911 160.942C94.3215 157.15 94.8565 153.089 94.4763 149.06L96.603 149.842Z" fill="#231F20"/>
</svg>
