<svg width="176" height="176" viewBox="0 0 176 176" fill="none" xmlns="http://www.w3.org/2000/svg">
<circle cx="88" cy="88" r="88" fill="url(#paint0_linear)"/>
<path d="M39.8059 75.63V72H52.0599V75.63H53.8199V70.24H51.8839V56.6H42.4239C42.4239 61.33 41.8959 66.654 39.9159 70.24H38.0459V75.63H39.8059ZM44.3159 58.36H50.0359V70.24H41.9839C43.5239 67.204 44.0739 62.518 44.3159 58.36ZM59.8826 63.068H64.1726V72H65.9326V61.44H58.1666C57.9686 67.116 57.3526 70.68 55.4826 70.68C55.2626 70.68 55.0206 70.636 54.7786 70.548V71.934C55.2406 72.11 55.6586 72.176 56.0546 72.176C58.7826 72.176 59.5306 68.48 59.8826 63.068ZM70.2397 72L73.1217 68.304H76.0917V72H77.8517V61.44H72.6597C70.0857 61.44 68.6997 63.024 68.6997 64.872C68.6997 66.346 69.5797 67.644 71.2297 68.128L68.1717 72H70.2397ZM70.4597 64.872C70.4597 63.706 71.3397 63.024 72.8137 63.024H76.0917V66.72H72.8137C71.3397 66.72 70.4597 66.038 70.4597 64.872ZM87.246 74.86V72H96.442V74.86H98.158V70.416H96.618V61.44H88.742C88.786 65.378 88.258 68.084 86.938 70.416H85.53V74.86H87.246ZM90.436 63.024H94.858V70.416H88.852C89.82 68.392 90.348 66.192 90.436 63.024ZM99.567 66.72C99.567 70.482 102.295 72.264 105.419 72.264C106.805 72.264 108.191 72 109.159 71.494V69.778C108.257 70.284 106.981 70.636 105.683 70.636C103.549 70.636 101.547 69.712 101.327 67.49H109.731C110.391 64.498 108.895 61.176 104.825 61.176C102.317 61.176 99.567 63.024 99.567 66.72ZM108.169 65.95H101.327C101.459 63.882 103.131 62.804 104.935 62.804C107.619 62.804 108.323 64.828 108.169 65.95ZM116.488 72V63.068H120.36V61.44H110.834V63.068H114.728V72H116.488ZM121.288 66.72C121.288 70.482 124.016 72.264 127.14 72.264C128.526 72.264 129.912 72 130.88 71.494V69.778C129.978 70.284 128.702 70.636 127.404 70.636C125.27 70.636 123.268 69.712 123.048 67.49H131.452C132.112 64.498 130.616 61.176 126.546 61.176C124.038 61.176 121.288 63.024 121.288 66.72ZM129.89 65.95H123.048C123.18 63.882 124.852 62.804 126.656 62.804C129.34 62.804 130.044 64.828 129.89 65.95ZM141.966 58.888V57.304C140.866 58.03 139.964 58.272 138.886 58.272C137.808 58.272 136.906 58.03 135.806 57.304V58.888C136.796 59.592 137.83 59.812 138.886 59.812C139.942 59.812 140.976 59.592 141.966 58.888ZM135.52 72L141.988 64.278V72H143.748V61.44H142.252L135.784 69.162V61.44H134.024V72H135.52ZM24.9518 94.72C24.9518 98.328 27.7238 100.264 30.5838 100.264C33.4658 100.264 36.2158 98.328 36.2158 94.72C36.2158 91.112 33.4658 89.176 30.5838 89.176C27.7238 89.176 24.9518 91.112 24.9518 94.72ZM34.4558 94.72C34.4558 97.162 32.7398 98.592 30.5838 98.592C28.4278 98.592 26.7118 97.162 26.7118 94.72C26.7118 92.278 28.4278 90.848 30.5838 90.848C32.7398 90.848 34.4558 92.278 34.4558 94.72ZM42.7966 100V91.068H46.6686V89.44H37.1426V91.068H41.0366V100H42.7966ZM54.1226 88.648C54.1226 90.144 54.9806 91.156 56.1466 91.86C54.3866 92.894 53.5946 94.522 53.5946 95.886C53.5946 98.174 55.6186 100.264 59.7106 100.264C63.9126 100.264 65.6726 98.262 65.6726 96.194C65.6726 94.434 64.5286 93.378 63.0986 92.674C64.5286 91.684 65.1886 90.254 65.1446 88.89C65.0786 86.734 63.0326 84.776 59.5786 84.776C55.7506 84.776 54.1226 86.756 54.1226 88.648ZM59.7986 93.268C61.8666 93.884 63.8246 94.346 63.8246 96.282C63.8246 97.646 62.0866 98.548 59.7546 98.548C56.9166 98.548 55.4426 97.448 55.4426 95.688C55.4426 94.588 56.1686 93.356 57.7086 92.608C58.4126 92.872 59.1386 93.092 59.7986 93.268ZM63.2966 89.22C63.2966 90.232 62.7246 91.288 61.5366 92.058C60.8986 91.86 60.2606 91.706 59.7106 91.552C57.9946 91.024 55.9706 90.562 55.9706 88.626C55.9706 87.438 57.2906 86.492 59.5346 86.492C61.9986 86.492 63.2966 87.746 63.2966 89.22ZM75.5393 100V92.036L78.9713 97.25H80.2913L83.7233 92.036V100H85.3953V89.44H83.4813L79.6313 95.292L75.7813 89.44H73.8673V100H75.5393ZM87.9225 94.72C87.9225 98.482 90.6505 100.264 93.7745 100.264C95.1605 100.264 96.5465 100 97.5145 99.494V97.778C96.6125 98.284 95.3365 98.636 94.0385 98.636C91.9045 98.636 89.9025 97.712 89.6825 95.49H98.0865C98.7465 92.498 97.2505 89.176 93.1805 89.176C90.6725 89.176 87.9225 91.024 87.9225 94.72ZM96.5245 93.95H89.6825C89.8145 91.882 91.4865 90.804 93.2905 90.804C95.9745 90.804 96.6785 92.828 96.5245 93.95ZM99.9323 94.764C99.9323 98.526 102.814 100.264 105.586 100.264C106.906 100.264 108.028 100.022 109.018 99.538V97.778C108.138 98.306 106.972 98.636 105.828 98.636C103.76 98.636 101.692 97.426 101.692 94.72C101.692 91.948 103.826 90.804 105.872 90.804C106.994 90.804 108.116 91.134 108.908 91.75V90.034C108.006 89.44 106.84 89.176 105.652 89.176C102.902 89.176 99.9323 90.914 99.9323 94.764ZM112.65 100L115.532 96.304H118.502V100H120.262V89.44H115.07C112.496 89.44 111.11 91.024 111.11 92.872C111.11 94.346 111.99 95.644 113.64 96.128L110.582 100H112.65ZM112.87 92.872C112.87 91.706 113.75 91.024 115.224 91.024H118.502V94.72H115.224C113.75 94.72 112.87 94.038 112.87 92.872ZM134.386 102.86V98.372H132.824V89.44H131.064V98.372H125.278V89.44H123.518V100H132.67V102.86H134.386ZM135.79 94.72C135.79 98.482 138.518 100.264 141.642 100.264C143.028 100.264 144.414 100 145.382 99.494V97.778C144.48 98.284 143.204 98.636 141.906 98.636C139.772 98.636 137.77 97.712 137.55 95.49H145.954C146.614 92.498 145.118 89.176 141.048 89.176C138.54 89.176 135.79 91.024 135.79 94.72ZM144.392 93.95H137.55C137.682 91.882 139.354 90.804 141.158 90.804C143.842 90.804 144.546 92.828 144.392 93.95ZM154.487 100C156.775 100 157.897 98.812 157.897 97.074C157.897 95.754 157.017 94.918 156.159 94.632C156.951 94.28 157.567 93.4 157.567 92.3C157.567 90.43 156.159 89.44 154.311 89.44H148.525V100H154.487ZM150.285 95.424H154.311C155.191 95.424 156.137 95.71 156.137 96.964C156.137 98.13 155.345 98.46 154.245 98.46H150.285V95.424ZM150.285 90.98H154.135C154.883 90.98 155.785 91.288 155.785 92.476C155.785 93.554 155.059 93.906 154.135 93.906H150.285V90.98ZM51.453 129.86V127H60.649V129.86H62.365V125.416H60.825V116.44H52.949C52.993 120.378 52.465 123.084 51.145 125.416H49.737V129.86H51.453ZM54.643 118.024H59.065V125.416H53.059C54.027 123.392 54.555 121.192 54.643 118.024ZM63.7741 121.72C63.7741 125.328 66.5461 127.264 69.4061 127.264C72.2881 127.264 75.0381 125.328 75.0381 121.72C75.0381 118.112 72.2881 116.176 69.4061 116.176C66.5461 116.176 63.7741 118.112 63.7741 121.72ZM73.2781 121.72C73.2781 124.162 71.5621 125.592 69.4061 125.592C67.2501 125.592 65.5341 124.162 65.5341 121.72C65.5341 119.278 67.2501 117.848 69.4061 117.848C71.5621 117.848 73.2781 119.278 73.2781 121.72ZM82.0071 112.04V113.8H90.7631L84.5591 127H86.5391L92.7871 113.712V112.04H82.0071ZM104.097 118.068H108.387V127H110.147V116.44H102.381C102.183 122.116 101.567 125.68 99.6975 125.68C99.4775 125.68 99.2355 125.636 98.9935 125.548V126.934C99.4555 127.11 99.8735 127.176 100.269 127.176C102.997 127.176 103.745 123.48 104.097 118.068ZM112.673 121.72C112.673 125.482 115.401 127.264 118.525 127.264C119.911 127.264 121.297 127 122.265 126.494V124.778C121.363 125.284 120.087 125.636 118.789 125.636C116.655 125.636 114.653 124.712 114.433 122.49H122.837C123.497 119.498 122.001 116.176 117.931 116.176C115.423 116.176 112.673 118.024 112.673 121.72ZM121.275 120.95H114.433C114.565 118.882 116.237 117.804 118.041 117.804C120.725 117.804 121.429 119.828 121.275 120.95ZM129.593 127V118.068H133.465V116.44H123.939V118.068H127.833V127H129.593Z" fill="white"/>
<defs>
<linearGradient id="paint0_linear" x1="92.9999" y1="88" x2="58.9999" y2="7.00001" gradientUnits="userSpaceOnUse">
<stop stop-color="#598BEF"/>
<stop offset="1" stop-color="#245FD3"/>
</linearGradient>
</defs>
</svg>
