<svg width="161" height="52" viewBox="0 0 161 52" fill="none" xmlns="http://www.w3.org/2000/svg">
<rect x="0.5" y="0.5" width="160" height="51" rx="5.5" fill="white"/>
<path d="M68.7856 24.1379L64.3721 23.4965L62.3992 19.4967C62.3453 19.3872 62.2567 19.2986 62.1471 19.2447C61.8725 19.1091 61.5387 19.2221 61.4014 19.4967L59.4285 23.4965L55.015 24.1379C54.8933 24.1553 54.782 24.2127 54.6969 24.2996C54.5939 24.4054 54.5372 24.5478 54.5391 24.6955C54.5411 24.8431 54.6016 24.984 54.7073 25.087L57.9005 28.2003L57.1461 32.5964C57.1284 32.6987 57.1397 32.8039 57.1788 32.9C57.2178 32.9962 57.283 33.0795 57.367 33.1405C57.451 33.2015 57.5503 33.2377 57.6539 33.2451C57.7574 33.2525 57.8609 33.2307 57.9527 33.1822L61.9003 31.1067L65.8479 33.1822C65.9557 33.2396 66.0809 33.2587 66.2008 33.2378C66.5033 33.1857 66.7067 32.8989 66.6545 32.5964L65.9001 28.2003L69.0933 25.087C69.1802 25.0019 69.2376 24.8906 69.255 24.7689C69.3019 24.4647 69.0898 24.1831 68.7856 24.1379V24.1379Z" fill="#FFC700"/>
<path d="M86.5854 24.1379L82.1719 23.4965L80.199 19.4967C80.1451 19.3872 80.0565 19.2986 79.9469 19.2447C79.6723 19.1091 79.3386 19.2221 79.2012 19.4967L77.2283 23.4965L72.8148 24.1379C72.6931 24.1553 72.5819 24.2127 72.4967 24.2996C72.3937 24.4054 72.337 24.5478 72.3389 24.6955C72.3409 24.8431 72.4014 24.984 72.5071 25.087L75.7003 28.2003L74.9459 32.5964C74.9282 32.6987 74.9395 32.8039 74.9786 32.9C75.0176 32.9962 75.0828 33.0795 75.1668 33.1405C75.2508 33.2015 75.3501 33.2377 75.4537 33.2451C75.5572 33.2525 75.6607 33.2307 75.7525 33.1822L79.7001 31.1067L83.6477 33.1822C83.7555 33.2396 83.8807 33.2587 84.0006 33.2378C84.3031 33.1857 84.5065 32.8989 84.4543 32.5964L83.6999 28.2003L86.8931 25.087C86.98 25.0019 87.0374 24.8906 87.0548 24.7689C87.1017 24.4647 86.8896 24.1831 86.5854 24.1379V24.1379Z" fill="#FFC700"/>
<path d="M104.385 24.1379L99.9718 23.4965L97.9988 19.4967C97.9449 19.3872 97.8563 19.2986 97.7468 19.2447C97.4721 19.1091 97.1384 19.2221 97.001 19.4967L95.0281 23.4965L90.6146 24.1379C90.4929 24.1553 90.3817 24.2127 90.2965 24.2996C90.1935 24.4054 90.1368 24.5478 90.1387 24.6955C90.1407 24.8431 90.2012 24.984 90.3069 25.087L93.5001 28.2003L92.7457 32.5964C92.728 32.6987 92.7393 32.8039 92.7784 32.9C92.8174 32.9962 92.8826 33.0795 92.9666 33.1405C93.0506 33.2015 93.15 33.2377 93.2535 33.2451C93.357 33.2525 93.4605 33.2307 93.5523 33.1822L97.4999 31.1067L101.448 33.1822C101.555 33.2396 101.68 33.2587 101.8 33.2378C102.103 33.1857 102.306 32.8989 102.254 32.5964L101.5 28.2003L104.693 25.087C104.78 25.0019 104.837 24.8906 104.855 24.7689C104.902 24.4647 104.689 24.1831 104.385 24.1379V24.1379Z" fill="#FFC700"/>
<path d="M122.186 24.1379L117.773 23.4965L115.8 19.4967C115.746 19.3872 115.657 19.2986 115.548 19.2447C115.273 19.1091 114.939 19.2221 114.802 19.4967L112.829 23.4965L108.415 24.1379C108.294 24.1553 108.182 24.2127 108.097 24.2996C107.994 24.4054 107.938 24.5478 107.94 24.6955C107.941 24.8431 108.002 24.984 108.108 25.087L111.301 28.2003L110.547 32.5964C110.529 32.6987 110.54 32.8039 110.579 32.9C110.618 32.9962 110.683 33.0795 110.767 33.1405C110.851 33.2015 110.951 33.2377 111.054 33.2451C111.158 33.2525 111.261 33.2307 111.353 33.1822L115.301 31.1067L119.248 33.1822C119.356 33.2396 119.481 33.2587 119.601 33.2378C119.904 33.1857 120.107 32.8989 120.055 32.5964L119.3 28.2003L122.494 25.087C122.581 25.0019 122.638 24.8906 122.655 24.7689C122.702 24.4647 122.49 24.1831 122.186 24.1379V24.1379Z" fill="#FFC700"/>
<path d="M139.986 24.1379L135.572 23.4965L133.599 19.4967C133.546 19.3872 133.457 19.2986 133.347 19.2447C133.073 19.1091 132.739 19.2221 132.602 19.4967L130.629 23.4965L126.215 24.1379C126.093 24.1553 125.982 24.2127 125.897 24.2996C125.794 24.4054 125.737 24.5478 125.739 24.6955C125.741 24.8431 125.802 24.984 125.907 25.087L129.101 28.2003L128.346 32.5964C128.329 32.6987 128.34 32.8039 128.379 32.9C128.418 32.9962 128.483 33.0795 128.567 33.1405C128.651 33.2015 128.751 33.2377 128.854 33.2451C128.958 33.2525 129.061 33.2307 129.153 33.1822L133.101 31.1067L137.048 33.1822C137.156 33.2396 137.281 33.2587 137.401 33.2378C137.703 33.1857 137.907 32.8989 137.855 32.5964L137.1 28.2003L140.294 25.087C140.38 25.0019 140.438 24.8906 140.455 24.7689C140.502 24.4647 140.29 24.1831 139.986 24.1379V24.1379Z" fill="#FFC700"/>
<path d="M21.7119 33.9363C22.7912 35.2881 23.8905 36.9822 24.4657 38.009C25.1663 39.3437 25.4568 40.2449 25.9779 41.8478C26.2826 42.7319 26.5731 43 27.1825 43C27.8489 43 28.1536 42.5494 28.3871 41.8478C28.8741 40.3334 29.25 39.1811 29.8452 38.0803C31.0157 35.9726 32.4908 34.096 33.9318 32.2935C34.3277 31.7887 36.848 28.814 37.9814 26.4526C37.9814 26.4526 39.3683 23.8743 39.3683 20.2694C39.3683 16.8983 38.0013 14.5568 38.0013 14.5568L34.0429 15.6206L31.6308 21.9663L31.0356 22.8305L30.9103 22.9931L30.748 23.1927L30.4774 23.5178L30.0816 23.9143L27.94 25.6626L22.5947 28.7627L21.7119 33.9363Z" fill="#34A853"/>
<path d="M16.1875 26.0219C17.5003 29.0137 20.0035 31.629 21.7122 33.9363L30.7654 23.1927C30.7654 23.1927 29.4867 24.8697 27.1828 24.8697C24.6084 24.8697 22.521 22.8162 22.521 20.218C22.521 18.4327 23.5832 17.2092 23.5832 17.2092L17.4462 18.8491L16.1875 26.0219Z" fill="#FBBC04"/>
<path d="M30.8743 8.55615C33.8788 9.52869 36.4532 11.565 38.0024 14.5768L30.7661 23.2098C30.7661 23.2098 31.8284 21.9664 31.8284 20.201C31.8284 17.5514 29.5957 15.5493 27.1836 15.5493C24.8968 15.5493 23.584 17.2063 23.584 17.2063V11.7647L30.8743 8.55615Z" fill="#4285F4"/>
<path d="M17.8418 12.3607C19.6416 10.216 22.7913 8 27.1455 8C29.2501 8 30.8534 8.559 30.8534 8.559L23.583 17.212H18.4341L17.8418 12.3607Z" fill="#1A73E8"/>
<path d="M16.1875 26.0219C16.1875 26.0219 15 23.6604 15 20.2551C15 17.0295 16.2587 14.2174 17.862 12.3778L23.6032 17.2263L16.1875 26.0219Z" fill="#EA4335"/>
</svg>
