<svg width="1002" height="615" viewBox="0 0 1002 615" fill="none" xmlns="http://www.w3.org/2000/svg">
<g filter="url(#filter0_d)">
<path d="M245 316.452C430.6 238.052 377 77.1183 327 6.45166H1014V608.452H28C42 543.785 59.4 394.852 245 316.452Z" fill="#FE664D"/>
</g>
<path fill-rule="evenodd" clip-rule="evenodd" d="M478.925 130.411C478.925 130.411 460.354 18.5441 389.294 65.1921C327.249 103.888 378.296 262.331 378.296 262.331C378.296 262.331 566.685 267.568 574.347 186.821C574.505 121.325 512.415 108.269 478.925 130.411Z" fill="#F75845"/>
<path fill-rule="evenodd" clip-rule="evenodd" d="M388.707 25.6249C388.707 25.6249 388.714 10.1488 375.635 15.1563C363.514 19.0676 374.046 45.6987 374.046 45.6987C374.046 45.6987 403.691 49.3769 403.698 33.9008C403.566 24.1085 393.091 21.7187 388.707 25.6249Z" fill="#F75845"/>
<path fill-rule="evenodd" clip-rule="evenodd" d="M500.121 301.064C500.121 301.064 503.077 274.078 479.315 280.288C457.434 284.772 470.735 333.243 470.735 333.243C470.735 333.243 521.733 345.373 524.689 318.387C526.321 301.285 508.509 295.098 500.121 301.064Z" fill="#F75845"/>
<path fill-rule="evenodd" clip-rule="evenodd" d="M520.021 519.942C520.021 519.942 519.171 458.308 481.494 480.308C449.023 499.962 489.094 590.267 489.094 590.267C489.094 590.267 564.157 578.971 575.039 543.368C589.512 507.399 542.962 495.815 520.021 519.942Z" fill="#F75845"/>
<path fill-rule="evenodd" clip-rule="evenodd" d="M158.52 450.176C158.52 450.176 101.265 432.393 106.433 477.036C109.985 515.532 196.952 529.03 196.952 529.03C196.952 529.03 244.147 441.277 207.821 418.489C176.918 402.867 156.011 429.099 158.52 450.176Z" fill="#F75845"/>
<path fill-rule="evenodd" clip-rule="evenodd" d="M904.648 183.833C904.648 183.833 904.066 158.877 883.163 167.423C863.764 174.166 881.771 216.729 881.771 216.729C881.771 216.729 929.726 221.594 929.144 196.638C928.555 180.853 911.569 177.376 904.648 183.833Z" fill="#F75845"/>
<path fill-rule="evenodd" clip-rule="evenodd" d="M765.534 6.45166C764.098 7.97473 762.821 10.1375 761.781 13.0928C754.915 33.612 805.639 58.0845 805.639 58.0845C805.639 58.0845 833.665 25.9873 825.885 6.45166H795.891C794.345 9.32625 793.343 12.6015 793.144 16.1105C793.144 16.1105 787.999 10.2138 781.697 6.45166H765.534Z" fill="#F75845"/>
<path fill-rule="evenodd" clip-rule="evenodd" d="M914.225 258.013C914.225 258.013 902.713 250.893 900.056 263.515C897.4 276.137 926.325 281.879 926.325 281.879C926.325 281.879 938.893 256.062 929.73 250.946C920.566 245.83 916.441 249.077 914.225 258.013Z" fill="#F75845"/>
<path fill-rule="evenodd" clip-rule="evenodd" d="M482.179 37.9201C482.179 37.9201 462.28 28.8153 461.007 48.5711C458.889 66.4499 499.348 68.5638 499.348 68.5638C499.348 68.5638 521.561 32.6195 501.662 23.5148C488.991 17.9299 479.741 29.9894 482.179 37.9201Z" fill="#F75845"/>
<path fill-rule="evenodd" clip-rule="evenodd" d="M558.544 72.9452C558.544 72.9452 557.751 55.3062 543.099 61.6688C529.483 66.7339 542.869 96.5587 542.869 96.5587C542.869 96.5587 576.855 99.2656 576.062 81.6265C575.404 70.4725 563.339 68.2736 558.544 72.9452Z" fill="#F75845"/>
<path fill-rule="evenodd" clip-rule="evenodd" d="M605.429 6.45166C572.691 42.1495 622.725 154.906 622.725 154.906C622.725 154.906 727.793 139.094 743.024 89.2608C763.283 38.9138 698.126 22.699 666.014 56.4698C666.014 56.4698 665.573 24.525 653.346 6.45166H605.429Z" fill="#F75845"/>
<path fill-rule="evenodd" clip-rule="evenodd" d="M782.336 91.8255C782.336 91.8255 768.035 80.2645 762.88 96.0822C757.428 110.196 789.924 120.352 789.924 120.352C789.924 120.352 815.5 95.7214 801.2 84.1604C792.049 76.9718 782.004 84.8608 782.336 91.8255Z" fill="#F75845"/>
<path fill-rule="evenodd" clip-rule="evenodd" d="M796.722 173.634C796.722 173.634 772.126 143.077 754.239 173.727C736.503 200.691 799.667 236.532 799.667 236.532C799.667 236.532 864.106 196.725 839.51 166.168C823.677 147.051 799.175 158.964 796.722 173.634Z" fill="#F75845"/>
<path fill-rule="evenodd" clip-rule="evenodd" d="M691.307 574.013C664.632 461.514 816.278 489.671 816.278 489.671C803.507 436.579 849.007 363.249 932.675 393.838C996.927 424.299 980.674 534.182 961.001 608.452H709.598C700.514 598.435 694.073 587.02 691.307 574.013Z" fill="#F75845"/>
<path fill-rule="evenodd" clip-rule="evenodd" d="M695.365 183.189C695.365 183.189 694.88 148.054 673.403 160.596C654.892 171.8 677.735 223.278 677.735 223.278C677.735 223.278 720.525 216.839 726.728 196.543C734.979 176.039 708.443 169.436 695.365 183.189Z" fill="#F75845"/>
<path fill-rule="evenodd" clip-rule="evenodd" d="M595.626 237.279C595.626 237.279 538.279 219.468 543.455 264.183C547.012 302.742 634.12 316.261 634.12 316.261C634.12 316.261 681.393 228.366 645.007 205.541C614.054 189.893 593.113 216.168 595.626 237.279Z" fill="#F75845"/>
<path fill-rule="evenodd" clip-rule="evenodd" d="M762.562 281.496C762.562 281.496 749.615 218.109 700.159 249.331C653.718 275.278 719.25 375.717 719.25 375.717C719.25 375.717 843.942 366.498 830.995 303.11C822.241 263.115 777.269 261.908 762.562 281.496Z" fill="#F75845"/>
<path fill-rule="evenodd" clip-rule="evenodd" d="M867.03 320.513C867.03 320.513 832.133 317.734 840.809 342.5C847.774 363.972 899.045 360.495 899.045 360.495C899.045 360.495 914.662 304.45 891.044 296.133C871.435 291.202 862.894 308.829 867.03 320.513Z" fill="#F75845"/>
<path fill-rule="evenodd" clip-rule="evenodd" d="M857.043 235.482C857.043 235.482 854.009 215.227 837.934 224.546C822.894 232.227 841.869 264.852 841.869 264.852C841.869 264.852 881.259 263.397 878.224 243.143C876.125 230.356 861.993 229.443 857.043 235.482Z" fill="#F75845"/>
<path fill-rule="evenodd" clip-rule="evenodd" d="M611.779 363.418C611.779 363.418 577.016 298.021 542.722 341.681C512.356 378.542 576.913 466.022 576.913 466.022C576.913 466.022 694.639 430.085 682.59 378.498C669.066 337.915 627.909 342.745 611.779 363.418Z" fill="#F75845"/>
<path fill-rule="evenodd" clip-rule="evenodd" d="M725.485 414.143C725.485 414.143 698.289 401.092 696.036 428.289C692.665 452.877 748.375 456.811 748.375 456.811C748.375 456.811 779.897 407.832 752.702 394.781C735.379 386.763 722.325 403.151 725.485 414.143Z" fill="#F75845"/>
<path fill-rule="evenodd" clip-rule="evenodd" d="M514.035 418.002C514.035 418.002 502.924 413.192 502.427 424.13C501.443 434.04 523.863 434.752 523.863 434.752C523.863 434.752 535.78 414.626 524.669 409.817C517.595 406.871 512.602 413.644 514.035 418.002Z" fill="#F75845"/>
<path fill-rule="evenodd" clip-rule="evenodd" d="M827.035 130.002C827.035 130.002 815.924 125.192 815.427 136.13C814.443 146.04 836.863 146.752 836.863 146.752C836.863 146.752 848.78 126.626 837.669 121.817C830.595 118.871 825.602 125.644 827.035 130.002Z" fill="#F75845"/>
<path fill-rule="evenodd" clip-rule="evenodd" d="M604.949 170.387C604.949 170.387 604.481 158.288 594.404 162.571C585.043 165.969 594.096 186.492 594.096 186.492C594.096 186.492 617.397 188.534 616.928 176.435C616.525 168.784 608.259 167.21 604.949 170.387Z" fill="#F75845"/>
<path fill-rule="evenodd" clip-rule="evenodd" d="M583.608 565.562C595.403 537.204 623.636 566.896 623.636 566.896C629.163 553.485 650.38 544.802 663.61 564.422C671.277 578.419 657.745 595.655 643.829 608.452H600.79C589.19 595.715 577.77 578.725 583.608 565.562Z" fill="#F75845"/>
<path fill-rule="evenodd" clip-rule="evenodd" d="M657.936 482.268C657.936 482.268 649.698 454.869 629.199 470.674C609.815 484.029 642.668 525.582 642.668 525.582C642.668 525.582 697.14 516.363 688.902 488.963C683.446 471.699 663.619 473.027 657.936 482.268Z" fill="#F75845"/>
<path fill-rule="evenodd" clip-rule="evenodd" d="M821.366 380.695C821.366 380.695 818.829 364.505 806.003 371.999C793.997 378.181 809.366 404.221 809.366 404.221C809.366 404.221 840.907 402.955 838.37 386.766C836.622 376.546 825.298 375.853 821.366 380.695Z" fill="#F75845"/>
<path fill-rule="evenodd" clip-rule="evenodd" d="M95.3115 541.992C95.3115 541.992 72.1338 515.583 63.9395 539.065C57.1333 559.604 107.927 583.93 107.927 583.93C107.927 583.93 136.294 551.253 127.837 531.789C120.801 510.837 96.3303 523.041 95.3115 541.992Z" fill="#F75845"/>
<path fill-rule="evenodd" clip-rule="evenodd" d="M160.883 573.011C160.883 573.011 151.799 562.451 145.96 573.671C140.121 583.571 162.83 595.452 162.83 595.452C162.83 595.452 184.89 580.271 175.806 569.711C169.967 563.111 161.532 567.731 160.883 573.011Z" fill="#F75845"/>
<path fill-rule="evenodd" clip-rule="evenodd" d="M54.5157 585.767C71.7243 575.98 75.0452 597.609 75.0452 597.609C80.3333 591.216 95.4918 592.322 97.7844 605.979C97.9159 606.835 97.9759 607.659 97.9701 608.452H50.0948C47.4514 599.224 46.969 589.54 54.5157 585.767Z" fill="#F75845"/>
<path fill-rule="evenodd" clip-rule="evenodd" d="M937.902 6C926.58 17.9128 921.192 34.3717 924.849 47.9981C924.849 47.9981 850.892 10.8736 843.385 85.3613C832.944 152.64 985.554 166.15 985.554 166.15C985.554 166.15 1001.29 142.633 1014 112.624V6H937.902Z" fill="#F75845"/>
<path fill-rule="evenodd" clip-rule="evenodd" d="M944.774 229.164C950.583 201.918 975.406 217.362 975.406 217.362C980.244 198.074 989.171 191.085 1008.93 202.186C1011.21 203.464 1012.86 205.332 1014 207.637V234.299C1009.93 251.582 1001.4 268.977 1001.4 268.977C1001.4 268.977 938.965 256.409 944.774 229.164Z" fill="#F75845"/>
<path fill-rule="evenodd" clip-rule="evenodd" d="M939.781 297.163C968.974 280.115 969.633 327.872 969.633 327.872C984.052 312.708 1010.51 315.751 1014 332.316V340.167C1013.66 342.015 1013.09 343.968 1012.26 346.025C1003.83 373.611 945.669 382.364 945.669 382.364C945.669 382.364 914.62 312.391 939.781 297.163Z" fill="#F75845"/>
<path d="M0.62512 580.933L0.986864 577.498L14.385 578.903L14.669 576.205L18.6246 576.62L17.5367 586.951L13.5811 586.536L13.9026 583.483L5.17473 582.568L6.00159 585.742L1.79076 585.3L0.62512 580.933Z" fill="#919396"/>
<path d="M17.043 572.372C15.1525 573.433 12.8878 573.765 10.2489 573.367C7.61009 572.97 5.55283 571.988 4.07714 570.42C2.5871 568.833 2.0436 566.707 2.44665 564.043C2.84971 561.378 3.99651 559.515 5.88705 558.454C7.76324 557.373 10.0208 557.032 12.6596 557.429C15.2985 557.826 17.3629 558.818 18.8529 560.405C20.3286 561.973 20.8649 564.089 20.4619 566.754C20.0588 569.419 18.9192 571.291 17.043 572.372ZM16.4021 566.143C16.7337 563.95 15.2503 562.606 11.9517 562.109C8.65315 561.613 6.83805 562.461 6.50643 564.653C6.1748 566.846 7.65827 568.191 10.9568 568.687C14.2554 569.183 16.0705 568.335 16.4021 566.143Z" fill="#919396"/>
<path d="M24.7279 542.708L23.0265 550.351L11.0021 547.689L12.6591 540.246C12.9853 538.78 13.5342 537.81 14.306 537.334C15.0648 536.838 15.8617 536.683 16.6967 536.868C18.0829 537.174 18.8819 538.033 19.0938 539.443C19.8876 538.081 21.0026 537.559 22.4389 537.877C23.3574 538.08 24.0552 538.567 24.5323 539.336C24.9926 540.102 25.0578 541.226 24.7279 542.708ZM19.1175 545.004L21.2718 545.481L21.7055 543.533C21.8983 542.667 21.6439 542.156 20.9425 542.001C20.2077 541.838 19.7421 542.198 19.5456 543.081L19.1175 545.004ZM14.6529 544.042L16.8072 544.519L17.1909 542.795C17.3836 541.929 17.1293 541.419 16.4279 541.264C15.693 541.101 15.2274 541.461 15.0309 542.343L14.6529 544.042Z" fill="#919396"/>
<path d="M27.2008 532.837L26.2107 536.52L14.3138 533.338L15.4435 529.137L21.0697 530.641L16.5798 524.911L17.5699 521.229L29.4668 524.41L28.3371 528.612L22.7109 527.107L27.2008 532.837Z" fill="#919396"/>
<path d="M34.1266 520.353L32.9188 524.131L26.8066 522.188L27.3443 520.506C25.7357 518.742 23.0062 517.31 19.1559 516.211L22.3896 506.095L31.0689 508.854L31.6378 507.075L37.7499 509.018L36.5422 512.796L33.4861 511.825L31.0705 519.381L34.1266 520.353ZM23.4197 513.404C25.7135 514.205 27.4736 515.159 28.7001 516.265L29.7443 512.998L24.121 511.21L23.4197 513.404Z" fill="#919396"/>
<path d="M34.4375 505.202C32.9048 506.036 31.1601 506.091 29.2032 505.367C27.2464 504.643 25.9677 503.47 25.3671 501.847C24.7564 500.202 24.7931 498.46 25.4771 496.621C26.1612 494.782 27.2695 493.445 28.8022 492.611C30.3248 491.756 32.0645 491.69 34.0213 492.413C35.9781 493.137 37.2619 494.322 37.8726 495.967C38.4732 497.59 38.4314 499.321 37.7474 501.16C37.0633 502.999 35.96 504.346 34.4375 505.202ZM34.0591 497.831C33.7147 497.285 33.1817 496.878 32.4599 496.611C31.7381 496.344 31.0682 496.306 30.4502 496.496C29.8322 496.686 29.3775 497.172 29.086 497.956C28.7946 498.74 28.821 499.404 29.1654 499.95C29.5098 500.496 30.0429 500.902 30.7646 501.169C31.4864 501.436 32.1563 501.475 32.7743 501.285C33.3923 501.095 33.847 500.608 34.1385 499.825C34.43 499.041 34.4035 498.376 34.0591 497.831Z" fill="#919396"/>
<path d="M43.4745 485.964L40.4265 493.179L29.0753 488.41L32.0437 481.383C32.6281 480 33.3427 479.143 34.1874 478.814C35.0231 478.461 35.8351 478.451 36.6234 478.782C37.9319 479.332 38.5637 480.319 38.5187 481.744C39.5445 480.546 40.7353 480.232 42.0911 480.801C42.9582 481.166 43.5573 481.769 43.8882 482.611C44.2035 483.447 44.0656 484.565 43.4745 485.964ZM37.5421 487.219L39.5758 488.074L40.3528 486.234C40.6981 485.417 40.5397 484.869 39.8775 484.591C39.1838 484.3 38.661 484.571 38.309 485.404L37.5421 487.219ZM33.3227 485.474L35.3565 486.329L36.0438 484.702C36.3891 483.884 36.2307 483.337 35.5685 483.058C34.8748 482.767 34.352 483.038 34 483.871L33.3227 485.474Z" fill="#919396"/>
<path d="M50.7763 470.303L49.0666 473.713L38.0496 468.22L40.0001 464.329L45.2103 466.927L41.9622 460.416L43.6719 457.006L54.6889 462.499L52.7383 466.39L47.5282 463.792L50.7763 470.303Z" fill="#919396"/>
<path d="M57.8798 456.811L55.7583 460.612L44.996 454.638L47.1174 450.837L50.9291 452.953L52.801 449.6L48.9893 447.484L51.1108 443.684L61.8731 449.658L59.7517 453.458L55.94 451.342L54.0681 454.695L57.8798 456.811Z" fill="#919396"/>
<path d="M66.715 441.833L64.4382 445.542L56.9963 441.001L55.1212 444.056L52.0569 442.186L58.0838 432.366L61.1481 434.236L59.2731 437.291L66.715 441.833Z" fill="#919396"/>
<path d="M64.2878 434.154C63.3347 433.519 62.6093 432.79 62.1118 431.967C61.6001 431.133 61.3304 430.308 61.3026 429.489C61.2606 428.661 61.3395 427.883 61.5394 427.155C61.7392 426.426 62.0387 425.764 62.4378 425.169C63.0078 424.318 63.6442 423.644 64.3468 423.148C65.0494 422.652 65.7423 422.354 66.4257 422.256C67.1185 422.143 67.8302 422.155 68.5607 422.293C69.277 422.422 69.9434 422.701 70.5599 423.133C71.1716 423.54 71.7524 424.009 72.3023 424.539L67.8274 431.22C69.1366 431.538 70.3898 430.804 71.5869 429.016C72.3185 427.924 72.8105 426.837 73.0629 425.753L75.7516 427.544C75.4136 428.878 74.76 430.268 73.7909 431.715C72.6223 433.46 71.1766 434.589 69.4539 435.103C67.717 435.608 65.9949 435.291 64.2878 434.154ZM67.9168 426.387C67.6229 426.089 67.1912 425.935 66.6219 425.925C66.0478 425.891 65.547 426.193 65.1195 426.832C64.7774 427.342 64.6441 427.879 64.7196 428.442C64.795 429.005 65.0959 429.462 65.6223 429.813L67.9168 426.387Z" fill="#919396"/>
<path d="M73.7321 415.632C74.8 416.517 75.6994 417.342 76.4305 418.108C77.1579 418.85 77.7815 419.633 78.3011 420.456C78.8171 421.255 79.0796 422.038 79.0888 422.806C79.108 423.56 78.8702 424.274 78.3753 424.948C77.9813 425.485 77.4366 425.996 76.7409 426.482L73.9451 424.442C74.1794 424.296 74.3572 424.141 74.4784 423.976C74.6602 423.728 74.7408 423.459 74.7203 423.169C74.6859 422.869 74.5416 422.532 74.2873 422.156C74.0431 421.766 73.7719 421.399 73.4735 421.055C73.1613 420.7 72.7148 420.269 72.1339 419.761C71.5493 419.228 71.0255 418.772 70.5624 418.392C70.0856 418.002 69.4619 417.494 68.6914 416.869L74.9033 408.403L84.8442 415.655L82.2685 419.166L75.02 413.877L73.7321 415.632Z" fill="#919396"/>
<path d="M82.9793 403.678C84.0068 404.609 84.8688 405.473 85.5651 406.27C86.2589 407.044 86.847 407.853 87.3296 408.698C87.8096 409.519 88.0371 410.313 88.0121 411.081C87.9979 411.834 87.7286 412.537 87.2042 413.189C86.7868 413.708 86.2198 414.195 85.5033 414.65L82.8008 412.488C83.0414 412.353 83.2259 412.205 83.3543 412.046C83.547 411.806 83.6394 411.541 83.6318 411.251C83.6107 410.95 83.4816 410.606 83.2442 410.219C83.0176 409.819 82.7629 409.441 82.4801 409.084C82.184 408.716 81.757 408.265 81.1993 407.731C80.6389 407.174 80.1358 406.695 79.6901 406.295C79.2311 405.884 78.6306 405.349 77.8886 404.69L84.4704 396.507L94.0795 404.191L91.3504 407.584L84.3438 401.981L82.9793 403.678Z" fill="#919396"/>
<path d="M90.5257 398.948C89.663 398.195 89.0384 397.379 88.6521 396.498C88.2528 395.606 88.0926 394.752 88.1713 393.937C88.2371 393.11 88.4164 392.349 88.7092 391.653C89.002 390.956 89.3849 390.338 89.8579 389.799C90.5337 389.029 91.2522 388.443 92.0133 388.042C92.7744 387.641 93.5002 387.435 94.1906 387.426C94.8922 387.403 95.5963 387.508 96.3028 387.739C96.9965 387.958 97.6209 388.322 98.1762 388.829C98.7299 389.312 99.2449 389.852 99.7214 390.449L94.4165 396.495C95.6735 396.98 97.0115 396.413 98.4306 394.796C99.2979 393.807 99.927 392.792 100.318 391.751L102.751 393.874C102.243 395.153 101.415 396.447 100.266 397.756C98.8804 399.335 97.3002 400.268 95.5252 400.556C93.7373 400.832 92.0708 400.296 90.5257 398.948ZM95.1327 391.715C94.88 391.381 94.472 391.173 93.9087 391.089C93.3439 390.982 92.808 391.217 92.3012 391.795C91.8957 392.257 91.6938 392.772 91.6955 393.34C91.6972 393.908 91.9363 394.4 92.4127 394.815L95.1327 391.715Z" fill="#919396"/>
<path d="M107.685 389.145L104.677 392.295L95.7551 383.827L98.7625 380.677L101.885 383.641L102.557 382.937L101.292 378.027L104.653 374.506L106.28 381.56L113.752 382.789L110.409 386.291L104.938 385.267L104.302 385.934L107.685 389.145Z" fill="#919396"/>
<path d="M119.634 377.207L116.501 380.234L110.43 373.986L107.85 376.478L105.35 373.905L113.643 365.894L116.143 368.467L113.563 370.959L119.634 377.207Z" fill="#919396"/>
<path d="M130.112 362.988C130.454 363.37 130.835 363.374 131.256 362.999C131.384 362.886 131.488 362.759 131.569 362.618L133.363 364.623C133.048 365.246 132.585 365.829 131.972 366.374C130.951 367.283 129.921 367.592 128.884 367.304C128.599 368.882 127.864 370.199 126.677 371.255C125.77 372.061 124.783 372.482 123.715 372.518C122.646 372.554 121.725 372.139 120.951 371.273C120.461 370.726 120.155 370.14 120.033 369.517C119.9 368.881 119.935 368.279 120.137 367.711C120.352 367.131 120.631 366.598 120.973 366.11C121.329 365.611 121.75 365.145 122.235 364.714C122.924 364.101 123.651 363.58 124.414 363.153L124.124 362.828C123.816 362.484 123.405 362.358 122.891 362.45C122.379 362.517 121.809 362.829 121.184 363.385C120.214 364.248 119.352 365.437 118.599 366.953L116.156 364.222C117.043 362.702 118.054 361.437 119.19 360.427C120.761 359.03 122.245 358.293 123.642 358.216C125.04 358.139 126.434 358.876 127.823 360.43L130.112 362.988ZM124.063 368.026C124.29 368.28 124.586 368.406 124.95 368.402C125.302 368.386 125.644 368.23 125.976 367.935C126.55 367.424 126.912 366.817 127.062 366.113L125.951 364.871C125.504 365.063 125.064 365.352 124.63 365.738C123.659 366.601 123.47 367.364 124.063 368.026Z" fill="#919396"/>
<defs>
<filter id="filter0_d" x="17" y="0.45166" width="998" height="614" filterUnits="userSpaceOnUse" color-interpolation-filters="sRGB">
<feFlood flood-opacity="0" result="BackgroundImageFix"/>
<feColorMatrix in="SourceAlpha" type="matrix" values="0 0 0 0 0 0 0 0 0 0 0 0 0 0 0 0 0 0 127 0"/>
<feOffset dx="-5"/>
<feGaussianBlur stdDeviation="3"/>
<feColorMatrix type="matrix" values="0 0 0 0 0.108333 0 0 0 0 0.108333 0 0 0 0 0.108333 0 0 0 0.13 0"/>
<feBlend mode="normal" in2="BackgroundImageFix" result="effect1_dropShadow"/>
<feBlend mode="normal" in="SourceGraphic" in2="effect1_dropShadow" result="shape"/>
</filter>
</defs>
</svg>
