<svg width="278" height="328" viewBox="0 0 278 328" fill="none" xmlns="http://www.w3.org/2000/svg">
<path d="M136 259.2C56.8 271.36 12.3333 310.133 0 328H280V0C189.6 15.36 193.667 83.7333 207 116C216.333 158.667 215.2 247.04 136 259.2Z" fill="#FE664D"/>
<path fill-rule="evenodd" clip-rule="evenodd" d="M252.822 77.9517C252.822 77.9517 251.981 65.8732 242.04 70.4641C232.788 74.1493 242.47 94.3834 242.47 94.3834C242.47 94.3834 265.822 95.7065 264.981 83.628C264.342 75.9927 256.031 74.6744 252.822 77.9517Z" fill="#F75845"/>
<path fill-rule="evenodd" clip-rule="evenodd" d="M83.5043 284.634C83.5043 284.634 71.6261 282.287 73.4582 293.082C74.5963 302.976 96.6578 298.921 96.6578 298.921C96.6578 298.921 104.041 276.727 92.1623 274.381C84.6255 273.002 81.1801 280.679 83.5043 284.634Z" fill="#F75845"/>
<path fill-rule="evenodd" clip-rule="evenodd" d="M255.063 114.252C255.063 114.252 237.174 105.158 236.363 120.179C235.365 133.08 263.299 142.435 263.299 142.435C263.299 142.435 283.817 116.142 273.115 106.576C263.8 99.6793 255.423 107.156 255.063 114.252Z" fill="#F75845"/>
<path fill-rule="evenodd" clip-rule="evenodd" d="M253.063 185.252C253.063 185.252 235.174 176.158 234.363 191.179C233.365 204.08 261.299 213.435 261.299 213.435C261.299 213.435 281.817 187.142 271.115 177.576C261.8 170.679 253.423 178.156 253.063 185.252Z" fill="#F75845"/>
<path fill-rule="evenodd" clip-rule="evenodd" d="M237.162 155.853C237.162 155.853 232.562 144.653 224.571 152.139C216.95 158.549 232.508 174.708 232.508 174.708C232.508 174.708 255.09 168.613 250.49 157.414C247.48 150.367 239.177 151.732 237.162 155.853Z" fill="#F75845"/>
<path fill-rule="evenodd" clip-rule="evenodd" d="M58.7288 292.454C58.7288 292.454 55.7224 285.134 50.5002 290.027C45.5191 294.216 55.6873 304.777 55.6873 304.777C55.6873 304.777 70.4459 300.793 67.4396 293.474C65.4725 288.869 60.0458 289.76 58.7288 292.454Z" fill="#F75845"/>
<path fill-rule="evenodd" clip-rule="evenodd" d="M245.654 33.3628C245.654 33.3628 225.545 25.6154 225.487 45.1116C224.486 62.8138 264.383 62.447 264.383 62.447C264.383 62.447 284.043 25.773 263.934 18.0257C251.141 13.3015 242.778 25.7145 245.654 33.3628Z" fill="#F75845"/>
</svg>
