<svg width="973" height="615" viewBox="0 0 973 615" fill="none" xmlns="http://www.w3.org/2000/svg">
<g filter="url(#filter0_d)">
<path d="M228 316.452C413.6 238.052 360 77.1183 310 6.45166H997V608.452H11C25 543.785 42.4 394.852 228 316.452Z" fill="#FE664D"/>
</g>
<path fill-rule="evenodd" clip-rule="evenodd" d="M461.925 130.411C461.925 130.411 443.354 18.5441 372.294 65.1921C310.249 103.888 361.296 262.331 361.296 262.331C361.296 262.331 549.685 267.568 557.347 186.821C557.505 121.325 495.415 108.269 461.925 130.411Z" fill="#F75845"/>
<path fill-rule="evenodd" clip-rule="evenodd" d="M371.707 25.6249C371.707 25.6249 371.714 10.1488 358.635 15.1563C346.514 19.0676 357.046 45.6987 357.046 45.6987C357.046 45.6987 386.691 49.3769 386.698 33.9008C386.566 24.1085 376.091 21.7187 371.707 25.6249Z" fill="#F75845"/>
<path fill-rule="evenodd" clip-rule="evenodd" d="M483.121 301.064C483.121 301.064 486.077 274.078 462.315 280.288C440.434 284.772 453.735 333.243 453.735 333.243C453.735 333.243 504.733 345.373 507.689 318.387C509.321 301.285 491.509 295.098 483.121 301.064Z" fill="#F75845"/>
<path fill-rule="evenodd" clip-rule="evenodd" d="M503.021 519.942C503.021 519.942 502.171 458.308 464.494 480.308C432.023 499.962 472.094 590.267 472.094 590.267C472.094 590.267 547.157 578.971 558.039 543.368C572.512 507.399 525.962 495.815 503.021 519.942Z" fill="#F75845"/>
<path fill-rule="evenodd" clip-rule="evenodd" d="M141.52 450.176C141.52 450.176 84.2653 432.393 89.4332 477.036C92.9847 515.532 179.952 529.03 179.952 529.03C179.952 529.03 227.147 441.277 190.821 418.489C159.918 402.867 139.011 429.099 141.52 450.176Z" fill="#F75845"/>
<path fill-rule="evenodd" clip-rule="evenodd" d="M887.648 183.833C887.648 183.833 887.066 158.877 866.163 167.423C846.764 174.166 864.771 216.729 864.771 216.729C864.771 216.729 912.726 221.594 912.144 196.638C911.555 180.853 894.569 177.376 887.648 183.833Z" fill="#F75845"/>
<path fill-rule="evenodd" clip-rule="evenodd" d="M748.534 6.45166C747.098 7.97473 745.821 10.1375 744.781 13.0928C737.915 33.612 788.639 58.0845 788.639 58.0845C788.639 58.0845 816.665 25.9873 808.885 6.45166H778.891C777.345 9.32625 776.343 12.6015 776.144 16.1105C776.144 16.1105 770.999 10.2138 764.697 6.45166H748.534Z" fill="#F75845"/>
<path fill-rule="evenodd" clip-rule="evenodd" d="M897.225 258.013C897.225 258.013 885.713 250.893 883.056 263.515C880.4 276.137 909.325 281.879 909.325 281.879C909.325 281.879 921.893 256.062 912.73 250.946C903.566 245.83 899.441 249.077 897.225 258.013Z" fill="#F75845"/>
<path fill-rule="evenodd" clip-rule="evenodd" d="M465.179 37.9201C465.179 37.9201 445.28 28.8153 444.007 48.5711C441.889 66.4499 482.348 68.5638 482.348 68.5638C482.348 68.5638 504.561 32.6195 484.662 23.5148C471.991 17.9299 462.741 29.9894 465.179 37.9201Z" fill="#F75845"/>
<path fill-rule="evenodd" clip-rule="evenodd" d="M541.544 72.9452C541.544 72.9452 540.751 55.3062 526.099 61.6688C512.483 66.7339 525.869 96.5587 525.869 96.5587C525.869 96.5587 559.855 99.2656 559.062 81.6265C558.404 70.4725 546.339 68.2736 541.544 72.9452Z" fill="#F75845"/>
<path fill-rule="evenodd" clip-rule="evenodd" d="M588.429 6.45166C555.691 42.1495 605.725 154.906 605.725 154.906C605.725 154.906 710.793 139.094 726.024 89.2608C746.283 38.9138 681.126 22.699 649.014 56.4698C649.014 56.4698 648.573 24.525 636.346 6.45166H588.429Z" fill="#F75845"/>
<path fill-rule="evenodd" clip-rule="evenodd" d="M765.336 91.8255C765.336 91.8255 751.035 80.2645 745.88 96.0822C740.428 110.196 772.924 120.352 772.924 120.352C772.924 120.352 798.5 95.7214 784.2 84.1604C775.049 76.9718 765.004 84.8608 765.336 91.8255Z" fill="#F75845"/>
<path fill-rule="evenodd" clip-rule="evenodd" d="M779.722 173.634C779.722 173.634 755.126 143.077 737.239 173.727C719.503 200.691 782.667 236.532 782.667 236.532C782.667 236.532 847.106 196.725 822.51 166.168C806.677 147.051 782.175 158.964 779.722 173.634Z" fill="#F75845"/>
<path fill-rule="evenodd" clip-rule="evenodd" d="M674.307 574.013C647.632 461.514 799.278 489.671 799.278 489.671C786.507 436.579 832.007 363.249 915.675 393.838C979.927 424.299 963.674 534.182 944.001 608.452H692.598C683.514 598.435 677.073 587.02 674.307 574.013Z" fill="#F75845"/>
<path fill-rule="evenodd" clip-rule="evenodd" d="M678.365 183.189C678.365 183.189 677.88 148.054 656.403 160.596C637.892 171.8 660.735 223.278 660.735 223.278C660.735 223.278 703.525 216.839 709.728 196.543C717.979 176.039 691.443 169.436 678.365 183.189Z" fill="#F75845"/>
<path fill-rule="evenodd" clip-rule="evenodd" d="M578.626 237.279C578.626 237.279 521.279 219.468 526.455 264.183C530.012 302.742 617.12 316.261 617.12 316.261C617.12 316.261 664.393 228.366 628.007 205.541C597.054 189.893 576.113 216.168 578.626 237.279Z" fill="#F75845"/>
<path fill-rule="evenodd" clip-rule="evenodd" d="M745.562 281.496C745.562 281.496 732.615 218.109 683.159 249.331C636.718 275.278 702.25 375.717 702.25 375.717C702.25 375.717 826.942 366.498 813.995 303.11C805.241 263.115 760.269 261.908 745.562 281.496Z" fill="#F75845"/>
<path fill-rule="evenodd" clip-rule="evenodd" d="M850.03 320.513C850.03 320.513 815.133 317.734 823.809 342.5C830.774 363.972 882.045 360.495 882.045 360.495C882.045 360.495 897.662 304.45 874.044 296.133C854.435 291.202 845.894 308.829 850.03 320.513Z" fill="#F75845"/>
<path fill-rule="evenodd" clip-rule="evenodd" d="M840.043 235.482C840.043 235.482 837.009 215.227 820.934 224.546C805.894 232.227 824.869 264.852 824.869 264.852C824.869 264.852 864.259 263.397 861.224 243.143C859.125 230.356 844.993 229.443 840.043 235.482Z" fill="#F75845"/>
<path fill-rule="evenodd" clip-rule="evenodd" d="M594.779 363.418C594.779 363.418 560.016 298.021 525.722 341.681C495.356 378.542 559.913 466.022 559.913 466.022C559.913 466.022 677.639 430.085 665.59 378.498C652.066 337.915 610.909 342.745 594.779 363.418Z" fill="#F75845"/>
<path fill-rule="evenodd" clip-rule="evenodd" d="M708.485 414.143C708.485 414.143 681.289 401.092 679.036 428.289C675.665 452.877 731.375 456.811 731.375 456.811C731.375 456.811 762.897 407.832 735.702 394.781C718.379 386.763 705.325 403.151 708.485 414.143Z" fill="#F75845"/>
<path fill-rule="evenodd" clip-rule="evenodd" d="M497.035 418.002C497.035 418.002 485.924 413.192 485.427 424.13C484.443 434.04 506.863 434.752 506.863 434.752C506.863 434.752 518.78 414.626 507.669 409.817C500.595 406.871 495.602 413.644 497.035 418.002Z" fill="#F75845"/>
<path fill-rule="evenodd" clip-rule="evenodd" d="M810.035 130.002C810.035 130.002 798.924 125.192 798.427 136.13C797.443 146.04 819.863 146.752 819.863 146.752C819.863 146.752 831.78 126.626 820.669 121.817C813.595 118.871 808.602 125.644 810.035 130.002Z" fill="#F75845"/>
<path fill-rule="evenodd" clip-rule="evenodd" d="M587.949 170.387C587.949 170.387 587.481 158.288 577.404 162.571C568.043 165.969 577.096 186.492 577.096 186.492C577.096 186.492 600.397 188.534 599.928 176.435C599.525 168.784 591.259 167.21 587.949 170.387Z" fill="#F75845"/>
<path fill-rule="evenodd" clip-rule="evenodd" d="M566.608 565.562C578.403 537.204 606.636 566.896 606.636 566.896C612.163 553.485 633.38 544.802 646.61 564.422C654.277 578.419 640.745 595.655 626.829 608.452H583.79C572.19 595.715 560.77 578.725 566.608 565.562Z" fill="#F75845"/>
<path fill-rule="evenodd" clip-rule="evenodd" d="M640.936 482.268C640.936 482.268 632.698 454.869 612.199 470.674C592.815 484.029 625.668 525.582 625.668 525.582C625.668 525.582 680.14 516.363 671.902 488.963C666.446 471.699 646.619 473.027 640.936 482.268Z" fill="#F75845"/>
<path fill-rule="evenodd" clip-rule="evenodd" d="M804.366 380.695C804.366 380.695 801.829 364.505 789.003 371.999C776.997 378.181 792.366 404.221 792.366 404.221C792.366 404.221 823.907 402.955 821.37 386.766C819.622 376.546 808.298 375.853 804.366 380.695Z" fill="#F75845"/>
<path fill-rule="evenodd" clip-rule="evenodd" d="M78.3115 541.992C78.3115 541.992 55.1338 515.583 46.9395 539.065C40.1333 559.604 90.9274 583.93 90.9274 583.93C90.9274 583.93 119.294 551.253 110.837 531.789C103.801 510.837 79.3303 523.041 78.3115 541.992Z" fill="#F75845"/>
<path fill-rule="evenodd" clip-rule="evenodd" d="M143.883 573.011C143.883 573.011 134.799 562.451 128.96 573.671C123.121 583.571 145.83 595.452 145.83 595.452C145.83 595.452 167.89 580.271 158.806 569.711C152.967 563.111 144.532 567.731 143.883 573.011Z" fill="#F75845"/>
<path fill-rule="evenodd" clip-rule="evenodd" d="M37.5157 585.767C54.7243 575.98 58.0452 597.609 58.0452 597.609C63.3333 591.216 78.4918 592.322 80.7844 605.979C80.9159 606.835 80.9759 607.659 80.9701 608.452H33.0948C30.4514 599.224 29.969 589.54 37.5157 585.767Z" fill="#F75845"/>
<path fill-rule="evenodd" clip-rule="evenodd" d="M920.902 6C909.58 17.9128 904.192 34.3717 907.849 47.9981C907.849 47.9981 833.892 10.8736 826.385 85.3613C815.944 152.64 968.554 166.15 968.554 166.15C968.554 166.15 984.287 142.633 997 112.624V6H920.902Z" fill="#F75845"/>
<path fill-rule="evenodd" clip-rule="evenodd" d="M927.774 229.164C933.583 201.918 958.406 217.362 958.406 217.362C963.244 198.074 972.171 191.085 991.934 202.186C994.208 203.464 995.859 205.332 997 207.637V234.299C992.929 251.582 984.405 268.977 984.405 268.977C984.405 268.977 921.965 256.409 927.774 229.164Z" fill="#F75845"/>
<path fill-rule="evenodd" clip-rule="evenodd" d="M922.781 297.163C951.974 280.115 952.633 327.872 952.633 327.872C967.052 312.708 993.508 315.751 997 332.316V340.167C996.661 342.015 996.091 343.968 995.264 346.025C986.832 373.611 928.669 382.364 928.669 382.364C928.669 382.364 897.62 312.391 922.781 297.163Z" fill="#F75845"/>
<defs>
<filter id="filter0_d" x="0" y="0.45166" width="998" height="614" filterUnits="userSpaceOnUse" color-interpolation-filters="sRGB">
<feFlood flood-opacity="0" result="BackgroundImageFix"/>
<feColorMatrix in="SourceAlpha" type="matrix" values="0 0 0 0 0 0 0 0 0 0 0 0 0 0 0 0 0 0 127 0"/>
<feOffset dx="-5"/>
<feGaussianBlur stdDeviation="3"/>
<feColorMatrix type="matrix" values="0 0 0 0 0.108333 0 0 0 0 0.108333 0 0 0 0 0.108333 0 0 0 0.13 0"/>
<feBlend mode="normal" in2="BackgroundImageFix" result="effect1_dropShadow"/>
<feBlend mode="normal" in="SourceGraphic" in2="effect1_dropShadow" result="shape"/>
</filter>
</defs>
</svg>
