<svg width="35" height="35" viewBox="0 0 35 35" fill="none" xmlns="http://www.w3.org/2000/svg">
<path d="M17.5 9C12.8017 9 9 12.8079 9 17.5C9 22.1962 12.8079 26 17.5 26C22.1983 26 26 22.1921 26 17.5C26 12.8017 22.1921 9 17.5 9ZM17.5 23.0183C14.452 23.0183 11.9817 20.548 11.9817 17.5C11.9817 14.452 14.452 11.9817 17.5 11.9817C20.548 11.9817 23.0183 14.4499 23.0183 17.5C23.0183 20.548 20.548 23.0183 17.5 23.0183Z" fill="white"/>
<path d="M24.7157 0.110747C21.4959 -0.0401783 13.5206 -0.0336164 10.2964 0.110747C7.46377 0.244173 4.96578 0.928804 2.95338 2.94114C-0.413013 6.30742 0.0179028 10.8417 0.0179028 17.4934C0.0179028 24.3003 -0.360515 28.7318 2.95338 32.0456C6.33071 35.4228 10.933 34.981 17.5061 34.981C25.5622 34.981 34.3774 35.7531 34.8892 24.7028C35.0402 21.4809 35.0336 13.5081 34.8892 10.2862C34.6005 4.14197 31.3019 0.416971 24.7157 0.110747ZM29.8101 29.8189C27.6031 32.0259 24.5429 31.8291 17.4601 31.8291C10.1696 31.8291 7.24503 31.9362 5.11014 29.797C2.65152 27.3516 3.09775 23.4232 3.09775 17.4715C3.09775 2.92583 3.93114 3.11175 17.4383 3.11175L17.5039 3.1555C31.9888 3.1555 31.84 4.09385 31.84 17.4934C31.8422 24.6984 31.98 27.6404 29.8101 29.8189Z" fill="white"/>
<path d="M27 10C28.1046 10 29 9.10457 29 8C29 6.89543 28.1046 6 27 6C25.8954 6 25 6.89543 25 8C25 9.10457 25.8954 10 27 10Z" fill="white"/>
</svg>
