<svg width="31" height="30" viewBox="0 0 31 30" fill="none" xmlns="http://www.w3.org/2000/svg">
<path d="M15.1206 9.87668C12.3434 9.87668 10.077 12.0972 10.077 14.8182C10.077 17.5392 12.3434 19.7597 15.1206 19.7597C17.8978 19.7597 20.1642 17.5392 20.1642 14.8182C20.1642 12.0972 17.8978 9.87668 15.1206 9.87668ZM30.2476 14.8182C30.2476 12.7719 30.2665 10.7441 30.1492 8.70155C30.0319 6.32904 29.4795 4.22343 27.7088 2.48853C25.9343 0.749926 23.7889 0.212404 21.3674 0.0974859C19.2788 -0.0174327 17.2092 0.00110264 15.1244 0.00110264C13.0358 0.00110264 10.9661 -0.0174327 8.88135 0.0974859C6.45981 0.212404 4.3107 0.753634 2.53995 2.48853C0.765422 4.22714 0.216793 6.32904 0.0995002 8.70155C-0.0177929 10.7478 0.00112542 12.7756 0.00112542 14.8182C0.00112542 16.8608 -0.0177929 18.8922 0.0995002 20.9348C0.216793 23.3073 0.769206 25.4129 2.53995 27.1478C4.31448 28.8864 6.45981 29.424 8.88135 29.5389C10.9699 29.6538 13.0396 29.6353 15.1244 29.6353C17.2129 29.6353 19.2826 29.6538 21.3674 29.5389C23.7889 29.424 25.938 28.8827 27.7088 27.1478C29.4833 25.4092 30.0319 23.3073 30.1492 20.9348C30.2703 18.8922 30.2476 16.8645 30.2476 14.8182ZM15.1206 22.4213C10.8261 22.4213 7.36032 19.0257 7.36032 14.8182C7.36032 10.6107 10.8261 7.21502 15.1206 7.21502C19.415 7.21502 22.8808 10.6107 22.8808 14.8182C22.8808 19.0257 19.415 22.4213 15.1206 22.4213ZM23.1987 8.67931C22.196 8.67931 21.3863 7.886 21.3863 6.90363C21.3863 5.92126 22.196 5.12795 23.1987 5.12795C24.2013 5.12795 25.011 5.92126 25.011 6.90363C25.0113 7.1369 24.9647 7.36793 24.8737 7.5835C24.7827 7.79907 24.6492 7.99493 24.4809 8.15988C24.3125 8.32482 24.1126 8.45561 23.8926 8.54474C23.6726 8.63387 23.4368 8.6796 23.1987 8.67931Z" fill="#D32E9B"/>
</svg>
