<svg width="110" height="110" viewBox="0 0 110 110" fill="none" xmlns="http://www.w3.org/2000/svg">
<path d="M94.3982 49.2819C94.3982 51.8491 93.5883 54.2284 92.2128 56.1771H92.2112C90.0468 59.2445 86.4742 61.2477 82.4316 61.2477C78.5526 61.2477 75.1042 59.4014 72.9172 56.5396H68.1176L45.3374 56.5413C43.1529 59.4014 39.707 61.2477 35.8289 61.2477C29.2191 61.2477 23.8623 55.89 23.8623 49.2819C23.8623 43.1345 28.4966 38.0739 34.4618 37.3958V25.2505C34.4618 18.4384 37.2229 12.2709 41.6868 7.80699C45.5498 3.944 50.6909 1.3558 56.4195 0.729736C57.3091 0.631546 58.2138 0.582031 59.1302 0.582031C59.3443 0.582031 59.5574 0.585388 59.7697 0.590424C60.6862 0.613922 61.5909 0.687775 62.4805 0.807785C74.5193 2.44261 83.7987 12.7627 83.7987 25.2505V37.3958C89.7639 38.0739 94.3982 43.1345 94.3982 49.2819Z" fill="#F45395"/>
<path d="M62.4806 17.0017C62.4806 18.6265 64.1339 23.6677 68.5567 26.1997C72.9786 28.7317 59.2261 28.0074 59.2261 28.0074" fill="#CE1B6D"/>
<path d="M62.4806 0.807785V23.7667H59.1304V0.582031C59.3444 0.582031 59.5575 0.585388 59.7699 0.590424C60.6863 0.613922 61.591 0.687775 62.4806 0.807785Z" fill="#CE1B6D"/>
<path d="M92.2103 56.1771C90.0459 59.2445 86.4733 61.2477 82.4315 61.2477C78.5526 61.2477 75.1042 59.4006 72.9171 56.5388H68.1167V52.1622L75.9392 38.356C75.9384 45.1647 80.1337 56.1754 92.2103 56.1771Z" fill="#CE1B6D"/>
<path d="M58.9355 0.584717C54.8787 0.669479 51.2121 3.41377 48.5458 7.808C45.8385 12.2719 44.1625 18.4394 44.1625 25.2515V37.396C40.5437 38.075 37.7332 43.1355 37.7332 49.2829C37.7332 53.824 39.2681 57.776 41.5298 59.8035C39.8346 60.725 37.8926 61.2487 35.8281 61.2487C29.2183 61.2487 23.8623 55.8902 23.8623 49.2829C23.8623 43.1355 28.4957 38.075 34.461 37.396V25.2515C34.461 18.4394 37.2229 12.2719 41.6868 7.808C46.107 3.38692 52.2007 0.63591 58.9355 0.584717Z" fill="#CE1B6D"/>
<path d="M79.3434 37.9782V41.7606C79.3434 51.6116 72.2947 59.8159 62.9683 61.6085C61.9 61.8141 60.8031 61.9367 59.6827 61.9669H59.6558C59.4637 61.9719 59.2698 61.9736 59.0743 61.9736C47.9326 61.9518 38.915 52.9015 38.915 41.7598V37.9782C38.915 26.8878 59.1305 25.3469 59.1305 17.814C59.1297 25.3469 79.3434 26.8878 79.3434 37.9782Z" fill="#FFCBA3"/>
<path d="M62.6091 61.6733C61.6549 61.8395 60.6772 61.9402 59.6827 61.967H59.655C59.4612 61.9721 59.269 61.9738 59.0734 61.9738C47.9309 61.9519 38.915 52.9016 38.915 41.76V37.9784C38.915 33.5951 42.0739 30.7022 45.8949 28.344V41.76C45.8949 51.7267 53.1107 60.02 62.6091 61.6733Z" fill="#FFB076"/>
<path d="M59.1285 50.3603C56.4135 50.3603 53.8614 49.3037 51.9421 47.3844C51.4444 46.8859 51.4444 46.0786 51.9421 45.5809C52.4406 45.0824 53.2479 45.0824 53.7464 45.5809C55.1841 47.0185 57.095 47.8099 59.1285 47.8099C61.1611 47.8099 63.0729 47.0185 64.5105 45.5809C65.009 45.0824 65.8163 45.0824 66.314 45.5809C66.8125 46.0786 66.8125 46.8859 66.314 47.3844C64.3946 49.3037 61.8425 50.3603 59.1285 50.3603Z" fill="#FFB076"/>
<path d="M50.3235 40.1284C49.6194 40.1284 49.0479 39.5569 49.0479 38.8528V33.8837C49.0479 33.1796 49.6194 32.6089 50.3235 32.6089C51.0276 32.6089 51.5983 33.1796 51.5983 33.8837V38.8528C51.5991 39.5569 51.0276 40.1284 50.3235 40.1284Z" fill="#1A414C"/>
<path d="M67.9354 40.1284C67.2313 40.1284 66.6606 39.5569 66.6606 38.8528V33.8837C66.6606 33.1796 67.2313 32.6089 67.9354 32.6089C68.6404 32.6089 69.2111 33.1796 69.2111 33.8837V38.8528C69.2111 39.5569 68.6404 40.1284 67.9354 40.1284Z" fill="#1A414C"/>
<path d="M104.18 87.8828C104.18 90.6342 101.919 92.8883 99.0437 93.1035C98.8935 93.1156 98.741 93.1217 98.5884 93.1217C98.1965 93.1217 97.816 93.0844 97.4468 93.0122H63.7703C63.4019 93.0844 63.0205 93.1217 62.6286 93.1217H62.6246C59.5371 93.1194 57.0371 90.7756 57.0371 87.8828C57.0371 85.1558 59.2612 82.9162 62.1036 82.6691C62.2765 82.6523 62.4517 82.6455 62.6286 82.6455C62.8639 82.6455 63.0936 82.6584 63.3208 82.685H97.8955C98.1235 82.6584 98.3531 82.6455 98.5884 82.6455C98.9203 82.6455 99.2457 82.6729 99.5605 82.7253C102.185 83.1556 104.18 85.301 104.18 87.8828Z" fill="#FDAD6E"/>
<path d="M100.832 89.6297C100.213 89.6297 99.6231 89.3256 99.3606 88.8157C98.9352 87.9889 97.5045 88.3211 97.4903 88.3243C96.6385 88.5284 95.7526 88.1106 95.511 87.3918C95.2694 86.6722 95.764 85.9238 96.6148 85.7197C96.7162 85.6949 97.6419 85.4836 98.7391 85.5813C100.397 85.7294 101.661 86.4945 102.301 87.736C102.653 88.4219 102.282 89.2191 101.47 89.5177C101.262 89.5937 101.045 89.6297 100.832 89.6297Z" fill="#FD8A37"/>
<path d="M60.1474 89.6297C59.9659 89.6297 59.7803 89.5938 59.6037 89.5172C58.9123 89.2195 58.5961 88.4247 58.897 87.7407C59.4867 86.4 61.0121 85.1534 63.5209 85.6785C64.2582 85.8334 64.7293 86.5492 64.5736 87.2794C64.4179 88.0089 63.6935 88.4749 62.9562 88.3201C62.4988 88.2251 61.6881 88.1621 61.3993 88.8189C61.1759 89.3265 60.6741 89.6297 60.1474 89.6297Z" fill="#FD8A37"/>
<path d="M97.9926 80.3348V92.3526C97.9926 100.953 91.8401 108.116 83.6971 109.682C82.6119 109.891 81.4907 110 80.3443 110C70.5983 110 62.6978 102.099 62.6978 92.3526V80.3348C62.6978 70.5887 70.5983 62.6865 80.3443 62.6865C81.4907 62.6865 82.6119 62.7956 83.6971 63.0046C87.226 63.6827 90.3815 65.4132 92.8237 67.8554C96.017 71.0495 97.9926 75.4613 97.9926 80.3348Z" fill="#FFB076"/>
<path d="M97.9927 80.3348V92.3526C97.9927 100.953 91.8403 108.116 83.6972 109.682C75.5525 108.116 69.4009 100.953 69.4009 92.3526V80.3348C69.4009 71.7352 75.5533 64.5706 83.6972 63.0046C87.2262 63.6827 90.3817 65.4132 92.8239 67.8554C96.0172 71.0495 97.9927 75.4614 97.9927 80.3348Z" fill="#FFCBA3"/>
<path d="M80.3455 101.13C77.529 101.13 74.7134 100.059 72.5692 97.9143C72.126 97.4703 72.126 96.7511 72.5692 96.308C73.0131 95.864 73.7323 95.8649 74.1754 96.308C77.5769 99.7094 83.1124 99.7102 86.5147 96.308C86.9586 95.864 87.6779 95.8649 88.121 96.308C88.5641 96.7511 88.5641 97.4703 88.121 97.9143C85.9776 100.058 83.1611 101.13 80.3455 101.13Z" fill="#FFB076"/>
<path d="M72.6571 91.2037C71.9773 91.2037 71.4268 90.6523 71.4268 89.9733V85.6353C71.4268 84.9556 71.9773 84.405 72.6571 84.405C73.3369 84.405 73.8874 84.9556 73.8874 85.6353V89.9733C73.8874 90.6523 73.336 91.2037 72.6571 91.2037Z" fill="#1A414C"/>
<path d="M88.0335 91.2037C87.3538 91.2037 86.8032 90.6523 86.8032 89.9733V85.6353C86.8032 84.9556 87.3538 84.405 88.0335 84.405C88.7125 84.405 89.2639 84.9556 89.2639 85.6353V89.9733C89.2639 90.6523 88.7125 91.2037 88.0335 91.2037Z" fill="#1A414C"/>
<path d="M97.9934 73.6184V82.9498C89.3946 83.283 83.1499 81.3049 78.7582 78.8216C78.7565 78.82 78.7531 78.8174 78.7506 78.8158C75.8435 77.1734 73.7505 75.3086 72.3229 73.7468L72.3212 73.7485C72.3212 73.7485 68.3559 77.379 62.6978 78.1192V73.6184C62.6978 64.5513 70.0478 57.2021 79.1123 57.2021H81.5772C90.6434 57.2021 97.9934 64.5513 97.9934 73.6184Z" fill="#D55C31"/>
<path d="M78.7506 78.8158C75.8435 77.1734 73.7505 75.3086 72.3229 73.7468L72.3212 73.7485C72.3212 73.7485 68.3559 77.379 62.6978 78.1192V73.6184C62.6978 64.5513 70.0478 57.2021 79.1123 57.2021C72.6997 60.8889 74.6132 75.8801 78.7506 78.8158Z" fill="#BE421C"/>
<path d="M44.0616 108.609H55.8554V75.7601C55.8554 69.8217 53.4468 64.4456 49.5561 60.5532C45.6646 56.66 40.2876 54.2539 34.3492 54.2539C22.4707 54.2539 12.8413 63.8833 12.8413 75.7601V108.609H44.0616Z" fill="#FFE236"/>
<path d="M34.1771 54.2556C26.8817 54.4042 20.9978 63.9765 20.9978 75.7601V108.609H12.8413V75.7601C12.8413 63.9412 22.3775 54.3471 34.1771 54.2556Z" fill="#FFC200"/>
<path d="M51.9962 80.7123V90.1621C51.9962 98.7626 45.8429 105.925 37.6998 107.491C36.7675 107.67 35.8099 107.777 34.8313 107.804H34.8078C34.64 107.81 34.4705 107.811 34.3001 107.81C24.5726 107.792 16.6997 99.8905 16.6997 90.1621V88.2587C16.6997 74.7639 35.5338 80.7854 40.8302 69.6848C40.8302 69.6848 42.2678 80.7123 51.9962 80.7123Z" fill="#FFCBA3"/>
<path d="M37.386 107.549C36.5534 107.694 35.6999 107.781 34.8313 107.805H34.8078C34.6383 107.81 34.4705 107.811 34.3001 107.811C24.5709 107.792 16.6997 99.8906 16.6997 90.163V88.2588C16.6997 83.2662 19.277 80.9441 22.7942 79.4385V90.163C22.7942 98.8651 29.0935 106.105 37.386 107.549Z" fill="#FFB076"/>
<path d="M34.3474 97.6675C32.0756 97.6675 29.8037 96.8022 28.0741 95.0734C27.6394 94.6378 27.6394 93.9329 28.0741 93.4982C28.5088 93.0634 29.2138 93.0634 29.6485 93.4982C32.2392 96.0897 36.4555 96.0897 39.0462 93.4982C39.481 93.0634 40.1859 93.0634 40.6206 93.4982C41.0554 93.9329 41.0554 94.6378 40.6206 95.0734C38.8918 96.8022 36.62 97.6675 34.3474 97.6675Z" fill="#FFB076"/>
<path d="M63.0308 71.8736C62.3863 72.5173 61.5672 72.8362 60.7741 72.9763C59.3533 73.229 58.253 74.3292 58.0021 75.75C57.8611 76.5422 57.5439 77.3605 56.8993 78.005C55.6136 79.2899 53.4342 77.1985 52.2273 74.5012C52.0091 74.0145 51.8237 73.5093 51.681 72.9982C51.4762 72.2722 51.3587 71.5404 51.3587 70.8472L47.6585 67.1495L46.8428 66.333C45.6654 66.333 44.3704 65.9914 43.1921 65.4627C40.4932 64.2575 38.3993 62.0781 39.685 60.7924C40.3295 60.1478 41.1495 59.8306 41.9434 59.6888C43.3625 59.4387 44.4627 58.3384 44.7154 56.9176C44.8547 56.1245 45.1727 55.3054 45.8164 54.6609C47.1021 53.3752 49.2816 55.4683 50.4876 58.1672C51.0172 59.3447 51.3587 60.6396 51.3587 61.8179L55.8738 66.333C57.0521 66.3346 58.347 66.6745 59.5253 67.2033C62.2226 68.4092 64.3148 70.5879 63.0308 71.8736Z" fill="#61B4D8"/>
<path d="M51.3578 61.8171L55.8729 66.3322C57.052 66.3331 58.3461 66.6746 59.5253 67.2025C59.3339 69.006 58.5476 70.7583 57.1653 72.1405C55.784 73.5219 54.0308 74.31 52.2273 74.5005C51.6994 73.3213 51.3578 72.0272 51.3578 70.8473L46.8428 66.3322" fill="#3598BA"/>
<path d="M54.5502 69.5263C53.967 70.1095 53.2637 70.4998 52.5193 70.6945C51.0145 71.0956 49.3453 70.7045 48.1653 69.5263C46.4013 67.7622 46.4013 64.9029 48.1653 63.1405C49.3453 61.9606 51.0145 61.5703 52.5193 61.9706C53.2637 62.167 53.967 62.5573 54.5502 63.1405C56.3143 64.9029 56.3143 67.7622 54.5502 69.5263Z" fill="#3598BA"/>
<path d="M54.5503 69.5263C53.9671 70.1096 53.2638 70.4998 52.5194 70.6945C51.7741 70.4998 51.0709 70.1096 50.4876 69.5263C48.7235 67.7623 48.7235 64.903 50.4876 63.1406C51.0709 62.5573 51.7741 62.1671 52.5194 61.9707C53.2638 62.1671 53.9671 62.5573 54.5503 63.1406C56.3144 64.903 56.3144 67.7623 54.5503 69.5263Z" fill="#61B4D8"/>
<path d="M47.6585 67.1488L46.8428 66.3331C45.6654 66.3331 44.3704 65.9915 43.1921 65.4628C40.4932 64.2568 38.3993 62.0782 39.685 60.7925C40.3295 60.1479 41.1495 59.8299 41.9434 59.6889C43.3625 59.4379 44.4627 58.3377 44.7154 56.9177C44.7154 58.54 45.1929 60.0397 43.7905 60.8126C42.3873 61.5881 44.4669 64.8275 47.9498 64.3919C49.9933 64.1368 48.9073 65.7607 47.6585 67.1488Z" fill="#3598BA"/>
<path d="M58.0018 75.7493C57.8608 76.5424 57.5436 77.3607 56.899 78.0044C55.6133 79.2901 53.4338 77.1987 52.227 74.5014C52.0088 74.0138 51.8233 73.5094 51.6807 72.9983L57.1651 72.1406C55.4648 73.8418 56.4953 76.4652 58.0018 75.7493Z" fill="#3598BA"/>
<path d="M29.4312 87.1384C29.1459 87.1384 28.8614 87.0293 28.644 86.812C27.2786 85.4465 25.0563 85.4465 23.6908 86.812C23.2553 87.2467 22.5503 87.2467 22.1156 86.812C21.6809 86.3772 21.6809 85.6723 22.1156 85.2375C24.3496 83.0035 27.9844 83.0035 30.2184 85.2375C30.6531 85.6723 30.6531 86.3772 30.2184 86.812C30.001 87.0293 29.7157 87.1384 29.4312 87.1384Z" fill="#1A414C"/>
<path d="M45.7935 87.1384C45.5082 87.1384 45.2237 87.0293 45.0063 86.812C44.3441 86.1506 43.4646 85.7864 42.5297 85.7864C41.594 85.7864 40.7145 86.1506 40.0523 86.812C39.6176 87.2467 38.9126 87.2467 38.4779 86.812C38.0432 86.3772 38.0432 85.6723 38.4779 85.2367C39.5605 84.1549 40.999 83.5591 42.5297 83.5591C44.0596 83.5591 45.4989 84.1549 46.5807 85.2367C47.0154 85.6714 47.0154 86.3764 46.5807 86.812C46.3633 87.0293 46.078 87.1384 45.7935 87.1384Z" fill="#1A414C"/>
</svg>
