<svg width="193" height="112" viewBox="0 0 193 112" fill="none" xmlns="http://www.w3.org/2000/svg">
<path d="M55.9102 31.1576C55.9102 33.4518 53.8151 35.3317 51.1512 35.5111C51.0124 35.5212 50.8712 35.5262 50.7295 35.5262C50.3671 35.5262 50.0136 35.4952 49.672 35.4348H18.4687C18.1271 35.4952 17.7736 35.5262 17.4111 35.5262H17.4077C14.5469 35.5241 12.2305 33.57 12.2305 31.1576C12.2305 28.8836 14.2913 27.0158 16.9244 26.81C17.085 26.7962 17.2471 26.7903 17.4111 26.7903C17.6289 26.7903 17.8422 26.8012 18.053 26.823H50.0877C50.2985 26.8012 50.5118 26.7903 50.7295 26.7903C51.0368 26.7903 51.3386 26.8129 51.6304 26.8565C54.0627 27.215 55.9102 29.0048 55.9102 31.1576Z" fill="#FFD0A6"/>
<path d="M53.2331 32.0317C52.8742 32.0317 52.5321 31.8726 52.3795 31.6057C51.991 30.9256 50.8171 31.143 50.6845 31.1702C50.1893 31.2768 49.6793 31.0576 49.5393 30.6817C49.3988 30.3055 49.6891 29.913 50.1828 29.8064C51.1676 29.5936 53.2498 29.578 54.0857 31.0414C54.2906 31.4 54.0746 31.8171 53.6035 31.9728C53.483 32.0127 53.3569 32.0317 53.2331 32.0317Z" fill="#FFB076"/>
<path d="M15.3937 32.0317C15.2828 32.0317 15.1697 32.0127 15.0612 31.9729C14.6393 31.8169 14.4456 31.4006 14.6297 31.0427C15.0533 30.2178 16.1553 29.4528 17.9752 29.7793C18.4258 29.8599 18.7138 30.2351 18.6187 30.6169C18.523 30.9987 18.0803 31.2424 17.6301 31.1617C17.2053 31.086 16.4492 31.0423 16.159 31.607C16.0223 31.8729 15.7155 32.0317 15.3937 32.0317Z" fill="#FFB076"/>
<path d="M64.6458 109.491V67.7577C64.6458 65.2422 63.6391 62.8298 61.8472 61.051C60.0553 59.2723 57.625 58.273 55.0908 58.273H43.6249C43.1181 58.273 42.632 58.0731 42.2736 57.7174C41.9152 57.3617 41.7139 56.8792 41.7139 56.3761V43.0974H26.426V56.3761C26.426 56.8792 26.2247 57.3617 25.8663 57.7174C25.5079 58.0731 25.0218 58.273 24.515 58.273H13.0491C10.515 58.273 8.08462 59.2723 6.29272 61.051C4.50082 62.8298 3.49414 65.2422 3.49414 67.7577V109.491" fill="#FEC9A3"/>
<path d="M41.9324 51.1238V43.0974H26.79V51.1238C29.14 52.3564 31.7325 52.9982 34.3612 52.9982C36.9899 52.9982 39.5824 52.3564 41.9324 51.1238Z" fill="#FEB784"/>
<path d="M55.5865 82.9161C57.5597 87.8466 56.6748 93.7144 52.9981 98.1016V109.491H15.1423V98.1016C11.4656 93.7144 10.4174 87.8466 12.3907 82.9161H0L2.55053 66.288C2.89391 64.0469 4.02613 62.0032 5.74217 60.5268C7.45822 59.0505 9.64467 58.2392 11.9056 58.2397H22.7135L34.0702 77.2216L45.4269 58.2397H56.3365C58.4405 58.2399 60.4846 58.9431 62.1457 60.2381C63.8068 61.5332 64.9904 63.3463 65.5094 65.3911C65.5733 65.645 65.6277 65.906 65.6727 66.1694L68.1404 82.9161H55.5865Z" fill="#E54D4D"/>
<path d="M55.5867 83.1689C57.56 88.0525 56.6751 93.8644 52.9984 98.2099V109.491H15.1426V105.049C34.8063 96.7175 51.4652 86.7388 65.5097 65.8108C65.5736 66.0623 65.628 66.3208 65.6729 66.5816L68.1407 83.1689H55.5867Z" fill="#D53D3D"/>
<path d="M50.086 29.0348V32.0777C50.086 40.0027 44.5012 46.6031 37.1118 48.0452C36.2654 48.2107 35.3963 48.3092 34.5086 48.3335H34.4874C34.3351 48.3376 34.1815 48.3389 34.0266 48.3389C25.1989 48.3214 18.0542 41.0405 18.0542 32.0771V29.0348C18.0542 20.1126 34.0711 18.873 34.0711 12.8127C34.0704 18.873 50.086 20.1126 50.086 29.0348Z" fill="#FFCBA3"/>
<path d="M36.6909 48.0944C35.9404 48.2297 35.1713 48.3116 34.3891 48.3335H34.3673C34.2148 48.3376 34.0637 48.3389 33.9099 48.3389C25.1457 48.3212 18.0542 40.9548 18.0542 31.8861V28.8081C18.0542 25.2404 20.5388 22.8858 23.5443 20.9663V31.8861C23.5443 39.9985 29.2198 46.7487 36.6909 48.0944Z" fill="#FFB076"/>
<path d="M34.1152 40.4944C31.919 40.4944 29.8546 39.7779 28.3019 38.4765C27.8994 38.1384 27.8994 37.591 28.3019 37.2535C28.7052 36.9155 29.3583 36.9155 29.7615 37.2535C30.9245 38.2283 32.4703 38.765 34.1152 38.765C35.7595 38.765 37.306 38.2283 38.469 37.2535C38.8722 36.9155 39.5253 36.9155 39.9279 37.2535C40.3311 37.591 40.3311 38.1384 39.9279 38.4765C38.3753 39.7779 36.3108 40.4944 34.1152 40.4944Z" fill="#FF3A21"/>
<path d="M27.0819 30.8671C26.5995 30.8671 26.208 30.3801 26.208 29.7803V25.5468C26.208 24.9469 26.5995 24.4607 27.0819 24.4607C27.5642 24.4607 27.9552 24.9469 27.9552 25.5468V29.7803C27.9558 30.3801 27.5642 30.8671 27.0819 30.8671Z" fill="#1A414C"/>
<path d="M41.35 30.8671C40.7068 30.8671 40.1855 30.3801 40.1855 29.7803V25.5468C40.1855 24.9469 40.7068 24.4607 41.35 24.4607C41.9939 24.4607 42.5151 24.9469 42.5151 25.5468V29.7803C42.5151 30.3801 41.9939 30.8671 41.35 30.8671Z" fill="#1A414C"/>
<path d="M26.208 8.05756C26.8061 4.15898 30.3565 1.16479 34.6456 1.16479C38.9697 1.16479 42.5428 4.20847 43.0975 8.15355" fill="#343434"/>
<path d="M50.086 21.6564V27.955C35.1971 22.7848 34.0709 13.1415 34.0709 13.1415C34.0709 13.1415 32.9431 22.7848 18.0542 27.955V21.6564C18.0542 12.2691 25.2244 4.65918 34.0709 4.65918C42.9158 4.65918 50.086 12.2691 50.086 21.6564Z" fill="#343434"/>
<path d="M36.6909 4.9008C29.1588 6.2591 23.4231 13.2447 23.4231 21.6564V25.6073C21.8704 26.4497 20.091 27.2446 18.0542 27.955V21.6564C18.0542 12.2691 25.196 4.65918 34.0069 4.65918C34.922 4.65918 35.8185 4.74097 36.6909 4.9008Z" fill="#151515"/>
<path d="M156.172 53.0861L135.576 41.2969L125.664 35.6242C122.738 29.9255 119.357 8.78477 129.854 11.5441C129.854 11.5441 137.379 6.92672 146.782 7.75971C150.232 8.06434 153.934 9.10277 157.613 11.3724C171.314 19.829 165.765 47.9383 156.172 53.0861Z" fill="#FFE236"/>
<path d="M140.156 28.7516C142.24 31.6299 139.91 36.4574 136.101 41.4382L125.784 35.7417C122.739 30.0191 119.22 8.7895 130.146 11.5604C130.146 11.5604 137.977 6.92364 147.764 7.76013C134.035 6.57534 134.424 20.8353 140.156 28.7516Z" fill="#FFC200"/>
<path d="M115.533 54.2176L114.956 59.4045L114.567 62.8989H65.6461L65.2574 59.4045L64.6808 54.2176C64.1682 49.6012 64.8605 44.9308 66.6901 40.6615C68.3017 36.8991 69.0337 32.8185 68.8304 28.7304L68.5268 22.6852C68.3808 19.7607 68.8308 16.837 69.8494 14.0917C70.868 11.3465 72.434 8.83689 74.4523 6.7154C76.4705 4.59391 78.8989 2.90477 81.59 1.75058C84.281 0.596389 87.1786 0.0012207 90.1068 0.0012207C93.0349 0.0012207 95.9325 0.596389 98.6236 1.75058C101.315 2.90477 103.743 4.59391 105.761 6.7154C107.78 8.83689 109.346 11.3465 110.364 14.0917C111.383 16.837 111.833 19.7607 111.687 22.6852L111.383 28.7304C111.18 32.8185 111.912 36.8991 113.523 40.6615C115.354 44.9306 116.046 49.6012 115.533 54.2176Z" fill="#FD6D2A"/>
<path d="M115.533 54.2175L114.956 59.4045H95.3484V40.1854L98.8427 33.1966V19.2191C98.8405 15.0071 97.456 10.9123 94.9019 7.56311C92.3477 4.21395 88.7649 1.79558 84.7036 0.67922C87.985 -0.163058 91.4183 -0.222838 94.727 0.504696C98.0357 1.23223 101.127 2.72674 103.753 4.86782C106.378 7.0089 108.464 9.73669 109.842 12.8314C111.22 15.9262 111.852 19.3014 111.687 22.6851L111.383 28.7304C111.18 32.8184 111.912 36.899 113.524 40.6615C115.354 44.9305 116.046 49.6011 115.533 54.2175Z" fill="#D94500"/>
<path d="M99.5416 55.9101C99.2203 55.9103 98.9022 55.8472 98.6053 55.7243C98.3085 55.6014 98.0388 55.4213 97.8116 55.1941C97.5844 54.9669 97.4043 54.6972 97.2814 54.4003C97.1585 54.1035 97.0954 53.7853 97.0956 53.4641V41.9326H83.118V53.4641C83.1182 53.7853 83.0551 54.1035 82.9322 54.4003C82.8093 54.6972 82.6292 54.9669 82.402 55.1941C82.1748 55.4213 81.9051 55.6014 81.6082 55.7243C81.3114 55.8472 80.9932 55.9103 80.672 55.9101H77.8765V66.3933H102.337V55.9101H99.5416Z" fill="#FFCBA3"/>
<path d="M91.1605 50.6686C93.3239 50.6448 95.4157 49.89 97.0957 48.5267V41.9326H83.1182V48.5261C84.7981 49.8896 86.8899 50.6446 89.0534 50.6686H91.1605Z" fill="#FFB076"/>
<path d="M105.831 22.7136V31.4496C105.831 35.62 104.175 39.6196 101.226 42.5686C98.2766 45.5176 94.277 47.1743 90.1065 47.1743C85.9361 47.1743 81.9365 45.5176 78.9875 42.5686C76.0385 39.6196 74.3818 35.62 74.3818 31.4496V22.7136C77.8173 20.4243 80.5953 17.2774 82.4407 13.5845L83.1178 12.2305L84.1093 13.0582C88.4505 16.6757 93.4547 19.4129 98.8425 21.1171C101.124 21.8403 103.462 22.3743 105.831 22.7136Z" fill="#FFCBA3"/>
<path d="M105.831 22.7134V31.4494C105.831 35.0992 104.561 38.6352 102.239 41.4517C99.9182 44.2682 96.6899 46.1901 93.1074 46.888C94.9265 45.1024 96.3708 42.9716 97.3556 40.6206C98.3404 38.2695 98.8459 35.7455 98.8426 33.1966V21.1169C101.124 21.8402 103.462 22.3741 105.831 22.7134Z" fill="#FFB076"/>
<path d="M81.3706 62.8989H98.8425V75.1293H81.3706V62.8989Z" fill="#F0F0F0"/>
<path d="M125.699 101.265C124.46 101.471 123.187 101.231 122.109 100.586C121.03 99.9421 120.215 98.9356 119.809 97.7464L108.269 76.0965C109.004 78.2932 109.165 80.6411 108.739 82.9179C108.312 85.1946 107.312 87.3247 105.832 89.1065L106.5 111H74.3821V89.1065C72.8806 87.3042 71.8697 85.1448 71.4473 82.8373C71.0249 80.5297 71.2053 78.1523 71.971 75.9349L60.243 97.7464C59.7928 99.0701 58.8379 100.162 57.5862 100.785C56.3345 101.408 54.8873 101.512 53.5598 101.073C52.2323 100.634 51.1319 99.6882 50.4984 98.4418C49.8648 97.1954 49.7493 95.7492 50.177 94.418L63.0057 62.4859C63.7853 60.5439 65.1284 58.8797 66.862 57.7077C68.5957 56.5357 70.6405 55.9095 72.7332 55.9099H79.6237L90.1068 75.129L100.59 55.9099H107.454C109.553 55.9114 111.603 56.5421 113.339 57.7206C115.075 58.8991 116.419 60.5712 117.195 62.5208L129.877 94.418C130.109 95.1427 130.182 95.9087 130.091 96.6641C130.001 97.4195 129.749 98.1466 129.353 98.796C128.956 99.4455 128.425 100.002 127.795 100.428C127.164 100.854 126.45 101.139 125.699 101.265Z" fill="#BA87FB"/>
<path d="M60.6937 92.8696L74.2509 102.152L69.0093 111.231L54.4315 102.814C53.0808 102.034 52.0953 100.75 51.6916 99.2435C51.288 97.7371 51.4993 96.132 52.2791 94.7814C52.6842 94.0797 53.2299 93.4693 53.8821 92.9885C54.5342 92.5077 55.2787 92.1668 56.0688 91.9873C56.8588 91.8078 57.6775 91.7935 58.4734 91.9454C59.2692 92.0972 60.0252 92.4119 60.6937 92.8696Z" fill="#BA87FB"/>
<path d="M126.309 101.832L111.716 109.395L105.831 99.994L120.099 91.062C121.421 90.2344 123.037 89.9964 124.591 90.4001C126.144 90.8039 127.509 91.8164 128.385 93.2149C128.839 93.9415 129.148 94.749 129.289 95.587C129.431 96.4249 129.404 97.275 129.209 98.0842C129.014 98.8933 128.656 99.6438 128.157 100.289C127.658 100.934 127.029 101.459 126.309 101.832Z" fill="#AE77F4"/>
<path d="M125.699 101.265C124.46 101.471 123.187 101.231 122.108 100.586C121.03 99.9421 120.215 98.9356 119.809 97.7464L108.269 76.0965C109.003 78.2932 109.165 80.6412 108.739 82.9179C108.312 85.1946 107.311 87.3248 105.831 89.1065V111H74.5C88.9209 101.583 101.544 81.7159 111.756 56.8359C114.24 57.9516 116.19 59.9908 117.195 62.5209L129.877 94.418C130.109 95.1427 130.182 95.9087 130.091 96.6641C130.001 97.4195 129.749 98.1466 129.352 98.796C128.956 99.4455 128.425 100.002 127.794 100.428C127.164 100.854 126.449 101.139 125.699 101.265Z" fill="#AE77F4"/>
<path d="M90.3983 39.603C88.4764 39.603 86.5552 38.8765 85.092 37.423C84.7896 37.1221 84.7896 36.6345 85.092 36.3341C85.3949 36.0332 85.8857 36.0338 86.1881 36.3341C88.5091 38.6399 92.2864 38.6404 94.6079 36.3341C94.9109 36.0332 95.4016 36.0338 95.704 36.3341C96.0064 36.6345 96.0064 37.1221 95.704 37.423C94.2414 38.876 92.3196 39.603 90.3983 39.603Z" fill="#FF3A21"/>
<rect x="91" y="103" width="22" height="8" rx="4" fill="#FFCBA2"/>
<rect x="69" y="103" width="22" height="8" rx="4" fill="#FFCBA2"/>
<path d="M82.6017 30.6813C81.9215 30.6813 81.3706 30.1296 81.3706 29.4502V25.1093C81.3706 24.4291 81.9215 23.8782 82.6017 23.8782C83.282 23.8782 83.8329 24.4291 83.8329 25.1093V29.4502C83.8329 30.1296 83.2811 30.6813 82.6017 30.6813Z" fill="#303333"/>
<path d="M97.9885 30.6813C97.3082 30.6813 96.7573 30.1296 96.7573 29.4502V25.1093C96.7573 24.4291 97.3082 23.8782 97.9885 23.8782C98.6678 23.8782 99.2196 24.4291 99.2196 25.1093V29.4502C99.2196 30.1296 98.6678 30.6813 97.9885 30.6813Z" fill="#303333"/>
<path d="M152.54 62.4045C152.218 62.4047 151.9 62.3415 151.603 62.2187C151.307 62.0958 151.037 61.9156 150.81 61.6885C150.582 61.4613 150.402 61.1916 150.279 60.8947C150.157 60.5979 150.093 60.2797 150.094 59.9585V48.427H136.116V59.9585C136.116 60.2797 136.053 60.5979 135.93 60.8947C135.807 61.1916 135.627 61.4613 135.4 61.6885C135.173 61.9156 134.903 62.0958 134.606 62.2187C134.309 62.3415 133.991 62.4047 133.67 62.4045H130.875V72.8877H155.335V62.4045H152.54Z" fill="#FFCBA3"/>
<path d="M144.159 57.163C146.322 57.1392 148.414 56.3844 150.094 55.0211V48.427H136.116V55.0205C137.796 56.3839 139.888 57.139 142.051 57.163H144.159Z" fill="#FFB076"/>
<path d="M158.829 29.2077V37.9437C158.829 42.1141 157.173 46.1138 154.224 49.0627C151.275 52.0117 147.275 53.6684 143.105 53.6684C138.934 53.6684 134.934 52.0117 131.986 49.0627C129.037 46.1138 127.38 42.1141 127.38 37.9437V29.2077C130.815 26.9184 133.593 23.7716 135.439 20.0787L136.116 18.7246L137.107 19.5523C141.449 23.1698 146.453 25.9071 151.841 27.6113C154.122 28.3345 156.46 28.8685 158.829 29.2077Z" fill="#FFCBA3"/>
<path d="M127.38 29.2079V37.6194C127.381 41.4135 128.311 45.0893 130.011 48.0173C132.499 51.0478 134.949 51.7782 137.572 52.5037C136.24 50.6475 134.508 49.7062 133.787 47.2622C133.065 44.8182 132.496 42.0854 132.499 39.4357L131.748 25.1311C130.478 27.4607 128.651 28.3343 127.38 29.2079Z" fill="#FFB076"/>
<path d="M134.369 69.3933H151.841V81.6236H134.369V69.3933Z" fill="#F0F0F0"/>
<path d="M178.697 107.759C177.458 107.966 176.185 107.725 175.107 107.081C174.028 106.437 173.213 105.43 172.807 104.241L161.267 82.5911C162.002 84.7878 162.163 87.1358 161.737 89.4125C161.31 91.6892 160.31 93.8194 158.83 95.6012V109.579H127.38V95.6012C125.879 93.7988 124.868 91.6394 124.445 89.3319C124.023 87.0244 124.203 84.6469 124.969 82.4295L113.241 104.241C112.791 105.565 111.836 106.657 110.584 107.28C109.333 107.903 107.885 108.006 106.558 107.567C105.23 107.128 104.13 106.183 103.496 104.936C102.863 103.69 102.747 102.244 103.175 100.913L116.004 68.9805C116.783 67.0385 118.126 65.3743 119.86 64.2023C121.594 63.0303 123.639 62.4042 125.731 62.4045H132.622L143.105 81.6236L153.588 62.4045H160.452C162.551 62.406 164.601 63.0367 166.337 64.2152C168.073 65.3937 169.417 67.0658 170.193 69.0155L182.875 100.913C183.107 101.637 183.18 102.403 183.089 103.159C182.999 103.914 182.747 104.641 182.351 105.291C181.954 105.94 181.423 106.497 180.793 106.923C180.162 107.349 179.448 107.634 178.697 107.759Z" fill="#66D0FE"/>
<path d="M101.659 101.5L102.92 85.1179H113.403V101.951C113.403 103.511 112.783 105.006 111.68 106.109C110.578 107.212 109.082 107.831 107.522 107.831C106.712 107.831 105.911 107.664 105.168 107.34C104.426 107.015 103.758 106.541 103.208 105.946C102.657 105.352 102.236 104.65 101.969 103.885C101.703 103.12 101.597 102.308 101.659 101.5Z" fill="#66D0FE"/>
<path d="M107.03 57.2645C106.536 57.3879 106.076 57.6206 105.685 57.9455C105.293 58.2704 104.979 58.6791 104.766 59.1415C104.554 59.6039 104.447 60.1082 104.456 60.617C104.464 61.1259 104.587 61.6265 104.814 62.0817L106.414 65.2797H100.152C98.525 65.2797 96.9199 64.9008 95.4643 64.1731L93.7232 63.3025C93.4035 63.1427 93.0483 63.0673 92.6913 63.0833C92.3343 63.0994 91.9874 63.2064 91.6834 63.3943C91.3794 63.5822 91.1284 63.8446 90.9544 64.1568C90.7804 64.4689 90.689 64.8203 90.689 65.1777V70.1087C90.689 70.7577 90.8697 71.3938 91.2109 71.9458C91.5521 72.4979 92.0402 72.944 92.6207 73.2342L95.4643 74.6562C96.9199 75.384 98.525 75.7628 100.152 75.7628H113.402V65.2797L111.01 59.2984C110.704 58.5355 110.133 57.9091 109.401 57.5351C108.669 57.1612 107.827 57.065 107.03 57.2645Z" fill="#FFCBA3"/>
<path d="M103 75.5H113.5V86H102.5L103 75.5Z" fill="#F0F0F0"/>
<path d="M178.697 107.759C177.458 107.966 176.185 107.725 175.107 107.081C174.028 106.436 173.213 105.43 172.807 104.241L161.267 82.5909C162.002 84.7876 162.163 87.1355 161.737 89.4123C161.31 91.689 160.31 93.8191 158.83 95.6009V109.578H127.955C142.375 100.161 154.542 88.2103 164.755 63.3303C167.238 64.446 169.188 66.4852 170.193 69.0152L182.875 100.912C183.107 101.637 183.18 102.403 183.09 103.158C182.999 103.914 182.747 104.641 182.351 105.29C181.954 105.94 181.423 106.496 180.793 106.922C180.162 107.348 179.448 107.634 178.697 107.759Z" fill="#22B4D3"/>
<path d="M167.566 102.59L150.094 99.0954V74.6348L167.566 78.1291V102.59Z" fill="#DA572E"/>
<path d="M174.554 102.59L192.026 99.0954V74.6348L174.554 78.1291V102.59Z" fill="#A94110"/>
<path d="M167.565 78.1292H174.554V102.59H167.565V78.1292Z" fill="#E67540"/>
<path d="M171.06 78.1293C171.06 76.6646 170.54 75.2474 169.594 74.1299C168.647 73.0123 167.335 72.2667 165.89 72.0259L150.094 69.3933V74.6349L167.566 78.1293H171.06C171.06 76.6646 171.58 75.2474 172.526 74.1299C173.473 73.0123 174.785 72.2667 176.23 72.0259L192.026 69.3933V74.6349L174.554 78.1293H171.06Z" fill="#FEDBC7"/>
<path d="M188.819 102.423L181.83 103.588C181.58 103.63 181.324 103.617 181.079 103.549C180.834 103.482 180.607 103.362 180.414 103.198C180.22 103.034 180.065 102.83 179.958 102.599C179.851 102.369 179.796 102.119 179.796 101.865V95.3707C179.796 94.8324 179.987 94.3115 180.335 93.9007C180.683 93.4899 181.165 93.2159 181.696 93.1273L187.63 92.1382C187.956 92.0838 188.29 92.1011 188.608 92.1888C188.927 92.2765 189.223 92.4326 189.475 92.6461C189.727 92.8596 189.929 93.1255 190.068 93.4253C190.207 93.725 190.279 94.0514 190.279 94.3818V100.7C190.279 101.113 190.132 101.514 189.865 101.829C189.598 102.145 189.227 102.355 188.819 102.423Z" fill="#FFCBA3"/>
<path d="M143.396 46.0974C141.474 46.0974 139.553 45.3709 138.09 43.9174C137.788 43.6164 137.788 43.1289 138.09 42.8285C138.393 42.5276 138.884 42.5281 139.186 42.8285C141.507 45.1343 145.284 45.1348 147.606 42.8285C147.909 42.5276 148.4 42.5281 148.702 42.8285C149.004 43.1289 149.004 43.6164 148.702 43.9174C147.239 45.3704 145.318 46.0974 143.396 46.0974Z" fill="#FF3A21"/>
<path d="M135.6 37.1757C134.92 37.1757 134.369 36.624 134.369 35.9446V31.6037C134.369 30.9235 134.92 30.3726 135.6 30.3726C136.28 30.3726 136.831 30.9235 136.831 31.6037V35.9446C136.831 36.624 136.279 37.1757 135.6 37.1757Z" fill="#303333"/>
<path d="M150.987 37.1757C150.306 37.1757 149.755 36.624 149.755 35.9446V31.6037C149.755 30.9235 150.306 30.3726 150.987 30.3726C151.666 30.3726 152.218 30.9235 152.218 31.6037V35.9446C152.218 36.624 151.666 37.1757 150.987 37.1757Z" fill="#303333"/>
</svg>
