<svg width="139" height="110" viewBox="0 0 139 110" fill="none" xmlns="http://www.w3.org/2000/svg">
<path d="M138.223 98.6833C138.223 99.2612 137.993 99.8154 137.585 100.224C137.177 100.633 136.623 100.862 136.046 100.862H2.17716C1.59974 100.862 1.04597 100.633 0.637677 100.224C0.229379 99.8154 0 99.2612 0 98.6833C0 98.1054 0.229379 97.5512 0.637677 97.1426C1.04597 96.734 1.59974 96.5044 2.17716 96.5044H136.046C136.623 96.5044 137.177 96.734 137.585 97.1426C137.993 97.5512 138.223 98.1054 138.223 98.6833Z" fill="#8BC4D8"/>
<path d="M106.196 55.0042H21.7651V85.4818H106.196V55.0042Z" fill="#874223"/>
<path d="M106.196 43.6541H21.7651V55.0063H106.196V43.6541Z" fill="#E07226"/>
<path d="M106.196 85.4839H21.7651V96.8361H106.196V85.4839Z" fill="#E07226"/>
<path d="M117.164 24.1947H85.7065L101.433 5.5542L117.164 24.1947Z" fill="#FF3A21"/>
<path d="M39.5708 30.782C35.7429 35.4001 36.1834 40.9314 36.1834 43.6519H45.215V30.782H39.5708Z" fill="#FFBC00"/>
<path d="M50.8591 30.782C54.6849 35.4001 54.2465 40.9314 54.2465 43.6519H45.2148V30.782H50.8591Z" fill="#FFAA00"/>
<path d="M40.5566 35.6624H32.3828V43.6433H40.5566V35.6624Z" fill="#FFBC00"/>
<path d="M35.8186 38.28C36.6429 40.3498 35.7745 42.6421 33.8763 43.3999C31.9781 44.1577 29.7695 43.0955 28.9452 41.0278C28.1209 38.9602 28.9892 36.6679 30.8874 35.9101C32.7856 35.1523 34.9943 36.2124 35.8186 38.28Z" fill="#EA8000"/>
<path d="M33.4139 42.2388C34.7243 41.7153 35.3246 40.1327 34.7547 38.7038C34.1849 37.275 32.6606 36.5411 31.3502 37.0646C30.0398 37.5881 29.4395 39.1707 30.0094 40.5995C30.5792 42.0283 32.1035 42.7623 33.4139 42.2388Z" fill="#4C2109"/>
<path d="M57.875 35.6624H49.7012V43.6433H57.875V35.6624Z" fill="#FFAA00"/>
<path d="M54.4397 38.28C53.6133 40.3498 54.4838 42.6421 56.382 43.3999C58.2802 44.1577 60.4867 43.0955 61.3131 41.0278C62.1395 38.9602 61.2691 36.6679 59.3709 35.9101C57.4727 35.1523 55.264 36.2124 54.4397 38.28Z" fill="#EA8000"/>
<path d="M60.2484 40.6011C60.8182 39.1723 60.2179 37.5896 58.9075 37.0661C57.5971 36.5427 56.0729 37.2766 55.503 38.7054C54.9332 40.1342 55.5335 41.7168 56.8439 42.2403C58.1543 42.7638 59.6785 42.0299 60.2484 40.6011Z" fill="#4C2109"/>
<path d="M40.33 30.53C39.368 30.5323 38.4461 30.9163 37.7666 31.5979C37.0872 32.2795 36.7056 33.203 36.7056 34.1658V39.5333C36.7061 40.1116 36.9359 40.666 37.3445 41.0749C37.753 41.4838 38.307 41.7138 38.8848 41.7143H40.3216C40.8996 41.7143 41.4539 41.4845 41.8626 41.0755C42.2713 40.6665 42.5009 40.1117 42.5009 39.5333V30.53H40.33Z" fill="#EA8000"/>
<path d="M53.5606 34.1658C53.5608 33.6875 53.4668 33.214 53.2838 32.7722C53.1008 32.3304 52.8325 31.9291 52.4942 31.5913C52.1559 31.2536 51.7543 30.9859 51.3125 30.8038C50.8706 30.6217 50.3972 30.5287 49.9194 30.53H47.7632V39.4955C47.7632 40.074 47.9928 40.6287 48.4015 41.0377C48.8102 41.4468 49.3645 41.6765 49.9424 41.6765H51.3876C51.9656 41.6765 52.5199 41.4468 52.9286 41.0377C53.3372 40.6287 53.5668 40.074 53.5668 39.4955L53.5606 34.1658Z" fill="#D16F05"/>
<path d="M57.028 21.1071C57.028 25.7064 53.9363 29.636 49.5757 31.204C46.8453 32.1795 43.8618 32.1795 41.1313 31.204C36.7707 29.636 33.6812 25.7064 33.6812 21.1071C33.6812 15.1266 38.9059 10.2776 45.3535 10.2776C51.8011 10.2776 57.028 15.1266 57.028 21.1071Z" fill="#FFBC00"/>
<path d="M49.8084 29.7786C49.8083 30.2639 49.7297 30.7459 49.5756 31.206C46.8452 32.1814 43.8617 32.1814 41.1313 31.206C40.9252 30.5935 40.8547 29.9435 40.9246 29.301C40.9945 28.6586 41.2031 28.039 41.536 27.4852C41.8689 26.9314 42.3181 26.4566 42.8524 26.0938C43.3868 25.731 43.9937 25.4888 44.6309 25.384C45.2681 25.2792 45.9204 25.3142 46.5427 25.4868C47.1651 25.6593 47.7425 25.9652 48.235 26.3832C48.7274 26.8012 49.1232 27.3214 49.3949 27.9076C49.6666 28.4939 49.8077 29.1323 49.8084 29.7786Z" fill="#FFED92"/>
<path d="M40.7223 23.3613C41.8367 23.3613 42.7401 22.4572 42.7401 21.3419C42.7401 20.2266 41.8367 19.3225 40.7223 19.3225C39.608 19.3225 38.7046 20.2266 38.7046 21.3419C38.7046 22.4572 39.608 23.3613 40.7223 23.3613Z" fill="white"/>
<path d="M40.7223 22.5156C41.3698 22.5156 41.8948 21.9902 41.8948 21.3421C41.8948 20.6941 41.3698 20.1687 40.7223 20.1687C40.0747 20.1687 39.5498 20.6941 39.5498 21.3421C39.5498 21.9902 40.0747 22.5156 40.7223 22.5156Z" fill="#4C2109"/>
<path d="M49.9846 23.3613C51.0989 23.3613 52.0023 22.4572 52.0023 21.3419C52.0023 20.2266 51.0989 19.3225 49.9846 19.3225C48.8702 19.3225 47.9668 20.2266 47.9668 21.3419C47.9668 22.4572 48.8702 23.3613 49.9846 23.3613Z" fill="white"/>
<path d="M49.9845 22.5156C50.632 22.5156 51.157 21.9902 51.157 21.3421C51.157 20.6941 50.632 20.1687 49.9845 20.1687C49.3369 20.1687 48.812 20.6941 48.812 21.3421C48.812 21.9902 49.3369 22.5156 49.9845 22.5156Z" fill="#4C2109"/>
<path d="M36.5253 18.544C39.0055 18.544 41.016 16.5318 41.016 14.0497C41.016 11.5676 39.0055 9.55542 36.5253 9.55542C34.0452 9.55542 32.0347 11.5676 32.0347 14.0497C32.0347 16.5318 34.0452 18.544 36.5253 18.544Z" fill="#EA8000"/>
<path d="M36.5253 18.544C39.0055 18.544 41.016 16.5318 41.016 14.0497C41.016 11.5676 39.0055 9.55542 36.5253 9.55542C34.0452 9.55542 32.0347 11.5676 32.0347 14.0497C32.0347 16.5318 34.0452 18.544 36.5253 18.544Z" fill="#EA8000"/>
<path d="M36.5251 16.8645C38.0785 16.8645 39.3378 15.6042 39.3378 14.0496C39.3378 12.4949 38.0785 11.2346 36.5251 11.2346C34.9717 11.2346 33.7124 12.4949 33.7124 14.0496C33.7124 15.6042 34.9717 16.8645 36.5251 16.8645Z" fill="#FFBC00"/>
<path d="M54.1816 18.544C56.6617 18.544 58.6722 16.5318 58.6722 14.0497C58.6722 11.5676 56.6617 9.55542 54.1816 9.55542C51.7015 9.55542 49.6909 11.5676 49.6909 14.0497C49.6909 16.5318 51.7015 18.544 54.1816 18.544Z" fill="#EA8000"/>
<path d="M54.1816 18.544C56.6617 18.544 58.6722 16.5318 58.6722 14.0497C58.6722 11.5676 56.6617 9.55542 54.1816 9.55542C51.7015 9.55542 49.6909 11.5676 49.6909 14.0497C49.6909 16.5318 51.7015 18.544 54.1816 18.544Z" fill="#EA8000"/>
<path d="M54.1818 16.8645C55.7352 16.8645 56.9945 15.6042 56.9945 14.0496C56.9945 12.4949 55.7352 11.2346 54.1818 11.2346C52.6284 11.2346 51.3691 12.4949 51.3691 14.0496C51.3691 15.6042 52.6284 16.8645 54.1818 16.8645Z" fill="#FFBC00"/>
<path d="M45.3536 27.7486C45.5242 27.7489 45.6931 27.7154 45.8508 27.6502C46.0084 27.585 46.1516 27.4893 46.2723 27.3686C46.3929 27.2479 46.4885 27.1046 46.5536 26.9468C46.6188 26.789 46.6522 26.6199 46.6519 26.4492H44.0469C44.0469 26.6206 44.0807 26.7902 44.1465 26.9484C44.2123 27.1066 44.3087 27.2502 44.4301 27.371C44.5516 27.4918 44.6957 27.5873 44.8542 27.6521C45.0127 27.7169 45.1824 27.7497 45.3536 27.7486Z" fill="#4C2109"/>
<path d="M60.4551 55.0042H27.9717V85.4818H60.4551V55.0042Z" fill="#2C9B15"/>
<path d="M50.7965 59.7964H37.6328V63.9632H50.7965V59.7964Z" fill="#242126"/>
<path d="M99.9922 55.0042H67.5088V85.4818H99.9922V55.0042Z" fill="#36BCFF"/>
<path d="M90.3316 59.7964H77.168V63.9632H90.3316V59.7964Z" fill="#242126"/>
<path d="M91.7134 24.1948V43.6624H111.165V24.2032L91.7134 24.1948ZM104.94 43.6456H97.9302V29.4427H104.94V43.6456Z" fill="#2C9B15"/>
<path d="M32.8755 83.1938H18.4009V97.678H32.8755V83.1938Z" fill="#DD3D0B"/>
<path d="M26.1132 83.1938H11.6387V97.678H26.1132V83.1938Z" fill="#FF9D00"/>
<path d="M64.8473 87.0981C62.7498 83.0845 57.6991 80.2759 51.8661 80.2759C46.0331 80.2759 40.9782 83.0824 38.8828 87.0981H64.8473Z" fill="#89D0EF"/>
<path d="M55.0752 78.2944H51.8682V88.702H55.0752V78.2944Z" fill="#0F75EF"/>
<path d="M55.0752 71.2537H51.8682V78.2942H55.0752V71.2537Z" fill="#FCC208"/>
<path d="M51.8659 80.2736V77.064C43.5097 77.064 36.5545 81.9487 34.9877 88.4246C28.6743 89.957 24.062 94.9488 24.062 100.87H51.8659V87.0937H38.8848C40.978 83.0822 46.035 80.2736 51.8659 80.2736Z" fill="#36BCFF"/>
<path d="M26.3799 103.19H76.3582C76.9734 103.19 77.5634 102.946 77.9985 102.51C78.4335 102.075 78.6779 101.484 78.6779 100.869H24.0601C24.0601 101.484 24.3045 102.075 24.7395 102.51C25.1746 102.946 25.7646 103.19 26.3799 103.19Z" fill="#242126"/>
<path d="M38.7567 92.094C36.4726 92.094 34.2821 93.0021 32.667 94.6185C31.0519 96.2349 30.1445 98.4272 30.1445 100.713H47.3668C47.3668 98.4276 46.4597 96.2356 44.8451 94.6192C43.2304 93.0029 41.0404 92.0946 38.7567 92.094Z" fill="#2C9B15"/>
<path d="M38.7569 94.042V107.367C36.9913 107.367 35.298 106.665 34.0495 105.416C32.801 104.166 32.0996 102.472 32.0996 100.705C32.0996 98.9376 32.801 97.243 34.0495 95.9935C35.298 94.744 36.9913 94.042 38.7569 94.042Z" fill="#363338"/>
<path d="M45.4184 100.709C45.4189 101.585 45.247 102.452 44.9124 103.261C44.5778 104.07 44.0872 104.805 43.4685 105.424C42.8498 106.044 42.1152 106.535 41.3067 106.869C40.4983 107.204 39.6318 107.376 38.7568 107.376V94.042C39.6319 94.0412 40.4985 94.213 41.3071 94.5478C42.1157 94.8825 42.8504 95.3736 43.4691 95.9928C44.0878 96.6121 44.5785 97.3474 44.913 98.1566C45.2475 98.9659 45.4192 99.8332 45.4184 100.709Z" fill="#242126"/>
<path d="M38.7567 104.922C41.0793 104.922 42.9621 103.038 42.9621 100.713C42.9621 98.3887 41.0793 96.5044 38.7567 96.5044C36.4341 96.5044 34.5513 98.3887 34.5513 100.713C34.5513 103.038 36.4341 104.922 38.7567 104.922Z" fill="#98959C"/>
<path d="M38.7568 102.076C39.5086 102.076 40.118 101.466 40.118 100.713C40.118 99.961 39.5086 99.3511 38.7568 99.3511C38.005 99.3511 37.3955 99.961 37.3955 100.713C37.3955 101.466 38.005 102.076 38.7568 102.076Z" fill="#242126"/>
<path d="M48.9105 63.592C47.885 63.592 46.8826 63.8964 46.0299 64.4666C45.1773 65.0368 44.5127 65.8472 44.1203 66.7954C43.7278 67.7436 43.6252 68.7869 43.8252 69.7935C44.0253 70.8001 44.5191 71.7247 45.2442 72.4504C45.9693 73.1761 46.8932 73.6703 47.899 73.8705C48.9048 74.0708 49.9473 73.968 50.8947 73.5753C51.8421 73.1825 52.6519 72.5174 53.2216 71.6641C53.7913 70.8107 54.0954 69.8075 54.0954 68.7812C54.0954 67.4049 53.5492 66.085 52.5768 65.1119C51.6044 64.1388 50.2856 63.592 48.9105 63.592ZM48.9105 71.5352C48.3662 71.5352 47.8342 71.3737 47.3817 71.0711C46.9291 70.7685 46.5764 70.3383 46.3681 69.8351C46.1598 69.3319 46.1053 68.7781 46.2115 68.2439C46.3177 67.7096 46.5798 67.2189 46.9646 66.8337C47.3495 66.4485 47.8398 66.1862 48.3737 66.08C48.9075 65.9737 49.4608 66.0283 49.9636 66.2367C50.4664 66.4452 50.8962 66.7981 51.1986 67.2511C51.501 67.704 51.6624 68.2364 51.6624 68.7812C51.6624 69.5116 51.3725 70.2121 50.8564 70.7286C50.3403 71.2451 49.6404 71.5352 48.9105 71.5352Z" fill="#FCC208"/>
<path d="M58.0306 63.592C57.0052 63.592 56.0027 63.8964 55.15 64.4666C54.2974 65.0368 53.6328 65.8472 53.2404 66.7954C52.8479 67.7436 52.7453 68.7869 52.9453 69.7935C53.1454 70.8001 53.6392 71.7247 54.3643 72.4504C55.0895 73.1761 56.0133 73.6703 57.0191 73.8705C58.0249 74.0708 59.0674 73.968 60.0148 73.5753C60.9622 73.1825 61.772 72.5174 62.3417 71.6641C62.9115 70.8107 63.2156 69.8075 63.2156 68.7812C63.2156 67.4049 62.6693 66.085 61.6969 65.1119C60.7246 64.1388 59.4058 63.592 58.0306 63.592ZM58.0306 71.5352C57.4864 71.5352 56.9543 71.3737 56.5018 71.0711C56.0492 70.7685 55.6965 70.3383 55.4882 69.8351C55.28 69.3319 55.2255 68.7781 55.3316 68.2439C55.4378 67.7096 55.6999 67.2189 56.0848 66.8337C56.4696 66.4485 56.96 66.1862 57.4938 66.08C58.0276 65.9737 58.5809 66.0283 59.0837 66.2367C59.5866 66.4452 60.0163 66.7981 60.3187 67.2511C60.6211 67.704 60.7825 68.2364 60.7825 68.7812C60.7825 69.5116 60.4926 70.2121 59.9765 70.7286C59.4604 71.2451 58.7605 71.5352 58.0306 71.5352Z" fill="#FCC208"/>
<path d="M78.678 100.873H51.8662V87.0937H64.8474C62.7499 83.0822 57.7034 80.2736 51.8662 80.2736V77.064C60.3525 77.064 67.3874 82.1019 68.8137 88.7227C74.5754 90.5342 78.678 95.2888 78.678 100.873Z" fill="#0F75EF"/>
<path d="M63.5532 92.094C61.2713 92.0973 59.084 93.0069 57.4716 94.6229C55.8592 96.239 54.9536 98.4294 54.9536 100.713H72.178C72.178 99.5802 71.9548 98.4584 71.5212 97.4118C71.0876 96.3653 70.4521 95.4146 69.6511 94.614C68.85 93.8135 67.8991 93.1789 66.8528 92.7465C65.8065 92.3141 64.6852 92.0923 63.5532 92.094Z" fill="#2C9B15"/>
<path d="M63.5528 94.042V107.367C61.7872 107.367 60.0939 106.665 58.8454 105.416C57.5969 104.166 56.8955 102.472 56.8955 100.705C56.8955 98.9376 57.5969 97.243 58.8454 95.9935C60.0939 94.744 61.7872 94.042 63.5528 94.042Z" fill="#363338"/>
<path d="M70.221 100.709C70.2216 101.585 70.0495 102.453 69.7145 103.262C69.3795 104.072 68.8883 104.807 68.2689 105.427C67.6496 106.046 66.9143 106.537 66.1051 106.871C65.2959 107.206 64.4287 107.377 63.5532 107.376V94.042C64.4288 94.0403 65.2961 94.2116 66.1054 94.546C66.9147 94.8804 67.6501 95.3713 68.2696 95.9906C68.889 96.6099 69.3802 97.3455 69.7151 98.1552C70.0499 98.9648 70.2219 99.8326 70.221 100.709Z" fill="#242126"/>
<path d="M63.5594 104.922C65.882 104.922 67.7648 103.038 67.7648 100.713C67.7648 98.3887 65.882 96.5044 63.5594 96.5044C61.2368 96.5044 59.354 98.3887 59.354 100.713C59.354 103.038 61.2368 104.922 63.5594 104.922Z" fill="#98959C"/>
<path d="M63.5595 102.076C64.3113 102.076 64.9207 101.466 64.9207 100.713C64.9207 99.961 64.3113 99.3511 63.5595 99.3511C62.8077 99.3511 62.1982 99.961 62.1982 100.713C62.1982 101.466 62.8077 102.076 63.5595 102.076Z" fill="#242126"/>
<path d="M88.4877 80.6242C88.4877 80.6242 88.1857 74.3016 81.7465 72.9497C75.3073 71.5979 69.6357 84.2851 69.6357 84.2851L80.467 91.4223L88.4877 80.6242Z" fill="#FF3A21"/>
<path d="M128.719 67.3556L131.255 61.7151C131.255 61.7151 128.822 59.108 121.955 59.7419C107.787 61.0413 102.146 79.3942 102.146 79.3942L107.164 80.6243L118.261 67.8762L128.719 67.3556Z" fill="#FF3A21"/>
<path d="M99.7657 90.8325C104.925 90.8325 109.792 95.1757 111.484 100.992L124.711 98.6729C122.687 86.4978 112.172 76.2119 99.7657 76.2119C87.3592 76.2119 77.2012 86.8336 75.1709 99.0024L88.4877 100.856C89.7671 95.3142 94.6227 90.8283 99.7657 90.8283V90.8325Z" fill="#FFBC00"/>
<path d="M116.327 104.561L121.739 103.612C124.025 103.211 125.483 100.86 124.711 98.6709L111.484 100.99C112.443 102.605 113.003 105.145 116.327 104.561Z" fill="#5B2715"/>
<path d="M78.3172 103.839L83.7706 104.598C86.8937 105.033 87.6111 102.447 88.4836 100.86L75.1668 99.0063C74.4767 101.221 76.0058 103.517 78.313 103.834L78.3172 103.839Z" fill="#5B2715"/>
<path d="M86.3107 90.8325C86.3107 91.2842 86.1768 91.7257 85.9261 92.1013C85.6753 92.4769 85.3189 92.7696 84.9019 92.9425C84.4849 93.1153 84.0261 93.1606 83.5834 93.0724C83.1407 92.9843 82.7341 92.7668 82.415 92.4474C82.0958 92.128 81.8785 91.721 81.7904 91.278C81.7024 90.835 81.7476 90.3758 81.9203 89.9585C82.093 89.5411 82.3855 89.1844 82.7608 88.9335C83.1361 88.6825 83.5773 88.5486 84.0286 88.5486C84.3284 88.5483 84.6252 88.6072 84.9022 88.7219C85.1792 88.8366 85.4309 89.0048 85.6429 89.2169C85.8548 89.429 86.0229 89.6809 86.1375 89.9581C86.2521 90.2354 86.3109 90.5325 86.3107 90.8325Z" fill="#2C9B15"/>
<path d="M116.05 91.4203C116.05 91.8719 115.916 92.3132 115.665 92.6886C115.414 93.0639 115.057 93.3563 114.64 93.5288C114.223 93.7013 113.764 93.7463 113.322 93.6579C112.879 93.5695 112.473 93.3519 112.154 93.0324C111.835 92.7129 111.618 92.3059 111.53 91.863C111.442 91.42 111.487 90.9609 111.66 90.5437C111.833 90.1265 112.126 89.7699 112.501 89.519C112.876 89.2682 113.317 89.1343 113.768 89.1343C114.068 89.134 114.365 89.193 114.642 89.3078C114.92 89.4226 115.171 89.591 115.383 89.8033C115.595 90.0157 115.763 90.2678 115.878 90.5453C115.992 90.8227 116.051 91.1201 116.05 91.4203Z" fill="#2C9B15"/>
<path d="M105.89 79.4657C105.89 79.4657 112.522 67.3494 120.132 65.1558C120.623 65.0158 121.095 64.8983 121.548 64.8031C126.582 63.7535 131.433 67.2003 132.245 72.274C133.17 78.1201 134.132 80.4292 131.603 81.1555C129.6 81.7306 128.853 79.8393 126.974 77.6982C125.856 76.4261 123.758 76.2162 121.94 78.1873C119.482 80.8427 119.136 85.8555 119.006 87.5348L105.89 79.4657Z" fill="#FFBC00"/>
<path d="M129.247 72.0009C129.247 72.1889 129.191 72.3725 129.086 72.5286C128.982 72.6847 128.833 72.8063 128.659 72.8779C128.486 72.9496 128.295 72.9681 128.111 72.9312C127.926 72.8942 127.757 72.8035 127.625 72.6704C127.492 72.5374 127.402 72.3679 127.365 72.1835C127.329 71.9991 127.348 71.808 127.42 71.6344C127.492 71.4608 127.613 71.3124 127.77 71.208C127.926 71.1036 128.109 71.0479 128.297 71.0479C128.422 71.0476 128.546 71.0721 128.662 71.1199C128.777 71.1677 128.882 71.2379 128.971 71.3265C129.059 71.4151 129.129 71.5203 129.176 71.636C129.224 71.7517 129.248 71.8757 129.247 72.0009Z" fill="#5B2715"/>
<path d="M127.345 66.7991L131.783 64.6118L132.417 65.1198L130.408 68.8038L127.345 66.7991Z" fill="#FFBC00"/>
<path d="M135.076 99.7097C128.333 102.934 116.461 105.445 101.727 105.587C101.307 105.587 100.888 105.587 100.468 105.587C86.493 105.587 74.9842 103.459 67.813 100.562L65.8833 103.528C67.0537 104.017 68.3289 104.481 69.6986 104.922C77.9437 107.558 88.8715 109.011 100.468 109.011C100.888 109.011 101.307 109.011 101.727 109.011C112.856 108.915 123.297 107.474 131.249 104.93C133.216 104.311 135.135 103.549 136.991 102.649L135.076 99.7097Z" fill="#5D5D5D"/>
<path d="M100.074 86.5481V80.6243H97.3935V86.5481H92.5547L92.5841 87.3584C92.6351 88.9569 93.3056 90.4728 94.4535 91.5855C95.6014 92.6982 97.1368 93.3203 98.7349 93.3203C100.333 93.3203 101.868 92.6982 103.016 91.5855C104.164 90.4728 104.835 88.9569 104.886 87.3584L104.915 86.5481H100.074ZM98.7338 91.733C97.682 91.7365 96.6611 91.3774 95.8428 90.716C95.0246 90.0546 94.4589 89.1313 94.241 88.1015H103.224C103.007 89.1309 102.441 90.0539 101.624 90.7153C100.806 91.3767 99.7853 91.736 98.7338 91.733Z" fill="#5B2715"/>
<path d="M107.701 76.2161C107.701 79.8035 103.69 82.7234 98.7339 82.7234C93.7776 82.7234 89.7715 79.8014 89.7715 76.2161H107.701Z" fill="#0F75EF"/>
<path d="M116.053 80.6242C116.053 81.0764 115.919 81.5186 115.669 81.8948C115.418 82.271 115.061 82.5643 114.644 82.7377C114.227 82.911 113.767 82.9566 113.324 82.8686C112.881 82.7806 112.474 82.5631 112.154 82.2435C111.834 81.9239 111.617 81.5165 111.528 81.073C111.44 80.6296 111.485 80.1698 111.658 79.752C111.831 79.3342 112.124 78.977 112.499 78.7257C112.875 78.4745 113.317 78.3403 113.769 78.3403C114.068 78.3401 114.365 78.3989 114.642 78.5136C114.92 78.6282 115.171 78.7964 115.384 79.0085C115.596 79.2206 115.764 79.4725 115.879 79.7497C115.994 80.027 116.053 80.3241 116.053 80.6242Z" fill="#FFE236"/>
<path d="M80.958 14.377H76.4736V17.8888H80.958V14.377Z" fill="#E88D4F"/>
<path d="M77.478 42.2118V48.885H72.6035V42.2118C72.6035 41.3281 73.4425 40.6878 74.3339 40.6878H75.9699C76.1707 40.6822 76.3706 40.7179 76.557 40.7927C76.7435 40.8675 76.9127 40.9798 77.054 41.1227C77.1954 41.2655 77.3059 41.4359 77.3789 41.6232C77.4518 41.8106 77.4855 42.0109 77.478 42.2118Z" fill="#FDAD6E"/>
<path d="M77.478 44.7854H72.6035V48.8829H77.478V44.7854Z" fill="#E2E2E2"/>
<path d="M77.478 46.7375H72.6035V47.7137H77.478V46.7375Z" fill="#C5EDFF"/>
<path d="M77.478 48.885V49.626C77.478 50.5098 76.8488 51.2256 75.9699 51.2256H74.3339C73.4509 51.2256 72.6035 50.5077 72.6035 49.626V48.885H77.478Z" fill="#FF3A21"/>
<path d="M84.7897 42.2116V48.8848H79.9131V42.2116C79.9131 41.3278 80.6829 40.6876 81.5659 40.6876H83.2019C83.4072 40.6791 83.6121 40.7122 83.8043 40.785C83.9965 40.8577 84.172 40.9686 84.3203 41.1109C84.4686 41.2533 84.5866 41.4242 84.6673 41.6133C84.7479 41.8024 84.7896 42.0059 84.7897 42.2116Z" fill="#E88D4F"/>
<path d="M84.79 44.7854H79.9155V48.8829H84.79V44.7854Z" fill="#E2E2E2"/>
<path d="M84.79 46.7375H79.9155V47.7137H84.79V46.7375Z" fill="#C5EDFF"/>
<path d="M84.7897 48.885V49.626C84.7911 49.8356 84.751 50.0433 84.6719 50.2373C84.5927 50.4313 84.4759 50.6078 84.3284 50.7564C84.1808 50.9051 84.0053 51.0231 83.812 51.1036C83.6186 51.1841 83.4113 51.2256 83.2019 51.2256H81.5659C81.1364 51.2274 80.7231 51.0612 80.4143 50.7623C80.1055 50.4635 79.9257 50.0557 79.9131 49.626V48.885H84.7897Z" fill="#C61B0E"/>
<path d="M63.4126 10.4748H68.1822C68.1822 8.32945 69.2624 6.41292 72.3771 6.41292V3.45101C67.1188 1.88924 63.5028 4.68112 63.5028 10.479C63.5028 10.5797 63.4126 10.4748 63.4126 10.4748Z" fill="#FFE236"/>
<path d="M93.9811 10.4748H89.2136C89.2136 8.32949 88.1649 6.41296 85.0522 6.41296V3.45106C90.3169 1.89978 93.9119 4.68116 93.9119 10.479C93.9119 10.5798 93.9811 10.4748 93.9811 10.4748Z" fill="#FFC200"/>
<path d="M78.6192 30.572V43.6455H63.4756C63.4756 43.6455 64.6145 37.4027 71.834 30.572H78.6192Z" fill="#FF3A21"/>
<path d="M78.6191 30.572V43.6455H93.6684C93.6684 43.6455 92.4519 37.4027 85.2324 30.572H78.6191Z" fill="#C61B0E"/>
<path d="M78.5415 16.3272C82.5032 16.3272 85.7148 13.113 85.7148 9.1481C85.7148 5.18319 82.5032 1.96899 78.5415 1.96899C74.5798 1.96899 71.3682 5.18319 71.3682 9.1481C71.3682 13.113 74.5798 16.3272 78.5415 16.3272Z" fill="#FDAD6E"/>
<path d="M78.6189 17.8891V32.1318H71.7959V19.5957C71.7959 18.6532 72.7188 17.887 73.713 17.887L78.6189 17.8891Z" fill="#FF3A21"/>
<path d="M85.2491 19.5957V32.1319H78.6211V17.8891H83.4452C83.9105 17.8761 84.362 18.0486 84.7002 18.3686C85.0385 18.6887 85.2359 19.13 85.2491 19.5957Z" fill="#C61B0E"/>
<path d="M78.6193 0C74.33 0.0188924 70.6322 2.4749 71.2132 7.34704H75.1564C77.4511 7.34704 78.4243 5.68661 78.6193 4.25708V0Z" fill="#FFE236"/>
<path d="M78.6192 0C83.1036 0.0188924 86.7532 2.4749 86.1701 7.34704H82.2206C79.928 7.34704 79.001 5.68661 78.6108 4.25708L78.6192 0Z" fill="#FFC200"/>
<path d="M73.0588 21.3756L61.6989 18.59C61.4997 18.5413 61.3121 18.4538 61.1467 18.3325C60.9813 18.2112 60.8415 18.0584 60.7351 17.883C60.6288 17.7075 60.558 17.5128 60.5269 17.3099C60.4957 17.1071 60.5049 16.9001 60.5537 16.7008L60.6649 16.2453C60.7636 15.8431 61.018 15.4966 61.372 15.282C61.726 15.0675 62.1507 15.0024 62.5526 15.1012L73.9145 17.8847C74.3165 17.9836 74.6627 18.2381 74.8771 18.5924C75.0914 18.9467 75.1564 19.3717 75.0577 19.774L74.9465 20.2274C74.8981 20.4269 74.8108 20.615 74.6897 20.7807C74.5685 20.9464 74.4159 21.0867 74.2406 21.1933C74.0652 21.3 73.8706 21.371 73.6678 21.4022C73.465 21.4335 73.2581 21.4245 73.0588 21.3756Z" fill="#F9AC70"/>
<path d="M73.0589 21.3756L67.6055 20.0385L68.4591 16.5518L73.9125 17.8889C74.3144 17.9877 74.6607 18.2423 74.875 18.5966C75.0894 18.9509 75.1544 19.3759 75.0556 19.7782L74.9445 20.2316C74.8457 20.6333 74.5917 20.9795 74.2381 21.194C73.8846 21.4085 73.4605 21.4738 73.0589 21.3756Z" fill="#FF3A21"/>
<path d="M84.4125 21.3756L95.7744 18.59C95.9736 18.5414 96.1612 18.4538 96.3265 18.3325C96.4918 18.2111 96.6315 18.0583 96.7377 17.8828C96.8439 17.7073 96.9144 17.5126 96.9453 17.3097C96.9762 17.1069 96.9667 16.9 96.9176 16.7008L96.8064 16.2453C96.7077 15.8431 96.4533 15.4966 96.0993 15.282C95.7453 15.0675 95.3206 15.0024 94.9187 15.1012L83.5588 17.8889C83.1572 17.9883 82.8114 18.2429 82.5971 18.5971C82.3828 18.9512 82.3176 19.376 82.4157 19.7782L82.5269 20.2316C82.5755 20.4307 82.6629 20.6182 82.7841 20.7835C82.9052 20.9487 83.0576 21.0885 83.2328 21.1947C83.4079 21.301 83.6022 21.3716 83.8047 21.4027C84.0071 21.4337 84.2136 21.4245 84.4125 21.3756Z" fill="#F9AC70"/>
<path d="M84.4123 21.3756L89.8657 20.0385L89.0142 16.5518L83.5608 17.8889C83.1592 17.9882 82.8133 18.2429 82.599 18.5971C82.3847 18.9512 82.3195 19.376 82.4177 19.7782L82.5288 20.2316C82.6271 20.6332 82.8808 20.9793 83.2339 21.1938C83.5871 21.4084 84.011 21.4737 84.4123 21.3756Z" fill="#C61B0E"/>
<path d="M77.5933 13.7075C77.5933 14.2281 78.105 14.6479 78.7364 14.6479C79.3677 14.6479 79.8795 14.2281 79.8795 13.7075H77.5933Z" fill="white"/>
<path d="M76.7482 19.7614C77.2443 19.7608 77.7198 19.5634 78.0706 19.2123C78.4213 18.8613 78.6186 18.3853 78.6191 17.8889H74.8794C74.8794 18.3852 75.0762 18.8611 75.4266 19.2122C75.777 19.5633 76.2524 19.7608 76.7482 19.7614Z" fill="white"/>
<path d="M80.4901 19.7614C80.9863 19.7614 81.4622 19.5641 81.813 19.2129C82.1639 18.8618 82.361 18.3855 82.361 17.8889H78.6191C78.6191 18.3855 78.8163 18.8618 79.1671 19.2129C79.518 19.5641 79.9939 19.7614 80.4901 19.7614Z" fill="white"/>
<path d="M99.9421 32.1316H86.791V43.6517H99.9421V32.1316Z" fill="#36BCFF"/>
<path d="M75.8539 11.2376C75.5434 11.2376 75.292 11.0098 75.292 10.7292V8.93663C75.292 8.65572 75.5434 8.42822 75.8539 8.42822C76.1643 8.42822 76.4158 8.65572 76.4158 8.93663V10.7292C76.4158 11.0098 76.1639 11.2376 75.8539 11.2376Z" fill="#303333"/>
<path d="M81.4725 11.2376C81.1621 11.2376 80.9106 11.0098 80.9106 10.7292V8.93663C80.9106 8.65572 81.1621 8.42822 81.4725 8.42822C81.7826 8.42822 82.0344 8.65572 82.0344 8.93663V10.7292C82.0344 11.0098 81.7826 11.2376 81.4725 11.2376Z" fill="#303333"/>
</svg>
