<svg width="505" height="794" viewBox="0 0 505 794" fill="none" xmlns="http://www.w3.org/2000/svg">
<mask id="mask0" mask-type="alpha" maskUnits="userSpaceOnUse" x="-51" y="86" width="425" height="607">
<g opacity="0.8">
<path fill-rule="evenodd" clip-rule="evenodd" d="M258.961 601.046C258.961 601.046 274.753 573.332 253.11 567.402C223.857 558.623 213.786 605.832 249.589 628.993C280.396 648.115 331.746 632.624 340.16 595.641C338.852 596.236 285.742 642.523 258.961 601.046Z" fill="white"/>
<path fill-rule="evenodd" clip-rule="evenodd" d="M177.517 276.627C177.517 276.627 153.027 278.308 157.557 295.188C166.851 322.529 201.787 298.726 199.626 269.716C197.464 240.706 166.295 213.856 138.245 225.051C140.148 225.763 192.947 241.185 177.517 276.627Z" fill="white"/>
<path fill-rule="evenodd" clip-rule="evenodd" d="M90.855 450.277C90.855 450.277 114.4 456.92 116.29 440.273C117.339 411.38 77.1601 420.205 67.7885 448.153C59.7242 475.505 77.7035 511.519 107.902 511.974C107.902 511.974 63.5298 476.929 90.855 450.277Z" fill="white"/>
<path fill-rule="evenodd" clip-rule="evenodd" d="M41.4472 199.673C43.4665 197.175 46.9097 190.871 46.9097 190.871C46.9097 190.871 81.5222 211.417 105.779 216.156C112.795 217.697 118.025 215.316 122.063 210.32C126.697 206.631 128.238 199.615 128.471 193.194C128.471 193.194 143.343 208.522 118.982 224.352C118.982 224.352 148.12 236.341 135.654 260.961C125.208 283.083 89.0555 269.553 101.171 254.564C105.805 250.875 109.611 252.299 111.397 256.221C113.183 260.144 117.701 259.665 121.028 256.572C133.855 239.679 59.5301 215.117 36.5802 209.782C37.2921 207.88 40.7353 201.576 41.4472 199.673Z" fill="white"/>
<path fill-rule="evenodd" clip-rule="evenodd" d="M235.248 368.734C237.034 372.657 240.723 377.291 240.723 377.291C240.723 377.291 204.117 393.962 187.368 412.64C182.022 418.232 181.193 423.345 182.268 429.17C183.342 434.996 188.934 440.342 192.623 444.977C192.623 444.977 171.938 448.082 171.679 419.784C171.679 419.784 146.011 436.21 132.679 413.866C119.942 392.829 152.263 370.217 156.082 389C157.156 394.826 153.829 397.919 148.716 397.09C145.506 396.973 142.18 400.067 142.659 404.585C150.283 424.793 209.929 375.529 227.87 359.465C229.773 360.177 234.653 367.427 235.248 368.734Z" fill="white"/>
<path fill-rule="evenodd" clip-rule="evenodd" d="M43.7642 277.55C42.0944 270.417 44.9421 262.805 52.0743 261.136C59.2066 259.467 66.8177 262.315 68.4875 269.448C70.1572 276.581 67.3095 284.192 60.1773 285.861C53.6405 288.838 45.4339 284.682 43.7642 277.55Z" fill="white"/>
<path fill-rule="evenodd" clip-rule="evenodd" d="M5.67774 316.514C4.00796 309.382 6.85568 301.77 13.9879 300.101C21.1201 298.431 28.7313 301.28 30.401 308.413C32.0708 315.546 29.2231 323.157 22.0909 324.826C15.5541 327.803 7.34752 323.647 5.67774 316.514Z" fill="white"/>
<path fill-rule="evenodd" clip-rule="evenodd" d="M117.858 308.532C115.476 303.302 119.515 298.305 123.437 296.519C128.666 294.138 133.663 298.177 135.449 302.1C137.831 307.329 133.792 312.326 129.87 314.112C124.641 316.493 118.337 313.05 117.858 308.532Z" fill="white"/>
<path fill-rule="evenodd" clip-rule="evenodd" d="M325.204 660.289C320.627 650.238 327.931 639.631 336.886 637.979C344.927 634.318 356.629 638.697 359.196 649.664C363.773 659.715 356.469 670.322 347.514 671.974C339.473 675.635 329.782 670.34 325.204 660.289Z" fill="white"/>
<path fill-rule="evenodd" clip-rule="evenodd" d="M-2.75411 246.553C-5.61473 236.806 -0.747708 226.696 8.99923 223.836C18.7462 220.976 28.8555 225.844 31.7161 235.592C34.5768 245.339 29.7097 255.449 20.5582 259.616C11.5232 260.574 1.41387 255.706 -2.75411 246.553Z" fill="white"/>
<path fill-rule="evenodd" clip-rule="evenodd" d="M222.3 246.318C220.513 242.395 222.649 236.687 227.879 234.305C231.801 232.519 237.509 234.655 239.891 239.885C241.677 243.808 239.541 249.516 234.312 251.898C229.082 254.279 224.681 251.547 222.3 246.318Z" fill="white"/>
<path fill-rule="evenodd" clip-rule="evenodd" d="M222.808 428.073C220.426 422.844 224.581 414.637 230.406 413.563C235.635 411.181 243.246 414.03 244.916 421.163C247.893 427.7 243.143 434.599 237.318 435.673C232.088 438.055 224.477 435.206 222.808 428.073Z" fill="white"/>
<path fill-rule="evenodd" clip-rule="evenodd" d="M22.0565 503.709C20.9821 497.883 23.8299 490.272 29.6548 489.198C34.8842 486.817 42.4954 489.665 44.1651 496.798C47.1423 503.335 42.3917 510.235 36.5669 511.309C30.742 512.383 24.4382 508.939 22.0565 503.709Z" fill="white"/>
<path fill-rule="evenodd" clip-rule="evenodd" d="M267.31 477.267C265.045 468.827 269.2 460.62 277.044 457.048C285.483 454.783 293.69 458.939 297.263 466.784C299.528 475.224 295.373 483.431 287.528 487.003C279.684 490.576 269.575 485.708 267.31 477.267Z" fill="white"/>
<path fill-rule="evenodd" clip-rule="evenodd" d="M176.667 205.971C174.402 197.531 178.557 189.324 186.401 185.752C194.841 183.487 203.047 187.643 206.62 195.488C208.885 203.928 204.73 212.135 196.886 215.707C189.042 219.279 178.932 214.411 176.667 205.971Z" fill="white"/>
<path fill-rule="evenodd" clip-rule="evenodd" d="M82.7424 121.217C80.4772 112.777 84.6323 104.57 92.4764 100.998C100.916 98.7333 109.123 102.889 112.695 110.734C114.96 119.174 110.805 127.381 102.961 130.953C95.117 134.526 85.0076 129.658 82.7424 121.217Z" fill="white"/>
<path fill-rule="evenodd" clip-rule="evenodd" d="M285.637 681.923C284.001 676.348 286.785 670.565 292.36 668.929C297.935 667.293 303.717 670.078 305.354 675.653C306.99 681.229 304.206 687.012 298.631 688.648C293.056 690.283 287.273 687.499 285.637 681.923Z" fill="white"/>
<path fill-rule="evenodd" clip-rule="evenodd" d="M18.8088 451.514C16.5436 443.074 20.6987 434.867 28.5428 431.295C36.9824 429.03 45.189 433.186 48.7616 441.031C51.0268 449.471 46.8717 457.678 39.0275 461.25C30.5879 463.515 22.3814 459.359 18.8088 451.514Z" fill="white"/>
<path fill-rule="evenodd" clip-rule="evenodd" d="M156.055 354.282C153.79 345.842 157.349 336.328 165.789 334.063C174.229 331.798 183.742 335.359 186.008 343.799C188.273 352.239 184.713 361.754 176.274 364.018C168.429 367.591 158.32 362.723 156.055 354.282Z" fill="white"/>
<path fill-rule="evenodd" clip-rule="evenodd" d="M215.289 150.871C211.897 142.716 213.875 131.371 222.449 129.909C222.449 129.909 225.638 135.278 233.793 131.886C242.803 128.711 244.982 120.152 240.735 111.78C230.544 90.9568 189.571 105.132 196.041 144.147C201.048 174.587 236.122 187.163 266.342 183.009C267.197 183.227 225.682 174.479 215.289 150.871Z" fill="white"/>
<path fill-rule="evenodd" clip-rule="evenodd" d="M-9.41072 555.926C-8.46577 547.603 -7.65022 525.13 -7.65022 525.13C-7.65022 525.13 60.5134 577.757 63.4648 549.576C64.6428 534.832 43.3626 536.629 43.3626 536.629C43.3626 536.629 72.8364 521.628 78.3247 547.544C83.9294 570.25 63.7236 577.873 49.0967 573.484C49.0967 573.484 76.5771 595.699 53.5235 610.934C35.104 622.479 18.3284 606.439 18.3284 606.439C18.3284 606.439 32.9553 610.829 39.7251 601.431C45.1875 592.629 39.2333 579.554 20.0889 575.644C4.75011 573.157 -10.5758 588.03 -10.5758 588.03C-10.5758 588.03 -10.3557 564.25 -9.41072 555.926Z" fill="white"/>
<path fill-rule="evenodd" clip-rule="evenodd" d="M300.507 404.627C300.507 404.627 290.94 405.64 291.889 394.51C292.486 385.545 311.314 376.971 320.843 392.023C333.244 410.447 314.324 429.093 297.453 428.752C277.864 428.312 268.275 399.915 275.72 389.837C275.72 389.837 276.592 410.837 289.992 416.771C299.109 420.643 311.999 418.116 314.406 404.315C315.809 395.652 308.655 390.218 301.757 392.69C297.327 394.708 296.324 399.845 300.507 404.627Z" fill="white"/>
<path fill-rule="evenodd" clip-rule="evenodd" d="M201.463 502.518C201.463 502.518 178.876 504.911 181.115 478.633C182.526 457.468 226.976 437.226 249.473 472.761C278.752 516.258 234.678 561.588 192.946 560.07C146.696 559.031 123.462 490.68 141.635 468.196C141.635 468.196 144.289 519.083 175.329 531.784C196.855 540.925 227.287 534.96 232.969 502.378C236.283 481.925 219.391 469.095 203.107 474.932C192.648 479.695 190.279 491.825 201.463 502.518Z" fill="white"/>
<path fill-rule="evenodd" clip-rule="evenodd" d="M306.366 531.269C306.366 531.269 319.935 529.952 318.737 545.821C317.647 559.282 290.074 571.546 276.607 549.224C259.965 522.416 285.782 495.597 310.842 496.248C339.732 497.554 353.315 538.699 341.61 552.163C341.61 552.163 340.068 522.177 321.681 512.661C308.438 506.754 289.945 510.261 286.668 529.413C284.702 540.905 294.444 549.548 304.73 546.153C311.514 545.495 312.825 537.834 306.366 531.269Z" fill="white"/>
<path fill-rule="evenodd" clip-rule="evenodd" d="M148.438 146.93C148.438 146.93 137.317 154.222 131.154 139.974C125.99 127.854 144.239 104.757 165.994 117.926C192.526 133.529 182.395 168.4 160.458 179.205C134.916 191.181 104.523 161.808 108.525 144.872C108.525 144.872 123.457 170.068 143.653 169.946C157.768 169.041 172.148 157.624 166.291 139.598C162.777 128.782 150.443 125.736 143.101 133.334C137.54 136.98 139.883 144.19 148.438 146.93Z" fill="white"/>
<path fill-rule="evenodd" clip-rule="evenodd" d="M53.1878 657.571C53.1878 657.571 51.6694 666.943 41.2069 663.027C32.2707 660.346 29.8588 640.226 46.5609 634.549C67.6204 627.851 80.5661 649.926 75.6392 666.636C69.8424 685.672 40.3528 686.563 33.2275 677.27C33.2275 677.27 53.4962 681.542 62.9307 670.495C69.0991 662.863 69.9612 649.933 57.6086 643.984C50.2698 640.575 43.0101 645.81 43.1603 652.493C42.9467 658.377 46.798 660.481 53.1878 657.571Z" fill="white"/>
<path fill-rule="evenodd" clip-rule="evenodd" d="M142.941 627.044C142.941 627.044 155.057 612.055 170.525 628.69C182.9 641.999 167.949 681.959 132.871 674.254C88.8737 664.296 88.2396 610.911 113.545 586.758C143.485 558.915 187.133 578.504 200.711 611.787C200.711 611.787 168.351 582.321 141.608 592.921C122.71 599.949 109.054 621.954 122.981 645.606C130.243 658.085 151.407 659.498 157.698 645.583C162.565 635.473 157.089 626.916 142.941 627.044Z" fill="white"/>
<path fill-rule="evenodd" clip-rule="evenodd" d="M291.988 223.382C291.988 223.382 304.964 222.96 303.488 238.996C301.679 251.891 274.082 261.166 261.917 239.272C247.268 211.924 275.432 187.026 299.898 190.151C327.918 193.851 335.548 229.882 325.065 247.825C325.065 247.825 326.613 217.491 309.085 207.915C297.261 201.228 278.419 203.224 272.813 222.238C270.258 231.083 278.779 242.566 288.695 240.245C295.057 237.348 297.531 230.734 291.988 223.382Z" fill="white"/>
<path fill-rule="evenodd" clip-rule="evenodd" d="M13.4453 149.826C13.4453 149.826 32.1107 149.219 29.9878 172.287C27.386 190.837 -12.3137 204.18 -29.8141 172.684C-50.887 133.342 -10.3717 97.5268 24.8233 102.021C65.1313 107.345 76.1078 159.177 61.0278 184.988C61.0278 184.988 63.2543 141.351 38.0392 127.576C21.0307 117.956 -6.07437 120.828 -14.1386 148.18C-17.8148 160.905 -5.55675 177.423 8.70769 174.085C17.8592 169.917 21.4189 160.403 13.4453 149.826Z" fill="white"/>
<path fill-rule="evenodd" clip-rule="evenodd" d="M68.3204 362.664C68.3204 362.664 54.4184 373.731 42.8722 355.309C34.4198 340.215 55.5576 306.909 85.8857 321.513C125.132 338.37 114.35 387.483 86.0667 405.099C53.8616 424.501 9.4892 389.455 11.0167 365.08C11.0167 365.08 34.9374 396.81 61.447 392.631C78.9215 389.409 96.8621 373.345 86.8564 347.908C81.4976 336.141 63.6606 331.634 55.5834 341.627C53.3311 350.546 55.5963 358.987 68.3204 362.664Z" fill="white"/>
<path fill-rule="evenodd" clip-rule="evenodd" d="M100.563 554.782C98.8937 547.649 101.741 540.038 108.874 538.368C115.41 535.392 123.617 539.548 125.287 546.68C128.264 553.218 124.109 561.425 116.977 563.094C109.844 564.763 103.541 561.319 100.563 554.782Z" fill="white"/>
<path fill-rule="evenodd" clip-rule="evenodd" d="M298.571 314.608C298.571 314.608 275.983 317.001 278.223 290.723C279.634 269.558 324.084 249.315 346.581 284.851C375.86 328.348 331.785 373.678 290.054 372.16C243.804 371.121 220.57 302.77 238.743 280.286C238.743 280.286 241.397 331.173 272.437 343.874C293.963 353.015 324.394 347.05 330.077 314.468C333.391 294.015 316.499 281.185 300.215 287.022C289.756 291.785 287.387 303.914 298.571 314.608Z" fill="white"/>
</g>
</mask>
<g mask="url(#mask0)">
<rect y="86" width="384" height="601" fill="url(#paint0_linear)"/>
</g>
<defs>
<linearGradient id="paint0_linear" x1="-23.2599" y1="394" x2="403.953" y2="383.983" gradientUnits="userSpaceOnUse">
<stop stop-color="white"/>
<stop offset="1" stop-color="#F0F5FF"/>
</linearGradient>
</defs>
</svg>
