<svg xmlns="http://www.w3.org/2000/svg" xmlns:xlink="http://www.w3.org/1999/xlink" viewBox="0 0 275.99 44.04"><defs><style>.cls-1{fill:none;}.cls-2{fill:#13100d;}.cls-3{fill:#e95c14;}.cls-4{fill:#753821;}.cls-5{fill:#8e4e20;}.cls-6{fill:#239e38;}.cls-7{fill:#69c7f1;}.cls-8{fill:#7d1712;}.cls-9{clip-path:url(#clip-path);}.cls-10{fill:#af1c1a;}.cls-11{fill:#b62b1a;}.cls-12{fill:#981d18;}.cls-13{fill:#c9311c;}.cls-14{fill:#cc221b;}.cls-15{fill:#bf2022;}.cls-16{fill:#9f1f19;}.cls-17{fill:#f9be00;}.cls-18{fill:#fff;}.cls-19{fill:#1d1d1b;}.cls-20{fill:#13110c;}.cls-21{fill:#0062a6;}.cls-22{fill:#bbe1f8;}.cls-23{fill:#c3e4f9;}.cls-24{fill:#f7ad00;}.cls-25{clip-path:url(#clip-path-2);}.cls-26{fill:#edbc74;}.cls-27{fill:#ac716b;}.cls-28{clip-path:url(#clip-path-3);}.cls-29{fill:#e2161b;}.cls-30{fill:#34aee4;}.cls-31{fill:#4f6974;}.cls-32{fill:#f2eaca;}.cls-33{fill:#f2b873;}.cls-34{fill:#f7d1a5;}.cls-35{clip-path:url(#clip-path-5);}.cls-36{fill:#f3eed3;}</style><clipPath id="clip-path" transform="translate(0 0)"><path class="cls-1" d="M171,13l-3.76,7.23a12.55,12.55,0,0,1-.92,1.46c-.37.41-.5.09-.5.09s0-1,0-1.43v-7a1,1,0,0,0-.86-1.1h-5.47c-1,.08-1.3.61-1.31,1V36.16c0,.73.36.8.79.8h5.42a1.15,1.15,0,0,0,1.33-1V29.16c0-.43,0-.95.3-1.24a.58.58,0,0,1,.39-.15,1.22,1.22,0,0,1,1.09.63l5.61,8a1.67,1.67,0,0,0,1.21.66l5.13,0c1.68,0,1.21-.75,1-1.11l-7.59-11.37a1.41,1.41,0,0,1,0-1.33l5.37-9.68c.45-.83,0-1.28-.43-1.31h-4.88c-1.39,0-1.65.42-1.85.77"/></clipPath><clipPath id="clip-path-2" transform="translate(0 0)"><rect class="cls-1" width="275.99" height="46.35"/></clipPath><clipPath id="clip-path-3" transform="translate(0 0)"><path class="cls-1" d="M201.45,12.26h-6.31a1.22,1.22,0,0,0-1,.77l-8.2,23.39a.51.51,0,0,0,.51.72h5.41a1.12,1.12,0,0,0,1-.72l4.07-12.56c.18-.76.55-1.1.94-1.1s.74.35.85,1.12l2.39,12.46a1,1,0,0,0,.9.74l5.84,0a.56.56,0,0,0,.57-.74L202.4,13a1,1,0,0,0-.95-.73h0"/></clipPath><clipPath id="clip-path-5" transform="translate(0 0)"><polyline class="cls-1" points="69.3 12.82 75.67 12.82 75.67 4.58 69.3 4.58 69.3 12.82"/></clipPath></defs><title>Ресурс 2</title><g id="Слой_2" data-name="Слой 2"><g id="Слой_1-2" data-name="Слой 1"><path class="cls-2" d="M133.79,17.79a2,2,0,1,1-2-2,2,2,0,0,1,2,2" transform="translate(0 0)"/><path class="cls-2" d="M115.37,8a2,2,0,1,1-2-2,2,2,0,0,1,2,2" transform="translate(0 0)"/><path class="cls-2" d="M270.77,11.15c-.43,0-.93.48-1.38,1.28a1.87,1.87,0,0,0-.62.49,5.42,5.42,0,0,0-.91,2.08c-.19-.29-.43-.13-.55,0-.56.41-.85,1.05-1.12,2.7a.92.92,0,0,0-.55.59,4.42,4.42,0,0,0,.19,2.78c-.24-.11-.49,0-.45.55a6.15,6.15,0,0,0-1.12-.53l-.45-.13.1-.11c.13-.32-.19-.72-.57-1a3.74,3.74,0,0,0-2-.51c.18-.08.11-.32.08-.37s-.38-.61-1.45-.65a4.42,4.42,0,0,0-1.26.15s-.12-.27-.79-.45-1,0-1-.27c.61,0,1.64,0,2.09-.06a14.28,14.28,0,0,0,2.66-.36,3,3,0,0,0,1.9-1.26,4.56,4.56,0,0,0,.55-2.24,3,3,0,0,0-.71-1.93,2.15,2.15,0,0,0-1.89-.59,4.3,4.3,0,0,0,.3-1.22,3.63,3.63,0,0,0-.22-1.52,1.75,1.75,0,0,0-.25-1.33A1.51,1.51,0,0,0,261.14,6a1.23,1.23,0,0,0-.23-1s-.09-1.22-.83-1.36c-.21,0-.65.23-1,.73-.23.34-.32.85-.69,1.41a10.26,10.26,0,0,1-1.08,1.27,6.16,6.16,0,0,0-1.41,2.49,13.73,13.73,0,0,0-.36,1.54h-.7a4.74,4.74,0,0,0-.34-1.54A7.42,7.42,0,0,0,253,7a7.85,7.85,0,0,1-1.06-1.2,7.58,7.58,0,0,0-.76-1.49c-.51-.53-.91-.69-1.11-.61-.65.27-.68,1.4-.68,1.4a1.23,1.23,0,0,0-.23,1,1.49,1.49,0,0,0-.23,1.13,1.74,1.74,0,0,0-.25,1.33,2.82,2.82,0,0,0-.31,1.54,4,4,0,0,0,.23,1.27,6.53,6.53,0,0,0-.71.1,3.69,3.69,0,0,0-1.17.44c-.59.37-.93,1.15-1,2.58a.92.92,0,0,0,.11.49,4.17,4.17,0,0,0-.43,3.18.9.9,0,0,0,.12.26,7.28,7.28,0,0,0-.39,2,.93.93,0,0,0,.27.72,5.84,5.84,0,0,0-.24,2.15.92.92,0,0,0,.26.54,5.42,5.42,0,0,0-.25,2.46.92.92,0,0,0,.32.6,4.54,4.54,0,0,0-.26,2.71.93.93,0,0,0,.4.53,4.21,4.21,0,0,0-.12,2,.91.91,0,0,0,.25.46,3.57,3.57,0,0,0,.32,2.67.92.92,0,0,0,.81.48H247A4.28,4.28,0,0,0,248,37a.93.93,0,0,0,.58.22l.06.07a.92.92,0,0,0,.7.32h.13a4.7,4.7,0,0,0,.76-.18.94.94,0,0,0,.47.37,2.42,2.42,0,0,0,.77.11,3.42,3.42,0,0,0,1.34-.28.92.92,0,0,0,.74.58l.25,0a4.58,4.58,0,0,0,1.81-.43.92.92,0,0,0,.75.38h.06a6.84,6.84,0,0,0,2.13-.54l.06.1a.91.91,0,0,0,1.05.36,10.63,10.63,0,0,0,2.24-1l0,0a.92.92,0,0,0,.85.14,6.94,6.94,0,0,0,3.35-2.37,7.49,7.49,0,0,0,.49-1.05,10.62,10.62,0,0,0,2,.35,6.71,6.71,0,0,0,3.9-.91,1.4,1.4,0,0,0,.54-.76,1.86,1.86,0,0,0,1.36-1,.53.53,0,0,0-.25-.68,3.69,3.69,0,0,0,1.18-1.3c.14-.34.14-.82-.41-.83a4.85,4.85,0,0,0,.91-2c0-.38,0-1-.48-.82a11.69,11.69,0,0,0,.17-1.26,6.79,6.79,0,0,0,0-1.37c0-.4-.08-.87-.37-1s-.5.31-.51.31c0-.36.09-.54.12-.86.06-.6,0-.89-.29-.93a1.09,1.09,0,0,0-.54.14,8.92,8.92,0,0,1,0-1.22c0-.35.06-.7-.31-.8a.66.66,0,0,0-.52.17c0-.49.12-1.18.12-1.18,0-.31,0-.78-.53-.66a4.71,4.71,0,0,0,.12-.66c0-.38.06-.54-.1-.68s-.29-.1-.64.06a2.63,2.63,0,0,0,.43-.93c0-.35-.23-.43-.47-.33a3.77,3.77,0,0,0,.31-1.16c0-.79-.58-.68-.58-.68,0-.29.08-.58-.1-.7s-.39,0-.56.08c0,0,.28-1-.37-1" transform="translate(0 0)"/><path class="cls-2" d="M253.81,38.3l-.27,0a1,1,0,0,1-.78-.55,3.48,3.48,0,0,1-1.28.25,2.5,2.5,0,0,1-.81-.12,1,1,0,0,1-.47-.35,4.88,4.88,0,0,1-.7.16h-.14a1,1,0,0,1-.78-.36l0,0a1,1,0,0,1-.6-.25,4.44,4.44,0,0,1-1-1.28h-.06a1,1,0,0,1-.91-.54,3.66,3.66,0,0,1-.34-2.69,1,1,0,0,1-.24-.46,4.32,4.32,0,0,1,.11-1.94,1,1,0,0,1-.38-.54,4.61,4.61,0,0,1,.23-2.71,1,1,0,0,1-.3-.62,5.5,5.5,0,0,1,.23-2.45,1,1,0,0,1-.24-.55,5.77,5.77,0,0,1,.23-2.14,1,1,0,0,1-.26-.75,7.46,7.46,0,0,1,.38-1.94,1.06,1.06,0,0,1-.1-.25,4.24,4.24,0,0,1,.41-3.21,1,1,0,0,1-.1-.5c.08-1.41.42-2.25,1.06-2.66a3.81,3.81,0,0,1,1.2-.45c.2,0,.42-.07.59-.09a3.86,3.86,0,0,1-.2-1.18,2.92,2.92,0,0,1,.3-1.56,1.87,1.87,0,0,1,.25-1.33,1.62,1.62,0,0,1,.23-1.14,1.35,1.35,0,0,1,.24-1c0-.22.1-1.19.74-1.45.28-.11.74.12,1.22.63a3.22,3.22,0,0,1,.54,1,4.86,4.86,0,0,0,.24.53,2.72,2.72,0,0,0,.57.68,6.22,6.22,0,0,1,.48.5,7.51,7.51,0,0,1,1.53,2.6,5.76,5.76,0,0,1,.34,1.47h.52a12.46,12.46,0,0,1,.35-1.48l0-.06A6.19,6.19,0,0,1,257.24,7l.12-.13a8.91,8.91,0,0,0,1-1.13,4.72,4.72,0,0,0,.43-.86,3.23,3.23,0,0,1,.27-.55,1.58,1.58,0,0,1,1-.78h.07c.74.15.89,1.2.91,1.42a1.35,1.35,0,0,1,.24,1,1.65,1.65,0,0,1,.22,1.14,1.88,1.88,0,0,1,.25,1.33,3.84,3.84,0,0,1,.21,1.55,4.41,4.41,0,0,1-.25,1.1,2.18,2.18,0,0,1,1.81.63,3.06,3.06,0,0,1,.74,2,4.65,4.65,0,0,1-.56,2.29,3,3,0,0,1-2,1.32,14.49,14.49,0,0,1-2.67.36c-.16,0-.78,0-1.38.06l.31.07a1.5,1.5,0,0,1,.81.43,4.67,4.67,0,0,1,1.22-.13c1,0,1.39.4,1.54.7a.49.49,0,0,1,0,.32,3.62,3.62,0,0,1,1.86.52c.5.39.73.81.6,1.13v0l.29.09a6.61,6.61,0,0,1,1,.44.53.53,0,0,1,.2-.44.35.35,0,0,1,.19-.06,4.52,4.52,0,0,1-.13-2.67,1,1,0,0,1,.55-.63c.27-1.58.56-2.27,1.15-2.71a.54.54,0,0,1,.41-.14.36.36,0,0,1,.15.06,5.32,5.32,0,0,1,.88-1.94,2.14,2.14,0,0,1,.63-.51c.47-.83,1-1.3,1.45-1.3a.48.48,0,0,1,.4.18,1.07,1.07,0,0,1,.11.76.52.52,0,0,1,.48,0c.2.13.19.4.16.68a.55.55,0,0,1,.3.11.85.85,0,0,1,.27.67,3.06,3.06,0,0,1-.25,1h0a.4.4,0,0,1,.24.07.42.42,0,0,1,.15.41,1.86,1.86,0,0,1-.29.73.5.5,0,0,1,.47.06c.18.16.17.35.14.68v.09a4.11,4.11,0,0,1-.09.53.47.47,0,0,1,.35.11.8.8,0,0,1,.14.68s-.06.53-.1,1a.67.67,0,0,1,.43-.07c.44.12.41.54.39.88v0s-.06.63,0,1a1.35,1.35,0,0,1,.46-.08c.44.06.43.52.38,1,0,.17,0,.3-.06.44l0,.11a.39.39,0,0,1,.4-.11c.33.13.38.58.42,1v.09a6.94,6.94,0,0,1,0,1.38,10.24,10.24,0,0,1-.15,1.13.36.36,0,0,1,.27.09c.24.2.21.67.19.86a5.07,5.07,0,0,1-.83,2,.51.51,0,0,1,.31.22.8.8,0,0,1,0,.73,3.62,3.62,0,0,1-1.1,1.25.65.65,0,0,1,.17.73,2,2,0,0,1-1.37,1,1.5,1.5,0,0,1-.56.75,6.85,6.85,0,0,1-4,.94,9.19,9.19,0,0,1-1.8-.3l-.13,0a7,7,0,0,1-.46,1,7,7,0,0,1-3.41,2.41,1,1,0,0,1-.88-.11,10.8,10.8,0,0,1-2.23,1,1,1,0,0,1-1.17-.39l0,0a6.88,6.88,0,0,1-2.09.52h-.06a1,1,0,0,1-.78-.36A4.63,4.63,0,0,1,253.81,38.3Zm-.93-.83,0,.1a.81.81,0,0,0,.66.52h.24a4.47,4.47,0,0,0,1.77-.42l.08,0,0,.07a.83.83,0,0,0,.67.34h.05a6.79,6.79,0,0,0,2.1-.54l.08,0,.11.18a.81.81,0,0,0,.93.31,10.6,10.6,0,0,0,2.21-1l.09-.07.06,0a.82.82,0,0,0,.76.13,6.84,6.84,0,0,0,3.3-2.32,7.32,7.32,0,0,0,.47-1l0-.08h.09l.22.05a9,9,0,0,0,1.76.3h.17a6.5,6.5,0,0,0,3.67-.89,1.3,1.3,0,0,0,.51-.71l0-.05H273a1.84,1.84,0,0,0,1.29-.92.42.42,0,0,0,0-.32.39.39,0,0,0-.2-.22l-.17-.07.15-.11a3.63,3.63,0,0,0,1.15-1.26.62.62,0,0,0,0-.54.38.38,0,0,0-.33-.15h-.21l.13-.16a4.79,4.79,0,0,0,.89-2,.86.86,0,0,0-.12-.68.24.24,0,0,0-.24,0l-.16,0,0-.16a10.66,10.66,0,0,0,.17-1.25,6.68,6.68,0,0,0,0-1.34v-.09c0-.34-.08-.73-.3-.81-.06,0-.19,0-.37.27l0,.05h-.08l-.09,0V22.5c0-.17,0-.3.06-.43s0-.26.06-.42c.06-.66,0-.8-.2-.82a1.28,1.28,0,0,0-.46.1l-.16.24,0-.3a8.91,8.91,0,0,1,0-1.25c0-.38,0-.61-.24-.68a.58.58,0,0,0-.43.15l-.2.2,0-.28c0-.48.12-1.18.12-1.19,0-.26,0-.43-.08-.5a.36.36,0,0,0-.32,0l-.16,0,0-.16a4.34,4.34,0,0,0,.11-.65v-.09c0-.32,0-.42-.07-.51s-.27,0-.53.07l-.21.1.08-.22a.68.68,0,0,1,.07-.13,2,2,0,0,0,.35-.78.25.25,0,0,0-.07-.22.27.27,0,0,0-.26,0l-.21.09.14-.38a3,3,0,0,0,.25-1,.66.66,0,0,0-.19-.51.37.37,0,0,0-.27-.07l-.14,0,0-.14c0-.26.07-.52-.05-.6s-.32,0-.46.09l-.2.09.06-.21a1.11,1.11,0,0,0,0-.78.28.28,0,0,0-.24-.1c-.38,0-.86.46-1.29,1.23l0,0h0a1.83,1.83,0,0,0-.56.45,5.31,5.31,0,0,0-.89,2l-.05.23-.13-.19a.25.25,0,0,0-.15-.12.38.38,0,0,0-.25.1c-.55.41-.82,1.07-1.08,2.63v.06l-.05,0a.83.83,0,0,0-.49.52,4.31,4.31,0,0,0,.19,2.71l.1.24-.24-.11a.2.2,0,0,0-.2,0c-.09.06-.12.22-.1.45l0,.21-.17-.11a6.07,6.07,0,0,0-1.1-.52l-.44-.13-.17,0,.21-.23c.09-.27-.22-.63-.54-.88a3.69,3.69,0,0,0-1.94-.49l0-.2a.08.08,0,0,0,0-.05.29.29,0,0,0,0-.18c-.13-.25-.47-.56-1.37-.59a4.48,4.48,0,0,0-1.23.14l-.08,0,0-.08s-.12-.23-.72-.39a3.13,3.13,0,0,0-.67-.1c-.17,0-.28,0-.35-.1a.23.23,0,0,1,0-.18v-.1h.1c.53,0,1.45,0,2.08-.06a14.37,14.37,0,0,0,2.64-.35,2.84,2.84,0,0,0,1.83-1.21,4.46,4.46,0,0,0,.54-2.19,2.85,2.85,0,0,0-.67-1.85,2.06,2.06,0,0,0-1.81-.56h-.17l.06-.15a4.16,4.16,0,0,0,.29-1.19,3.59,3.59,0,0,0-.2-1.46l0,0v0a1.65,1.65,0,0,0-.23-1.24l0,0v0a1.43,1.43,0,0,0-.2-1l0,0V6a1.11,1.11,0,0,0-.2-.93l0,0V5s-.09-1.14-.75-1.27c-.13,0-.55.18-.88.69a3,3,0,0,0-.25.52,4.92,4.92,0,0,1-.45.9,9.2,9.2,0,0,1-1,1.16l-.12.13A5.94,5.94,0,0,0,256,9.52l0,.06a13.79,13.79,0,0,0-.35,1.53v.08h-.9v-.11a4.77,4.77,0,0,0-.33-1.51,7.34,7.34,0,0,0-1.49-2.53,5.92,5.92,0,0,0-.47-.49,2.92,2.92,0,0,1-.6-.73,5.19,5.19,0,0,1-.25-.55,3.08,3.08,0,0,0-.49-.93c-.46-.49-.84-.65-1-.58-.58.24-.61,1.3-.61,1.31v0l0,0a1.11,1.11,0,0,0-.2.93v0l0,0a1.41,1.41,0,0,0-.2,1v0l0,0a1.64,1.64,0,0,0-.23,1.24v0l0,0a2.71,2.71,0,0,0-.3,1.5,4,4,0,0,0,.22,1.24l0,.12h-.13a6.67,6.67,0,0,0-.7.1,3.61,3.61,0,0,0-1.13.42c-.58.37-.89,1.16-1,2.5a.82.82,0,0,0,.1.44l0,0,0,0a4.06,4.06,0,0,0-.42,3.11.83.83,0,0,0,.1.23l0,0,0,0a7.2,7.2,0,0,0-.39,1.93.82.82,0,0,0,.24.64l0,0,0,.06a5.72,5.72,0,0,0-.24,2.11.82.82,0,0,0,.23.48l0,0,0,.06a5.31,5.31,0,0,0-.24,2.41.82.82,0,0,0,.28.54l.05,0,0,.07a4.42,4.42,0,0,0-.25,2.64.82.82,0,0,0,.35.47l.06,0,0,.07a4.19,4.19,0,0,0-.12,1.91.82.82,0,0,0,.23.41l0,0v.06a3.47,3.47,0,0,0,.31,2.6.82.82,0,0,0,.72.43h.19l0,.06a4.18,4.18,0,0,0,1,1.28.83.83,0,0,0,.52.2h0l.09.11a.82.82,0,0,0,.62.28h.12a4.64,4.64,0,0,0,.73-.18l.08,0,0,.07a.83.83,0,0,0,.42.33,2.32,2.32,0,0,0,.74.11,3.31,3.31,0,0,0,1.3-.28Z" transform="translate(0 0)"/><path class="cls-3" d="M259.46,16.89a8.17,8.17,0,0,0,2.34-.41,2.09,2.09,0,0,0,1.31-1.24,3.6,3.6,0,0,0,.3-1.75A2.37,2.37,0,0,0,263,12.2c-.43-.53-1.86-.43-2.54-.37a3.56,3.56,0,0,0,.7-1.74c-.14.34-1.39.88-1.42.87.24-.37,1.7-1.94,1.26-3.27a3.92,3.92,0,0,1-1.42,1.6c.43-.86,1.23-2.45.93-3.23a4.52,4.52,0,0,1-1.4,1.57c.59-1.25,1.25-2.75.91-3.1-.58.2-.68,1.34-1,1.75-.95,1.21-2.41,1.63-2.71,5.53h-2.19c-.29-3.92-1.67-4.32-2.62-5.53-.33-.42-.49-1.55-1.07-1.75-.34.36.43,2,1,3.26A5.8,5.8,0,0,1,249.84,6c-.3.78.66,2.58,1.09,3.44a4.26,4.26,0,0,1-1.45-1.68c-.44,1.33,1,3.06,1.22,3.43A5,5,0,0,1,249.27,10a3,3,0,0,0,.67,1.83l-1.1.07c-1.23.14-2.3.63-2.28,2.36,0,0,1.53-1,1-.27a5.16,5.16,0,0,0-1.5,3.88s.42-.84.6-1.12a1.37,1.37,0,0,1,1-.65c-.26,1.11-1.45,2-1.58,4.1,0,0,1-1.72,1.24-1.68s.15.68-.13,1.1A5.93,5.93,0,0,0,246.05,23s.73-1.27,1.28-1.26c.26,0,0,.45-.52,1.32A4.58,4.58,0,0,0,246,26s.93-1.15,1.36-.94c.1,0-.26.6-.56,1.09a5.43,5.43,0,0,0-.8,3.17s1-1.44,1.44-1.27c.18.08-.1.48-.41,1a4.81,4.81,0,0,0-.78,2.79s1-1.52,1.29-1c.06.09-.19.32-.48.91a3.36,3.36,0,0,0-.22,2.92s.26-1.41,1-1.42a2.51,2.51,0,0,0,0,1.71,5,5,0,0,0,.7,1.33s.08-1.37.6-1.35.62.74.31,1.77a3.5,3.5,0,0,0,1.18-.41c.45-.29.68-.71,1-.71s.3.7-.47,1.36a2.29,2.29,0,0,0,1.81-.33,7.33,7.33,0,0,1,1.46-.86c.33,0,.85.51-.51,1.49a4.91,4.91,0,0,0,3.09-1.36c.31.31.15.86-.45,1.38a5.73,5.73,0,0,0,2.45-.8c.54-.35,1-.81,1.23-.45s-.63,1.12-.63,1.12a10.33,10.33,0,0,0,1.92-.85c1.26-.92,1.5-1.24,1.73-1.22.47,0-.33,1.3-.33,1.3a6,6,0,0,0,2.55-2.14,8.48,8.48,0,0,0,.86-1.43,6.18,6.18,0,0,0,5.76-.26c-.53-.08-.73-.28-.69-.48s.25-.12.27-.14c1.49.06,1.93-.54,1.93-.54-.92,0-1.14-.41-1.13-.59s.18-.12.29-.14a2.87,2.87,0,0,0,1.87-1.22.92.92,0,0,1-1.23-.2,4.85,4.85,0,0,0,1.79-2.46c-1,.91-1.57,1-1.51.87A4.87,4.87,0,0,0,274.77,25c.09-.92.12-1.67.12-1.67-.49.83-1.1,1.73-1,.83s.28-2.58.28-2.58c-.46.13-.87,1.31-.87,1.31-.34-.65.12-3.14.12-3.14a3.73,3.73,0,0,0-1,1.55,11,11,0,0,1,.2-3.42s-.22.11-.56.7a8.27,8.27,0,0,0-.44,1.17A3.36,3.36,0,0,1,271.9,18a11.19,11.19,0,0,0,.41-1.51s-.29,0-.75.53c-.11.14-.35.47-.44.61.09-.29.15-.69.25-1.09a13.37,13.37,0,0,1,.44-1.37,4.72,4.72,0,0,0-.79.55,4.84,4.84,0,0,0,.64-2.08l-.86,1a8.33,8.33,0,0,1,.32-1.79,1.91,1.91,0,0,0-.82,1,10.7,10.7,0,0,1,.23-1.87,6,6,0,0,0-1.26,3.12,11.06,11.06,0,0,1,.1-2.11A9.72,9.72,0,0,0,267.93,18a3.64,3.64,0,0,1-.44-2.27s-.42.24-.6,2.19c0,.34.3,1.49.32,1.83a2.56,2.56,0,0,1-.91-1.5A4,4,0,0,0,267.66,22s-.41.11-1.46-.43a4.8,4.8,0,0,0,.87,1.46,5.5,5.5,0,0,0,.75.64c.63.6-1.11-.1-1.11-.1a3.57,3.57,0,0,0,.7,1.72c.63.88.85,1.11.58,1.33s-.62-.36-1-.66a11.38,11.38,0,0,1,.36,1.89c0,.13,0,.26,0,.38v0a3,3,0,0,1,0,.37.51.51,0,0,1-.42.43c-.35,0-.3-.48-.3-.48h0a7.82,7.82,0,0,0-1.44-4.72,4.91,4.91,0,0,0-.58-.74c.16-.34.88-.19.88-.19A2.08,2.08,0,0,0,264,21.79a3.71,3.71,0,0,1-1.42-.49c-.74-.52.52-.71.52-.71a2.89,2.89,0,0,0-2.18-.62c-1.41,0-1.15-.51-.43-.77a2.16,2.16,0,0,0-1.88,0c-1.24.46-2.16,0-1-.51a3.43,3.43,0,0,0-2.26,0c-.64.18-1.4.15-1.07,0a13.43,13.43,0,0,0,1.15-.73s-4.81.21-4.48-1.36l1.35.17a37.06,37.06,0,0,0,7.15.08" transform="translate(0 0)"/><path class="cls-2" d="M261.09,22.09a.74.74,0,0,0,.82-.74V20.9a.76.76,0,0,0-.64-.72h-.16a2.62,2.62,0,0,0-2.19,1.45,3.68,3.68,0,0,0-2-.71l-.23,0a.79.79,0,0,0-.41.2,4.18,4.18,0,0,0-.56,0,7.83,7.83,0,0,0-3.31.85,5.76,5.76,0,0,0-3.61,5.33,11.08,11.08,0,0,0,.64,3.37c.31.9.52,1.48.6,1.8a1.38,1.38,0,0,0,.44.84,1.6,1.6,0,0,0,1,.26,4.84,4.84,0,0,1,1,.13,9.26,9.26,0,0,0,2.23.28,7.3,7.3,0,0,0,2.66-.47c4.46-1.74,4.09-6.7,4.08-6.75a.55.55,0,0,0-.57-.51h-.29c-1.37,0-1.87-.43-3-1.38a1.55,1.55,0,0,1-.47-1l0,0a.84.84,0,0,0,.57.67,1.1,1.1,0,0,0,.63.51.87.87,0,0,0,.63.35,1,1,0,0,0,.82.41h.11a.85.85,0,0,0,.45.13,1,1,0,0,0,.79-.43.73.73,0,0,0,.13-.58,5.05,5.05,0,0,0-1-2c.27-.47.59-.82.76-.82" transform="translate(0 0)"/><path class="cls-4" d="M260.89,26.71s.39,4.54-3.7,6.14a7.67,7.67,0,0,1-4.52.17c-.88-.22-1.48-.07-1.74-.28s-.1-.62-.9-2.27a9.74,9.74,0,0,1-.57-3.22,5.19,5.19,0,0,1,3.27-4.83c2.29-1.08,3.73-.77,3.94-.65s-.59,2.42.61,3.45,1.83,1.57,3.62,1.5" transform="translate(0 0)"/><path class="cls-5" d="M256.36,33.11a6.85,6.85,0,0,1-2.48.14c-.48-.05-1.39-.26-1.84-.31-.77-.08-1.16.07-1.31-.43s-.29-1-.46-1.46a6.17,6.17,0,0,1-.54-1.44,11.9,11.9,0,0,1-.29-2.27,12,12,0,0,0,1.29,3,4.76,4.76,0,0,0,2.3,1.84,12.76,12.76,0,0,0,3.33.89" transform="translate(0 0)"/><path class="cls-6" d="M261.36,20.91a.19.19,0,0,0-.17-.19h-.09c-.32,0-1.31.13-2,1.71a3.63,3.63,0,0,0-2.16-1h-.15a.23.23,0,0,0-.2.21v0a4,4,0,0,0-.94-.12,3.2,3.2,0,0,0-.61.06h0l-.15.15.08.2,1,.74a4.59,4.59,0,0,1-.79.57l-.09.18.11.16,1.33.6a3.15,3.15,0,0,1-.19.49,3.41,3.41,0,0,0-.15.36.27.27,0,0,0,0,.25.28.28,0,0,0,.25.11,1.44,1.44,0,0,0,.28,0l.26,0h0a1,1,0,0,0,.4.09.83.83,0,0,1,.41.1h0a.37.37,0,0,0-.16.26l.09.21.08.15a.43.43,0,0,0,.49.32h.05l.24,0c.14,0,.18,0,.21.15a.59.59,0,0,0,.6.49.54.54,0,0,0,.36-.12l.06-.06.09-.09,0,.11c.11.31.3.35.41.35a.68.68,0,0,0,.44-.22l.05-.15a6.73,6.73,0,0,0-.33-1.63l.15-.14,0-.15a4.89,4.89,0,0,0-1.12-2c.31-.61.84-1.43,1.41-1.43h.07l.15,0,.06-.14" transform="translate(0 0)"/><path class="cls-3" d="M248.12,22a9.91,9.91,0,0,0,2.78,1.48,8.41,8.41,0,0,0,1.93.26,2.32,2.32,0,0,1,1.74.62c.83.58.19,1.36-.28,1.22a9.85,9.85,0,0,1-1.13-.59s1.06.84,1.1,1.17c.08.6-.37.79-1.19.46a4.61,4.61,0,0,1-.73-.41s.86.4.92.86c.09.65-.61,1-1.22.53a18.38,18.38,0,0,1-1.79-1.22,9.65,9.65,0,0,0-1.91-1.12" transform="translate(0 0)"/><path class="cls-2" d="M252.62,27.94a1.2,1.2,0,0,1-.68-.23l-.63-.41a8.83,8.83,0,0,1-1.17-.83,9.51,9.51,0,0,0-1.87-1.09.18.18,0,1,1,.14-.32,9.7,9.7,0,0,1,2,1.15,8.41,8.41,0,0,0,1.12.79c.21.13.43.27.65.42a.71.71,0,0,0,.75.09.44.44,0,0,0,.19-.46.78.78,0,0,0-.33-.42,5.67,5.67,0,0,1-.52-.32.18.18,0,0,1,.17-.3,3.12,3.12,0,0,1,.54.33l.18.08c.4.16.73.19.87.08a.37.37,0,0,0,.09-.36,4,4,0,0,0-1-1.06.18.18,0,0,1,.17-.3,2.6,2.6,0,0,1,.45.25,2.62,2.62,0,0,0,.66.34.39.39,0,0,0,.42-.23c.11-.22,0-.47-.28-.67a2.1,2.1,0,0,0-1.48-.58h-.16a8.6,8.6,0,0,1-2-.26A9.93,9.93,0,0,1,248,22.11a.18.18,0,1,1,.21-.28,9.8,9.8,0,0,0,2.71,1.45,8.22,8.22,0,0,0,1.89.25H253a2.45,2.45,0,0,1,1.68.65.87.87,0,0,1,.4,1.12.73.73,0,0,1-.83.42h0a.91.91,0,0,1,.21.39.68.68,0,0,1-.22.68,1,1,0,0,1-.81.1.59.59,0,0,1,0,.13.79.79,0,0,1-.36.81A.87.87,0,0,1,252.62,27.94Z" transform="translate(0 0)"/><path class="cls-3" d="M262.61,24.71a5.53,5.53,0,0,1-3.32-.32,2.64,2.64,0,0,0-1.91.27c-.92.43-.75,1-.26,1a10.53,10.53,0,0,1,1.39-.07s-1.11.26-1.43.77.21.92,1,.62.6-.15.6-.15a3.57,3.57,0,0,0-.76.48c-.55.45,0,1.16.89.8s.93-.68,1.73-.62a12.8,12.8,0,0,0,2.41-.22" transform="translate(0 0)"/><path class="cls-2" d="M258.41,28.38a.85.85,0,0,1-.74-.37.62.62,0,0,1,.12-.78.91.91,0,0,1-.85-.25.61.61,0,0,1,0-.73,1.39,1.39,0,0,1,.47-.43h-.29a.56.56,0,0,1-.56-.42c0-.16,0-.56.75-.92a2.8,2.8,0,0,1,2.05-.28l.6.17a4.47,4.47,0,0,0,2.62.15.18.18,0,0,1,.21.14.18.18,0,0,1-.14.21,4.79,4.79,0,0,1-2.79-.16l-.61-.17a2.53,2.53,0,0,0-1.79.26c-.42.19-.58.41-.56.53s.11.13.23.13a3.07,3.07,0,0,0,.62,0,2.2,2.2,0,0,1,.8,0,.18.18,0,0,1,0,.34,2.56,2.56,0,0,0-1.32.69.27.27,0,0,0,0,.32c.1.13.42.2.86,0,.6-.22.76-.27.85-.09a.2.2,0,0,1-.09.26,3.58,3.58,0,0,0-.74.47c-.15.12-.19.26-.11.39s.43.28.82.11a5.13,5.13,0,0,0,.66-.34,1.63,1.63,0,0,1,1.16-.29,12.66,12.66,0,0,0,2.36-.22.17.17,0,0,1,.2.14.18.18,0,0,1-.14.21,12.6,12.6,0,0,1-2.45.22,1.28,1.28,0,0,0-.95.24,5.63,5.63,0,0,1-.7.36A1.32,1.32,0,0,1,258.41,28.38Z" transform="translate(0 0)"/><path class="cls-2" d="M55,20.37C53.2,12.3,47.17,11.1,43.73,11.1a14.9,14.9,0,0,0-2.13.15c-2.79.4-3.87.83-4.37,2.44v0l-.5,1.8A1.7,1.7,0,0,0,36.85,17a1.18,1.18,0,0,0,1,.49h.11l.44,0a2.78,2.78,0,0,1,.72.1,2,2,0,0,1,1.19.93l0,.05a1.29,1.29,0,0,0,1.06.64l.21,0h.18c.2,0,1.93,0,2.45,1.37a1.63,1.63,0,0,1,0,1.42c-.09.13-.22.26-.63.26A4.89,4.89,0,0,1,42.28,22l-.73-.23a5.7,5.7,0,0,0-1.65-.42c-1,0-1.47,1-2.06,2.41-.36.88-.9,2.2.19,2.83a27.39,27.39,0,0,0,2.77,1.23l.74.3c.95.4,1.24.78,1.26.92s-.1.39-.61.81a3.25,3.25,0,0,1-2,.6,3.87,3.87,0,0,1-3-1.34.9.9,0,0,0-.63-.32,2.15,2.15,0,0,1-1.13-.52,4.19,4.19,0,0,1-.76-.87,1.65,1.65,0,0,0-1.34-.72,1.31,1.31,0,0,0-1.24.8c-.08.17-.36.76-.46,1s-.3.72-.48,1.14l-.29.67,0,0a2.36,2.36,0,0,0,.28,2.7,19.25,19.25,0,0,0,5.74,4.1L35.28,41v0a1.26,1.26,0,0,0,0,1,3.36,3.36,0,0,0,1.8,1.46,4.3,4.3,0,0,0,1.52.32A1.44,1.44,0,0,0,40.09,43l2-4.7a13.09,13.09,0,0,0,7.84-2.76c4.55-3.44,6.16-10.4,5.09-15.15" transform="translate(0 0)"/><path class="cls-2" d="M38.62,44A4.56,4.56,0,0,1,37,43.7a3.53,3.53,0,0,1-1.95-1.6,1.52,1.52,0,0,1,0-1.17l1.56-3.66a19.8,19.8,0,0,1-5.58-4,2.52,2.52,0,0,1-.34-3l.23-.54.08-.18c.18-.41.38-.88.48-1.13s.45-1,.47-1a1.56,1.56,0,0,1,1.47-.94,1.9,1.9,0,0,1,1.55.83,3.92,3.92,0,0,0,.71.82,1.89,1.89,0,0,0,1,.46,1.15,1.15,0,0,1,.8.4,3.62,3.62,0,0,0,2.76,1.26A3,3,0,0,0,42,29.65c.47-.39.52-.6.52-.6a2.64,2.64,0,0,0-1.1-.7l-.73-.3-.06,0a27,27,0,0,1-2.74-1.22c-1.28-.74-.67-2.25-.3-3.15.61-1.49,1.13-2.55,2.29-2.57a6.61,6.61,0,0,1,1.74.43l.71.23a4.72,4.72,0,0,0,1.18.21c.32,0,.38-.08.42-.15a1.39,1.39,0,0,0,0-1.18c-.46-1.17-2-1.21-2.21-1.21h-.15l-.21,0h0a1.55,1.55,0,0,1-1.29-.75c-.39-.53-.63-.78-1.07-.88A2.77,2.77,0,0,0,38,17.75h-.12a1.44,1.44,0,0,1-1.2-.6,2,2,0,0,1-.16-1.71l.5-1.79c.56-1.8,1.81-2.25,4.58-2.65a15.15,15.15,0,0,1,2.16-.15c3.51,0,9.68,1.23,11.53,9.47,1.08,4.83-.56,11.91-5.19,15.41a13.38,13.38,0,0,1-7.82,2.81l-1.93,4.54A1.68,1.68,0,0,1,38.62,44Zm-5.23-17.1a1,1,0,0,0-1,.64c-.12.26-.37.79-.46,1s-.3.72-.48,1.14l-.08.18-.21.49a2.1,2.1,0,0,0,.21,2.47,19.07,19.07,0,0,0,5.66,4l.23.1-1.74,4.1a1,1,0,0,0,0,.79,3.12,3.12,0,0,0,1.67,1.32,4,4,0,0,0,1.42.3,1.19,1.19,0,0,0,1.23-.66L41.91,38h.17a12.84,12.84,0,0,0,7.68-2.7c4.46-3.37,6-10.22,5-14.89h0c-1.77-7.89-7.67-9.07-11-9.07a14.62,14.62,0,0,0-2.09.15c-2.91.42-3.72.86-4.16,2.26L37,15.59a1.48,1.48,0,0,0,.08,1.27.93.93,0,0,0,.77.38h.1a3.3,3.3,0,0,1,1.22.08,2.21,2.21,0,0,1,1.34,1l0,.06a1,1,0,0,0,.85.53l.18,0h.2c.21,0,2.1,0,2.69,1.53a1.87,1.87,0,0,1-.08,1.66.89.89,0,0,1-.84.37,5.12,5.12,0,0,1-1.32-.23L41.47,22a5.83,5.83,0,0,0-1.55-.4h0c-.78,0-1.19.71-1.83,2.25-.43,1.05-.75,2,.08,2.51a26.5,26.5,0,0,0,2.68,1.19l.06,0,.74.3c.83.35,1.36.77,1.41,1.12s-.21.64-.7,1a3.51,3.51,0,0,1-2.13.65,4.12,4.12,0,0,1-3.15-1.43.65.65,0,0,0-.46-.23,2.39,2.39,0,0,1-1.29-.58,4.44,4.44,0,0,1-.8-.91A1.39,1.39,0,0,0,33.39,26.94Z" transform="translate(0 0)"/><path class="cls-7" d="M1.3,26.57h0a.18.18,0,0,1-.18-.19c0-.18.27-1.79,8.08-3.1,10.86-1.82,17.95-.09,18-.07a.18.18,0,1,1-.09.35c-.07,0-7.09-1.73-17.87.07-7.47,1.25-7.77,2.75-7.78,2.76a.18.18,0,0,1-.18.17" transform="translate(0 0)"/><path class="cls-2" d="M115.3,35.36l-.61-1.86,0-.09a2.17,2.17,0,0,1-.14-.7l.27-18.52a2.36,2.36,0,0,0-2-2.43l-.44-.06a5.49,5.49,0,0,1,.65-2,1,1,0,0,0,.32.07,1.6,1.6,0,1,0-1.58-1.82,5.5,5.5,0,0,0-2.08,3.41l-.21,0-.33,0a3,3,0,0,0-2.29,1.07L98.35,22.82l.07-9.28a2.25,2.25,0,0,0-2.25-2.26h-.1l-5,.21a2.3,2.3,0,0,0-2.19,2.34L89,32.68v0a1.89,1.89,0,0,1-.16.64l-.06.11-.64,1.8a2,2,0,0,0,.06,1.84A2,2,0,0,0,90,38h8.21a1.91,1.91,0,0,0,1.69-3L99.85,35l4.78-5.25.06,4.06a1.8,1.8,0,0,1-.16.6l-.42.69a1.91,1.91,0,0,0,1.67,3h7.68a2,2,0,0,0,1.72-.9,2,2,0,0,0,.12-1.82" transform="translate(0 0)"/><path class="cls-2" d="M181.29,35.28l-7.67-11.21v-.3s4.33-7.66,5.47-9.81a1.88,1.88,0,0,0,.34-1.52,1.78,1.78,0,0,0-1.82-1.17h-5.45a1.93,1.93,0,0,0-2.1,1.24l0,.09-3.23,6.29V13.16a1.93,1.93,0,0,0-2-1.88h-5.69a2.32,2.32,0,0,0-2,2.07v8.74c0,.21,0,.48,0,.75H156v-.22a3.93,3.93,0,0,0-3.8-4,3.91,3.91,0,0,0-4,3.8,3.84,3.84,0,0,0,.13,1.09,2.5,2.5,0,0,0,0,2.61,3.91,3.91,0,0,0,3.56,5.25H152a3.92,3.92,0,0,0,3.91-3.8,3.3,3.3,0,0,0,0-.4h1.26v9a1.94,1.94,0,0,0,.51,1.4,1.52,1.52,0,0,0,1.1.46h5.89a2.19,2.19,0,0,0,2.08-2V29.1l5.51,7.83a3.09,3.09,0,0,0,2.22,1.1h0l5.72,0h0a1.4,1.4,0,0,0,1.27-.73,2.07,2.07,0,0,0-.15-2" transform="translate(0 0)"/><path class="cls-2" d="M174.44,38.3A3.33,3.33,0,0,1,172,37.08l-5-7.17V36a2.46,2.46,0,0,1-2.34,2.25h-5.89a1.77,1.77,0,0,1-1.29-.54,2.2,2.2,0,0,1-.58-1.58V27.39h-.74c0,.05,0,.1,0,.15a4.17,4.17,0,0,1-4.17,4h-.12A4.17,4.17,0,0,1,148,26.1a2.69,2.69,0,0,1-.32-1.37,2.73,2.73,0,0,1,.37-1.31,4.08,4.08,0,0,1-.11-1.05,4.15,4.15,0,0,1,1.31-2.92,4.07,4.07,0,0,1,3-1.13,4.19,4.19,0,0,1,4,4.25h.58c0-.18,0-.35,0-.5V13.35A2.58,2.58,0,0,1,159.11,11h5.7A2.19,2.19,0,0,1,167,13.15v4.69l2.78-5.42a2.18,2.18,0,0,1,2.34-1.4h5.45a2,2,0,0,1,2.06,1.34,2.05,2.05,0,0,1-.34,1.69c-1.09,2.06-5,9.06-5.46,9.79V24l7.63,11.15a2.31,2.31,0,0,1,.16,2.26,1.64,1.64,0,0,1-1.49.86Zm-8-10,6,8.5a2.84,2.84,0,0,0,2,1l5.72,0a1.15,1.15,0,0,0,1.06-.59,1.81,1.81,0,0,0-.14-1.74l-7.71-11.27v-.45l0-.06c0-.08,4.34-7.68,5.46-9.8.27-.51.47-.89.33-1.32a1.53,1.53,0,0,0-1.57-1h-5.46c-1.25,0-1.63.52-1.86,1.08l0,.09L167,19l-.48-.12V13.16a1.68,1.68,0,0,0-1.72-1.62h-5.69a2.08,2.08,0,0,0-1.73,1.82v8.73c0,.22,0,.49,0,.75v.26h-1.64l0-.49a3.66,3.66,0,0,0-7.31-.21,3.59,3.59,0,0,0,.12,1l0,.11-.06.1a2.25,2.25,0,0,0,0,2.33l.07.11,0,.12a3.66,3.66,0,0,0,3.33,4.91H152a3.66,3.66,0,0,0,3.65-3.55,3.12,3.12,0,0,0,0-.37l0-.28h1.8v9.28a1.69,1.69,0,0,0,.44,1.22,1.27,1.27,0,0,0,.92.38h5.89A1.93,1.93,0,0,0,166.45,36Z" transform="translate(0 0)"/><path class="cls-8" d="M159.48,12.28c-1,.08-1.3.61-1.31,1V36.16c0,.74.36.8.79.8h5.42a1.15,1.15,0,0,0,1.33-1V29.16c0-.43,0-.95.3-1.24a.57.57,0,0,1,.39-.15,1.22,1.22,0,0,1,1.09.62l5.61,8a1.66,1.66,0,0,0,1.21.66l5.13,0c1.69,0,1.21-.75,1-1.11l-7.59-11.37a1.41,1.41,0,0,1-.05-1.33l5.37-9.68c.45-.83,0-1.28-.43-1.31h-4.59c-1.64-.06-1.92.39-2.14.76l-3.76,7.23a12.68,12.68,0,0,1-.91,1.46c-.37.41-.5.09-.5.09s0-1,0-1.43v-7a1,1,0,0,0-.86-1.1" transform="translate(0 0)"/><g class="cls-9"><polyline class="cls-10" points="165.16 16.12 155.64 15.99 155.7 11.91 165.22 12.03"/><polyline class="cls-11" points="174.85 16.24 165.33 16.12 165.39 12.04 174.91 12.16"/><polyline class="cls-12" points="184.54 16.38 175.02 16.25 175.08 12.17 184.6 12.29"/><polyline class="cls-13" points="159.84 20.32 150.31 20.2 150.37 16.11 159.89 16.24"/><polyline class="cls-14" points="169.53 20.45 160 20.32 160.06 16.25 169.58 16.38"/><polyline class="cls-10" points="179.22 20.58 169.69 20.45 169.75 16.38 179.27 16.5"/><polyline class="cls-15" points="165.05 24.63 155.53 24.5 155.58 20.42 165.1 20.55"/><polyline class="cls-14" points="174.74 24.76 165.22 24.63 165.27 20.55 174.79 20.68"/><polyline class="cls-10" points="184.43 24.89 174.91 24.76 174.96 20.68 184.48 20.81"/><polyline class="cls-13" points="159.72 28.87 150.2 28.74 150.25 24.66 159.78 24.79"/><polyline class="cls-16" points="169.41 29 159.89 28.87 159.94 24.79 169.46 24.92"/><polyline class="cls-10" points="179.1 29.13 169.58 29 169.63 24.92 179.16 25.05"/><polyline class="cls-11" points="164.93 33.17 155.41 33.04 155.47 28.96 164.98 29.09"/><polyline class="cls-13" points="174.62 33.3 165.1 33.17 165.16 29.09 174.68 29.22"/><polyline class="cls-15" points="184.31 33.43 174.79 33.3 174.85 29.22 184.37 29.35"/><polyline class="cls-12" points="159.61 37.41 150.08 37.28 150.14 33.2 159.66 33.33"/><polyline class="cls-14" points="169.29 37.54 159.78 37.42 159.83 33.34 169.35 33.46"/><polyline class="cls-15" points="178.99 37.67 169.46 37.55 169.52 33.47 179.04 33.59"/><polyline class="cls-10" points="188.67 37.8 179.15 37.68 179.21 33.59 188.73 33.72"/></g><path class="cls-17" d="M157.13,23.64H155a3.5,3.5,0,0,0,.2-1.07,3.15,3.15,0,0,0-3.05-3.23h0a3.14,3.14,0,0,0-3,4.3,1.49,1.49,0,0,0-.48,1.11,1.45,1.45,0,0,0,.47,1.19,3.11,3.11,0,0,0-.36,1.37,3.15,3.15,0,0,0,3,3.23h0A3.16,3.16,0,0,0,155,27.49a3.1,3.1,0,0,0-.19-1.16h2.3" transform="translate(0 0)"/><path class="cls-18" d="M151.86,28.58a1.28,1.28,0,0,1-1.24-1.32,1.46,1.46,0,0,1,.39-1l0-.17a4.61,4.61,0,0,1-.19-1.23,4.32,4.32,0,0,1,.24-1.14l0-.16a1.43,1.43,0,0,1-.32-1A1.29,1.29,0,0,1,152,21.3a1.4,1.4,0,0,1,.81.27.92.92,0,0,1,.34.46,1.32,1.32,0,0,1,.12.4,3,3,0,0,1-.14,1.2,6,6,0,0,0-.22,1.28,7,7,0,0,0,.14,1.36,3.34,3.34,0,0,1,.07,1.28c-.14.49-.25.66-.53.83a1.36,1.36,0,0,1-.71.18" transform="translate(0 0)"/><path class="cls-19" d="M151.9,28.84h-.05a1.54,1.54,0,0,1-1.49-1.58,1.7,1.7,0,0,1,.41-1.11V26.1a4.74,4.74,0,0,1-.19-1.25,4.42,4.42,0,0,1,.23-1.16v0a1.62,1.62,0,0,1-.33-1.11A1.55,1.55,0,0,1,152,21a1.66,1.66,0,0,1,1,.32,1.17,1.17,0,0,1,.43.58,1.55,1.55,0,0,1,.13.46,3.2,3.2,0,0,1-.15,1.29,5.73,5.73,0,0,0-.21,1.23,6.77,6.77,0,0,0,.13,1.3,3.53,3.53,0,0,1,.07,1.4,1.38,1.38,0,0,1-.65,1A1.62,1.62,0,0,1,151.9,28.84Zm0-.51h0a1.1,1.1,0,0,0,.58-.15c.2-.12.29-.21.42-.68a3.21,3.21,0,0,0-.08-1.17,7.2,7.2,0,0,1-.14-1.41,6.23,6.23,0,0,1,.22-1.33,2.93,2.93,0,0,0,.14-1.09,1.16,1.16,0,0,0-.1-.35.69.69,0,0,0-.26-.36,1.15,1.15,0,0,0-.67-.22,1,1,0,0,0-1,1c0,.33,0,.38.28.88l0,.1,0,.21,0,.05a4.1,4.1,0,0,0-.23,1.06,4.39,4.39,0,0,0,.18,1.16l0,.06-.1.34a1.22,1.22,0,0,0-.34.85,1,1,0,0,0,1,1.06Z" transform="translate(0 0)"/><path class="cls-19" d="M151.87,28.65a1.35,1.35,0,0,1-1.32-1.38,1.53,1.53,0,0,1,.41-1,.12.12,0,0,0,0-.11,4.71,4.71,0,0,1-.2-1.25A4.48,4.48,0,0,1,151,23.7a.13.13,0,0,0,0-.11,1.49,1.49,0,0,1-.33-1.05,1.36,1.36,0,0,1,1.33-1.3,1.65,1.65,0,0,1,.87.28,1,1,0,0,1,.37.51,1.44,1.44,0,0,1,.11.42,3.09,3.09,0,0,1-.15,1.2,5.92,5.92,0,0,0-.22,1.27,6.89,6.89,0,0,0,.14,1.35,3.39,3.39,0,0,1,.07,1.31,1.21,1.21,0,0,1-.56.87A1.46,1.46,0,0,1,151.87,28.65Zm.14-6.9a.84.84,0,0,0-.81.81c0,.3,0,.33.25.78a.64.64,0,0,1,.06.53,4.06,4.06,0,0,0-.22,1,4.31,4.31,0,0,0,.18,1.1.63.63,0,0,1-.12.56,1,1,0,0,0-.29.74.83.83,0,0,0,.81.86,1,1,0,0,0,.51-.12c.15-.09.22-.14.32-.51a3,3,0,0,0-.06-1.14,7.41,7.41,0,0,1-.14-1.46,6.37,6.37,0,0,1,.23-1.37,2.92,2.92,0,0,0,.14-1v0a1,1,0,0,0-.08-.29.54.54,0,0,0-.2-.3A1.15,1.15,0,0,0,152,21.75Z" transform="translate(0 0)"/><path class="cls-20" d="M153.49,22.41a1.55,1.55,0,0,0-.13-.45,1.1,1.1,0,0,0-.41-.55,1.56,1.56,0,0,0-.88-.3h0a1.47,1.47,0,0,0-1.47,1.43,1.62,1.62,0,0,0,.35,1.12,4.49,4.49,0,0,0-.25,1.19,4.83,4.83,0,0,0,.2,1.29,1.65,1.65,0,0,0-.43,1.12,1.47,1.47,0,0,0,1.43,1.52h.05a1.55,1.55,0,0,0,.81-.21,1.28,1.28,0,0,0,.6-.89l0-.06c.18-.69-.23-1.68-.2-2.69s.5-1.84.36-2.51m-.6,3.9a3.26,3.26,0,0,1,.07,1.2v.06c-.12.41-.22.53-.43.66a1.22,1.22,0,0,1-.65.16h0a1.09,1.09,0,0,1-1.06-1.12,1.28,1.28,0,0,1,.35-.89.38.38,0,0,0,.07-.34,4.52,4.52,0,0,1-.19-1.18,4.15,4.15,0,0,1,.23-1.08.38.38,0,0,0,0-.31c-.29-.5-.3-.57-.29-.92A1.09,1.09,0,0,1,152,21.49a1.41,1.41,0,0,1,.72.23.77.77,0,0,1,.28.4,1.2,1.2,0,0,1,.1.36,3,3,0,0,1-.15,1.1,6.22,6.22,0,0,0-.22,1.32,7.12,7.12,0,0,0,.14,1.4" transform="translate(0 0)"/><path class="cls-19" d="M151.87,28.44a1.14,1.14,0,0,1-1.11-1.17,1.32,1.32,0,0,1,.36-.92.33.33,0,0,0,.06-.29,4.56,4.56,0,0,1-.19-1.19,4.25,4.25,0,0,1,.23-1.1.33.33,0,0,0,0-.27,1.31,1.31,0,0,1-.3-.94,1.15,1.15,0,0,1,1.13-1.1,1.46,1.46,0,0,1,.75.24.82.82,0,0,1,.3.42,1.27,1.27,0,0,1,.1.38,3,3,0,0,1-.15,1.12,6.21,6.21,0,0,0-.22,1.31,7.07,7.07,0,0,0,.14,1.39h0a3.25,3.25,0,0,1,.07,1.22v.06c-.12.43-.24.56-.46.69A1.27,1.27,0,0,1,151.87,28.44Zm.15-6.9a1,1,0,0,0-1,1c0,.33,0,.39.28.89a.44.44,0,0,1,0,.36,4.12,4.12,0,0,0-.23,1.07,4.51,4.51,0,0,0,.19,1.16.43.43,0,0,1-.08.38,1.22,1.22,0,0,0-.34.86,1,1,0,0,0,1,1.07,1.17,1.17,0,0,0,.62-.15c.21-.13.3-.24.41-.63V27.5a3.21,3.21,0,0,0-.07-1.18h0a7.16,7.16,0,0,1-.14-1.41,6.28,6.28,0,0,1,.22-1.33,2.92,2.92,0,0,0,.15-1.08,1.15,1.15,0,0,0-.1-.35.72.72,0,0,0-.27-.38A1.35,1.35,0,0,0,152,21.55Z" transform="translate(0 0)"/><path class="cls-19" d="M151.9,28.82h-.05a1.52,1.52,0,0,1-1.48-1.57,1.68,1.68,0,0,1,.43-1.13,4.78,4.78,0,0,1-.2-1.28,4.45,4.45,0,0,1,.25-1.18,1.64,1.64,0,0,1-.34-1.13A1.53,1.53,0,0,1,152,21.06h0a1.62,1.62,0,0,1,.91.31,1.16,1.16,0,0,1,.43.57,1.53,1.53,0,0,1,.13.46,3.16,3.16,0,0,1-.15,1.29,5.93,5.93,0,0,0-.21,1.23,6.73,6.73,0,0,0,.13,1.31,3.46,3.46,0,0,1,.06,1.39v.06a1.32,1.32,0,0,1-.63.92A1.6,1.6,0,0,1,151.9,28.82Zm.17-7.66h0a1.43,1.43,0,0,0-1.42,1.38,1.58,1.58,0,0,0,.34,1.09v0a4.52,4.52,0,0,0-.25,1.18,4.8,4.8,0,0,0,.2,1.27v0l0,0a1.61,1.61,0,0,0-.42,1.09,1.42,1.42,0,0,0,1.38,1.46h0a1.51,1.51,0,0,0,.78-.2,1.24,1.24,0,0,0,.58-.86V27.6a3.41,3.41,0,0,0-.07-1.35,6.81,6.81,0,0,1-.14-1.33,5.94,5.94,0,0,1,.21-1.25,3.09,3.09,0,0,0,.15-1.25h0a1.42,1.42,0,0,0-.12-.44,1.05,1.05,0,0,0-.39-.53A1.52,1.52,0,0,0,152.07,21.16Z" transform="translate(0 0)"/><path class="cls-18" d="M11,26.31s5.06-1.79,7.19,1.49c.88,1.35,1.94,6.53-6.6,6.23" transform="translate(0 0)"/><path class="cls-18" d="M12,26.18s3.86-1.29,5.43,1.22c.65,1,1.38,5-5.08,4.63" transform="translate(0 0)"/><path class="cls-2" d="M24.57,25.5c-.91-1.9-3.4-5.1-9.81-5.1a22,22,0,0,0-2.74.18l-.2-2.51,9.3-.88a1.68,1.68,0,0,0,1.52-1.85l-.28-2.64a1.68,1.68,0,0,0-1.67-1.51h-.2L5.24,13a1.74,1.74,0,0,0-1.52,1.85L5.39,36.17A2,2,0,0,0,7,37.91a38.32,38.32,0,0,0,5.63.42c5.35,0,9-1.17,10.86-3.48a9,9,0,0,0,1.84-4.43,8.76,8.76,0,0,0-.76-4.91" transform="translate(0 0)"/><path class="cls-21" d="M5.35,13.91a.83.83,0,0,0-.73.88L6.29,36.1a1.06,1.06,0,0,0,.84.92S19,39,22.78,34.28,24.72,19.41,11.2,21.61L10.91,18a.81.81,0,0,1,.72-.86L21,16.3a.78.78,0,0,0,.71-.86l-.28-2.64a.78.78,0,0,0-.87-.7" transform="translate(0 0)"/><path class="cls-2" d="M14.39,24.64a11.1,11.1,0,0,0-2.91.4l-.69.21.05.72.5,6.8.06.8.8,0,.9,0c3.21,0,5.31-.85,6.25-2.54a4.34,4.34,0,0,0-.12-4.15,5.35,5.35,0,0,0-4.84-2.29" transform="translate(0 0)"/><path class="cls-18" d="M11.74,25.9s4.87-1.47,6.72,1.5c.71,1.15,1.65,5.65-6.22,5.29" transform="translate(0 0)"/><path class="cls-6" d="M112.79,9c.17.23.16.07.47.07a.95.95,0,1,0-.95-.95.92.92,0,0,0,0,.26c-.67.4-1.95,1.51-2.18,4.2l-.93-.12h-.18a1.89,1.89,0,0,0-1.39.64l-10.5,13,.09-12.58a1.09,1.09,0,0,0-1.1-1.1h0l-5,.21A1.15,1.15,0,0,0,90,13.86l.21,18.85a2.91,2.91,0,0,1-.3,1.24V34l-.62,1.74a.82.82,0,0,0,0,.81.84.84,0,0,0,.75.38h8.21a.76.76,0,0,0,.7-1.22l-.23-.4a.73.73,0,0,1,.08-.78l7-7.68.11,7a2.76,2.76,0,0,1-.33,1.21l-.41.69a.77.77,0,0,0-.06.81.79.79,0,0,0,.75.37h7.67a.82.82,0,0,0,.75-.35.78.78,0,0,0,0-.77L113.63,34v0a3.17,3.17,0,0,1-.25-1.26l.27-18.52a1.22,1.22,0,0,0-1-1.24l-1.32-.18A5.9,5.9,0,0,1,112.79,9" transform="translate(0 0)"/><path class="cls-22" d="M26.43,35.87a1.12,1.12,0,1,1-1.12-1.12,1.12,1.12,0,0,1,1.12,1.12" transform="translate(0 0)"/><path class="cls-18" d="M25.74,35.48a.28.28,0,1,1-.28-.28.28.28,0,0,1,.28.28" transform="translate(0 0)"/><path class="cls-22" d="M3.53,23.26a.75.75,0,1,1-.75-.75.75.75,0,0,1,.75.75" transform="translate(0 0)"/><path class="cls-18" d="M3.07,23a.19.19,0,0,1-.37,0,.19.19,0,1,1,.37,0" transform="translate(0 0)"/><path class="cls-22" d="M8.33,11.2a.76.76,0,1,1-.76-.76.76.76,0,0,1,.76.76" transform="translate(0 0)"/><path class="cls-18" d="M7.88,11a.19.19,0,1,1-.19-.19.19.19,0,0,1,.19.19" transform="translate(0 0)"/><path class="cls-22" d="M16.35,30.27A1.29,1.29,0,1,1,15.06,29a1.29,1.29,0,0,1,1.29,1.29" transform="translate(0 0)"/><path class="cls-18" d="M15.54,29.78a.32.32,0,1,1-.32-.32.32.32,0,0,1,.32.32" transform="translate(0 0)"/><path class="cls-22" d="M24.88,20.77a1,1,0,1,1-1-1,1,1,0,0,1,1,1" transform="translate(0 0)"/><path class="cls-18" d="M24.38,20.4a.24.24,0,1,1-.24-.24.24.24,0,0,1,.24.24" transform="translate(0 0)"/><path class="cls-22" d="M24.6,15.17a.65.65,0,1,1-.64-.64.65.65,0,0,1,.64.64" transform="translate(0 0)"/><polyline class="cls-18" points="24.3 14.96 24.14 15.12 23.98 14.96 24.14 14.8 24.3 14.96"/><path class="cls-23" d="M18,18.66a.21.21,0,1,0,.22.22.21.21,0,0,0-.22-.22m-.18,1.43a.86.86,0,0,1-.86-.84v0a.86.86,0,0,1,.84-.84h0a.86.86,0,0,1,0,1.72" transform="translate(0 0)"/><path class="cls-18" d="M18,19.08a.21.21,0,1,1,.21-.21.21.21,0,0,1-.21.21" transform="translate(0 0)"/><path class="cls-2" d="M241.39,16.18a4.06,4.06,0,0,0-2.55-.95h0c.53-1.32.82-2.11.83-2.14a1.33,1.33,0,0,0,0-1.23,1.33,1.33,0,0,0-1.11-.56h-5.7a1.91,1.91,0,0,0-1.64,1l-3.77,7.51L223,12.19a1.92,1.92,0,0,0-1.63-.88h-6.33A1.29,1.29,0,0,0,214,12a1.26,1.26,0,0,0,.08,1.29l1.37,2.18a2.55,2.55,0,0,0-1.94,1.13,3.65,3.65,0,0,0,.39,4.74l.11.13a13.56,13.56,0,0,0,3.41,2.11l.47.25a3.61,3.61,0,0,1,.33.25,2.58,2.58,0,0,0,1.59.74,1.56,1.56,0,0,0,1.07-.42l.11-.11,1.42,2.26a4,4,0,0,1,.34.75c.18.63.52,2.47-.12,3.47a1.59,1.59,0,0,1-1.21.7,5.68,5.68,0,0,1-.82.06,6.06,6.06,0,0,1-3.81-1.41,1.35,1.35,0,0,0-.92-.38,1.29,1.29,0,0,0-1.2.89l-1.31,3.66a1.6,1.6,0,0,0,.75,1.93,18.22,18.22,0,0,0,7.56,1.89,9.1,9.1,0,0,0,8.09-4.32c1.93-3.07,3.65-6.26,5.1-9.19a1.84,1.84,0,0,0,.86.23h.07a3.15,3.15,0,0,0,2.08-1,3.87,3.87,0,0,1,.37-.32l.19-.12c.2-.11.27-.15,2.27-1.58a4.3,4.3,0,0,0,1.75-3.12,2.93,2.93,0,0,0-1.07-2.43" transform="translate(0 0)"/><path class="cls-2" d="M221.65,38.32A18.57,18.57,0,0,1,214,36.41a1.86,1.86,0,0,1-.87-2.24l1.31-3.66a1.54,1.54,0,0,1,1.45-1.06,1.6,1.6,0,0,1,1.1.45,5.83,5.83,0,0,0,3.63,1.34,5.42,5.42,0,0,0,.78-.06,1.33,1.33,0,0,0,1-.58c.59-.91.25-2.71.09-3.26a3.87,3.87,0,0,0-.31-.69l-1.26-2a1.8,1.8,0,0,1-1.12.39,2.82,2.82,0,0,1-1.75-.8,3.36,3.36,0,0,0-.29-.22l-.46-.24a13.34,13.34,0,0,1-3.5-2.17l-.1-.12a3.92,3.92,0,0,1-.42-5A2.67,2.67,0,0,1,215,15.27l-1.17-1.86a1.51,1.51,0,0,1-.08-1.54,1.55,1.55,0,0,1,1.34-.81h6.34a2.19,2.19,0,0,1,1.85,1l4.22,7.22L231,12.2a2.15,2.15,0,0,1,1.87-1.14h5.7a1.58,1.58,0,0,1,1.32.67,1.57,1.57,0,0,1,0,1.46s-.24.65-.7,1.81a4.33,4.33,0,0,1,2.35,1h0a3.18,3.18,0,0,1,1.15,2.64,4.57,4.57,0,0,1-1.86,3.32c-2,1.43-2.08,1.47-2.3,1.59l-.18.11a3.52,3.52,0,0,0-.32.28,3.43,3.43,0,0,1-2.27,1.13h-.07a2.22,2.22,0,0,1-.74-.15c-1.64,3.29-3.33,6.32-5,9A9.34,9.34,0,0,1,221.65,38.32ZM215.85,30a1,1,0,0,0-1,.72l-1.31,3.66A1.34,1.34,0,0,0,214.2,36a18,18,0,0,0,7.44,1.86,8.85,8.85,0,0,0,7.88-4.2,104.83,104.83,0,0,0,5.09-9.16l.12-.24.24.14a1.59,1.59,0,0,0,.75.2h.06a2.89,2.89,0,0,0,1.91-1,4.09,4.09,0,0,1,.41-.35l.17-.1c.22-.13.3-.17,2.29-1.58a4,4,0,0,0,1.64-2.92,2.68,2.68,0,0,0-1-2.22,3.82,3.82,0,0,0-2.38-.89h-.38l.14-.35c.54-1.34.83-2.12.83-2.13.14-.38.25-.75.08-1a1.08,1.08,0,0,0-.9-.45h-5.7a1.65,1.65,0,0,0-1.41.86l-4,7.93-4.7-8a1.66,1.66,0,0,0-1.41-.75h-6.33a1,1,0,0,0-.89.54,1,1,0,0,0,.07,1l1.59,2.52-.4,0a2.29,2.29,0,0,0-1.75,1,3.38,3.38,0,0,0,.37,4.44l.11.13a13.89,13.89,0,0,0,3.34,2l.48.25a3.13,3.13,0,0,1,.32.24,2.43,2.43,0,0,0,1.48.72,1.31,1.31,0,0,0,.89-.36l.32-.34,1.6,2.54a4.32,4.32,0,0,1,.37.81s.68,2.39-.15,3.68a1.85,1.85,0,0,1-1.38.81,6,6,0,0,1-.86.06,6.28,6.28,0,0,1-4-1.51A1.08,1.08,0,0,0,215.85,30Z" transform="translate(0 0)"/><path class="cls-24" d="M217.3,16.67l-.16,0c-1.2-.41-2.42-.23-2.86.49a2.79,2.79,0,0,0,.43,3.78A22.91,22.91,0,0,0,218.32,23c.55.31,1.26,1.26,1.89.69a4.33,4.33,0,0,0,.83-1.12l0,0a3.89,3.89,0,0,0,.28.49l1.79,2.84a4.83,4.83,0,0,1,.45,1s1.45,4.85-2.09,5.38a6.9,6.9,0,0,1-5.42-1.6.33.33,0,0,0-.58.14l-1.31,3.66a.65.65,0,0,0,.3.77s9.85,5.17,14.42-2.1c2.14-3.41,5.35-9.74,5.35-9.74l.25-.49.05.07c.28.39.63.9,1.21.92.83,0,1.45-.87,2-1.21A23.87,23.87,0,0,0,240.15,21c1.1-.78,2.09-2.8.62-4.06a2.48,2.48,0,0,0-3.68.22l.22-.55,1.61-3.95a.37.37,0,0,0-.36-.53h-5.7a1,1,0,0,0-.79.49l-4.31,8.58c-.14.27-.37.28-.52,0l-5-8.57a1.06,1.06,0,0,0-.82-.47H215c-.3,0-.42.23-.26.48L217,16.21" transform="translate(0 0)"/><path class="cls-18" d="M224.72,22.09s-1.39.76-.65,1.62c1,1.17,2.75-.55,1.81-2.55-.79-1.68-3.37-2.41-4.74-1,0,0,3.55-.46,3.58,2" transform="translate(0 0)"/><path class="cls-18" d="M216.43,15.27s1.81.52,2.64-.46a1.51,1.51,0,0,0,.19-2.17,2,2,0,0,1,.5,3s2.32-.14,2.32,1.69-3.05,1.74-2.67.56c.28-.88,1.45.55,1.61-.58s-2-1-3.74-.68" transform="translate(0 0)"/><path class="cls-18" d="M228.33,33.93l-.31.36a10.55,10.55,0,0,0-2.43-1.68.77.77,0,0,0-.8.1,1.49,1.49,0,0,0-.47.72s-.52-.84.7-1.33c0,0-1.18-.79-.42-1.78s2.23.06,1.47.6a.29.29,0,0,1-.48-.14.26.26,0,0,0-.4-.11c-.72.65,2.42,2.41,3.41,2.9l-.28.37" transform="translate(0 0)"/><path class="cls-18" d="M225.27,35a.7.7,0,1,1-.62-.76.69.69,0,0,1,.62.76" transform="translate(0 0)"/><path class="cls-18" d="M216.7,34a.9.9,0,1,1-.81-1,.9.9,0,0,1,.81,1" transform="translate(0 0)"/><path class="cls-18" d="M231.79,26a.68.68,0,0,1-.73.59.66.66,0,0,1-.6-.72.67.67,0,1,1,1.33.13" transform="translate(0 0)"/><path class="cls-18" d="M229.27,30.3a.72.72,0,0,1-.79.64.71.71,0,0,1-.64-.78.72.72,0,0,1,.78-.65.73.73,0,0,1,.64.78" transform="translate(0 0)"/><path class="cls-18" d="M222.73,21.74a.56.56,0,0,1-.6.49.55.55,0,0,1-.49-.59.55.55,0,1,1,1.09.1" transform="translate(0 0)"/><path class="cls-18" d="M224,17.75a.48.48,0,0,1-.52.42.47.47,0,0,1-.42-.51.48.48,0,0,1,.52-.43.49.49,0,0,1,.43.52" transform="translate(0 0)"/><path class="cls-18" d="M231.62,17.63a.48.48,0,0,1-.52.42.47.47,0,0,1-.42-.51.48.48,0,0,1,.52-.43.48.48,0,0,1,.43.52" transform="translate(0 0)"/><path class="cls-18" d="M234.07,20.88a.61.61,0,0,1-.67.54.6.6,0,0,1-.54-.65.61.61,0,0,1,.66-.54.62.62,0,0,1,.55.66" transform="translate(0 0)"/><path class="cls-18" d="M222.29,14.72a.55.55,0,1,1-.5-.6.55.55,0,0,1,.5.6" transform="translate(0 0)"/><path class="cls-18" d="M220,36.94c-.18,0-.74-.11-.74-.11s1.48-2.84.6-3-.6,1.15-.6,1.15-.78-.9-.19-1.55c.95-1,2,0,1.78.59,0,0,.95-1.16,1.85-.26.6.6-.16,1.32-.16,1.32a.71.71,0,0,0-.39-.92c-.4-.16-1,.22-1.19,1.17a13.77,13.77,0,0,0-.26,1.64l-.72-.07" transform="translate(0 0)"/><path class="cls-18" d="M228.79,19.19s1.68.91,2.6,0c1.66-1.59,2.56-1.33,3.24-.75a2.13,2.13,0,0,0-2.28.59c-.45.4-1,1.38-2.1,1.27s1.37.16,1.18,1.8-1.89,2.06-2.52,1,.27-1.18.56-.64.76.43,1-.08c.5-.9-.29-1.47-.95-1.78a3,3,0,0,0-1.4-.27s.42-.86.62-1.21" transform="translate(0 0)"/><path class="cls-18" d="M216.79,20.11c-.27-.35-.31-.87.08-1.05,0,0,.2.19.57,0a.62.62,0,0,0,.08-1c-.71-.84-2.46.3-1.69,2,.59,1.36,2.36,1.54,3.75,1,0,0-2,.08-2.79-.92" transform="translate(0 0)"/><path class="cls-18" d="M238.46,20.11c.27-.35.31-.87-.09-1.05,0,0-.2.19-.57,0a.62.62,0,0,1-.08-1c.71-.84,2.46.3,1.7,2-.6,1.36-2.36,1.54-3.75,1,0,0,2,.08,2.79-.92" transform="translate(0 0)"/><path class="cls-18" d="M234.51,15s-.73.38-1-.56a1.37,1.37,0,0,1,2.26-1.08c1.52,1.12.6,3.19-.81,3.67a2.32,2.32,0,0,1-2.89-2.48s.71,1.67,1.94,1.75a1.45,1.45,0,0,0,1.6-1.7.87.87,0,0,0-1.34-.56c-.32.28-.26.72.26,1" transform="translate(0 0)"/><path class="cls-18" d="M226.59,27s.76-.21.86.73a1.32,1.32,0,0,1-2.35.58c-1.22-1.36.05-3.14,1.48-3.32,1.63-.21,2.76,2,2.26,2.92,0,0-.35-1.72-1.5-2a1.4,1.4,0,0,0-1.84,1.3.84.84,0,0,0,1.16.79c.36-.2.38-.63-.06-1" transform="translate(0 0)"/><path class="cls-18" d="M217.05,13.84a.55.55,0,0,1-.6.49.54.54,0,0,1-.49-.59.55.55,0,0,1,1.09.11" transform="translate(0 0)"/><g class="cls-25"><path class="cls-7" d="M28.69,35.41,27,14.72A9.56,9.56,0,0,0,23,9.1c-.37-.24-.72-.46-1-.65a8,8,0,0,1-1.28-.87l.11-.06a1.71,1.71,0,0,0,1.05-1.77.4.4,0,0,0-.06-.24V5.45c0-.34-.17-1.39-9.09-.82-5.79.37-8.3.85-8.95,1.72A.84.84,0,0,0,3.61,7l.07.23A2.44,2.44,0,0,0,4.81,8.59l.21.1a8.2,8.2,0,0,1-1.55,1.65l-.42.38A9.56,9.56,0,0,0,0,16.9L1.67,37.59a4.4,4.4,0,0,0,2.52,3.26c1.79,1,4.89,1.52,8.46,1.52,1,0,2,0,3-.12,5.64-.45,10.43-2.06,11.91-4a4.27,4.27,0,0,0,1.09-2.86M4.46,7.61a16.35,16.35,0,0,0,3.18.21h0c1.39,0,3.15-.07,5.21-.2,5.42-.34,7.56-.84,8.41-1.24a1.54,1.54,0,0,1-.71.68c-1,.56-3.79,1-7.81,1.15l-2.93.15c-1.24.07-2.14.11-2.8.11a4.05,4.05,0,0,1-2-.36,1.58,1.58,0,0,1-.58-.51M4.2,6.67c.67-.9,4.93-1.28,8.56-1.51,6.74-.43,8.45.11,8.54.35l0,.1v.11c-.13.17-1.13.92-8.51,1.38-2.06.13-3.8.2-5.18.2h0C4.91,7.3,4.27,7,4.13,7v0a.31.31,0,0,1,.06-.27m23,31.26c-1.38,1.79-6.13,3.35-11.55,3.79C11,42.1,6.6,41.57,4.43,40.38h0a3.88,3.88,0,0,1-2.22-2.83L.53,16.86A9.13,9.13,0,0,1,3.41,11.1l.41-.38a7.55,7.55,0,0,0,1.7-1.86A6,6,0,0,0,7,9C7.7,9,8.6,9,9.85,8.89l2.93-.15a32.7,32.7,0,0,0,7.41-.95A6.38,6.38,0,0,0,21.72,8.9c.33.2.67.4,1,.64a9.12,9.12,0,0,1,3.77,5.23l1.67,20.69a3.74,3.74,0,0,1-1,2.48" transform="translate(0 0)"/></g><path class="cls-18" d="M7,8.48c.67,0,1.56,0,2.81-.11l2.93-.15c4-.18,6.78-.59,7.8-1.15a1.53,1.53,0,0,0,.71-.68c-.86.4-3,.9-8.41,1.24-2.07.13-3.82.2-5.22.2h0a16.36,16.36,0,0,1-3.18-.21A1.58,1.58,0,0,0,5,8.12a4.07,4.07,0,0,0,2,.36" transform="translate(0 0)"/><path class="cls-18" d="M97.49,31.06a2.74,2.74,0,1,1-2.74-2.74,2.75,2.75,0,0,1,2.74,2.74" transform="translate(0 0)"/><path class="cls-19" d="M95.9,31.38a1,1,0,1,1-1-1,1,1,0,0,1,1,1" transform="translate(0 0)"/><path class="cls-19" d="M92,31.7a3.22,3.22,0,0,1,2.41-2.85c2-.44,3.13,1.78,3.13,1.78S97.35,28.07,95,28A2.89,2.89,0,0,0,92,31.7" transform="translate(0 0)"/><path class="cls-18" d="M95.64,18.41A2.21,2.21,0,1,1,94,15.78a2.21,2.21,0,0,1,1.68,2.63" transform="translate(0 0)"/><path class="cls-19" d="M94.55,18.53a.9.9,0,1,1-.68-1.07.9.9,0,0,1,.68,1.07" transform="translate(0 0)"/><path class="cls-19" d="M91.26,17.42a2.52,2.52,0,0,1,2.53-1.48c1.61.17,2,2.11,2,2.11s.32-2.05-1.29-2.57a2.28,2.28,0,0,0-3.19,1.94" transform="translate(0 0)"/><path class="cls-18" d="M254,14.18A2,2,0,1,1,252.3,12a2,2,0,0,1,1.68,2.2" transform="translate(0 0)"/><path class="cls-19" d="M253,14.12a.94.94,0,1,1-.81-1.06.94.94,0,0,1,.81,1.06" transform="translate(0 0)"/><path class="cls-19" d="M250,13.63a2.23,2.23,0,0,1,2.12-1.5c1.44,0,1.88,1.72,1.88,1.72s.13-1.84-1.33-2.18a2,2,0,0,0-2.67,2" transform="translate(0 0)"/><path class="cls-18" d="M259.7,14.18A2,2,0,1,1,258,12a2,2,0,0,1,1.68,2.2" transform="translate(0 0)"/><path class="cls-19" d="M258.69,14.12a.94.94,0,1,1-.81-1.06.94.94,0,0,1,.81,1.06" transform="translate(0 0)"/><path class="cls-19" d="M255.76,13.63a2.23,2.23,0,0,1,2.12-1.5c1.44,0,1.88,1.72,1.88,1.72s.13-1.84-1.33-2.18a2,2,0,0,0-2.67,2" transform="translate(0 0)"/><path class="cls-18" d="M111.74,31.87A2.38,2.38,0,1,1,110,29a2.38,2.38,0,0,1,1.76,2.86" transform="translate(0 0)"/><path class="cls-19" d="M110.21,31.76a1,1,0,1,1-.71-1.16,1,1,0,0,1,.71,1.16" transform="translate(0 0)"/><path class="cls-19" d="M107,30.66A2.89,2.89,0,0,1,110,29.29c1.72.31,1.89,2.48,1.89,2.48s.6-2.15-1.27-2.94A2.42,2.42,0,0,0,107,30.66" transform="translate(0 0)"/><path class="cls-18" d="M110.67,20.95a2.72,2.72,0,1,1-1.83-3.38,2.72,2.72,0,0,1,1.83,3.38" transform="translate(0 0)"/><path class="cls-19" d="M108.77,21a1,1,0,1,1-.71-1.3,1,1,0,0,1,.71,1.3" transform="translate(0 0)"/><path class="cls-19" d="M105.36,19.45a3,3,0,0,1,3.26-1.54c2,.38,2.17,2.94,2.17,2.94s.72-2.68-1.26-3.52a2.86,2.86,0,0,0-4.17,2.12" transform="translate(0 0)"/><path class="cls-26" d="M39.3,42.62c-.13.33-.93.33-1.79,0s-1.45-.89-1.31-1.22l3.27-7.68c.13-.33.93-.33,1.79,0s1.44.89,1.31,1.22" transform="translate(0 0)"/><path class="cls-4" d="M33.26,27.85a7.58,7.58,0,0,0-.76,1.33c-.21.41-.47,1.07-.65,1.49s-.52,1.16.06,1.74c7.31,7.32,13.94,5.09,17.52,2.38,4.27-3.23,5.74-9.79,4.74-14.21-1.92-8.55-9-8.9-12.37-8.4-2.85.41-3.3.8-3.61,1.8l-.51,1.83c-.06.17-.21.81.25.78a3.84,3.84,0,0,1,1.44.1A2.86,2.86,0,0,1,41.1,18c.12.16.2.34.39.31.54-.1,2.9,0,3.66,1.93A2.53,2.53,0,0,1,45,22.5c-.57.8-1.55.77-2.89.4A15.62,15.62,0,0,0,40,22.28c-.35,0-.65.44-1.21,1.83-.49,1.21-.46,1.53-.2,1.68.75.43,2.61,1.14,3.4,1.47,1.8.76,2.59,1.9.88,3.3a4.71,4.71,0,0,1-6.22-.86,4.64,4.64,0,0,1-1.92-.7c-.86-.52-.8-1.8-1.45-1.17" transform="translate(0 0)"/><path class="cls-27" d="M51.68,23.22c-1-5.12-2.6-7.41-6.75-8.71-.24-.08-.27-.3,0-.28,0,0,6.37.61,7,9,0,.26-.18.27-.25,0" transform="translate(0 0)"/><path class="cls-27" d="M51.84,23.93c-.26,0-.54-.19-.62-.62-1-5.11-2.57-7.14-6.42-8.35a.68.68,0,0,1-.52-.75.6.6,0,0,1,.69-.45c.07,0,6.78.75,7.44,9.48a.6.6,0,0,1-.49.7Z" transform="translate(0 0)"/><path class="cls-7" d="M10.56,28.79c-4,0-7.28-.75-9.25-2.16,0,0,0-.11,0-.24l.2-.09.05,0c2.43,1.74,7,2.43,12.66,1.9,9.39-.89,12.61-4.82,12.64-4.86l.34-.06,0,.15,0,.12c-.14.16-3.4,4.1-13,5-1.29.12-2.52.18-3.67.18" transform="translate(0 0)"/><path class="cls-2" d="M209.39,36.07l-6.06-23.32a2,2,0,0,0-1.89-1.45h-.84c.08-.23.15-.44.23-.63a9.91,9.91,0,0,1,1.16-2,4.71,4.71,0,0,0,1.15-2.64,4.78,4.78,0,1,0-9.57,0v.12a6.19,6.19,0,0,0,1.34,3.1c.22.33.45.67.67,1a10.24,10.24,0,0,1,.47,1h-.87a2.12,2.12,0,0,0-1.92,1.36l-8.2,23.4a1.46,1.46,0,0,0,1.42,2h0l5.43,0a2.09,2.09,0,0,0,1.91-1.4l4-12.49,2.35,12.32A1.91,1.91,0,0,0,202,38l5.84,0a1.52,1.52,0,0,0,1.5-1.94" transform="translate(0 0)"/><path class="cls-2" d="M186.49,38.34A1.72,1.72,0,0,1,184.83,36L193,12.6a2.39,2.39,0,0,1,2.16-1.54h.48c-.12-.27-.23-.49-.3-.6-.22-.37-.45-.71-.67-1a6.39,6.39,0,0,1-1.39-3.23V6.07a5,5,0,0,1,10.08,0,4.89,4.89,0,0,1-1.2,2.78,9.76,9.76,0,0,0-1.14,1.93L201,11h.48a2.26,2.26,0,0,1,2.14,1.65L209.63,36a1.78,1.78,0,0,1-1.75,2.26l-5.84,0a2.17,2.17,0,0,1-2.11-1.74l-2.16-11.34-3.71,11.53a2.35,2.35,0,0,1-2.15,1.57Zm11.86-36.8a4.52,4.52,0,0,0-4.52,4.53v.08a6,6,0,0,0,1.3,3c.22.33.45.68.68,1.05a10.27,10.27,0,0,1,.49,1l.15.35h-1.26a1.86,1.86,0,0,0-1.68,1.19l-8.2,23.4a1.21,1.21,0,0,0,1.17,1.66l5.43,0a1.82,1.82,0,0,0,1.66-1.22l4-12.49.5,0,2.35,12.32a1.65,1.65,0,0,0,1.6,1.32l5.84,0a1.27,1.27,0,0,0,1.25-1.62l-6.06-23.32a1.74,1.74,0,0,0-1.64-1.26h-1.2l.12-.34c.08-.24.15-.45.23-.64a10.14,10.14,0,0,1,1.19-2,4.53,4.53,0,0,0,1.11-2.49A4.53,4.53,0,0,0,198.35,1.54Z" transform="translate(0 0)"/><path class="cls-18" d="M186.43,37.15a.5.5,0,0,1-.51-.71l8.2-23.4a1.21,1.21,0,0,1,1-.77h6.31a1,1,0,0,1,1,.73l6,23.34a.56.56,0,0,1-.57.74l-5.84,0a1,1,0,0,1-.9-.75l-2.45-12.84a.88.88,0,0,0-.77-.74,1,1,0,0,0-.86.73L192.85,36.4a1.12,1.12,0,0,1-1,.73" transform="translate(0 0)"/><g class="cls-28"><path class="cls-29" d="M194.61,15.71s-2.27-1.73-2.77-.1.84,3.35,3.86,3.5c0,0,2.5-2,2-3.82-.53-2.05-2.55-1.69-3.1.42" transform="translate(0 0)"/><path class="cls-29" d="M202.24,18.8s-.66-2.73-2.5-1.51c-1.24.82,0,5,0,5s5.06-1.16,4.73-2.79-1.41-1.35-2.27-.71" transform="translate(0 0)"/><path class="cls-29" d="M204.29,34.23s-.94-2.14-2.38-1c-.9.74,1.25,4.24,1.25,4.24s4.08-1.14,3.55-3c-.34-1.19-1.8-1-2.42-.32" transform="translate(0 0)"/><path class="cls-29" d="M192,26s.16-2.44-2-2.19-1.25,3.39,1.58,6.13c0,0,4.22-2.45,3.62-4.74-.53-2-3.17-.83-3.18.8" transform="translate(0 0)"/><path class="cls-29" d="M203.58,27.12s-2.35-2.27-2.92.69c-.34,1.77,4.25,3.26,4.25,3.26s2.7-3.39,1.43-4.93a1.51,1.51,0,0,0-2.76,1" transform="translate(0 0)"/><path class="cls-29" d="M191.21,34.89s-2.42-2.34-3,.12c-.52,2,4.35,3.08,4.35,3.08s2.52-3,1.15-4.9c-.82-1.11-2.73-.17-2.45,1.7" transform="translate(0 0)"/></g><path class="cls-18" d="M199.45,11.67c.18-.53.32-1,.48-1.38.78-1.93,2.24-3,2.24-4.25a3.82,3.82,0,1,0-7.64,0v.08c.06,1.21,1,2.2,1.88,3.68a15.16,15.16,0,0,1,.84,1.86" transform="translate(0 0)"/><path class="cls-19" d="M198.22,12.1a.38.38,0,0,1-.33-.2c-.75-1.36.24-2.59.77-3.25l.14-.18c-1.93-.31-2.45-1.1-2.58-1.55a1.46,1.46,0,0,1,.57-1.53,3.21,3.21,0,0,1,3-.43.38.38,0,1,1-.22.73,2.49,2.49,0,0,0-2.26.29.76.76,0,0,0-.32.74c.05.19.38.82,2.23,1.05a.56.56,0,0,1,.5.33c.13.33-.1.63-.43,1-.63.79-1.16,1.57-.69,2.41a.38.38,0,0,1-.33.56Z" transform="translate(0 0)"/><path class="cls-6" d="M116.88,12.42l-.22-.08a.23.23,0,0,1,0-.33,5.13,5.13,0,1,0-8.47-4.58.24.24,0,0,1-.47-.07,5.61,5.61,0,1,1,9.25,5l-.12.06" transform="translate(0 0)"/><path class="cls-6" d="M116.9,12.7l-.42-.19a.49.49,0,0,1,0-.7,4.88,4.88,0,1,0-8-4.35.49.49,0,0,1-.56.42.49.49,0,0,1-.42-.56,5.86,5.86,0,1,1,9.68,5.23l-.06,0Z" transform="translate(0 0)"/><g class="cls-25"><path class="cls-6" d="M118.49,14a.34.34,0,0,1-.28-.59,7.31,7.31,0,1,0-12.06-6.51.34.34,0,0,1-.67-.1A8,8,0,1,1,118.66,14l-.17.08" transform="translate(0 0)"/></g><path class="cls-19" d="M42.37,37.92a12.47,12.47,0,0,1-6.05-1.39l.25-.54a13.81,13.81,0,0,0,6.25,1.36l-.21.33" transform="translate(0 0)"/><path class="cls-2" d="M138.52,25l-.66-.67c-1.41-1.46-3-3.09-5.19-3.51l-.08-1.71a1.56,1.56,0,0,0,.73-1.32,1.59,1.59,0,0,0-3.17,0,1.56,1.56,0,0,0,.73,1.31l-.17,1.67c-2.26.3-3.84,1.77-5.37,3.19-.36.34-.73.68-1.11,1-1.67.26-3.33.77-3.33,2.07v.1c0,1.76,3.88,2.36,4,2.39a58.35,58.35,0,0,0,6.58.36c2.27,0,5.53-.19,6.54-.32,1.51-.19,3.58-1,3.9-2.17l0-.08a1.25,1.25,0,0,0,0-.28c0-1.37-1.87-1.78-3.46-2" transform="translate(0 0)"/><path class="cls-30" d="M135.77,20.24l-.15,0a.26.26,0,0,1-.08-.36,4.47,4.47,0,0,0,.73-2.65,4.52,4.52,0,1,0-8.34,2.58.26.26,0,0,1-.44.28,5,5,0,1,1,8.48.08l-.21.12" transform="translate(0 0)"/><path class="cls-30" d="M135.81,20.52l-.32-.1a.52.52,0,0,1-.16-.71,4.26,4.26,0,1,0-7.17-.07.52.52,0,0,1,.07.39.51.51,0,0,1-.23.32.51.51,0,0,1-.71-.16,5.29,5.29,0,1,1,8.91.08l-.09.08Zm-4-7.91a4.77,4.77,0,0,1,4,7.33h0a4.73,4.73,0,0,0,.74-2.75,4.78,4.78,0,0,0-9.55.38,4.75,4.75,0,0,0,.73,2.35,4.82,4.82,0,0,1-.72-2.35,4.78,4.78,0,0,1,4.58-5Z" transform="translate(0 0)"/><path class="cls-30" d="M137.69,21.45l-.22-.06a.38.38,0,0,1-.12-.53,6.65,6.65,0,1,0-11.21-.1.38.38,0,0,1-.64.41,7.42,7.42,0,1,1,12.49.11.37.37,0,0,1-.3.17" transform="translate(0 0)"/><path class="cls-30" d="M124.23,26.08l13.85-.42c-2.32-1.88-3.22-3.76-6-4l-.15-3a.95.95,0,1,0-.46,0l-.27,2.93c-2.94.16-4.47,2.38-7,4.39" transform="translate(0 0)"/><path class="cls-31" d="M141.32,27a.69.69,0,0,0-.4-.59,10.38,10.38,0,0,0-3-.83,57.48,57.48,0,0,0-6.53-.4c-2.33,0-5.55.25-6.42.36a7.34,7.34,0,0,0-3.06.91.61.61,0,0,0-.31.51V27a.61.61,0,0,0,.24.44A7,7,0,0,0,125,28.82a57,57,0,0,0,6.49.36c2.32,0,5.58-.21,6.47-.32a5.36,5.36,0,0,0,3.24-1.52c.08-.14.15-.15.15-.3V27" transform="translate(0 0)"/><path class="cls-19" d="M131.39,24.43a29.71,29.71,0,0,0-9,1c0,.14.69.3.77.41a39.18,39.18,0,0,1,8.15-.66,39.46,39.46,0,0,1,8.21.67c.06-.19,1.23-.12,1.21-.21-2-.62-3.24-1.18-9.36-1.24" transform="translate(0 0)"/><path class="cls-18" d="M134.3,22.85a4.41,4.41,0,0,1,1.55,1.39,1.07,1.07,0,0,1-1.09-.44,6,6,0,0,0-2.28-1.47,2.66,2.66,0,0,1,1.82.51" transform="translate(0 0)"/><path class="cls-18" d="M132.2,17.84a.48.48,0,1,1-.47-.47.48.48,0,0,1,.47.47" transform="translate(0 0)"/><path class="cls-30" d="M131.51,28.81a15.31,15.31,0,0,0-3.89.49,5.37,5.37,0,0,0,3.62,1.34h.1a5.16,5.16,0,0,0,3.89-1.31,12.71,12.71,0,0,0-3.72-.53" transform="translate(0 0)"/><path class="cls-2" d="M136,29.17a.78.78,0,0,0-.54-.59,13.47,13.47,0,0,0-4-.56,16,16,0,0,0-4.11.52.79.79,0,0,0-.34,1.31,6.15,6.15,0,0,0,4.18,1.58h.11a5.93,5.93,0,0,0,4.41-1.51.79.79,0,0,0,.25-.76m-4.76,1.47a5.36,5.36,0,0,1-3.62-1.34,15.33,15.33,0,0,1,3.89-.49,12.71,12.71,0,0,1,3.72.52,5.16,5.16,0,0,1-3.89,1.3h-.1" transform="translate(0 0)"/><path class="cls-18" d="M141.24,26.7a61.22,61.22,0,0,0-9.39-.76h-.78a61.33,61.33,0,0,0-9.41.76.48.48,0,0,0-.09.44,1.07,1.07,0,0,0,.34.43,58.08,58.08,0,0,1,9.43-.77h.22a58.05,58.05,0,0,1,9.43.77,1.06,1.06,0,0,0,.34-.43.48.48,0,0,0-.09-.44" transform="translate(0 0)"/><path class="cls-19" d="M199.43,7.4a2.56,2.56,0,0,1-1.54-.46.38.38,0,0,1,.51-.56,2,2,0,0,0,1.22.25.45.45,0,0,0,.31-.13c.15-.24.11-.37.09-.41-.09-.26-.52-.43-.63-.47a.38.38,0,0,1,.22-.73,1.82,1.82,0,0,1,1.12.93,1.19,1.19,0,0,1-.16,1.08,1.11,1.11,0,0,1-.85.47Z" transform="translate(0 0)"/><path class="cls-30" d="M133.09,17.82a1.31,1.31,0,1,1-1.31-1.31,1.31,1.31,0,0,1,1.31,1.31" transform="translate(0 0)"/><path class="cls-2" d="M62.84,17.62a2.24,2.24,0,0,0-1.2,1.54,2.49,2.49,0,0,0,.49,2.2,2.36,2.36,0,0,0-.79,3.2,3.22,3.22,0,0,0,1.35,1.12l-.07.09-.13.15a2.29,2.29,0,0,0-.25,3.1,3.55,3.55,0,0,0,.69.67h0A3.88,3.88,0,0,0,62.17,31a2.18,2.18,0,0,0,.48,2,3,3,0,0,1-1.6.35c-.41,0-1-.11-1.48-1.11a.75.75,0,0,0-1.42.27,3.26,3.26,0,0,0,.78,2.28,3.41,3.41,0,0,0,2.53,1h.1a3.12,3.12,0,0,0,.75-.09,1.82,1.82,0,0,0,.14.8,2.49,2.49,0,0,0,3,1.47,6.33,6.33,0,0,0,1.3-.71l.1,0,.17,0a6.83,6.83,0,0,1-.94,3.09,2.21,2.21,0,0,0,.18,3.13.56.56,0,0,0,.37.14.56.56,0,0,0,.39-.15l.25-.23,0,.06a.56.56,0,0,0,.84.19c.15-.11,1.42-1.12,1.18-2.24a24.83,24.83,0,0,1,.14-3.68,4.17,4.17,0,0,0,1,0,3.23,3.23,0,0,0,1.74-1c0,.06.21.29.4.52a2.72,2.72,0,0,0,2,.88c.16.88.31,2.8.33,3.23a2.51,2.51,0,0,0,1.12,2,.85.85,0,0,0,.79.08.56.56,0,0,0,.32-.32l0-.07.27.21a.56.56,0,0,0,.75-.06,2.17,2.17,0,0,0-.09-3.13,7.82,7.82,0,0,1-1-2.39,3.36,3.36,0,0,0,1.09-.78c.89-.92.58-1.21.69-1.15a2,2,0,0,0,2.1-.2,2.51,2.51,0,0,0,.63-3.07,2.33,2.33,0,0,0,2.41-1.06,2.76,2.76,0,0,0-.32-3.31c-.88-1-1.33-.5-1-1.16.42-.93.58-1.06.39-1.93A2.39,2.39,0,0,0,81,22.95a2.3,2.3,0,0,0-.73-.06,1.19,1.19,0,0,1-.54-.06c-.46-.17-.53-.46-.67-1a2.3,2.3,0,0,0-1.19-1.6,3.4,3.4,0,0,0-2.62-.08s-.73.24-.92.06a5.47,5.47,0,0,0-.57-.49,2,2,0,0,0-1.63-.4s-.09.08.07-.19A2.43,2.43,0,0,0,72.56,18c.07-.94-.29-1,.06-1.09.19,0-.05.39.45.9.75.75,1.56.91,2.93.43a2.51,2.51,0,0,0,1.52-1.82,1,1,0,0,0,.85.75c3.12.78,3.93-2.6,3.1-3.87a3.26,3.26,0,0,0-5.3-.59,14.82,14.82,0,0,0,.43-1.51,8.46,8.46,0,0,0-.28-5.35,4.48,4.48,0,0,0-3-2.38,4.5,4.5,0,0,0-5.55,2.4,3.33,3.33,0,0,0,.74,3.73,2.38,2.38,0,0,0,1.43.64,1.29,1.29,0,0,0,.88-.14.55.55,0,0,0,.35-.69c-.08-.23-.31-.25-.74-.59A1.34,1.34,0,0,1,69.87,8a1,1,0,0,1,.2-.69A1.21,1.21,0,0,1,71.82,7c.78.63.63,2.16.32,3.55-.24,1.11-.5,2-.51,2.11s-.21.41-1,.33c-.19,0-.78-1.64-.88-1.49-.18-.22-.54.21-.91.65s-.65.75-.88.71-.37-1.16-.55-2.07c-.61-2.27-2.1-5.45-5.61-5.45a6.09,6.09,0,0,0-1.14.11c-2.73.51-3.75,2.36-3.79,3.91a3.37,3.37,0,0,0,2.22,3.46,3.85,3.85,0,0,0,.9.12,2.07,2.07,0,0,0,1.68-1.16.66.66,0,0,0,0-.78c-.16-.22-.43-.14-.67-.14,0,0-.2,0-.49,0a.68.68,0,0,1-.59-.29,1,1,0,0,1,0-.73,1.17,1.17,0,0,1,1.38-.77c.84.15,1.4,1.82,1.67,3.5a3,3,0,0,0-1.43,1.49,2.66,2.66,0,0,0,.7,3c.13.14.67.56.67.56M77.66,16c.44.15,1.61-.61,1.94-.62L77.66,16m2.19,17.45c-1.4,1.51-3.94,2.28-7.55,2.28a34.83,34.83,0,0,1-7.07-.81.81.81,0,0,1-.58-.74L64.2,14.23c0-.31.25-.57.86-.51L79.74,13c0-.08.23.15.24.45l.09,2.48a.54.54,0,0,1-.15.39.54.54,0,0,1-.3.16,2,2,0,0,0-1.79-.67c-2.67.5-7.1.88-7.13.88a1,1,0,0,0-.92.95l0,3.55.2,0c5.67-.51,9.7,1.12,11.17,4.5a7.42,7.42,0,0,1-1.34,7.79" transform="translate(0 0)"/><path class="cls-32" d="M70,21.16l-.2,0,0-3.55a1,1,0,0,1,.92-.95s4.46-.38,7.13-.88a2,2,0,0,1,1.79.67.55.55,0,0,0,.45-.56L80,13.43c0-.3-.25-.53-.24-.45l-14.68.74c-.61-.07-.87.2-.86.51l.44,19.95a.81.81,0,0,0,.58.74,34.82,34.82,0,0,0,7.07.81c3.61,0,6.15-.77,7.55-2.28a7.42,7.42,0,0,0,1.34-7.8c-1.47-3.38-5.5-5-11.17-4.5" transform="translate(0 0)"/><path class="cls-33" d="M67.07,13.06s-.65-8-6.33-6.93c-4.46.84-4.27,6.2-.94,6.38,1,.05,1.58-1,1.29-1.26,0,0,.06.25-1.12-.1-1.46-.43-.47-2.74,1.4-2.61S63.8,14.4,63.8,14.4a1,1,0,0,0,1-.61c.25-.64,1.18-.53,1.53-.15s.77-.59.77-.59" transform="translate(0 0)"/><path class="cls-19" d="M67.07,13.06l-.19,0s0-.1,0-.29A12.2,12.2,0,0,0,65.72,9a4.43,4.43,0,0,0-4-2.75,5.29,5.29,0,0,0-1,.09,3.61,3.61,0,0,0-3.24,3.47,2.39,2.39,0,0,0,2.28,2.54h.07a1.15,1.15,0,0,0,.81-.34.88.88,0,0,0,.29-.54V11.4l.13-.14.18,0v.05l-.12.21a.5.5,0,0,1-.27.06,3.76,3.76,0,0,1-1-.19,1.09,1.09,0,0,1-.84-1.08,2.1,2.1,0,0,1,2.14-1.91h.17a1.79,1.79,0,0,1,1.32,1.07,15.87,15.87,0,0,1,1.27,5l-.19,0v-.19h0a1.07,1.07,0,0,0,.37-.07.7.7,0,0,0,.41-.41.94.94,0,0,1,.92-.58,1.29,1.29,0,0,1,.93.37h0l0,0,.09-.06a1.39,1.39,0,0,0,.23-.31c.06-.11.1-.2.1-.2l.17.08-.19,0,.19,0,.17.08a2.9,2.9,0,0,1-.2.37,1.39,1.39,0,0,1-.22.27.53.53,0,0,1-.35.15.42.42,0,0,1-.32-.15h0a.93.93,0,0,0-.65-.25.55.55,0,0,0-.56.33h0a1.09,1.09,0,0,1-.62.63,1.43,1.43,0,0,1-.51.1h0a.19.19,0,0,1-.18-.17s0-.35-.11-.89a16.69,16.69,0,0,0-.7-3,4.84,4.84,0,0,0-.64-1.27,1.12,1.12,0,0,0-.78-.51h-.14A1.81,1.81,0,0,0,60,9.25a1.49,1.49,0,0,0-.48,1A.7.7,0,0,0,60,11a3.43,3.43,0,0,0,.86.18H61l0,.08-.07,0,0,0,0,.08-.07,0,.11.09h-.14l0-.09.11.09h0l-.16,0v0h.16l-.16,0,.09-.21.23,0a.45.45,0,0,1,.13.34,1.24,1.24,0,0,1-.41.82,1.54,1.54,0,0,1-1.07.44H59.8a2.78,2.78,0,0,1-2.64-2.92,4,4,0,0,1,3.55-3.84,5.59,5.59,0,0,1,1-.1,4.27,4.27,0,0,1,3,1.15C67,9.05,67.26,13,67.26,13v.09l-.17-.08" transform="translate(0 0)"/><path class="cls-34" d="M66.32,13.34c-.28,0-.67-.46-.67-.46-.73-4.82-2.38-5.74-4.27-5.74h0A4.65,4.65,0,0,0,58,9h0a3.7,3.7,0,0,1,3.67-2.38A3.87,3.87,0,0,1,64,7.38c2,1.67,2.38,5.93,2.38,5.93l-.1,0" transform="translate(0 0)"/><path class="cls-19" d="M63.2,10.56l-.54-.4a4.24,4.24,0,0,1,3.27-1.61h0v.67h0A3.62,3.62,0,0,0,63.2,10.56Z" transform="translate(0 0)"/><path class="cls-19" d="M61.25,8.53a4.2,4.2,0,0,1,.94-2.81l.44.51a3.5,3.5,0,0,0-.71,2.29Z" transform="translate(0 0)"/><path class="cls-19" d="M59.33,9.7a3.27,3.27,0,0,1-1.51-2.12l.66-.13a2.63,2.63,0,0,0,1.15,1.65Z" transform="translate(0 0)"/><path class="cls-19" d="M59,12.54,58.53,12a3.62,3.62,0,0,0,.83-1.18l.62.26A4.33,4.33,0,0,1,59,12.54Z" transform="translate(0 0)"/><path class="cls-33" d="M75.28,13.18s3.13-7.57-2.13-9c-4.08-1.11-6.28,2.93-4.39,5,.92,1,2.05.6,1.91.15,0,0-.45,0-.95-.74-.83-1.27,1.07-3.31,2.54-2.14,2,1.61-.2,6.58-.2,6.58s.44,1.19.94.72,1.65-1.16,1.79-.67.49.11.49.11" transform="translate(0 0)"/><path class="cls-19" d="M75.28,13.18l-.18-.07s.06-.13.14-.37A13,13,0,0,0,76,8.67,5.25,5.25,0,0,0,75.41,6,3.62,3.62,0,0,0,73.1,4.36a5,5,0,0,0-1.3-.18,3.37,3.37,0,0,0-3.53,3.2A2.42,2.42,0,0,0,68.9,9,1.55,1.55,0,0,0,70,9.6a.72.72,0,0,0,.38-.09l.1-.12v0l.18-.06v.19h0c-.1,0-.61-.06-1.1-.82a1.42,1.42,0,0,1-.23-.79,2,2,0,0,1,.6-1.36,2,2,0,0,1,1.38-.63,1.68,1.68,0,0,1,1.07.39,2.93,2.93,0,0,1,.92,2.39,13,13,0,0,1-1.06,4.42L72.06,13l.18-.07,0,.12a2.12,2.12,0,0,0,.23.4c.1.13.2.2.24.19l.11-.06h0a4.91,4.91,0,0,1,.79-.58,2,2,0,0,1,.87-.31l.26.07A.41.41,0,0,1,75,13l.05.11h0v0h0v0l.07,0,0,0h0l.14.13-.18-.07.18.07.14.13-.11.1a.51.51,0,0,1-.3.11l-.26-.11a.63.63,0,0,1-.15-.28v0h-.06a1.66,1.66,0,0,0-.68.26,4.51,4.51,0,0,0-.73.53h0a.54.54,0,0,1-.37.16.6.6,0,0,1-.41-.18,2.32,2.32,0,0,1-.47-.77v-.14s.06-.14.16-.39a11.86,11.86,0,0,0,.87-3.87,2.56,2.56,0,0,0-.77-2.09,1.3,1.3,0,0,0-.83-.31,1.58,1.58,0,0,0-1.11.51,1.64,1.64,0,0,0-.49,1.1,1,1,0,0,0,.17.58,1.68,1.68,0,0,0,.57.58l.16.07h.05v0h0v0l.19.13,0,.13a.53.53,0,0,1-.28.44A1.12,1.12,0,0,1,70,10a1.93,1.93,0,0,1-1.4-.69,2.8,2.8,0,0,1-.74-1.92A3.75,3.75,0,0,1,71.79,3.8,5.33,5.33,0,0,1,73.2,4a4,4,0,0,1,2.54,1.87,5.62,5.62,0,0,1,.65,2.81,13.68,13.68,0,0,1-.94,4.58l0,.05-.14-.13" transform="translate(0 0)"/><g class="cls-35"><path class="cls-34" d="M74.9,12.82h0a.89.89,0,0,0-.59-.35c1.51-4.22.7-6.19-.89-7.09a3.26,3.26,0,0,0-1.62-.44,4,4,0,0,0-2.49,1,3.42,3.42,0,0,1,2.63-1.37h.12a3.81,3.81,0,0,1,3.28,2.09c.81,1.78-.06,5-.43,6.15" transform="translate(0 0)"/></g><path class="cls-19" d="M73.12,9.5l-.38-.55a4.27,4.27,0,0,1,3.58-.19l-.19.65A3.64,3.64,0,0,0,73.12,9.5Z" transform="translate(0 0)"/><path class="cls-19" d="M72.77,7.06l-.54-.4a10.56,10.56,0,0,1,2-2.09l.38.56A10.1,10.1,0,0,0,72.77,7.06Z" transform="translate(0 0)"/><path class="cls-19" d="M70.15,6.49a6.55,6.55,0,0,1-.59-2l.67-.07a6,6,0,0,0,.52,1.79Z" transform="translate(0 0)"/><path class="cls-19" d="M68.61,9.15l-.25-.63a6.81,6.81,0,0,0,1.24-.61l.39.55A7.19,7.19,0,0,1,68.61,9.15Z" transform="translate(0 0)"/><path class="cls-18" d="M68.44,40.53a32.45,32.45,0,0,1,.47-4.87L68,36s-.27,3.65-1.12,4.93a3.48,3.48,0,0,0-.23.42,10.29,10.29,0,0,0,1.77.52c0-.17,0-1.18,0-1.34" transform="translate(0 0)"/><path class="cls-19" d="M66.45,41.35a1.35,1.35,0,0,0,.2,1.83l.71-.82.46.87a3.78,3.78,0,0,0,.86-1.36,15.22,15.22,0,0,1-2.22-.53" transform="translate(0 0)"/><path class="cls-18" d="M77.44,40.53c-1.29-1.09-1.58-5.4-1.58-5.4l-.88.22s.79,4.54.77,5.79a1.66,1.66,0,0,0,.24.79,8.9,8.9,0,0,0,2.07-.53,2,2,0,0,0-.62-.88" transform="translate(0 0)"/><path class="cls-19" d="M75.87,42a4.11,4.11,0,0,0,.77,1.09l.49-.66.76.54a1.81,1.81,0,0,0,.3-1.54,11.29,11.29,0,0,1-2.31.57" transform="translate(0 0)"/><path class="cls-18" d="M63.56,33.22a5.77,5.77,0,0,1-2,.94,2.15,2.15,0,0,1-2.62-1.63A2.27,2.27,0,0,0,61.26,35a3,3,0,0,0,2.37-.91" transform="translate(0 0)"/><path class="cls-36" d="M65.1,13.54c-.72-.06-1,.29-1,.69L63,21.5l-.2,1.93.93,2,.76,8.67a1,1,0,0,0,.72.91S76.15,37.62,80,33.5A7.08,7.08,0,0,0,78.91,23C77,21.6,74.3,20.56,70,20.94l0-3.33a.76.76,0,0,1,.74-.76s4.1-.29,6.8-.8a5.53,5.53,0,0,1,2.17.15,1.48,1.48,0,0,0,1.07-1.1l-.32-1.77c0-.41-1.36-.63-1.46-.54" transform="translate(0 0)"/><path class="cls-19" d="M72.33,36l-1.18,0a35.69,35.69,0,0,1-6-.79,1.18,1.18,0,0,1-.87-1.09l-.76-8.62-.94-2,.2-2,1.06-7.27a.8.8,0,0,1,.26-.59,1.22,1.22,0,0,1,1-.26l13.84-.74a2.6,2.6,0,0,1,1.18.2c.33.14.5.31.5.52l.32,1.74a1.62,1.62,0,0,1-1.25,1.32h-.06a5.39,5.39,0,0,0-2.09-.15c-2.68.51-6.77.8-6.82.81a.57.57,0,0,0-.56.57l0,3.13c3.63-.29,6.52.41,8.82,2.15A7.25,7.25,0,0,1,82,28.06a7.34,7.34,0,0,1-1.86,5.56C78.63,35.21,76,36,72.33,36ZM63,23.4l.93,2,.76,8.67a.82.82,0,0,0,.58.75c.11,0,10.87,2.54,14.56-1.46a7,7,0,0,0,1.76-5.28,6.88,6.88,0,0,0-2.79-4.92c-2.27-1.71-5.14-2.38-8.77-2.05l-.2,0,0-3.53a.94.94,0,0,1,.92-.95s4.11-.3,6.77-.8a5.63,5.63,0,0,1,2.23.15c.31,0,.87-.62.87-.91l-.32-1.74s0-.06-.07-.1a2.44,2.44,0,0,0-1.11-.3l0,0H79l-13.89.75h0a.89.89,0,0,0-.7.16.45.45,0,0,0-.14.34l-1.06,7.29Z" transform="translate(0 0)"/><path class="cls-36" d="M66.31,28.95a2.49,2.49,0,0,1-3.52,0,2,2,0,0,1,0-2.81,1.59,1.59,0,0,1,2.25,0,1.27,1.27,0,0,1,0,1.8,1,1,0,0,1-1.44,0" transform="translate(0 0)"/><path class="cls-19" d="M64.57,30a2.81,2.81,0,0,1-2-.84,2.3,2.3,0,0,1,0-3.27,2.07,2.07,0,0,1,1.35-.55,1.91,1.91,0,0,1,1.36.57,1.6,1.6,0,0,1,0,2.26,1.5,1.5,0,0,1-.95.38,1.33,1.33,0,0,1-.95-.4.33.33,0,1,1,.46-.46.69.69,0,0,0,.49.21.62.62,0,0,0,.49-.2.93.93,0,0,0,.29-.66.94.94,0,0,0-.27-.68,1.26,1.26,0,0,0-.9-.38,1.16,1.16,0,0,0-.89.36,1.65,1.65,0,0,0,0,2.35,2.17,2.17,0,0,0,3.06,0,.32.32,0,1,1,.45.47A2.81,2.81,0,0,1,64.57,30Z" transform="translate(0 0)"/><path class="cls-36" d="M78.48,34.53a3.31,3.31,0,0,1-3.42,3.18A2.64,2.64,0,0,1,72.51,35a2.12,2.12,0,0,1,2.19-2,1.69,1.69,0,0,1,1.63,1.75,1.35,1.35,0,0,1-1.4,1.3,1.09,1.09,0,0,1-1-1.12" transform="translate(0 0)"/><path class="cls-19" d="M75.17,38H75a2.93,2.93,0,0,1-2.83-3,2.44,2.44,0,0,1,2.49-2.32,2,2,0,0,1,1.91,2.05,1.62,1.62,0,0,1-.51,1.14,1.66,1.66,0,0,1-1.19.45,1.38,1.38,0,0,1-1.32-1.42.31.31,0,0,1,.3-.28.29.29,0,0,1,.28.3.79.79,0,0,0,.76.82,1,1,0,0,0,.77-.29,1,1,0,0,0,.33-.73,1.4,1.4,0,0,0-1.35-1.45A1.83,1.83,0,0,0,72.81,35a2.35,2.35,0,0,0,2.26,2.43,3,3,0,0,0,3.12-2.9.29.29,0,1,1,.58,0A3.61,3.61,0,0,1,75.17,38Z" transform="translate(0 0)"/><path class="cls-36" d="M77.68,26.44a2.81,2.81,0,0,1,2.55-3,2.24,2.24,0,0,1,2.43,2A1.79,1.79,0,0,1,81,27.39a1.44,1.44,0,0,1-1.55-1.31,1.14,1.14,0,0,1,1-1.24.92.92,0,0,1,1,.83" transform="translate(0 0)"/><path class="cls-19" d="M80.9,27.69a1.73,1.73,0,0,1-1.72-1.58,1.43,1.43,0,0,1,1.31-1.55,1.21,1.21,0,0,1,1.31,1.1.29.29,0,0,1-.58.05.62.62,0,0,0-.68-.57.85.85,0,0,0-.78.92,1.14,1.14,0,0,0,1.24,1,1.5,1.5,0,0,0,1.37-1.63,2,2,0,0,0-2.11-1.78A2.51,2.51,0,0,0,78,26.42a.29.29,0,0,1-.58,0,3.1,3.1,0,0,1,2.82-3.35A2.53,2.53,0,0,1,83,25.42a2.09,2.09,0,0,1-1.9,2.26Z" transform="translate(0 0)"/><path class="cls-36" d="M63.28,21.62a2.26,2.26,0,0,1-1.05-2.06,2.07,2.07,0,0,1,2.31-1.81A1.65,1.65,0,0,1,66,19.6a1.32,1.32,0,0,1-1.48,1.16,1.07,1.07,0,0,1-.92-1.18.84.84,0,0,1,.94-.74" transform="translate(0 0)"/><path class="cls-19" d="M63.28,21.91a.29.29,0,0,1-.17-.05,2.56,2.56,0,0,1-1.18-2.33,2.37,2.37,0,0,1,2.63-2.06,2,2,0,0,1,1.7,2.17,1.59,1.59,0,0,1-.6,1.07,1.63,1.63,0,0,1-1.2.34,1.37,1.37,0,0,1-1.18-1.51,1.13,1.13,0,0,1,.43-.77,1.11,1.11,0,0,1,.84-.23.29.29,0,1,1-.08.58.54.54,0,0,0-.41.11.55.55,0,0,0-.21.37.78.78,0,0,0,.67.86,1,1,0,0,0,.77-.22,1,1,0,0,0,.38-.68A1.37,1.37,0,0,0,64.49,18a1.79,1.79,0,0,0-2,1.56,2,2,0,0,0,.93,1.78.29.29,0,0,1-.17.53Z" transform="translate(0 0)"/><path class="cls-36" d="M70.07,24a2.75,2.75,0,0,1,.47-3.85,2.2,2.2,0,0,1,3.08.37A1.75,1.75,0,0,1,73.31,23a1.4,1.4,0,0,1-2-.24,1.12,1.12,0,0,1,.19-1.57.9.9,0,0,1,1.26.15" transform="translate(0 0)"/><path class="cls-19" d="M70.07,24.28a.29.29,0,0,1-.23-.11,3,3,0,0,1,.52-4.26,2.49,2.49,0,0,1,3.49.42,2,2,0,0,1-.36,2.88,1.69,1.69,0,0,1-2.38-.29,1.39,1.39,0,0,1-.29-1,1.41,1.41,0,0,1,.53-.95,1.2,1.2,0,0,1,1.67.2.29.29,0,0,1-.46.36.6.6,0,0,0-.85-.1.83.83,0,0,0-.31.56.81.81,0,0,0,.17.6,1.1,1.1,0,0,0,.74.42,1.08,1.08,0,0,0,.82-.23,1.46,1.46,0,0,0,.26-2.06,1.91,1.91,0,0,0-2.67-.32,2.46,2.46,0,0,0-.42,3.45.29.29,0,0,1,0,.41A.29.29,0,0,1,70.07,24.28Z" transform="translate(0 0)"/><path class="cls-36" d="M66.57,31.14c-.57-1.13-.75-3.25.64-4.33a2.55,2.55,0,0,1,3.58.43,2,2,0,0,1-.36,2.86,1.63,1.63,0,0,1-2.29-.28A1.31,1.31,0,0,1,68.37,28a1.05,1.05,0,0,1,1.47.17" transform="translate(0 0)"/><path class="cls-19" d="M66.57,31.43a.29.29,0,0,1-.26-.16c-.62-1.23-.8-3.5.72-4.69a2.84,2.84,0,0,1,4,.48,2.33,2.33,0,0,1-.41,3.27A1.92,1.92,0,0,1,67.92,30a1.6,1.6,0,0,1,.27-2.24,1.34,1.34,0,0,1,1.88.22.29.29,0,1,1-.46.36.76.76,0,0,0-1.06-.12,1,1,0,0,0-.17,1.42,1.34,1.34,0,0,0,1.88.23,1.75,1.75,0,0,0,.66-1.17,1.73,1.73,0,0,0-.36-1.28A2.26,2.26,0,0,0,67.39,27c-1.25,1-1.07,2.94-.56,4a.29.29,0,0,1-.26.42Z" transform="translate(0 0)"/><path class="cls-36" d="M78.24,31.53A2.39,2.39,0,0,1,81.4,33a1.91,1.91,0,0,1-1.2,2.42,1.53,1.53,0,0,1-1.94-1A1.22,1.22,0,0,1,79,32.88a1,1,0,0,1,1.25.61.78.78,0,0,1-.49,1" transform="translate(0 0)"/><path class="cls-19" d="M79.72,35.79A1.85,1.85,0,0,1,78,34.53a1.54,1.54,0,0,1,1-2,1.31,1.31,0,0,1,1.65.81,1.1,1.1,0,0,1-.69,1.39.32.32,0,1,1-.21-.6.47.47,0,0,0,.3-.59.67.67,0,0,0-.84-.42.91.91,0,0,0-.57,1.15,1.22,1.22,0,0,0,1.54.76,1.6,1.6,0,0,0,1-2,2.13,2.13,0,0,0-1.17-1.24,1.88,1.88,0,0,0-1.56,0,.32.32,0,0,1-.27-.58,2.51,2.51,0,0,1,2.07,0,2.73,2.73,0,0,1,1.52,1.62,2.23,2.23,0,0,1-1.4,2.83A1.84,1.84,0,0,1,79.72,35.79Z" transform="translate(0 0)"/><path class="cls-36" d="M62.85,23.53a.93.93,0,0,0,1.23.42,1.15,1.15,0,0,0,.51-1.55,1.5,1.5,0,0,0-1.91-.63,1.7,1.7,0,0,0-.87,2.47c.68,1.35,2.37,1,3.27,1.89" transform="translate(0 0)"/><path class="cls-19" d="M65.07,26.44a.32.32,0,0,1-.23-.09,3,3,0,0,0-1.3-.6,2.88,2.88,0,0,1-2-1.37,2.27,2.27,0,0,1-.11-1.85,1.84,1.84,0,0,1,1.15-1.06,1.82,1.82,0,0,1,2.3.79,1.48,1.48,0,0,1-.65,2,1.25,1.25,0,0,1-1.66-.56.32.32,0,1,1,.57-.29.6.6,0,0,0,.8.27.83.83,0,0,0,.36-1.11,1.19,1.19,0,0,0-1.52-.47,1.22,1.22,0,0,0-.77.7,1.62,1.62,0,0,0,.08,1.32,2.29,2.29,0,0,0,1.64,1,3.51,3.51,0,0,1,1.56.76.32.32,0,0,1-.23.55Z" transform="translate(0 0)"/><path class="cls-36" d="M76.45,25.8a3.15,3.15,0,0,1-2.31-3.68A2.35,2.35,0,0,1,77,20.41a1.87,1.87,0,0,1,1.38,2.27,1.49,1.49,0,0,1-1.81,1.1,1.19,1.19,0,0,1-.88-1.45,1,1,0,0,1,1.15-.7" transform="translate(0 0)"/><path class="cls-19" d="M76.45,26.1h-.09a3.43,3.43,0,0,1-2.5-4A2.64,2.64,0,0,1,77,20.13a2.17,2.17,0,0,1,1.59,2.62,1.78,1.78,0,0,1-2.16,1.32,1.49,1.49,0,0,1-1.09-1.81,1.22,1.22,0,0,1,.55-.76,1.25,1.25,0,0,1,1-.15.29.29,0,1,1-.14.57.67.67,0,0,0-.51.08.64.64,0,0,0-.29.4.9.9,0,0,0,.66,1.1,1.2,1.2,0,0,0,1.46-.89,1.59,1.59,0,0,0-1.16-1.91,2,2,0,0,0-1.55.24,2,2,0,0,0-.94,1.27,2.86,2.86,0,0,0,2.12,3.33.29.29,0,0,1-.09.57Z" transform="translate(0 0)"/><path class="cls-36" d="M71.19,17a3.29,3.29,0,0,1-4.3-1.8,2.64,2.64,0,0,1,1.44-3.43A2.09,2.09,0,0,1,71.08,13a1.67,1.67,0,0,1-.91,2.19,1.34,1.34,0,0,1-1.76-.73A1.07,1.07,0,0,1,69,13" transform="translate(0 0)"/><path class="cls-19" d="M69.94,17.64a3.65,3.65,0,0,1-3.37-2.27A3,3,0,0,1,68.2,11.5a2.44,2.44,0,0,1,3.19,1.34,2,2,0,0,1-1.1,2.64,1.69,1.69,0,0,1-2.21-.92,1.39,1.39,0,0,1,0-1.08,1.42,1.42,0,0,1,.77-.78.35.35,0,1,1,.27.64.73.73,0,0,0-.4.4.71.71,0,0,0,0,.55,1,1,0,0,0,.54.55,1,1,0,0,0,.76,0,1.32,1.32,0,0,0,.73-.72,1.31,1.31,0,0,0,0-1,1.75,1.75,0,0,0-1-1,1.73,1.73,0,0,0-1.33,0,2.29,2.29,0,0,0-1.25,3,2.94,2.94,0,0,0,3.84,1.61.35.35,0,1,1,.26.64A3.63,3.63,0,0,1,69.94,17.64Z" transform="translate(0 0)"/><path class="cls-36" d="M69.8,25.47a3.11,3.11,0,0,1-4.22-1.21,2.48,2.48,0,0,1,1-3.37,2,2,0,0,1,2.7.77,1.58,1.58,0,0,1-.61,2.16,1.27,1.27,0,0,1-1.73-.49,1,1,0,0,1,.4-1.38" transform="translate(0 0)"/><path class="cls-19" d="M68.3,26.15a3.4,3.4,0,0,1-3-1.75,2.77,2.77,0,0,1,1.07-3.77,2.27,2.27,0,0,1,3.1.88,1.88,1.88,0,0,1-.73,2.55,1.56,1.56,0,0,1-1.2.14,1.54,1.54,0,0,1-.93-.74,1.31,1.31,0,0,1,.52-1.78.29.29,0,0,1,.28.51.72.72,0,0,0-.35.44.71.71,0,0,0,.06.55,1,1,0,0,0,.58.46,1,1,0,0,0,.76-.09A1.29,1.29,0,0,0,69,21.8a1.69,1.69,0,0,0-2.31-.66,2.19,2.19,0,0,0-.85,3,2.82,2.82,0,0,0,3.83,1.1.29.29,0,1,1,.28.51A3.39,3.39,0,0,1,68.3,26.15Z" transform="translate(0 0)"/><path class="cls-36" d="M68.43,30.76a3.59,3.59,0,0,1,4.1,3A2.85,2.85,0,0,1,70.13,37a2.3,2.3,0,0,1-2.63-1.91A1.86,1.86,0,0,1,69,33a1.48,1.48,0,0,1,1.68,1.23,1.18,1.18,0,0,1-1,1.35" transform="translate(0 0)"/><path class="cls-19" d="M69.77,37.36a2.59,2.59,0,0,1-2.56-2.19A2.15,2.15,0,0,1,69,32.73a1.77,1.77,0,0,1,2,1.47,1.48,1.48,0,0,1-1.23,1.68.29.29,0,0,1-.09-.58.89.89,0,0,0,.74-1,1.19,1.19,0,0,0-1.35-1,1.57,1.57,0,0,0-1.3,1.78,2,2,0,0,0,2.3,1.67,2.56,2.56,0,0,0,2.15-2.94A3.31,3.31,0,0,0,68.47,31a.29.29,0,0,1-.09-.58,3.89,3.89,0,0,1,4.43,3.25,3.15,3.15,0,0,1-2.64,3.6A2.65,2.65,0,0,1,69.77,37.36Z" transform="translate(0 0)"/><path class="cls-36" d="M71.36,26.92a4.51,4.51,0,0,1,6.37-.29A3.61,3.61,0,0,1,78,31.75a2.89,2.89,0,0,1-4.07.17,2.3,2.3,0,0,1-.14-3.27,1.84,1.84,0,0,1,2.6-.1,1.46,1.46,0,0,1,.09,2.08" transform="translate(0 0)"/><path class="cls-19" d="M75.83,33a3.17,3.17,0,0,1-2.15-.83,2.59,2.59,0,0,1-.16-3.69,2.14,2.14,0,0,1,3-.12,1.75,1.75,0,0,1,.11,2.49.29.29,0,1,1-.43-.4,1.16,1.16,0,0,0,.31-.85,1.15,1.15,0,0,0-.39-.81,1.55,1.55,0,0,0-2.19.08,2,2,0,0,0,.12,2.86,2.6,2.6,0,0,0,3.66-.16,3.33,3.33,0,0,0-.21-4.7,4.23,4.23,0,0,0-6,.27.29.29,0,0,1-.43-.39,4.81,4.81,0,0,1,6.79-.31,3.92,3.92,0,0,1,.24,5.52A3.18,3.18,0,0,1,75.83,33Z" transform="translate(0 0)"/><path class="cls-36" d="M79,29.24c.21-1.51,1.91-2,3.37-1.49a2.24,2.24,0,0,1,1.36,2.84,1.79,1.79,0,0,1-2.28,1.09,1.42,1.42,0,0,1-.87-1.82,1.13,1.13,0,0,1,1.45-.7.91.91,0,0,1,.55,1.16" transform="translate(0 0)"/><path class="cls-19" d="M82,32.08a2.08,2.08,0,0,1-.68-.12,1.71,1.71,0,0,1-1-2.19,1.42,1.42,0,0,1,1.83-.87,1.2,1.2,0,0,1,.73,1.54.29.29,0,1,1-.55-.2.61.61,0,0,0,0-.48.61.61,0,0,0-.35-.31.85.85,0,0,0-.66,0,.83.83,0,0,0-.43.48,1.13,1.13,0,0,0,.69,1.45,1.5,1.5,0,0,0,1.91-.92A2,2,0,0,0,82.25,28a2.73,2.73,0,0,0-2.25.14,1.52,1.52,0,0,0-.73,1.12.29.29,0,0,1-.33.25.29.29,0,0,1-.25-.33,2.09,2.09,0,0,1,1-1.54,3.32,3.32,0,0,1,2.75-.19A2.54,2.54,0,0,1,84,30.69,2.09,2.09,0,0,1,82,32.08Z" transform="translate(0 0)"/><path class="cls-36" d="M70.55,15.54a3.68,3.68,0,0,1,4.29-2.94A2.93,2.93,0,0,1,77.19,16a2.34,2.34,0,0,1-2.74,1.89,1.88,1.88,0,0,1-1.51-2.19A1.51,1.51,0,0,1,74.7,14.5a1.21,1.21,0,0,1,1,1.41" transform="translate(0 0)"/><path class="cls-19" d="M74.89,18.23a2.67,2.67,0,0,1-.49,0,2.17,2.17,0,0,1-1.74-2.53,1.8,1.8,0,0,1,2.09-1.44A1.51,1.51,0,0,1,75.95,16a.29.29,0,0,1-.34.23.29.29,0,0,1-.23-.34.91.91,0,0,0-.73-1.07,1.21,1.21,0,0,0-1.41,1,1.59,1.59,0,0,0,1.27,1.85A2.05,2.05,0,0,0,76.9,16a2.64,2.64,0,0,0-2.11-3.08,3.39,3.39,0,0,0-4,2.71.29.29,0,0,1-.34.23.29.29,0,0,1-.23-.34,4,4,0,0,1,4.63-3.18,3.22,3.22,0,0,1,2.58,3.76,2.64,2.64,0,0,1-2.59,2.16Z" transform="translate(0 0)"/><path class="cls-36" d="M67.6,34.2c-.34,1.49-.83,3-2.3,3.28a2.19,2.19,0,0,1-2.59-1.68,1.76,1.76,0,0,1,1.35-2.08,1.41,1.41,0,0,1,1.66,1.08,1.13,1.13,0,0,1-.86,1.33.9.9,0,0,1-1.06-.69" transform="translate(0 0)"/><path class="cls-19" d="M64.83,37.81a2.48,2.48,0,0,1-2.42-2A2.05,2.05,0,0,1,64,33.43a1.7,1.7,0,0,1,2,1.3,1.42,1.42,0,0,1-1.09,1.68,1.19,1.19,0,0,1-1.41-.92.29.29,0,0,1,.57-.12.6.6,0,0,0,.72.47.83.83,0,0,0,.64-1A1.11,1.11,0,0,0,64.11,34,1.47,1.47,0,0,0,63,35.73a1.89,1.89,0,0,0,2.25,1.46c1.2-.25,1.7-1.4,2.08-3.05a.3.3,0,0,1,.35-.22.29.29,0,0,1,.22.35c-.35,1.51-.85,3.14-2.53,3.5A2.51,2.51,0,0,1,64.83,37.81Z" transform="translate(0 0)"/><path class="cls-36" d="M66.32,19.3a3.32,3.32,0,0,1,2.61-3.9,2.65,2.65,0,0,1,3.12,2.09A2.12,2.12,0,0,1,70.38,20a1.7,1.7,0,0,1-2-1.34A1.37,1.37,0,0,1,69.45,17a1.09,1.09,0,0,1,1.28.86" transform="translate(0 0)"/><path class="cls-19" d="M70.06,20.31a2,2,0,0,1-2-1.61,1.67,1.67,0,0,1,1.29-1.95A1.38,1.38,0,0,1,71,17.85a.29.29,0,0,1-.57.11.8.8,0,0,0-.94-.63,1.09,1.09,0,0,0-.84,1.26,1.41,1.41,0,0,0,1.65,1.11,1.84,1.84,0,0,0,1.18-.79,1.8,1.8,0,0,0,.26-1.37A2.36,2.36,0,0,0,69,15.68a3,3,0,0,0-2.38,3.56.29.29,0,1,1-.57.11,3.61,3.61,0,0,1,2.84-4.25,2.94,2.94,0,0,1,3.46,2.32A2.38,2.38,0,0,1,72,19.24a2.41,2.41,0,0,1-1.55,1A2,2,0,0,1,70.06,20.31Z" transform="translate(0 0)"/><path class="cls-36" d="M66.08,18.11c-1.1-.15-3.59-.91-3.9-2.61a2.48,2.48,0,0,1,2-2.91,2,2,0,0,1,2.33,1.59A1.6,1.6,0,0,1,65.22,16a1.29,1.29,0,0,1-1.5-1,1,1,0,0,1,.82-1.19" transform="translate(0 0)"/><path class="cls-19" d="M66.08,18.41h0c-1-.14-3.8-.93-4.16-2.86a2.75,2.75,0,0,1,.43-2.08,2.78,2.78,0,0,1,1.8-1.18,2.29,2.29,0,0,1,2.69,1.83,1.9,1.9,0,0,1-1.51,2.22,1.59,1.59,0,0,1-1.85-1.26,1.32,1.32,0,0,1,1.05-1.54.3.3,0,0,1,.11.59.72.72,0,0,0-.46.3A.71.71,0,0,0,64,15a1,1,0,0,0,1.15.79,1.3,1.3,0,0,0,1-1.52,1.69,1.69,0,0,0-2-1.35,2.19,2.19,0,0,0-1.41.93,2.16,2.16,0,0,0-.33,1.63c.29,1.58,2.79,2.26,3.65,2.37a.3.3,0,0,1,0,.6Z" transform="translate(0 0)"/><path class="cls-36" d="M68.64,33.15c-1.64.58-3.27,1.32-4.58.57a2.29,2.29,0,0,1-1-3.18A2.13,2.13,0,0,1,66,29.89a1.42,1.42,0,0,1,.38,2,1.13,1.13,0,0,1-1.57.32.9.9,0,0,1-.25-1.25" transform="translate(0 0)"/><path class="cls-19" d="M65.32,34.33A2.78,2.78,0,0,1,63.9,34a2.6,2.6,0,0,1-1.14-3.57,2,2,0,0,1,1.32-1.05,2.61,2.61,0,0,1,2.05.28,1.72,1.72,0,0,1,.72,1.1A1.68,1.68,0,0,1,66.61,32a1.43,1.43,0,0,1-2,.4,1.22,1.22,0,0,1-.52-.78,1.16,1.16,0,0,1,.19-.89.3.3,0,0,1,.49.34.57.57,0,0,0-.09.43.61.61,0,0,0,.26.4.83.83,0,0,0,1.15-.24,1.09,1.09,0,0,0,.17-.83,1.11,1.11,0,0,0-.46-.71,2,2,0,0,0-1.56-.2,1.43,1.43,0,0,0-.94.73,2,2,0,0,0,.9,2.79c1.05.61,2.39.12,3.8-.4l.53-.19a.3.3,0,0,1,.2.56l-.53.19A8.87,8.87,0,0,1,65.32,34.33Z" transform="translate(0 0)"/><path class="cls-36" d="M76.29,13a2.89,2.89,0,0,1,4.08-.21,2.3,2.3,0,0,1,.16,3.26,1.84,1.84,0,0,1-2.61.14,1.48,1.48,0,0,1-.11-2.09,1.19,1.19,0,0,1,1.67-.08" transform="translate(0 0)"/><path class="cls-19" d="M79.16,17a2.11,2.11,0,0,1-1.43-.55,1.78,1.78,0,0,1-.13-2.52,1.49,1.49,0,0,1,2.09-.1.3.3,0,0,1-.4.45.89.89,0,0,0-1.25.06,1.18,1.18,0,0,0-.3.85,1.17,1.17,0,0,0,.39.82,1.54,1.54,0,0,0,2.18-.12,2,2,0,0,0-.14-2.84,2.59,2.59,0,0,0-3.66.19.3.3,0,0,1-.45-.4,3.15,3.15,0,0,1,2.19-1,3.19,3.19,0,0,1,2.31.82,2.6,2.6,0,0,1,.19,3.68,2.12,2.12,0,0,1-1.48.71Z" transform="translate(0 0)"/><path class="cls-6" d="M114.69,8.05a1.31,1.31,0,1,1-1.31-1.31,1.31,1.31,0,0,1,1.31,1.31" transform="translate(0 0)"/><path class="cls-18" d="M114.17,8.08a.81.81,0,1,1-.81-.81.81.81,0,0,1,.81.81" transform="translate(0 0)"/><path class="cls-18" d="M132.6,17.84a.81.81,0,1,1-.81-.81.81.81,0,0,1,.81.81" transform="translate(0 0)"/></g></g></svg>