<svg xmlns="http://www.w3.org/2000/svg" xmlns:xlink="http://www.w3.org/1999/xlink" viewBox="0 0 991.79 177.34"><defs><style>.cls-1,.cls-11,.cls-13,.cls-14,.cls-15,.cls-16,.cls-17,.cls-18,.cls-33,.cls-50{fill:none;}.cls-2{clip-path:url(#clip-path);}.cls-3{fill:#fff;}.cls-4{fill:#27231f;}.cls-5{fill:#1d1d1b;}.cls-6{fill:#ecbb73;}.cls-7{clip-path:url(#clip-path-2);}.cls-8{fill:#7a7979;}.cls-9{clip-path:url(#clip-path-3);}.cls-10{fill:#f3d2a5;}.cls-11,.cls-13,.cls-14,.cls-15,.cls-16,.cls-17,.cls-18,.cls-33,.cls-50{stroke:#1d1d1b;}.cls-11{stroke-width:2.39px;}.cls-12{fill:#f4eed0;}.cls-13,.cls-14{stroke-width:1.32px;}.cls-14,.cls-15,.cls-16,.cls-17,.cls-18,.cls-33,.cls-50{stroke-linecap:round;stroke-linejoin:round;}.cls-15{stroke-width:1.61px;}.cls-16{stroke-width:1.24px;}.cls-17{stroke-width:1.36px;}.cls-18{stroke-width:1.38px;}.cls-19{fill:#b1c9e8;}.cls-20{fill:#0062a6;}.cls-21{fill:#239e38;}.cls-22{fill:#bbe1f8;}.cls-23{fill:#c4e4f9;}.cls-24{fill:#c8e7f9;}.cls-25{fill:#edbc74;}.cls-26{fill:#753821;}.cls-27{fill:#99655f;}.cls-28{fill:#34aee4;}.cls-29{fill:#4f6974;}.cls-30{clip-path:url(#clip-path-4);}.cls-31{fill:#e95c14;}.cls-32{fill:#8e4e20;}.cls-33{stroke-width:1.26px;}.cls-34{fill:#7d1712;}.cls-35{clip-path:url(#clip-path-5);}.cls-36{fill:#cc221b;}.cls-37{fill:#981d18;}.cls-38{fill:#af1c1a;}.cls-39{fill:#b82325;}.cls-40{fill:#bf2022;}.cls-41{fill:#b62b1a;}.cls-42{fill:#c9311c;}.cls-43{fill:#a41a19;}.cls-44{fill:#9f1f19;}.cls-45{fill:#f9be00;}.cls-46{fill:#13110c;}.cls-47{fill:#f7ad00;}.cls-48{clip-path:url(#clip-path-7);}.cls-49{fill:#e2161b;}.cls-50{stroke-width:1.07px;}</style><clipPath id="clip-path" transform="translate(-24.61 -21.27)"><rect class="cls-1" width="547.47" height="219.36"/></clipPath><clipPath id="clip-path-2" transform="translate(-24.61 -21.27)"><path class="cls-1" d="M298.73,76.6l.72.2a2.77,2.77,0,0,0-.71-.24v0"/></clipPath><clipPath id="clip-path-3" transform="translate(-24.61 -21.27)"><rect class="cls-1" x="281.45" y="47.34" width="22.67" height="29.95"/></clipPath><clipPath id="clip-path-4" transform="translate(-24.61 -21.27)"><rect class="cls-1" x="547.76" width="476.92" height="219.36"/></clipPath><clipPath id="clip-path-5" transform="translate(-24.61 -21.27)"><path class="cls-1" d="M640.47,77.17,627,103a45.07,45.07,0,0,1-3.27,5.23c-1.33,1.45-1.79.33-1.79.33s0-3.6,0-5.13v-25c0-2.4-1.55-3.93-3.08-3.92H599.35c-3.62.29-4.65,2.19-4.7,3.72v81.59c-.15,2.63,1.28,2.87,2.81,2.87h19.35c3.1.23,4.66-1.89,4.76-3.42V134.82c.1-1.54-.06-3.38,1.07-4.42a2.08,2.08,0,0,1,1.4-.55,4.36,4.36,0,0,1,3.91,2.23l20,28.52a6,6,0,0,0,4.33,2.35l18.33.08c6,.08,4.34-2.68,3.52-4L647,118.46a5,5,0,0,1-.18-4.75L666,79.13c1.63-3,0-4.59-1.53-4.68H648.11l-1,0c-4.95,0-5.88,1.51-6.61,2.74"/></clipPath><clipPath id="clip-path-7" transform="translate(-24.61 -21.27)"><path class="cls-1" d="M744,74.43H721.45a4.35,4.35,0,0,0-3.61,2.77l-29.3,83.58a1.81,1.81,0,0,0,1.82,2.56h19.31a4,4,0,0,0,3.55-2.58l14.55-44.86c.65-2.73,2-3.92,3.35-3.92s2.66,1.24,3,4l8.54,44.51a3.41,3.41,0,0,0,3.23,2.66l20.87-.07a2,2,0,0,0,2-2.64L747.38,77A3.67,3.67,0,0,0,744,74.43Z"/></clipPath></defs><title>Ресурс 1</title><g id="Слой_2" data-name="Слой 2"><g id="Слой_1-2" data-name="Слой 1"><g class="cls-2"><path class="cls-3" d="M78.63,33.61c-11.46,1-33.49,4.43-40,13.81-5.31,7.66-.78,16.34-2.33,22.58S23.53,75.59,24.7,106c1.21,31.33,4.93,64.34,15.26,81.13,9.64,15.66,53.61,12.89,80.62,5.62s21.65-13,29.45-5.75,24.4,18.2,45,6.28c19.13-11.07,22.07-17.62,32.86-16.61,15.53,1.44,13.06,7.17,27.09,14.44,8.95,4.64,18,3.91,26.08,3.18,4.58-.41,8.85-.83,12.6-.26,10.39,1.56,24.35-.13,34.27-6.52,11.19-7.22,18.24-6.59,31.78-6.14,10.83.36,21.76-.36,29.61-.36,11.59,0,24.43-.12,34.31,0,29.61.36,28.91-3.66,36.7-15.08s6.93-14.43,26.85-9.11c27.09,7.22,36.32,0,50.2-2.53a32.61,32.61,0,0,1,31,11.64c8.74,10.58,11.26,16.44,36.39,15.9,18.81-.4,19.66-5.76,26.42-8.36,3.38-1.3,5.08,1,10.39,3.23s14.19,4.52,31.93,3.24a211.81,211.81,0,0,1,24.32-.42c6.23.21,10.43.42,15.31-.66,9.35-2.08,13.79-11.27,17-7.55,6.47,7.55,16.49,8.34,32.08,7.82s16.6-4.91,25.88-3c5.12,1.08,25.77,11.76,51.22,1.89s32.18-18.82,43.85-12.07c24.62,14.23,33.84,15.32,54.1,15.53,25.61.27,40.22-2.54,54.62-11.25,17.27-10.44,33.8-46,18.48-72.3-19.27-33.13-10.7-44.2-26.3-41.22-10.76,2.06-13.9,7.25-18.06-.54S955.2,32.8,950.89,32c-3.45-.65-7.25,3-11,6.62s-7.46,7.37-10.6,6.59c-6.23-1.56-11.32-14-18.86-12.13-6.07,1.51-11.15,20.58-16.92,29.59-1.94,3-12.61-2.36-30.79-2.36s-23.23,8.59-28.94,8.59-8.26-8.86-31.44-8.59S776,65.4,766.15,65.91s-.26-8.54-5-23.41c-5.89-18.43-39.41-27.32-54.72-4-8.48,12.9.76,24.58-3,28.37-3,3-11-7.51-32-8.21-4.11-.14-9.41,0-18.06,0-14.42,0-18.7,4.45-23.83,4.69-5.4.26-9.75-3.25-22-4.69a41.85,41.85,0,0,0-22,3.25c-9.23,4-14,11-18.06,15.17-6.68,7-19.28,13.77-28.89-3.61-13.21-23.89-45.11-22.63-57.3-14.92-9.84,6.22-2.64-17.22-24.67-30.94-19.58-12.2-47.55-7-58.86,18.78-6.89,15.72-25,15.17-37.57,15.3-21.3.23-27.08,9.62-33.58,2-11-12.85-8.47-19.82-24.11-26.29-14.26-5.9-27,1.26-36.66,5.12-3.21,1.29-6.71,1.07-10.74.86-6.12-.32-13.48-.65-23,4.26-15.28,7.91-13.28,14-18.87,12.94-15.37-3-30.19-5.93-49.33,2.7-21.18,9.55-29.94.77-34.68-13.45-6.43-19.28-28.2-18.09-50.5-16.2" transform="translate(-24.61 -21.27)"/></g><path class="cls-4" d="M302.61,77.84S313.69,51,295.07,46C280.63,42,273.22,56.65,280.42,63.44c2.68,2.53,4.61,2.08,6.69,1.34a6.7,6.7,0,0,1-5.5-4.32c-2.12-4.94,5.13-10.64,10.32-6.5,7.14,5.71-.71,23.31-.71,23.31a3.62,3.62,0,0,0,4-.4c1.8-1.65,5.11-1.17,5.62.58s1.74.38,1.74.38" transform="translate(-24.61 -21.27)"/><path class="cls-5" d="M302.61,77.84l-2.32-1,.29.12-.29-.12.29.12-.29-.12a44.88,44.88,0,0,0,1.57-4.8,40.2,40.2,0,0,0,1.51-10.19,16.79,16.79,0,0,0-1.88-8.37,10.08,10.08,0,0,0-2.66-3,12.71,12.71,0,0,0-4.42-2.09,15.37,15.37,0,0,0-4.05-.57,10.41,10.41,0,0,0-7.54,2.95,8.84,8.84,0,0,0-2.67,6.13,6.65,6.65,0,0,0,.49,2.54,6.26,6.26,0,0,0,1.51,2.18,5.39,5.39,0,0,0,1.44,1,2,2,0,0,0,.87.2,5.65,5.65,0,0,0,1.81-.43l.85,2.37-.1,2.51a8.21,8.21,0,0,1-3.08-.84,9.15,9.15,0,0,1-2.49-1.77,10.19,10.19,0,0,1-2.15-3.22,7.13,7.13,0,0,1-.58-2.81,7.66,7.66,0,0,1,.82-3.4A9.61,9.61,0,0,1,288,50a8.8,8.8,0,0,1,5.53,2,9.88,9.88,0,0,1,3.14,4.58,16.34,16.34,0,0,1,.8,5.32,38.81,38.81,0,0,1-2,11.08,53.56,53.56,0,0,1-2,5.32l-2.29-1,1.22-2.2-.66,1.18.61-1.21,0,0-.66,1.18.61-1.21h0a1.82,1.82,0,0,0,.67.16.72.72,0,0,0,.25,0,.67.67,0,0,0,.24-.15h0a6.27,6.27,0,0,1,2.17-1.29,7,7,0,0,1,2.3-.39,6.36,6.36,0,0,1,3,.72,4.89,4.89,0,0,1,1.34,1,4.23,4.23,0,0,1,.92,1.66h0v0l-.26.09.25-.11v0l-.26.09.25-.11-1.31.58.85-1.13a1.47,1.47,0,0,1,.46.54l-1.31.58.85-1.13-1.14,1.52v-1.9a2,2,0,0,1,1.14.38l-1.14,1.52v-.26L301,76a1.64,1.64,0,0,1,.66-.13v1.64L301,76l.32.73-.52-.61A.8.8,0,0,1,301,76l.32.73-.52-.61.48.57-.55-.5.07-.07.48.57-.55-.5,1.86,1.68-2.32-1,2.32,1,1.86,1.69a4.45,4.45,0,0,1-.67.6,4,4,0,0,1-.78.45,3.36,3.36,0,0,1-1.35.29,3.12,3.12,0,0,1-1.17-.23,3.26,3.26,0,0,1-1.41-1.12,4.34,4.34,0,0,1-.64-1.36h0l.75-.21-.59.52a.8.8,0,0,1-.17-.31l.75-.21-.59.52.3-.27-.26.31,0,0,.3-.27-.26.31.06-.07-.05.08h0l.06-.07-.05.08a1.36,1.36,0,0,0-.64-.13,2,2,0,0,0-.64.11,1.27,1.27,0,0,0-.44.25h0a5.72,5.72,0,0,1-2,1.19,5.78,5.78,0,0,1-1.92.32,6.64,6.64,0,0,1-2.12-.36,6,6,0,0,1-1-.41,2.51,2.51,0,0,1-1.08-3.22h0a49.79,49.79,0,0,0,1.83-5,33.57,33.57,0,0,0,1.66-9.32,11.39,11.39,0,0,0-.52-3.68,4.85,4.85,0,0,0-1.53-2.29,3.74,3.74,0,0,0-2.39-.88,4.56,4.56,0,0,0-3,1.21,4.16,4.16,0,0,0-.93,1.21,2.65,2.65,0,0,0-.3,1.17,2.08,2.08,0,0,0,.17.83A5.14,5.14,0,0,0,285,61.12a4.11,4.11,0,0,0,1.63,1,3.53,3.53,0,0,0,.53.13h.1v0h0v0l-.11,1.61.06-1.61h0l-.11,1.61.06-1.61a2.51,2.51,0,0,1,.74,4.88,10.32,10.32,0,0,1-3.5.73,7.07,7.07,0,0,1-2.93-.64,10.32,10.32,0,0,1-2.83-2A11.29,11.29,0,0,1,276,61.36a11.67,11.67,0,0,1-.87-4.46,13.84,13.84,0,0,1,4.14-9.69,15.47,15.47,0,0,1,11.09-4.42,20.42,20.42,0,0,1,5.38.75,17.75,17.75,0,0,1,6.14,2.94,15.57,15.57,0,0,1,5.19,7.14,23.93,23.93,0,0,1,1.33,8.27,45.24,45.24,0,0,1-1.72,11.65,48.86,48.86,0,0,1-1.73,5.26,2.6,2.6,0,0,1-.46.73l-1.86-1.69" transform="translate(-24.61 -21.27)"/><path class="cls-4" d="M275.66,77.47s-2.28-28.3-22.41-24.54c-15.78,3-12.67,19.46-5.41,21.22,4.91,1.19,6.54-.89,7.29-3,0,0-3.57,1.19-6.1-.6-3.81-2.69-.65-11,6.4-9.67,8,1.49,8.63,21.3,8.63,21.3a3.62,3.62,0,0,0,3.45-2.15c.88-2.27,4.07-3.31,5.29-2s2.86-.63,2.86-.63" transform="translate(-24.61 -21.27)"/><path class="cls-5" d="M275.66,77.47l-2.51.2.79-.06-.79.07h0l.79-.06-.79.07a43.41,43.41,0,0,0-3-11.81,21.48,21.48,0,0,0-5.06-7.58,11.93,11.93,0,0,0-8.3-3.18,16.78,16.78,0,0,0-3.1.3h0c-3.7.7-5.95,2.14-7.34,3.77a8.44,8.44,0,0,0-2,5.53,9.15,9.15,0,0,0,1.31,4.75A6.05,6.05,0,0,0,247,71a3.61,3.61,0,0,0,1.41.72,8.62,8.62,0,0,0,2,.28,3.33,3.33,0,0,0,1.07-.15,1.5,1.5,0,0,0,.71-.49,3.35,3.35,0,0,0,.54-1l2.37.85.79,2.38a11.61,11.61,0,0,1-3.43.52,9.6,9.6,0,0,1-2.36-.28,7.71,7.71,0,0,1-2.55-1.16,6.22,6.22,0,0,1-2.07-2.49,7.11,7.11,0,0,1-.63-3,9,9,0,0,1,2.4-6,8.91,8.91,0,0,1,2.87-2.09,9.13,9.13,0,0,1,3.8-.81,10.55,10.55,0,0,1,1.92.18,8.11,8.11,0,0,1,3.87,1.92,12.16,12.16,0,0,1,2.32,2.81,24.39,24.39,0,0,1,2.51,6,53.89,53.89,0,0,1,1.66,8.8c.27,2.45.32,4.15.32,4.2l-2.51.08.12-2.51-.05,1.06V79.71h.05l-.05,1.06V79.71a1.85,1.85,0,0,0,.6-.12.84.84,0,0,0,.26-.16.65.65,0,0,0,.17-.27h0a6.49,6.49,0,0,1,2.56-3.07A6.6,6.6,0,0,1,271.26,75a5,5,0,0,1,1.74.31,4.26,4.26,0,0,1,1.66,1.11h0l-.76.69.42-.93a1.07,1.07,0,0,1,.34.24l-.76.69.42-.93-.55,1.2V76.06a1.33,1.33,0,0,1,.55.12l-.55,1.2V76.9l-.36-.77a.87.87,0,0,1,.36-.06v.84l-.36-.77,0,0,0,0h0l0,0,0,0,.22-.17.09-.09h0l.93.81-1-.78,0,0,.93.81-1-.78,1.94,1.6-2.51.2,2.51-.2,1.94,1.6a6.56,6.56,0,0,1-1,.92,5.59,5.59,0,0,1-1.1.69,4.17,4.17,0,0,1-1.77.41,3.71,3.71,0,0,1-1.54-.33,4,4,0,0,1-1.3-1h0l.57-.52-.27.73a.8.8,0,0,1-.29-.21l.57-.52-.27.73.1-.27,0,.29-.05,0,.1-.27,0,.29h0a1.67,1.67,0,0,0-.81.29,1.52,1.52,0,0,0-.6.67h0a5.7,5.7,0,0,1-1.44,2.14,6.05,6.05,0,0,1-2.61,1.4,6.8,6.8,0,0,1-1.67.22h-.19a2.51,2.51,0,0,1-2.39-2.43v0a57.79,57.79,0,0,0-1.35-10A23,23,0,0,0,257.9,66a7.35,7.35,0,0,0-1.49-1.85,3.06,3.06,0,0,0-1.44-.73,5.56,5.56,0,0,0-1-.1,4.1,4.1,0,0,0-1.72.36,4,4,0,0,0-1.72,1.53,3.88,3.88,0,0,0-.61,2,2.1,2.1,0,0,0,.17.87,1.18,1.18,0,0,0,.4.49,2.67,2.67,0,0,0,.89.4,4.62,4.62,0,0,0,1.12.13,7,7,0,0,0,1.37-.14l.4-.09.08,0h0l.41,1.29-.43-1.28h0l.41,1.29-.43-1.28A2.51,2.51,0,0,1,257.5,72a9,9,0,0,1-.79,1.68,6.71,6.71,0,0,1-2.4,2.36,7.7,7.7,0,0,1-3.86.94,13.55,13.55,0,0,1-3.19-.42,8.64,8.64,0,0,1-3.36-1.68,11.71,11.71,0,0,1-3.33-4.47,14.39,14.39,0,0,1-1.19-5.73,13.48,13.48,0,0,1,3.17-8.77,17.14,17.14,0,0,1,10.25-5.47h0a21.89,21.89,0,0,1,4-.39,17.32,17.32,0,0,1,6.6,1.26,18.87,18.87,0,0,1,8.07,6.58A36.9,36.9,0,0,1,277,70.59a46.15,46.15,0,0,1,1.17,6.68,2.52,2.52,0,0,1-.57,1.8l-1.94-1.6" transform="translate(-24.61 -21.27)"/><path class="cls-6" d="M302.61,77.79S313.69,51,295.07,45.92C280.63,42,272.84,56.29,279.53,63.59c3.27,3.57,8.33,3.12,8.78,0,0,0-1.84,2-5.35-2.08s3.79-11.73,9-7.59c7.14,5.7-.71,23.31-.71,23.31a3.62,3.62,0,0,0,4-.4c1.8-1.65,5.11-1.17,5.62.58s1.74.38,1.74.38" transform="translate(-24.61 -21.27)"/><path class="cls-5" d="M302.61,77.79l-.62-.26,0-.08a47.16,47.16,0,0,0,3.18-15.61,18.6,18.6,0,0,0-2.13-9.29,12.82,12.82,0,0,0-8.19-6,17.57,17.57,0,0,0-4.62-.65,12.71,12.71,0,0,0-9.15,3.62,11.09,11.09,0,0,0-3.35,7.73A8.55,8.55,0,0,0,280,63.14a6.67,6.67,0,0,0,4.78,2.29,3.47,3.47,0,0,0,2-.53,2,2,0,0,0,.87-1.4l.67.09.49.46a2,2,0,0,1-.51.37,2.73,2.73,0,0,1-1.31.32,4.07,4.07,0,0,1-2-.6,10,10,0,0,1-2.52-2.2A4.41,4.41,0,0,1,281.35,59a6.91,6.91,0,0,1,2.23-4.75,7.39,7.39,0,0,1,5-2.22,5.88,5.88,0,0,1,3.71,1.34,8,8,0,0,1,2.55,3.74,14.5,14.5,0,0,1,.7,4.72,37,37,0,0,1-1.89,10.54,51.5,51.5,0,0,1-1.88,5.11l-.62-.27.33-.59,0,.05,0-.05h0l0,.05,0-.05a3.59,3.59,0,0,0,1.53.37,2.46,2.46,0,0,0,1.73-.67A4.78,4.78,0,0,1,298,75.14a4.55,4.55,0,0,1,2.13.5,2.66,2.66,0,0,1,1.36,1.58,1,1,0,0,0,.19.41h0l0,.06v-.07h0l0,.06v-.07l.08,0,.25-.17.09-.08,0,0h0l.5.45-.62-.26.62.26.5.45a2.66,2.66,0,0,1-.39.35,1.8,1.8,0,0,1-1,.39,1.29,1.29,0,0,1-.92-.38,2.23,2.23,0,0,1-.54-1,1.32,1.32,0,0,0-.7-.77,3.22,3.22,0,0,0-1.49-.34,3.44,3.44,0,0,0-2.31.84,3.82,3.82,0,0,1-2.64,1,4.88,4.88,0,0,1-2.19-.54.68.68,0,0,1-.29-.87l.15-.36c.7-1.65,3.51-8.77,3.5-14.74a13.19,13.19,0,0,0-.62-4.28,6.69,6.69,0,0,0-2.12-3.13,4.52,4.52,0,0,0-2.87-1,6.06,6.06,0,0,0-4.1,1.83A5.59,5.59,0,0,0,282.7,59a3,3,0,0,0,.76,2A8.67,8.67,0,0,0,285.63,63a2.74,2.74,0,0,0,1.35.42,1.37,1.37,0,0,0,.67-.16l.15-.1,0,0,.15.16-.16-.15h0l.15.16-.16-.15a.67.67,0,0,1,1.16.55A3.35,3.35,0,0,1,287.53,66a4.79,4.79,0,0,1-2.72.77A8,8,0,0,1,279,64a9.9,9.9,0,0,1-2.6-6.78,12.43,12.43,0,0,1,3.74-8.69,14.07,14.07,0,0,1,10.1-4,18.9,18.9,0,0,1,5,.7,14.19,14.19,0,0,1,9,6.61,19.93,19.93,0,0,1,2.31,10A48.54,48.54,0,0,1,303.24,78l-.12.19-.5-.45" transform="translate(-24.61 -21.27)"/><g class="cls-7"><rect class="cls-8" x="274.12" y="55.29" width="0.72" height="0.24"/></g><g class="cls-9"><path class="cls-10" d="M301.35,76.8a2.81,2.81,0,0,0-1.19-1.16,4.16,4.16,0,0,0-.94-.36c5.51-15.22,2.5-21.89-3.2-25.09a11.56,11.56,0,0,0-5.73-1.56,14,14,0,0,0-8.84,3.57,12.09,12.09,0,0,1,9.48-4.86H291a13.47,13.47,0,0,1,11.76,7.42,17.43,17.43,0,0,1,1.31,7.15V62a50.84,50.84,0,0,1-2.76,14.8" transform="translate(-24.61 -21.27)"/></g><path class="cls-8" d="M301.18,77.29h0l-1.72-.5a2.91,2.91,0,0,0-.71-.24q.25-.65.48-1.28a4.11,4.11,0,0,1,.94.36,2.8,2.8,0,0,1,1.19,1.16l-.17.49" transform="translate(-24.61 -21.27)"/><path class="cls-11" d="M294.31,63.78s4-2.8,11.66-.5" transform="translate(-24.61 -21.27)"/><path class="cls-11" d="M292.77,55.41s3.67-5,6.82-7.11" transform="translate(-24.61 -21.27)"/><path class="cls-11" d="M283.54,46.78a22,22,0,0,0,2,6.77" transform="translate(-24.61 -21.27)"/><path class="cls-11" d="M283.16,60.13a24.19,24.19,0,0,1-4.62,2.31" transform="translate(-24.61 -21.27)"/><path class="cls-6" d="M275.66,77.42s-2.28-28.3-22.41-24.54c-15.78,3-15.14,22-3.32,22.61,3.55.19,6.69-3.12,5.21-5.35,0,0-.4,1.76-4.58.54-5.15-1.51-1.65-9.7,5-9.24s8.54,20.73,8.54,20.73A3.62,3.62,0,0,0,267.51,80c.88-2.27,4.07-3.31,5.29-2s2.86-.63,2.86-.63" transform="translate(-24.61 -21.27)"/><path class="cls-5" d="M275.66,77.42l-.67.05s0-.09,0-.26a44.63,44.63,0,0,0-3.54-13.11,21.86,21.86,0,0,0-5.49-7.58,13.72,13.72,0,0,0-9.13-3.3,18.65,18.65,0,0,0-3.44.33,14.54,14.54,0,0,0-8.73,4.79,11.7,11.7,0,0,0-2.76,7.48A9.54,9.54,0,0,0,244,71.95a8.12,8.12,0,0,0,6,2.87h.26a5.3,5.3,0,0,0,3.27-1.17,3.17,3.17,0,0,0,1.34-2.27,1.53,1.53,0,0,0-.26-.87l.56-.37.66.15a1.66,1.66,0,0,1-.56.85,3.19,3.19,0,0,1-2.14.65,9.82,9.82,0,0,1-2.73-.46,4.13,4.13,0,0,1-2.24-1.49,3.9,3.9,0,0,1-.72-2.33A6.6,6.6,0,0,1,249.52,63,7.77,7.77,0,0,1,255,60.74l.59,0A4.52,4.52,0,0,1,258.23,62a13.37,13.37,0,0,1,3.19,5.11A52.26,52.26,0,0,1,264,76.92c.52,3,.73,5.17.73,5.18l-.67.06,0-.67h0a3.66,3.66,0,0,0,1.29-.26,2.49,2.49,0,0,0,1.45-1.46h0a4.67,4.67,0,0,1,1.84-2.2,4.78,4.78,0,0,1,2.54-.8,2.71,2.71,0,0,1,2,.82h0a.61.61,0,0,0,.48.25,1.6,1.6,0,0,0,.88-.41,3.57,3.57,0,0,0,.35-.32l.1-.1,0,0h0l.14.12-.14-.12h0l.14.12-.14-.12.52.43-.67.05.67-.05.52.43a4.79,4.79,0,0,1-.68.65,2.88,2.88,0,0,1-1.72.7,2,2,0,0,1-1.48-.69h0a1.37,1.37,0,0,0-1-.38,3.47,3.47,0,0,0-1.8.58,3.33,3.33,0,0,0-1.31,1.55h0a3.86,3.86,0,0,1-2.21,2.23,5,5,0,0,1-1.8.36H264a.67.67,0,0,1-.64-.61s0-.31-.09-.86a70.44,70.44,0,0,0-2.2-11.12,22.9,22.9,0,0,0-2.44-5.72,7,7,0,0,0-1.54-1.75,3,3,0,0,0-1.64-.67l-.49,0a6.42,6.42,0,0,0-4.52,1.83,5.28,5.28,0,0,0-1.7,3.58,2.53,2.53,0,0,0,.46,1.53,2.78,2.78,0,0,0,1.52,1,8.56,8.56,0,0,0,2.35.41,1.88,1.88,0,0,0,1.26-.32l.12-.14v0l.3.11-.31-.07v0l.3.11-.31-.07a.67.67,0,0,1,1.22-.23,2.88,2.88,0,0,1,.49,1.62,4.47,4.47,0,0,1-1.84,3.32,6.64,6.64,0,0,1-4.12,1.47h-.33a9.48,9.48,0,0,1-6.94-3.35,10.89,10.89,0,0,1-2.41-7,13.05,13.05,0,0,1,3.07-8.35,15.89,15.89,0,0,1,9.52-5.25,20,20,0,0,1,3.68-.36,15.13,15.13,0,0,1,10.51,4.06c4,3.64,6.21,9,7.47,13.44a46.13,46.13,0,0,1,1.55,8,.67.67,0,0,1-.15.48l-.52-.43" transform="translate(-24.61 -21.27)"/><path class="cls-8" d="M270.73,77.66h0a1.58,1.58,0,0,1,0-.48l0,.48" transform="translate(-24.61 -21.27)"/><path class="cls-10" d="M270.64,76.83c-1.75-16.45-8.55-20.39-15.14-20.39h-.08c-7.29,0-12,6.56-12,6.64,2.07-6,7.7-8.41,12.94-8.43h.09a13.69,13.69,0,0,1,8.49,2.65c7,5.84,8,18.7,8,19h0a4.46,4.46,0,0,0-1-.13c-.74,0-1.06.29-1.19.61l-.12,0" transform="translate(-24.61 -21.27)"/><path class="cls-8" d="M270.68,77.18l0-.35.12,0a1.16,1.16,0,0,0-.08.37" transform="translate(-24.61 -21.27)"/><path class="cls-11" d="M261,67.86a13.88,13.88,0,0,1,10.62-5.19" transform="translate(-24.61 -21.27)"/><path class="cls-11" d="M256.25,61.36s-.1-6.4,2.93-9.05" transform="translate(-24.61 -21.27)"/><path class="cls-11" d="M244.08,57.74s1,4.83,4.71,6.69" transform="translate(-24.61 -21.27)"/><path class="cls-11" d="M249.44,70a14.27,14.27,0,0,1-3.27,4.62" transform="translate(-24.61 -21.27)"/><path class="cls-5" d="M334.8,128.72a11,11,0,0,0-6.81-9.86,9,9,0,0,0-2.54-8.08,8.29,8.29,0,0,0-5.87-2.34,9.22,9.22,0,0,0-1.53.13,6,6,0,0,0-3.87-4.29,9.54,9.54,0,0,0-3.28-.62,7,7,0,0,0-4.69,1.7,60.8,60.8,0,0,0-5.82-1.88c-3.28-.82-6.27-1.63-8.9-2.42l-.9-.26c-2.13-.61-2.57-.73-2.57-2.48v-.51c0-.3,0-.62,0-.77s.44-.05.72-.08c.49,0,1.17-.09,2.09-.23A7.81,7.81,0,0,0,296,93c.63,0,1.35-.07,2.19-.14l.28.29A7.05,7.05,0,0,0,304,95.8a9.07,9.07,0,0,0,1.32-.1,6.49,6.49,0,0,0,5.42-4.11l.12-.25a10.69,10.69,0,0,0,1.08-.21l.58-.12c.56.16,1.8.57,2.74.88a41.37,41.37,0,0,0,4.12,1.25,6.55,6.55,0,0,0,2.15.31,8.66,8.66,0,0,0,2.62-.38c3.75-1.27,5.06-6,3.9-9.43a8,8,0,0,0-4.23-4.71,4.26,4.26,0,0,0,.65-1.43,5.22,5.22,0,0,0-3.83-6.29,6,6,0,0,0-6.24,2.27,6.56,6.56,0,0,0-5.47-2.79,5.21,5.21,0,0,0-3.7,1.4c-.75.74-1.62,1.63-2.25,2.32l-4.1.1a6.89,6.89,0,0,0-1.37-2.64,8,8,0,0,0-5.94-2.73,9,9,0,0,0-6.79,2.7,9.1,9.1,0,0,0-.7.79,6.65,6.65,0,0,0-4.82-2,7,7,0,0,0-5.71,3,7.32,7.32,0,0,0-.64.59l-.15.15-1.4.6a4.56,4.56,0,0,0-4.56-1.12,5.18,5.18,0,0,0-3.51,3.71,1.9,1.9,0,0,0-.05.28l-.09.88a2.29,2.29,0,0,0-1.31,1.14,8.32,8.32,0,0,0-3,1.65,7.88,7.88,0,0,0-1.9,9.71,9.65,9.65,0,0,0,2.45,3.1,10.24,10.24,0,0,0-3,5.56,9.08,9.08,0,0,0,2.46,8.59v0a6.42,6.42,0,0,0-3.12,3c-1.39,2.54-1.16,7.15,1.21,9.28a11.59,11.59,0,0,0,2.08,1.53,15,15,0,0,0-1.15,1.4c-1.7,2.39-3.59,6.08-.43,10.59a13,13,0,0,0,2.44,2.38v0a9.43,9.43,0,0,0-1.83,4.84,8.41,8.41,0,0,0,1.39,6,15.61,15.61,0,0,0,1.65-1.14,2.65,2.65,0,0,1,3.54.17l1.71,1.7a2.64,2.64,0,0,1,.36,3.31,17,17,0,0,1-7.73,6.2,6.6,6.6,0,0,0,.28,2,7.75,7.75,0,0,0,9.69,5.15,9,9,0,0,0,2.71-1.37c.91.15,1.76.28,2.75.41-.6,4.94-1.85,9.09-3.31,10.85a7.81,7.81,0,0,0,.66,11.09,2,2,0,0,0,2.68,0l.87-.83.11.23a2,2,0,0,0,3,.68c.52-.4,5-4,4.19-7.92-.19-.9-.1-5.13.47-12.66l.2.18a6.32,6.32,0,0,0,4.1,1.48,8.44,8.44,0,0,0,4.59-1.49l.13-.07.41-.24a10.88,10.88,0,0,0,5.91,1.74,10,10,0,0,0,3.24-.53c.71,4.48,1.2,9,1.24,10.22.16,4.83,5,7.29,5.16,7.39a2,2,0,0,0,2.74-1.06l.09-.24,1,.74a2,2,0,0,0,2.64-.2,7.67,7.67,0,0,0-.31-11.07,20,20,0,0,1-3.93-7.24,8.44,8.44,0,0,0,4.32-1.31,6.48,6.48,0,0,0,2.93-4.71A8.91,8.91,0,0,0,319,159a8.08,8.08,0,0,0,4.12-1c3.76-2.35,5-6.27,4.14-9.05a6.94,6.94,0,0,0,6.11-4.58,8.46,8.46,0,0,0-1.07-7.72,10.86,10.86,0,0,0,2.52-7.87" transform="translate(-24.61 -21.27)"/><path class="cls-5" d="M266.75,151.46a2.65,2.65,0,0,0-.36-3.31l-1.71-1.7a2.65,2.65,0,0,0-3.54-.17,15.58,15.58,0,0,1-1.65,1.14,13,13,0,0,1-6.17,2.11c-1.44,0-3.55-.41-5.25-3.93a2.65,2.65,0,0,0-5,1,11.57,11.57,0,0,0,2.78,8.09c2.09,2.32,5.11,3.56,9,3.68h.36a11.46,11.46,0,0,0,3.85-.68,17,17,0,0,0,7.73-6.21" transform="translate(-24.61 -21.27)"/><path class="cls-3" d="M279.48,174.94a114.72,114.72,0,0,1,1.66-17.26l-3.21,1.22s-1,12.91-4,17.48a11.63,11.63,0,0,0-.81,1.47,35.55,35.55,0,0,0,6.28,1.83c.13-.58,0-4.18,0-4.73" transform="translate(-24.61 -21.27)"/><path class="cls-5" d="M272.42,177.86c-2.35,4.26.7,6.47.7,6.47l2.51-2.9,1.62,3.1a13.41,13.41,0,0,0,3-4.8,54.15,54.15,0,0,1-7.87-1.87" transform="translate(-24.61 -21.27)"/><path class="cls-3" d="M311.75,173.77c-4.57-3.88-6-17.93-6-17.93l-3.12.78s3.2,14.89,3.12,19.33a5.88,5.88,0,0,0,.86,2.8,32.21,32.21,0,0,0,7.33-1.87,7.19,7.19,0,0,0-2.18-3.12" transform="translate(-24.61 -21.27)"/><path class="cls-5" d="M306.21,178.84a14.6,14.6,0,0,0,2.73,3.87l1.72-2.33,2.69,1.89a6.38,6.38,0,0,0,1.06-5.45,40.08,40.08,0,0,1-8.19,2" transform="translate(-24.61 -21.27)"/><path class="cls-12" d="M267.44,78.81a2.77,2.77,0,0,0-2.61,2.75l.53,70.91a3.53,3.53,0,0,0,2.58,3.24s38.86,9.27,52.43-5.39,9.9-48.75-35.37-44.65l-.12-11.85a2.68,2.68,0,0,1,2.6-2.69s15.75-1.32,25.36-3.13c3.53-.67,5.95,2.4,5.95,2.4a2.61,2.61,0,0,0,2.53-2.69l-.3-8.78a2.6,2.6,0,0,0-2.72-2.5" transform="translate(-24.61 -21.27)"/><path class="cls-13" d="M267.44,78.81a2.77,2.77,0,0,0-2.61,2.75l.53,70.91a3.53,3.53,0,0,0,2.58,3.24s38.86,9.27,52.43-5.39,9.9-48.75-35.37-44.65l-.12-11.85a2.68,2.68,0,0,1,2.6-2.69s15.75-1.32,25.36-3.13c3.53-.67,5.95,2.4,5.95,2.4a2.61,2.61,0,0,0,2.53-2.69l-.3-8.78a2.6,2.6,0,0,0-2.72-2.5Z" transform="translate(-24.61 -21.27)"/><path class="cls-12" d="M302.8,81a7,7,0,0,1,5.72-8A5.57,5.57,0,0,1,315,77.52a4.46,4.46,0,0,1-3.66,5.15,3.57,3.57,0,0,1-4.12-2.93,2.86,2.86,0,0,1,2.34-3.3" transform="translate(-24.61 -21.27)"/><path class="cls-14" d="M302.8,81a7,7,0,0,1,5.72-8A5.57,5.57,0,0,1,315,77.52a4.46,4.46,0,0,1-3.66,5.15,3.57,3.57,0,0,1-4.12-2.93,2.86,2.86,0,0,1,2.34-3.3" transform="translate(-24.61 -21.27)"/><path class="cls-12" d="M271.31,133.44a8,8,0,0,1-11.23-.12,6.35,6.35,0,0,1,.1-9,5.07,5.07,0,0,1,7.18.08,4.06,4.06,0,0,1-.06,5.74,3.26,3.26,0,0,1-4.6,0" transform="translate(-24.61 -21.27)"/><path class="cls-14" d="M271.31,133.44a8,8,0,0,1-11.23-.12,6.35,6.35,0,0,1,.1-9,5.07,5.07,0,0,1,7.18.08,4.06,4.06,0,0,1-.06,5.74,3.26,3.26,0,0,1-4.6,0" transform="translate(-24.61 -21.27)"/><path class="cls-12" d="M281,147.92a8,8,0,0,1,8.57-7.26,6.36,6.36,0,0,1,5.8,6.86,5.07,5.07,0,0,1-5.48,4.63,4.06,4.06,0,0,1-3.71-4.39,3.25,3.25,0,0,1,3.51-3" transform="translate(-24.61 -21.27)"/><path class="cls-14" d="M281,147.92a8,8,0,0,1,8.57-7.26,6.36,6.36,0,0,1,5.8,6.86,5.07,5.07,0,0,1-5.48,4.63,4.06,4.06,0,0,1-3.71-4.39,3.25,3.25,0,0,1,3.51-3" transform="translate(-24.61 -21.27)"/><path class="cls-12" d="M304.89,145.42a8,8,0,0,1-10.5-4,6.36,6.36,0,0,1,3.2-8.39,5.07,5.07,0,0,1,6.71,2.56,4.06,4.06,0,0,1-2,5.37,3.25,3.25,0,0,1-4.3-1.64" transform="translate(-24.61 -21.27)"/><path class="cls-14" d="M304.89,145.42a8,8,0,0,1-10.5-4,6.36,6.36,0,0,1,3.2-8.39,5.07,5.07,0,0,1,6.71,2.56,4.06,4.06,0,0,1-2,5.37,3.25,3.25,0,0,1-4.3-1.64" transform="translate(-24.61 -21.27)"/><path class="cls-12" d="M305.57,156.57a7.63,7.63,0,0,1-8.15,7,6.09,6.09,0,0,1-5.64-6.52,4.88,4.88,0,0,1,5.21-4.52,3.91,3.91,0,0,1,3.61,4.18,3.12,3.12,0,0,1-3.34,2.88A2.5,2.5,0,0,1,295,157" transform="translate(-24.61 -21.27)"/><path class="cls-14" d="M305.57,156.57a7.63,7.63,0,0,1-8.15,7,6.09,6.09,0,0,1-5.64-6.52,4.88,4.88,0,0,1,5.21-4.52,3.91,3.91,0,0,1,3.61,4.18,3.12,3.12,0,0,1-3.34,2.88A2.5,2.5,0,0,1,295,157" transform="translate(-24.61 -21.27)"/><path class="cls-12" d="M316.67,126.58a8.82,8.82,0,0,1,11.76-4.15,7.06,7.06,0,0,1,3.32,9.41,5.66,5.66,0,0,1-7.53,2.66,4.51,4.51,0,0,1-2.12-6,3.61,3.61,0,0,1,4.81-1.7,2.89,2.89,0,0,1,1.36,3.85" transform="translate(-24.61 -21.27)"/><path class="cls-14" d="M316.67,126.58a8.82,8.82,0,0,1,11.76-4.15,7.06,7.06,0,0,1,3.32,9.41,5.66,5.66,0,0,1-7.53,2.66,4.51,4.51,0,0,1-2.12-6,3.61,3.61,0,0,1,4.81-1.7,2.89,2.89,0,0,1,1.36,3.85" transform="translate(-24.61 -21.27)"/><path class="cls-12" d="M265.49,114.5c-1.52-7.74,5.41-11.09,9.58-10,3.34.86,5.28,3.74,4.42,7.08a5,5,0,0,1-6.08,3.59,3.35,3.35,0,0,1-2.67-4.33,3.06,3.06,0,0,1,3.75-2.31,1.89,1.89,0,0,1,.21,3.37" transform="translate(-24.61 -21.27)"/><path class="cls-14" d="M265.49,114.5c-1.52-7.74,5.41-11.09,9.58-10,3.34.86,5.28,3.74,4.42,7.08a5,5,0,0,1-6.08,3.59,3.34,3.34,0,0,1-2.67-4.33,3.06,3.06,0,0,1,3.75-2.31,1.89,1.89,0,0,1,.21,3.37" transform="translate(-24.61 -21.27)"/><path class="cls-12" d="M266.55,107.76c-4.9.33-8.64-4.37-7.53-8.19a5.79,5.79,0,0,1,7.17-3.93,4.6,4.6,0,0,1,3.14,5.73,3.69,3.69,0,0,1-4.58,2.52,3,3,0,0,1-2-3.68,2.38,2.38,0,0,1,2.94-1.6" transform="translate(-24.61 -21.27)"/><path class="cls-15" d="M266.55,107.76c-4.9.33-8.64-4.37-7.53-8.19a5.79,5.79,0,0,1,7.17-3.93,4.6,4.6,0,0,1,3.14,5.73,3.69,3.69,0,0,1-4.58,2.52,3,3,0,0,1-2-3.68,2.38,2.38,0,0,1,2.94-1.6" transform="translate(-24.61 -21.27)"/><path class="cls-12" d="M270.21,92.45a7.71,7.71,0,0,1-10.85-1.19,6.18,6.18,0,0,1,.94-8.68,4.94,4.94,0,0,1,6.94.76,3.94,3.94,0,0,1-.6,5.56,3.16,3.16,0,0,1-4.45-.49,2.52,2.52,0,0,1,.38-3.55" transform="translate(-24.61 -21.27)"/><path class="cls-14" d="M270.21,92.45a7.71,7.71,0,0,1-10.85-1.19,6.18,6.18,0,0,1,.94-8.68,4.94,4.94,0,0,1,6.94.76,3.94,3.94,0,0,1-.6,5.56,3.16,3.16,0,0,1-4.45-.49,2.52,2.52,0,0,1,.38-3.55" transform="translate(-24.61 -21.27)"/><path class="cls-12" d="M279.5,127.16a5.2,5.2,0,0,1,5.35-5.05,4.16,4.16,0,0,1,4,4.28,3.33,3.33,0,0,1-3.42,3.23,2.66,2.66,0,0,1-2.58-2.74,2.12,2.12,0,0,1,2.18-2.06,1.7,1.7,0,0,1,1.66,1.74" transform="translate(-24.61 -21.27)"/><path class="cls-14" d="M279.5,127.16a5.2,5.2,0,0,1,5.35-5.05,4.16,4.16,0,0,1,4,4.28,3.33,3.33,0,0,1-3.42,3.23,2.66,2.66,0,0,1-2.58-2.74,2.12,2.12,0,0,1,2.18-2.06,1.7,1.7,0,0,1,1.66,1.74" transform="translate(-24.61 -21.27)"/><path class="cls-12" d="M304.66,131.17a8.16,8.16,0,0,1,10.89-4.49,6.85,6.85,0,0,1,3.86,8.9,5.49,5.49,0,0,1-7.12,3.11,4.4,4.4,0,0,1-2.48-5.7,3.52,3.52,0,0,1,4.57-2,2.82,2.82,0,0,1,1.58,3.65" transform="translate(-24.61 -21.27)"/><path class="cls-16" d="M304.66,131.17a8.16,8.16,0,0,1,10.89-4.49,6.85,6.85,0,0,1,3.86,8.9,5.49,5.49,0,0,1-7.12,3.11,4.4,4.4,0,0,1-2.48-5.7,3.52,3.52,0,0,1,4.57-2,2.82,2.82,0,0,1,1.58,3.65" transform="translate(-24.61 -21.27)"/><path class="cls-12" d="M287.31,122c2.94-5.34,7.74-8.16,13.83-5.77a9.48,9.48,0,0,1,5.33,12.32,7.59,7.59,0,0,1-9.84,4.29,6.08,6.08,0,0,1-3.42-7.89,4.87,4.87,0,0,1,6.31-2.74,3.89,3.89,0,0,1,2.18,5" transform="translate(-24.61 -21.27)"/><path class="cls-16" d="M287.31,122c2.94-5.34,7.74-8.16,13.83-5.77a9.48,9.48,0,0,1,5.33,12.32,7.59,7.59,0,0,1-9.84,4.29,6.08,6.08,0,0,1-3.42-7.89,4.87,4.87,0,0,1,6.31-2.74,3.89,3.89,0,0,1,2.18,5" transform="translate(-24.61 -21.27)"/><path class="cls-12" d="M309.24,138.47a6,6,0,0,1,4.52,7.1,4.76,4.76,0,0,1-5.68,3.62,3.8,3.8,0,0,1-2.89-4.54,3.06,3.06,0,0,1,3.64-2.32,2.44,2.44,0,0,1,1.85,2.91,1.94,1.94,0,0,1-2.32,1.48" transform="translate(-24.61 -21.27)"/><path class="cls-16" d="M309.24,138.47a6,6,0,0,1,4.52,7.1,4.76,4.76,0,0,1-5.68,3.62,3.8,3.8,0,0,1-2.89-4.54,3.06,3.06,0,0,1,3.64-2.32,2.44,2.44,0,0,1,1.85,2.91,1.94,1.94,0,0,1-2.32,1.48" transform="translate(-24.61 -21.27)"/><path class="cls-12" d="M295.45,84a8,8,0,0,1,11.07-2.2,6.38,6.38,0,0,1,1.76,8.84,5.1,5.1,0,0,1-7.08,1.4,4.09,4.09,0,0,1-1.12-5.66,3.26,3.26,0,0,1,4.53-.89,2.6,2.6,0,0,1,.72,3.61" transform="translate(-24.61 -21.27)"/><path class="cls-16" d="M295.45,84a8,8,0,0,1,11.07-2.2,6.38,6.38,0,0,1,1.76,8.84,5.1,5.1,0,0,1-7.08,1.4,4.09,4.09,0,0,1-1.12-5.66,3.26,3.26,0,0,1,4.53-.89,2.6,2.6,0,0,1,.72,3.61" transform="translate(-24.61 -21.27)"/><path class="cls-12" d="M278.61,83.14a5.88,5.88,0,0,1-3.86-7.37,4.7,4.7,0,0,1,5.88-3.09,3.75,3.75,0,0,1,2.47,4.71,3,3,0,0,1-3.77,2,2.41,2.41,0,0,1-1.58-3,1.93,1.93,0,0,1,2.41-1.26" transform="translate(-24.61 -21.27)"/><path class="cls-16" d="M278.61,83.14a5.88,5.88,0,0,1-3.86-7.37,4.7,4.7,0,0,1,5.88-3.09,3.75,3.75,0,0,1,2.47,4.71,3,3,0,0,1-3.77,2,2.41,2.41,0,0,1-1.58-3,1.93,1.93,0,0,1,2.41-1.26" transform="translate(-24.61 -21.27)"/><path class="cls-12" d="M314.52,143.16a7.82,7.82,0,0,1,9.91,4.92,6.26,6.26,0,0,1-3.93,7.93,5,5,0,0,1-6.35-3.14,4,4,0,0,1,2.52-5.08,3.21,3.21,0,0,1,4.07,2,2.57,2.57,0,0,1-1.61,3.25" transform="translate(-24.61 -21.27)"/><path class="cls-14" d="M314.52,143.16a7.82,7.82,0,0,1,9.91,4.92,6.26,6.26,0,0,1-3.93,7.93,5,5,0,0,1-6.35-3.14,4,4,0,0,1,2.52-5.08,3.21,3.21,0,0,1,4.07,2,2.57,2.57,0,0,1-1.61,3.25" transform="translate(-24.61 -21.27)"/><path class="cls-12" d="M319.49,79.68c3.31.66,4.88,2,5.93,5.06a4.74,4.74,0,0,1-3,6,3.8,3.8,0,0,1-4.8-2.38,3,3,0,0,1,1.9-3.84A2.43,2.43,0,0,1,322.63,86a2,2,0,0,1-1.22,2.46" transform="translate(-24.61 -21.27)"/><path class="cls-14" d="M319.49,79.68c3.31.66,4.88,2,5.93,5.06a4.74,4.74,0,0,1-3,6,3.8,3.8,0,0,1-4.8-2.38,3,3,0,0,1,1.9-3.84A2.43,2.43,0,0,1,322.63,86a2,2,0,0,1-1.22,2.46" transform="translate(-24.61 -21.27)"/><path class="cls-12" d="M291,80.94a7.07,7.07,0,0,1,4.4,9,5.65,5.65,0,0,1-7.17,3.52,4.52,4.52,0,0,1-2.81-5.74A3.61,3.61,0,0,1,290,85.43a2.89,2.89,0,0,1,1.8,3.67,2.32,2.32,0,0,1-2.94,1.44" transform="translate(-24.61 -21.27)"/><path class="cls-14" d="M291,80.94a7.07,7.07,0,0,1,4.4,9,5.65,5.65,0,0,1-7.17,3.52,4.52,4.52,0,0,1-2.81-5.74A3.61,3.61,0,0,1,290,85.43a2.89,2.89,0,0,1,1.8,3.67,2.32,2.32,0,0,1-2.94,1.44" transform="translate(-24.61 -21.27)"/><path class="cls-12" d="M261.43,113.81a1.94,1.94,0,0,0-.87,2.6,2.43,2.43,0,0,0,3.26,1.09,3,3,0,0,0,1.35-4.08,3.78,3.78,0,0,0-5.08-1.7,4.75,4.75,0,0,0-2.12,6.36c1.46,2.93,5.74,4.54,9.2,5.24a7.1,7.1,0,0,1,1.9-5.06" transform="translate(-24.61 -21.27)"/><path class="cls-14" d="M261.43,113.81a1.94,1.94,0,0,0-.87,2.6,2.43,2.43,0,0,0,3.26,1.09,3,3,0,0,0,1.35-4.08,3.78,3.78,0,0,0-5.08-1.7,4.75,4.75,0,0,0-2.12,6.36c1.46,2.93,5.74,4.54,9.2,5.24a7.1,7.1,0,0,1,1.9-5.06" transform="translate(-24.61 -21.27)"/><path class="cls-12" d="M271.88,143a5.93,5.93,0,0,1-7.08,4.49,4.74,4.74,0,0,1-3.59-5.66,3.8,3.8,0,0,1,4.53-2.88,3,3,0,0,1,2.3,3.63,2.43,2.43,0,0,1-2.9,1.84,1.94,1.94,0,0,1-1.47-2.32" transform="translate(-24.61 -21.27)"/><path class="cls-14" d="M271.88,143a5.93,5.93,0,0,1-7.08,4.49,4.74,4.74,0,0,1-3.59-5.66,3.8,3.8,0,0,1,4.53-2.88,3,3,0,0,1,2.3,3.63,2.43,2.43,0,0,1-2.9,1.84,1.94,1.94,0,0,1-1.47-2.32" transform="translate(-24.61 -21.27)"/><path class="cls-12" d="M274.33,124.66a11.23,11.23,0,0,1,11.29,11.17,9,9,0,0,1-8.94,9,7.19,7.19,0,0,1-7.22-7.16,5.75,5.75,0,0,1,5.72-5.78,4.62,4.62,0,0,1,4.63,4.58,3.69,3.69,0,0,1-3.66,3.7" transform="translate(-24.61 -21.27)"/><path class="cls-14" d="M274.33,124.66a11.23,11.23,0,0,1,11.29,11.17,9,9,0,0,1-8.94,9,7.19,7.19,0,0,1-7.22-7.16,5.75,5.75,0,0,1,5.72-5.78,4.62,4.62,0,0,1,4.63,4.58,3.69,3.69,0,0,1-3.66,3.7" transform="translate(-24.61 -21.27)"/><path class="cls-12" d="M273.64,152.86a7.06,7.06,0,0,1-4.68,8.82,5.64,5.64,0,0,1-7.06-3.74,4.51,4.51,0,0,1,3-5.65,3.62,3.62,0,0,1,4.52,2.39,2.9,2.9,0,0,1-1.92,3.61,2.31,2.31,0,0,1-2.89-1.54" transform="translate(-24.61 -21.27)"/><path class="cls-14" d="M273.64,152.86a7.06,7.06,0,0,1-4.68,8.82,5.64,5.64,0,0,1-7.06-3.74,4.51,4.51,0,0,1,3-5.65,3.62,3.62,0,0,1,4.52,2.39,2.9,2.9,0,0,1-1.92,3.61,2.31,2.31,0,0,1-2.89-1.54" transform="translate(-24.61 -21.27)"/><path class="cls-12" d="M276.41,82.05c-2.77-.73-4.33.49-6.18,1.12a4.2,4.2,0,0,1-5.3-2.82,3.39,3.39,0,0,1,2.25-4.24,2.71,2.71,0,0,1,3.39,1.79,2.18,2.18,0,0,1-1.44,2.72A1.75,1.75,0,0,1,267,79.48" transform="translate(-24.61 -21.27)"/><path class="cls-14" d="M276.41,82.05c-2.77-.73-4.33.49-6.18,1.12a4.2,4.2,0,0,1-5.3-2.82,3.39,3.39,0,0,1,2.25-4.24,2.71,2.71,0,0,1,3.39,1.79,2.18,2.18,0,0,1-1.44,2.72A1.75,1.75,0,0,1,267,79.48" transform="translate(-24.61 -21.27)"/><path class="cls-12" d="M318.91,82.82a4.93,4.93,0,0,1-3.62-6,4,4,0,0,1,4.76-2.9,3.16,3.16,0,0,1,2.32,3.82,2.52,2.52,0,0,1-3.05,1.85,2,2,0,0,1-1.48-2.44,1.61,1.61,0,0,1,2-1.18" transform="translate(-24.61 -21.27)"/><path class="cls-14" d="M318.91,82.82a4.93,4.93,0,0,1-3.62-6,4,4,0,0,1,4.76-2.9,3.16,3.16,0,0,1,2.32,3.82,2.52,2.52,0,0,1-3.05,1.85,2,2,0,0,1-1.48-2.44,1.61,1.61,0,0,1,2-1.18" transform="translate(-24.61 -21.27)"/><path class="cls-12" d="M311,117.75a6.46,6.46,0,0,1-4.74-7.81,5.17,5.17,0,0,1,6.24-3.8,4.13,4.13,0,0,1,3,5,3.3,3.3,0,0,1-4,2.43,2.65,2.65,0,0,1-1.95-3.2,2.12,2.12,0,0,1,2.56-1.54" transform="translate(-24.61 -21.27)"/><path class="cls-14" d="M311,117.75a6.46,6.46,0,0,1-4.74-7.81,5.17,5.17,0,0,1,6.24-3.8,4.13,4.13,0,0,1,3,5,3.3,3.3,0,0,1-4,2.43,2.65,2.65,0,0,1-1.95-3.2,2.12,2.12,0,0,1,2.56-1.54" transform="translate(-24.61 -21.27)"/><path class="cls-12" d="M281.35,97.13c-6.53.41-10-3.27-8.78-8.24a7.4,7.4,0,0,1,9-5.44,5.93,5.93,0,0,1,4.37,7.17,4.75,4.75,0,0,1-5.74,3.49,3.82,3.82,0,0,1-2.8-4.59A3.06,3.06,0,0,1,281,87.27" transform="translate(-24.61 -21.27)"/><path class="cls-14" d="M281.35,97.13c-6.53.41-10-3.27-8.78-8.24a7.4,7.4,0,0,1,9-5.44,5.93,5.93,0,0,1,4.37,7.17,4.75,4.75,0,0,1-5.74,3.49,3.82,3.82,0,0,1-2.8-4.59A3.06,3.06,0,0,1,281,87.27" transform="translate(-24.61 -21.27)"/><path class="cls-12" d="M314.45,122.52a7.43,7.43,0,0,1,2.28-10.25,5.93,5.93,0,0,1,8.18,1.83,4.73,4.73,0,0,1-1.45,6.54,3.78,3.78,0,0,1-5.24-1.15,3,3,0,0,1,.92-4.19,2.43,2.43,0,0,1,3.36.74" transform="translate(-24.61 -21.27)"/><path class="cls-14" d="M314.45,122.52a7.43,7.43,0,0,1,2.28-10.25,5.93,5.93,0,0,1,8.18,1.83,4.73,4.73,0,0,1-1.45,6.54,3.78,3.78,0,0,1-5.24-1.15,3,3,0,0,1,.92-4.19,2.43,2.43,0,0,1,3.36.74" transform="translate(-24.61 -21.27)"/><path class="cls-12" d="M285,82.72a8.17,8.17,0,0,1,2.51-11.28,6.53,6.53,0,0,1,9,2,5.21,5.21,0,0,1-1.6,7.2,4.16,4.16,0,0,1-5.76-1.27,3.34,3.34,0,0,1,1-4.62,2.67,2.67,0,0,1,3.69.81" transform="translate(-24.61 -21.27)"/><path class="cls-14" d="M285,82.72a8.17,8.17,0,0,1,2.51-11.28,6.53,6.53,0,0,1,9,2,5.21,5.21,0,0,1-1.6,7.2,4.16,4.16,0,0,1-5.76-1.27,3.34,3.34,0,0,1,1-4.62,2.67,2.67,0,0,1,3.69.81" transform="translate(-24.61 -21.27)"/><path class="cls-12" d="M278.19,121.52a5.94,5.94,0,0,1-7,4.69,4.75,4.75,0,0,1-3.75-5.56,3.8,3.8,0,0,1,4.46-3,3,3,0,0,1,2.4,3.56,2.44,2.44,0,0,1-2.85,1.92,1.94,1.94,0,0,1-1.53-2.28" transform="translate(-24.61 -21.27)"/><path class="cls-14" d="M278.19,121.52a5.94,5.94,0,0,1-7,4.69,4.75,4.75,0,0,1-3.75-5.56,3.8,3.8,0,0,1,4.46-3,3,3,0,0,1,2.4,3.56,2.44,2.44,0,0,1-2.85,1.92,1.94,1.94,0,0,1-1.53-2.28" transform="translate(-24.61 -21.27)"/><path class="cls-12" d="M308.3,151.47a5.94,5.94,0,0,1,6.26,5.6,4.75,4.75,0,0,1-4.48,5,3.79,3.79,0,0,1-4-3.58,3,3,0,0,1,2.86-3.2,2.43,2.43,0,0,1,2.57,2.29,2,2,0,0,1-1.84,2" transform="translate(-24.61 -21.27)"/><path class="cls-14" d="M308.3,151.47a5.94,5.94,0,0,1,6.26,5.6,4.75,4.75,0,0,1-4.48,5,3.79,3.79,0,0,1-4-3.58,3,3,0,0,1,2.86-3.2,2.43,2.43,0,0,1,2.57,2.29,2,2,0,0,1-1.84,2" transform="translate(-24.61 -21.27)"/><path class="cls-12" d="M284.15,153.11a5.94,5.94,0,0,1,6.77,5,4.75,4.75,0,0,1-4,5.42,3.81,3.81,0,0,1-4.34-3.17,3,3,0,0,1,2.54-3.47,2.43,2.43,0,0,1,2.77,2,2,2,0,0,1-1.63,2.22" transform="translate(-24.61 -21.27)"/><path class="cls-14" d="M284.15,153.11a5.94,5.94,0,0,1,6.77,5,4.75,4.75,0,0,1-4,5.42,3.81,3.81,0,0,1-4.34-3.17,3,3,0,0,1,2.54-3.47,2.43,2.43,0,0,1,2.77,2,2,2,0,0,1-1.63,2.22" transform="translate(-24.61 -21.27)"/><path class="cls-12" d="M302.64,146.13a5.59,5.59,0,0,1,5.31,5.85,4.48,4.48,0,0,1-4.68,4.25,3.59,3.59,0,0,1-3.41-3.75,2.86,2.86,0,0,1,3-2.72,2.29,2.29,0,0,1,2.18,2.39,1.83,1.83,0,0,1-1.92,1.74" transform="translate(-24.61 -21.27)"/><path class="cls-17" d="M302.64,146.13a5.59,5.59,0,0,1,5.31,5.85,4.48,4.48,0,0,1-4.68,4.25,3.59,3.59,0,0,1-3.41-3.75,2.86,2.86,0,0,1,3-2.72,2.29,2.29,0,0,1,2.18,2.39,1.83,1.83,0,0,1-1.92,1.74" transform="translate(-24.61 -21.27)"/><path class="cls-12" d="M317.78,139.86a7.58,7.58,0,0,1,9.67-4.64,6.08,6.08,0,0,1,3.71,7.74,4.86,4.86,0,0,1-6.2,3,3.88,3.88,0,0,1-2.37-4.95,3.11,3.11,0,0,1,4-1.9,2.49,2.49,0,0,1,1.51,3.17" transform="translate(-24.61 -21.27)"/><path class="cls-14" d="M317.78,139.86a7.58,7.58,0,0,1,9.67-4.64,6.08,6.08,0,0,1,3.71,7.74,4.86,4.86,0,0,1-6.2,3,3.88,3.88,0,0,1-2.37-4.95,3.11,3.11,0,0,1,4-1.9,2.49,2.49,0,0,1,1.51,3.17" transform="translate(-24.61 -21.27)"/><path class="cls-3" d="M262.18,149.07a20.47,20.47,0,0,1-7.15,3.33c-3.67.71-7.52-.49-9.27-5.76,0,0-.9,7.79,8.31,8.7a10.77,10.77,0,0,0,8.38-3.22" transform="translate(-24.61 -21.27)"/><path class="cls-12" d="M271.93,146.91a8,8,0,0,1,11,2.71,6.41,6.41,0,0,1-2.17,8.79,5.12,5.12,0,0,1-7-1.74A4.1,4.1,0,0,1,275.1,151a3.28,3.28,0,0,1,4.51,1.12,2.62,2.62,0,0,1-.89,3.59" transform="translate(-24.61 -21.27)"/><path class="cls-18" d="M271.93,146.91a8,8,0,0,1,11,2.71,6.41,6.41,0,0,1-2.17,8.79,5.12,5.12,0,0,1-7-1.74A4.1,4.1,0,0,1,275.1,151a3.28,3.28,0,0,1,4.51,1.12,2.62,2.62,0,0,1-.89,3.59" transform="translate(-24.61 -21.27)"/><path class="cls-5" d="M234.57,103.4c-6.47-28.82-28-33.12-40.31-33.12a53.39,53.39,0,0,0-7.6.54c-10,1.44-13.82,3-15.6,8.71l0,.1-1.79,6.45c-.35,1-.89,3.43.44,5.31a4.22,4.22,0,0,0,3.49,1.76h.39c.61,0,1.12-.07,1.56-.07a9.75,9.75,0,0,1,2.56.35c1.84.43,2.88,1.46,4.24,3.34l.13.19a4.6,4.6,0,0,0,3.78,2.29,4.15,4.15,0,0,0,.74-.07,4.91,4.91,0,0,1,.65,0c.7,0,6.88.14,8.75,4.9.59,1.49.79,3.72-.17,5.07-.33.47-.78.92-2.27.92a17.67,17.67,0,0,1-4.46-.78c-.68-.19-1.61-.5-2.59-.84-2.76-.93-4.53-1.51-5.9-1.48-3.6.05-5.25,3.45-7.36,8.62-1.28,3.13-3.21,7.86.68,10.11a96.89,96.89,0,0,0,9.9,4.38l2.63,1.07c3.38,1.42,4.42,2.78,4.49,3.29s-.35,1.39-2.18,2.89a11.62,11.62,0,0,1-7,2.13,13.82,13.82,0,0,1-10.57-4.8,3.23,3.23,0,0,0-2.27-1.14,7.67,7.67,0,0,1-4.05-1.84,14.72,14.72,0,0,1-2.71-3.11,5.89,5.89,0,0,0-4.79-2.56,4.68,4.68,0,0,0-4.42,2.85c-.28.6-1.29,2.73-1.64,3.64s-1.07,2.57-1.71,4.05c-.41.95-.79,1.82-1,2.4l-.07.18c-.63,1.51-2.56,6.09,1,9.65a68.72,68.72,0,0,0,20.49,14.63l-5.88,13.81,0,.06a4.51,4.51,0,0,0,.09,3.48c1.23,2.88,4.92,4.6,6.45,5.21a15.31,15.31,0,0,0,5.43,1.15c3.62,0,4.86-2,5.24-2.91l7.13-16.78c12.4,0,22.07-5.36,28-9.85,16.24-12.28,22-37.16,18.19-54.12" transform="translate(-24.61 -21.27)"/><path class="cls-19" d="M42.68,125.56h0a.66.66,0,0,1-.63-.68c0-.64,1-6.39,28.86-11.07,38.8-6.51,64.12-.31,64.37-.24a.65.65,0,0,1-.32,1.25c-.25-.06-25.32-6.19-63.84.26-26.68,4.48-27.78,9.82-27.78,9.87a.63.63,0,0,1-.64.61" transform="translate(-24.61 -21.27)"/><path class="cls-5" d="M440,157l-2.17-6.64-.16-.33a7.67,7.67,0,0,1-.5-2.51l2.5-66.18a8.43,8.43,0,0,0-7.27-8.7l-1.56-.21a19.74,19.74,0,0,1,2-7.14,5.71,5.71,0,1,0-4.21-6.32c-2.53,1.83-5.91,5.43-7.41,12.18l-.77-.1a9,9,0,0,0-1.18-.08A10.8,10.8,0,0,0,411,74.75L381,112.14,381.19,79a8,8,0,0,0-8-8.06h-.34l-18,.75A8.22,8.22,0,0,0,347,80.06l.74,67.33v.11a6.8,6.8,0,0,1-.55,2.29l-.22.39-2.27,6.44a7,7,0,0,0,.2,6.57,7.08,7.08,0,0,0,6.22,3.38h29.33a6.83,6.83,0,0,0,6-10.55l-.17-.29,17.08-18.77.23,14.52a6.31,6.31,0,0,1-.57,2.12L401.55,156a6.83,6.83,0,0,0,6,10.62h25.89A6.85,6.85,0,0,0,440,157" transform="translate(-24.61 -21.27)"/><path class="cls-3" d="M77.35,124.61s18.08-6.4,25.69,5.34c3.13,4.81,6.92,23.34-23.59,22.24" transform="translate(-24.61 -21.27)"/><path class="cls-3" d="M81.07,124.17s13.77-4.61,19.39,4.37c2.31,3.68,4.94,17.76-18.15,16.55" transform="translate(-24.61 -21.27)"/><path class="cls-5" d="M125.81,121.72c-3.26-6.8-12.16-18.22-35.06-18.22a79.08,79.08,0,0,0-9.78.64l-.72-8.95,33.22-3.14a6,6,0,0,0,5.43-6.62l-1-9.42a6,6,0,0,0-6-5.38,6.23,6.23,0,0,0-.72,0L56.74,77.11a6.22,6.22,0,0,0-5.43,6.6l6,76.13A7,7,0,0,0,63,166a136.67,136.67,0,0,0,20.13,1.49c19.13,0,32.18-4.18,38.8-12.44a32.07,32.07,0,0,0,6.57-15.83,31.27,31.27,0,0,0-2.7-17.55" transform="translate(-24.61 -21.27)"/><path class="cls-20" d="M57.12,80.31a3,3,0,0,0-2.59,3.15l6,76.13a3.8,3.8,0,0,0,3,3.28s42.45,7,55.9-9.78S126.35,100,78,107.82L77,95.11A2.88,2.88,0,0,1,79.59,92l33.56-3.18a2.8,2.8,0,0,0,2.52-3.08l-1-9.41a2.79,2.79,0,0,0-3.11-2.48" transform="translate(-24.61 -21.27)"/><path class="cls-5" d="M89.43,118.64h0a39.52,39.52,0,0,0-10.38,1.44l-2.47.75.19,2.57,1.79,24.28.21,2.85,2.86.13c1.1.05,2.18.07,3.21.07,11.47,0,19-3.06,22.32-9.08,3.05-5.51,1.42-11.89-.42-14.84-3.35-5.35-9.33-8.18-17.31-8.18" transform="translate(-24.61 -21.27)"/><path class="cls-3" d="M80,123.17s17.38-5.26,24,5.37c2.56,4.09,5.88,20.19-22.24,18.91" transform="translate(-24.61 -21.27)"/><path class="cls-21" d="M431.51,61.71a3.38,3.38,0,1,0-.53-1.06c-2.41,1.44-7,5.41-7.81,15l-3.33-.44a5,5,0,0,0-.64,0,6.74,6.74,0,0,0-5,2.28l-37.5,46.6.32-44.93a3.91,3.91,0,0,0-3.92-3.94H373l-18,.75a4.09,4.09,0,0,0-3.9,4.2l.74,67.35a10.45,10.45,0,0,1-1.06,4.42l-.05.1,0,.1-2.2,6.23a3,3,0,0,0-.05,2.89,3,3,0,0,0,2.68,1.35h29.33a2.73,2.73,0,0,0,2.49-4.35l-.83-1.42a2.62,2.62,0,0,1,.29-2.77l25-27.43.39,24.92a9.85,9.85,0,0,1-1.17,4.32l-1.48,2.45a2.76,2.76,0,0,0-.23,2.9,2.84,2.84,0,0,0,2.67,1.34h25.87a2.94,2.94,0,0,0,2.69-1.24,2.8,2.8,0,0,0,0-2.75L434,152.07l0-.08,0-.08a11.39,11.39,0,0,1-.91-4.5l2.5-66.15a4.34,4.34,0,0,0-3.7-4.43l-4.73-.63c.23-4.26,1.11-11.6,4.43-14.48" transform="translate(-24.61 -21.27)"/><path class="cls-3" d="M436,59.72a1.69,1.69,0,1,1-1.7-1.7,1.7,1.7,0,0,1,1.7,1.7" transform="translate(-24.61 -21.27)"/><path class="cls-22" d="M132.45,158.79a4,4,0,1,1-4-4,4,4,0,0,1,4,4" transform="translate(-24.61 -21.27)"/><path class="cls-3" d="M130,157.4a1,1,0,1,1-1-1,1,1,0,0,1,1,1" transform="translate(-24.61 -21.27)"/><path class="cls-22" d="M50.63,113.74A2.67,2.67,0,1,1,48,111.07a2.66,2.66,0,0,1,2.67,2.66" transform="translate(-24.61 -21.27)"/><path class="cls-3" d="M49,112.74a.67.67,0,0,1-1.34,0,.67.67,0,1,1,1.34,0" transform="translate(-24.61 -21.27)"/><path class="cls-22" d="M67.78,70.64a2.71,2.71,0,1,1-2.71-2.71,2.71,2.71,0,0,1,2.71,2.71" transform="translate(-24.61 -21.27)"/><path class="cls-3" d="M66.19,69.78a.68.68,0,1,1-.68-.68.68.68,0,0,1,.68.68" transform="translate(-24.61 -21.27)"/><path class="cls-22" d="M96.43,138.76a4.61,4.61,0,1,1-4.61-4.61,4.61,4.61,0,0,1,4.61,4.61" transform="translate(-24.61 -21.27)"/><path class="cls-3" d="M93.55,137a1.15,1.15,0,1,1-1.15-1.15A1.15,1.15,0,0,1,93.55,137" transform="translate(-24.61 -21.27)"/><path class="cls-22" d="M126.9,104.84a3.46,3.46,0,1,1-3.46-3.45,3.46,3.46,0,0,1,3.46,3.45" transform="translate(-24.61 -21.27)"/><path class="cls-3" d="M125.15,103.51a.86.86,0,1,1-.86-.87.86.86,0,0,1,.86.87" transform="translate(-24.61 -21.27)"/><path class="cls-22" d="M125.93,84.83a2.3,2.3,0,1,1-2.3-2.3,2.31,2.31,0,0,1,2.3,2.3" transform="translate(-24.61 -21.27)"/><path class="cls-3" d="M124.84,84.09a.58.58,0,1,1-.58-.58.58.58,0,0,1,.58.58" transform="translate(-24.61 -21.27)"/><path class="cls-23" d="M102.49,97.27a.77.77,0,1,0,.77.77.77.77,0,0,0-.77-.77m-.64,5.13a3.07,3.07,0,0,1-3.08-3v-.11a3.07,3.07,0,1,1,3.08,3.13" transform="translate(-24.61 -21.27)"/><path class="cls-3" d="M102.49,98.81a.77.77,0,1,1,.77-.77.77.77,0,0,1-.77.77" transform="translate(-24.61 -21.27)"/><path class="cls-24" d="M140.54,157.14l-6-73.91c-.2-2.48-4.12-13.37-14.29-20.09-1.3-.86-2.59-1.63-3.72-2.31A28.48,28.48,0,0,1,112,57.71l.39-.2c3.5-1.92,4-4.48,3.76-6.33a1.42,1.42,0,0,0-.2-.84V50.1c-.15-1.23-.59-5-32.49-2.91-20.68,1.33-29.65,3-32,6.15a3,3,0,0,0-.59,2.32,1.3,1.3,0,0,0,.24.84,8.73,8.73,0,0,0,4,4.82l.76.34c-.93,1.7-3.18,3.75-5.53,5.88l-1.49,1.36C40,77.16,37.84,88.53,38,91l6,73.91c.36,4.45,4.4,9.67,9,11.65,6.41,3.5,17.47,5.43,30.24,5.43,3.51,0,7.15-.15,10.85-.44,20.16-1.63,37.27-7.35,42.55-14.21,2.58-3,4.14-7.09,3.89-10.2M54,57.82a58.78,58.78,0,0,0,11.36.76h0c5,0,11.25-.24,18.63-.7,19.35-1.22,27-3,30.05-4.44a5.52,5.52,0,0,1-2.52,2.43c-3.66,2-13.56,3.47-27.89,4.11-4.14.18-7.66.37-10.48.52-4.43.24-7.64.4-10,.4-3.35,0-5.13-.32-7.08-1.28A5.63,5.63,0,0,1,54,57.82M53,54.46c2.39-3.2,17.6-4.57,30.58-5.4,24.1-1.54,30.19.4,30.51,1.27a.92.92,0,0,0,.12.35.91.91,0,0,0,0,.32v.07c-.47.6-4,3.28-30.4,4.94-7.35.46-13.57.7-18.51.7h0c-9.76,0-12-.91-12.52-1.22l0-.06a1.12,1.12,0,0,1,.23-1m82.18,111.7c-4.93,6.4-21.89,12-41.25,13.52-16.62,1.34-32.35-.54-40.08-4.78l-.09,0c-4.4-1.87-7.65-6.73-7.93-10.1l-6-73.91c-.17-2.19,2-12.9,10.29-20.59l1.48-1.35c2.75-2.5,5.07-4.61,6.07-6.66a21.47,21.47,0,0,0,5.35.52c2.43,0,5.66-.17,10.12-.41,2.82-.15,6.33-.33,10.46-.52,9-.41,20.42-1.32,26.47-3.39a22.75,22.75,0,0,0,5.45,4c1.17.7,2.38,1.43,3.65,2.27,9.46,6.25,13.28,16.49,13.45,18.68l6,73.91c.21,2.64-1.17,6.19-3.48,8.87" transform="translate(-24.61 -21.27)"/><path class="cls-3" d="M63.1,60.91c2.38,0,5.59-.17,10-.4,2.82-.15,6.33-.34,10.48-.52,14.33-.64,24.23-2.1,27.89-4.11A5.51,5.51,0,0,0,114,53.44C111,54.88,103.31,56.66,84,57.88c-7.38.47-13.65.7-18.63.7h0A58.8,58.8,0,0,1,54,57.82,5.64,5.64,0,0,0,56,59.63c1.95,1,3.73,1.28,7.08,1.28" transform="translate(-24.61 -21.27)"/><path class="cls-3" d="M373.81,140.11a7.69,7.69,0,1,1-7.69-7.69,7.7,7.7,0,0,1,7.69,7.69" transform="translate(-24.61 -21.27)"/><path class="cls-5" d="M371.62,140a3.47,3.47,0,1,1-3.47-3.47,3.48,3.48,0,0,1,3.47,3.47" transform="translate(-24.61 -21.27)"/><path class="cls-5" d="M358.42,141.92s.46-6.61,6.76-8c5.56-1.23,8.77,5,8.77,5s-.53-7.17-7-7.42a8.1,8.1,0,0,0-8.56,10.43" transform="translate(-24.61 -21.27)"/><path class="cls-5" d="M358.72,138.27a7.59,7.59,0,0,1-5.86,1.81s4.63-1.35,6.61-4.05" transform="translate(-24.61 -21.27)"/><path class="cls-5" d="M371.84,134.61a7.58,7.58,0,0,0,5.49-2.72s-4.27,2.2-7.57,1.6" transform="translate(-24.61 -21.27)"/><path class="cls-5" d="M360.15,135.17s-4.37-1-5.36-4.16c0,0,3.2,3,6.55,3.07" transform="translate(-24.61 -21.27)"/><path class="cls-5" d="M368.28,132.37s2.62-3.64,1.32-6.64c0,0-.47,4.33-2.93,6.6" transform="translate(-24.61 -21.27)"/><path class="cls-5" d="M363.64,132.49a11.3,11.3,0,0,1-2.43-6.53A16.25,16.25,0,0,0,365,132" transform="translate(-24.61 -21.27)"/><path class="cls-3" d="M371,95.1a7.17,7.17,0,1,1-5.46-8.53A7.17,7.17,0,0,1,371,95.1" transform="translate(-24.61 -21.27)"/><path class="cls-5" d="M368,96.45a3.44,3.44,0,1,1-2.62-4.11A3.44,3.44,0,0,1,368,96.45" transform="translate(-24.61 -21.27)"/><path class="cls-5" d="M356.82,91.89s2.27-5.43,8.19-4.81c5.23.55,6.33,6.85,6.33,6.85s1-6.64-4.2-8.33c-7.45-2.41-10.49,4-10.33,6.3" transform="translate(-24.61 -21.27)"/><path class="cls-5" d="M357.06,91a6.68,6.68,0,0,1-5.32.86s4.17-.61,6.22-2.72" transform="translate(-24.61 -21.27)"/><path class="cls-5" d="M370.58,89.48a6.69,6.69,0,0,0,5.1-1.71s-4,1.39-6.77.48" transform="translate(-24.61 -21.27)"/><path class="cls-5" d="M358.69,87.9s-3.68-1.44-4.15-4.27c0,0,2.42,3,5.31,3.46" transform="translate(-24.61 -21.27)"/><path class="cls-5" d="M367.15,86.33s2.72-2.85,2-5.61c0,0-.94,3.7-3.34,5.38" transform="translate(-24.61 -21.27)"/><path class="cls-5" d="M362.34,86.22a9.89,9.89,0,0,1-1.32-6A14.07,14.07,0,0,0,363.58,86" transform="translate(-24.61 -21.27)"/><path class="cls-3" d="M401.27,125.21a6.45,6.45,0,1,1-4.17-8.1,6.45,6.45,0,0,1,4.17,8.1" transform="translate(-24.61 -21.27)"/><path class="cls-5" d="M396.46,123.79a3,3,0,1,1-2-3.82,3,3,0,0,1,2,3.82" transform="translate(-24.61 -21.27)"/><path class="cls-5" d="M388.79,121.1a7.51,7.51,0,0,1,8-3c4.59,1.18,4.75,6.9,4.75,6.9s2.09-6.25-2.62-8.49a6.93,6.93,0,0,0-10.14,4.65" transform="translate(-24.61 -21.27)"/><path class="cls-5" d="M390.08,119.12a5.63,5.63,0,0,1-4.48-.76s3.49.64,5.7-.47" transform="translate(-24.61 -21.27)"/><path class="cls-5" d="M401.36,121.64a6.73,6.73,0,0,0,4.89,0s-3.55,0-5.53-1.47" transform="translate(-24.61 -21.27)"/><path class="cls-5" d="M392.15,117.07s-2.54-2.14-2.14-4.53a9.38,9.38,0,0,0,3.4,4" transform="translate(-24.61 -21.27)"/><path class="cls-5" d="M399.67,118s2.94-1.53,3.1-3.95c0,0-1.77,2.69-4.14,3.37" transform="translate(-24.61 -21.27)"/><path class="cls-5" d="M395.6,115.87a8.42,8.42,0,0,1,.71-5,11.79,11.79,0,0,0,.47,5.25" transform="translate(-24.61 -21.27)"/><path class="cls-3" d="M425.59,147.19A6.14,6.14,0,1,1,421,139.8a6.14,6.14,0,0,1,4.54,7.39" transform="translate(-24.61 -21.27)"/><path class="cls-5" d="M423.31,146.08a3.06,3.06,0,1,1-2.26-3.69,3.07,3.07,0,0,1,2.26,3.69" transform="translate(-24.61 -21.27)"/><path class="cls-5" d="M413.45,144.06s2.52-4.44,7.56-3.54c4.44.79,4.89,6.4,4.89,6.4s1.54-5.56-3.28-7.6c-6.19-2.63-9.18,2.76-9.17,4.73" transform="translate(-24.61 -21.27)"/><path class="cls-5" d="M414.71,141.81a6.22,6.22,0,0,1-5-.46s3.9.42,6.24-1" transform="translate(-24.61 -21.27)"/><path class="cls-5" d="M425.61,143.48a7.49,7.49,0,0,0,5.49-.31s-3.91.31-6.21-1.16" transform="translate(-24.61 -21.27)"/><path class="cls-5" d="M416.28,139.73s-3-2.15-2.73-4.82c0,0,1.47,3.24,4,4.37" transform="translate(-24.61 -21.27)"/><path class="cls-5" d="M423.62,140.42s3.44-2.18,3.41-4.86c0,0-1.73,3.12-4.28,4.05" transform="translate(-24.61 -21.27)"/><path class="cls-5" d="M419.75,138.85a9.22,9.22,0,0,1,.22-5.68,13.07,13.07,0,0,0,.95,5.75" transform="translate(-24.61 -21.27)"/><path class="cls-3" d="M426.39,100.26a7.66,7.66,0,1,1-5.17-9.53,7.67,7.67,0,0,1,5.17,9.53" transform="translate(-24.61 -21.27)"/><path class="cls-5" d="M420.91,100.82a3.38,3.38,0,1,1-2.27-4.2,3.37,3.37,0,0,1,2.27,4.2" transform="translate(-24.61 -21.27)"/><path class="cls-5" d="M411.42,96a8.5,8.5,0,0,1,9.18-4.33c5.67,1.08,6.11,8.28,6.11,8.28s2-7.54-3.54-9.92c-7.78-3.34-11.73,3.46-11.75,6" transform="translate(-24.61 -21.27)"/><path class="cls-5" d="M412.15,94.08a7.26,7.26,0,0,1-5.83-.62s4.56.55,7.32-1.07" transform="translate(-24.61 -21.27)"/><path class="cls-5" d="M426.52,95.41a7.25,7.25,0,0,0,5.83.61s-4.58-.42-6.93-2.59" transform="translate(-24.61 -21.27)"/><path class="cls-5" d="M414.75,91.47s-3.45-2.57-3.13-5.68c0,0,1.68,3.8,4.58,5.16" transform="translate(-24.61 -21.27)"/><path class="cls-5" d="M424.5,92.06s3.69-2.22,3.68-5.35c0,0-2,3.63-5.07,4.69" transform="translate(-24.61 -21.27)"/><path class="cls-5" d="M419.36,89.87a10.8,10.8,0,0,1,.33-6.66,15.39,15.39,0,0,0,1,6.76" transform="translate(-24.61 -21.27)"/><path class="cls-25" d="M178.43,182.89c-.48,1.19-3.33,1.17-6.39,0s-5.17-3.17-4.68-4.37L179,151c.46-1.19,3.33-1.17,6.38,0s5.16,3.17,4.68,4.36" transform="translate(-24.61 -21.27)"/><path class="cls-26" d="M156.86,130.12a27,27,0,0,0-2.73,4.76c-.75,1.44-1.69,3.81-2.31,5.31s-1.86,4.13.22,6.21c26.12,26.14,49.8,18.17,62.58,8.5,15.25-11.54,20.5-35,17-50.75-6.86-30.56-32-31.78-44.2-30-10.2,1.47-11.8,2.84-12.91,6.42l-1.81,6.54c-.21.62-.76,2.9.9,2.77a13.84,13.84,0,0,1,5.13.35c3,.69,4.62,2.48,6.17,4.62.42.58.73,1.21,1.39,1.1,1.94-.35,10.38.08,13.06,6.91.86,2.2,1.25,5.66-.54,8.19-2,2.87-5.54,2.75-10.33,1.42-2.22-.62-6.22-2.22-7.56-2.2s-2.31,1.58-4.34,6.56c-1.76,4.32-1.64,5.46-.72,6,2.67,1.55,9.31,4.07,12.16,5.27,6.44,2.71,9.24,6.8,3.13,11.8-4.79,3.92-15.51,4.67-22.21-3.07a16.59,16.59,0,0,1-6.84-2.51c-3.07-1.87-2.87-6.42-5.17-4.16" transform="translate(-24.61 -21.27)"/><path class="cls-27" d="M224.6,113.3c-4-19.44-10.13-28.1-26.29-33.07-.95-.29-1.05-1.15-.08-1.06,0,0,24.8,2.34,27.32,34.31.08,1-.71,1-1-.18" transform="translate(-24.61 -21.27)"/><path class="cls-19" d="M75.76,133.49c-14.46,0-26-2.69-33-7.74,0,0,0-.4-.06-.84a.45.45,0,0,1,.71-.3l.19.15c8.68,6.22,25.16,8.7,45.22,6.79,33.54-3.19,45.06-17.21,45.17-17.35s1.06-.52,1.23-.21a2.57,2.57,0,0,1,.07.54c0,.3.05.28-.06.41-.49.58-12.13,14.64-46.29,17.89-4.6.44-9,.65-13.12.65" transform="translate(-24.61 -21.27)"/><path class="cls-21" d="M441.31,72a.58.58,0,0,1-.31-1.08,12.66,12.66,0,1,0-18.84-14.48A.58.58,0,0,1,421,56.1a13.83,13.83,0,1,1,20.57,15.82.58.58,0,0,1-.31.09" transform="translate(-24.61 -21.27)"/><path class="cls-21" d="M445.21,76.26a.62.62,0,0,1-.36-1.12,18.28,18.28,0,1,0-28.9-14.88c0,.18,0,.37,0,.55a.62.62,0,0,1-.6.64.61.61,0,0,1-.64-.6c0-.19,0-.39,0-.58a19.52,19.52,0,1,1,30.86,15.89.62.62,0,0,1-.36.12" transform="translate(-24.61 -21.27)"/><path class="cls-21" d="M448.14,81.14a.64.64,0,0,1-.36-1.16,23.88,23.88,0,1,0-36.1-11.79.64.64,0,1,1-1.2.42A25.16,25.16,0,1,1,448.5,81a.63.63,0,0,1-.36.11" transform="translate(-24.61 -21.27)"/><path class="cls-5" d="M303.71,99a2,2,0,0,0-3-1.57L291,103.15l-11.82-4.23a2,2,0,0,0-2.64,2.1l1.82,15.5a2,2,0,0,0,3.11,1.39l10.05-7L302,114.77a2,2,0,0,0,2.66-2" transform="translate(-24.61 -21.27)"/><path class="cls-5" d="M530.31,120c-.77-.77-1.54-1.57-2.35-2.4-5-5.22-10.67-11-18.56-12.55L509.1,99a5.56,5.56,0,0,0,2.61-4.7,5.67,5.67,0,0,0-11.34,0A5.56,5.56,0,0,0,503,99l-.61,6c-8.08,1.08-13.72,6.32-19.19,11.41-1.29,1.2-2.61,2.43-4,3.61-6,.93-11.92,2.74-11.92,7.38v.34c0,6.29,13.88,8.45,14.47,8.53,5.86.88,17.48,1.29,23.49,1.29,8.12,0,19.76-.69,23.35-1.14,5.38-.67,12.79-3.48,13.92-7.74,0-.1.05-.19.07-.29a4.73,4.73,0,0,0,.11-1c0-4.88-6.67-6.37-12.38-7.27" transform="translate(-24.61 -21.27)"/><path class="cls-28" d="M515.82,102.74a.63.63,0,0,1-.37-.12.64.64,0,0,1-.15-.89,11.14,11.14,0,1,0-18.76-.92.64.64,0,0,1-1.1.64,12.42,12.42,0,1,1,20.9,1,.64.64,0,0,1-.52.27" transform="translate(-24.61 -21.27)"/><path class="cls-28" d="M521.44,104.89a.63.63,0,0,1-.32-.09.64.64,0,0,1-.22-.87,17,17,0,1,0-29.63-.47.64.64,0,1,1-1.12.61,18.31,18.31,0,1,1,31.84.51.64.64,0,0,1-.55.31" transform="translate(-24.61 -21.27)"/><path class="cls-28" d="M525.56,107.52a.64.64,0,0,1-.54-1,22.35,22.35,0,1,0-38.41-1.3.64.64,0,0,1-1.12.61,23.63,23.63,0,1,1,40.6,1.38.64.64,0,0,1-.54.29" transform="translate(-24.61 -21.27)"/><path class="cls-28" d="M479.25,123.81l49.47-1.5c-8.29-6.72-11.51-13.42-21.37-14.16l-.52-10.55a3.38,3.38,0,1,0-1.65,0l-1,10.48c-10.52.59-16,8.5-25,15.7" transform="translate(-24.61 -21.27)"/><path class="cls-29" d="M540.31,127a2.45,2.45,0,0,0-1.41-2.11c-2.34-1.3-6.68-2.33-10.72-3a205.66,205.66,0,0,0-23.34-1.44c-8.32,0-19.82.89-23,1.29-5.56.71-9.11,2-10.94,3.24a2.16,2.16,0,0,0-1.1,1.81l0,.15a1.29,1.29,0,0,0,0,.23,2.18,2.18,0,0,0,.88,1.58c2.26,2,7.15,4.12,11.27,4.75,5.5.85,17,1.3,23.2,1.3,8.27,0,19.93-.74,23.1-1.15,4.86-.63,10.93-3.41,11.92-5.49a2,2,0,0,0,.18-1l0-.22" transform="translate(-24.61 -21.27)"/><path class="cls-3" d="M504.64,124.56a229,229,0,0,0-34.78,2.25,1.51,1.51,0,0,0,.22,1.37c9-1.46,20.36-2.2,34.57-2.2a237.44,237.44,0,0,1,35.5,2.34,2.67,2.67,0,0,0,.17-1.36,237.75,237.75,0,0,0-35.67-2.39" transform="translate(-24.61 -21.27)"/><path class="cls-5" d="M504.64,119.05c-14,0-22.78,1-32.61,3.06-.15.5,3.16.54,3.44.93,5.27-1.22,14.92-2.36,29.13-2.36,14,0,21.5.88,29.35,2.39.22-.67,4.39-.44,4.34-.74-7.07-1.73-19.59-3.29-33.65-3.29" transform="translate(-24.61 -21.27)"/><path class="cls-28" d="M505.81,133.33a58.71,58.71,0,0,0-14.91,1.87,20.58,20.58,0,0,0,13.89,5.14h.38c8.43,0,12.11-2.53,14.89-5a48.72,48.72,0,0,0-14.25-2" transform="translate(-24.61 -21.27)"/><path class="cls-5" d="M523,134.69a3,3,0,0,0-2.07-2.26,51.51,51.51,0,0,0-15.15-2.14,61.42,61.42,0,0,0-15.76,2,3,3,0,0,0-1.32,5,23.61,23.61,0,0,0,16,6.05h.41c9.15,0,13.54-2.77,16.91-5.77a3,3,0,0,0,.95-2.91m-18.24,5.64a20.57,20.57,0,0,1-13.89-5.14,58.69,58.69,0,0,1,14.91-1.87,48.69,48.69,0,0,1,14.25,2c-2.78,2.47-6.47,5-14.89,5h-.38" transform="translate(-24.61 -21.27)"/><path class="cls-3" d="M515.23,112.26c1.9,1.11,4.43,3,5.54,5,0,0-1.88.66-3.89-1.56a21.24,21.24,0,0,0-8.14-5.24s2.35-.61,6.49,1.82" transform="translate(-24.61 -21.27)"/><path class="cls-3" d="M507.72,94.35a1.7,1.7,0,1,1-1.69-1.7,1.7,1.7,0,0,1,1.69,1.7" transform="translate(-24.61 -21.27)"/><path class="cls-5" d="M189.39,166.12c-7.34.24-14.13-1.34-21.63-5l.9-1.95c7.68,3.41,14,5,22.34,4.87l-.77,1.19" transform="translate(-24.61 -21.27)"/><g class="cls-30"><path class="cls-3" d="M78.63,33.61c-11.46,1-33.49,4.42-40,13.81-5.3,7.66-.78,16.35-2.33,22.58S23.53,75.59,24.7,106c1.21,31.33,4.93,64.34,15.26,81.13,9.64,15.66,53.61,12.89,80.62,5.62s21.65-13,29.45-5.75,24.4,18.2,45,6.28c19.13-11.07,22.07-17.62,32.86-16.61,15.53,1.44,13.06,7.17,27.09,14.44,8.95,4.64,18,3.91,26.08,3.18,4.58-.41,8.85-.83,12.6-.27,10.39,1.56,24.35-.13,34.27-6.52,11.19-7.22,18.24-6.59,31.78-6.14,10.83.36,21.76-.36,29.61-.36,11.59,0,24.43-.12,34.31,0,29.61.36,28.91-3.65,36.7-15.08s6.93-14.43,26.86-9.12c27.08,7.22,36.32,0,50.2-2.53a32.6,32.6,0,0,1,31,11.64c8.74,10.58,11.26,16.44,36.39,15.9,18.81-.4,19.66-5.76,26.42-8.36,3.38-1.3,5.08,1,10.39,3.23s14.19,4.51,31.93,3.24a212.08,212.08,0,0,1,24.32-.42c6.23.21,10.43.42,15.31-.66,9.35-2.08,13.79-11.27,17-7.55,6.47,7.55,16.49,8.34,32.08,7.82s16.6-4.91,25.88-3c5.12,1.08,25.77,11.76,51.22,1.89s32.18-18.82,43.85-12.07c24.62,14.23,33.84,15.32,54.1,15.53,25.61.27,40.22-2.54,54.62-11.25,17.27-10.44,33.8-46,18.48-72.3-19.27-33.13-10.7-44.2-26.3-41.22-10.76,2.06-13.9,7.25-18.06-.54S955.2,32.8,950.89,32c-3.45-.64-7.25,3-11,6.62s-7.46,7.37-10.6,6.59c-6.23-1.56-11.32-14-18.86-12.13-6.07,1.51-11.15,20.58-16.92,29.59-1.94,3-12.61-2.36-30.79-2.36s-23.23,8.59-28.94,8.59-8.26-8.86-31.44-8.59S776,65.4,766.15,65.91s-.26-8.54-5-23.41c-5.89-18.43-39.41-27.33-54.72-4-8.48,12.9.76,24.58-3,28.37-3,3-11-7.51-32-8.21-4.11-.14-9.4,0-18.06,0-14.42,0-18.7,4.45-23.83,4.69-5.4.26-9.75-3.25-22-4.69a41.85,41.85,0,0,0-22,3.25c-9.23,4-14,11-18.06,15.17-6.68,7-19.28,13.77-28.89-3.61-13.21-23.89-45.11-22.63-57.3-14.92-9.84,6.22-2.64-17.22-24.67-30.94-19.58-12.2-47.55-7-58.86,18.78-6.89,15.72-25,15.17-37.57,15.3-21.3.23-27.08,9.62-33.58,2-11-12.85-8.47-19.82-24.11-26.29-14.26-5.9-27,1.26-36.66,5.12-3.21,1.29-6.71,1.07-10.74.86-6.12-.32-13.47-.65-23,4.26-15.28,7.91-13.28,14-18.87,12.94-15.37-3-30.19-5.93-49.33,2.7-21.18,9.55-29.94.77-34.68-13.45-6.43-19.28-28.2-18.09-50.5-16.2" transform="translate(-24.61 -21.27)"/></g><path class="cls-5" d="M983.45,70.46c-1.53,0-3.34,1.72-4.93,4.58a6.57,6.57,0,0,0-2.22,1.74A19.39,19.39,0,0,0,973,84.2c-.69-1-1.54-.47-2-.16-2,1.47-3,3.76-4,9.63a3.29,3.29,0,0,0-1.95,2.1,15.78,15.78,0,0,0,.68,9.92c-.84-.4-1.75.07-1.59,2a22.1,22.1,0,0,0-4-1.88c-.41-.14-1.29-.39-1.6-.47a.87.87,0,0,0,.37-.4c.46-1.15-.67-2.58-2-3.63s-4.1-1.76-7.16-1.82c.64-.28.41-1.13.3-1.33-.32-.61-1.35-2.18-5.19-2.32a15.76,15.76,0,0,0-4.49.53s-.44-1-2.82-1.61-3.62,0-3.54-1c2.18.08,5.85-.12,7.46-.23A50.71,50.71,0,0,0,951,92.25c2.94-.75,5.64-2.36,6.78-4.52a16.28,16.28,0,0,0,2-8c0-2.2-.86-5.27-2.52-6.88-1.47-1.43-3.2-2.39-6.75-2.13a15.32,15.32,0,0,0,1.06-4.35,12.88,12.88,0,0,0-.78-5.44,6.24,6.24,0,0,0-.89-4.74,5.37,5.37,0,0,0-.8-4c.16-1.34,0-2.84-.83-3.64,0,0-.32-3.6-3-4.12-.74-.15-1.89.17-3.08,2-.8,1.23-1.59,2.92-2.92,4.93a36.61,36.61,0,0,1-3.87,4.53,22,22,0,0,0-5,8.9,50.28,50.28,0,0,0-1.28,6.17h-2.51a19,19,0,0,0-1.2-6.17,26.44,26.44,0,0,0-5.4-9.16c-1.56-1.85-2.78-2.47-3.79-4.27-.82-1.47-1.42-3.58-2.65-4.88-1.81-1.91-3.3-2.16-4-1.87-2.33,1-2.42,4.26-2.42,4.26-.85.8-1,2.3-.83,3.64a5.38,5.38,0,0,0-.8,4,6.23,6.23,0,0,0-.89,4.74,10.1,10.1,0,0,0-1.1,5.52,14.43,14.43,0,0,0,.81,4.54,22.69,22.69,0,0,0-2.53.34,11,11,0,0,0-3.75,1.6c-2.11,1.34-3.73,4.07-4,9.16a3.3,3.3,0,0,0,.39,1.76,14.9,14.9,0,0,0-1.52,11.37,3.27,3.27,0,0,0,.42.93,26.18,26.18,0,0,0-1.4,7,3.3,3.3,0,0,0,1,2.57,21,21,0,0,0-.87,7.69,3.29,3.29,0,0,0,.92,1.92,19.32,19.32,0,0,0-.89,8.79,3.29,3.29,0,0,0,1.14,2.15c-2,5.41-1.05,9.18-.91,9.67a3.3,3.3,0,0,0,1.42,1.89,15,15,0,0,0-.44,7,3.31,3.31,0,0,0,.91,1.63,12.74,12.74,0,0,0,1.14,9.55,3.29,3.29,0,0,0,2.9,1.73,3.26,3.26,0,0,0,.46,0,15.2,15.2,0,0,0,3.56,4.68,3.29,3.29,0,0,0,2.08.79l.2.26a3.3,3.3,0,0,0,2.5,1.14,3.4,3.4,0,0,0,.47,0,17.05,17.05,0,0,0,2.7-.64,3.3,3.3,0,0,0,1.66,1.32,8.51,8.51,0,0,0,2.76.41,12.22,12.22,0,0,0,4.77-1A3.29,3.29,0,0,0,922,167a7.18,7.18,0,0,0,.9.05,16.32,16.32,0,0,0,6.47-1.54,3.29,3.29,0,0,0,2.67,1.37h.2a24.45,24.45,0,0,0,7.63-1.94,3.41,3.41,0,0,0,.22.38,3.29,3.29,0,0,0,3.75,1.27c1-.32,5.87-2,8-3.53l.09-.07a3.3,3.3,0,0,0,2,.68,3.25,3.25,0,0,0,1-.17c.87-.29,8.61-3,12-8.45a26.81,26.81,0,0,0,1.74-3.77,38.07,38.07,0,0,0,7.15,1.25c8.47.14,13.24-2.65,13.95-3.26a5,5,0,0,0,1.94-2.71c3.42-.94,4.44-2.57,4.86-3.47a1.91,1.91,0,0,0-.9-2.43,13.15,13.15,0,0,0,4.23-4.65c.51-1.2.49-2.91-1.46-3a17.35,17.35,0,0,0,3.26-7.29c.16-1.35,0-3.4-1.73-2.91a41,41,0,0,0,.62-4.51,24.34,24.34,0,0,0-.14-4.88c-.17-1.44-.28-3.1-1.32-3.52-.78-.31-1.79,1.11-1.8,1.11.15-1.27.31-1.93.42-3.05.21-2.15.07-3.19-1-3.33a3.93,3.93,0,0,0-1.94.49,32.37,32.37,0,0,1,.14-4.37c.09-1.23.21-2.5-1.11-2.84a2.37,2.37,0,0,0-1.87.62c.14-1.75.41-4.21.42-4.23.14-1.11.14-2.77-1.87-2.36a16.78,16.78,0,0,0,.42-2.36c.1-1.35.21-1.94-.35-2.43-.34-.3-1-.35-2.29.21a9.38,9.38,0,0,0,1.53-3.33c.12-1.24-.83-1.53-1.67-1.18a13.57,13.57,0,0,0,1.11-4.16c-.11-2.83-2.08-2.43-2.08-2.43.13-1,.28-2.08-.35-2.5s-1.39,0-2,.28c0,0,1-3.61-1.32-3.61" transform="translate(-24.61 -21.27)"/><path class="cls-31" d="M993.52,134.77c5.47-2.63,6.28-9.72,6.28-9.72-3.44,3.24-5.27,3.94-5.06,3.64a14.46,14.46,0,0,0,3.5-8.37,55.2,55.2,0,0,0,.08-7.26c-1.76,3-3.91,5.68-3.37,2.47s1.06-8.35,1.06-8.35c-1.66.46-2.84,2.88-2.84,2.88-1.21-2.33.07-9.58.07-9.58a8.84,8.84,0,0,0-2.95,3.7,33.3,33.3,0,0,1,.24-10.55,10.53,10.53,0,0,0-2.34,3,15.26,15.26,0,0,0-1.14,3.1s-.76-.32.54-4.24A57.93,57.93,0,0,0,989.4,89a7.21,7.21,0,0,0-3.13,2.52c-.4.51-1.25,1.67-1.59,2.18,0-.19-.06-.38-.08-.56.63-3.78,1.4-4.56,2.58-8.26a11.87,11.87,0,0,0-3,1.76,15.9,15.9,0,0,0,2.47-7.22l-3,3.35a26.32,26.32,0,0,1,1.06-6c-.81.41-1.72,1.81-2.82,4.23a48,48,0,0,1,.7-7.22s-2.8.82-4,8.4a9.65,9.65,0,0,1-.14-4.81s-4.61,4.37-5.4,16.24a51.1,51.1,0,0,0-.95-7.74s-2,1.25-2.62,8.19a51.15,51.15,0,0,0,.24,5.19,6.5,6.5,0,0,1-2.24-3.36,12.73,12.73,0,0,0,4.27,12.8s-.91.78-4.67-1.17a9.56,9.56,0,0,0,2.39,4.77c1.36,1.51,2,1.51,2.79,2.23,2.24,2.16-3.37.13-3.37.13a12.74,12.74,0,0,0,2.48,6.16c2.25,3.13,3,4,2.09,4.77-.75.64-2.23-1.28-3.54-2.38a41,41,0,0,1,1.28,6.77c0,.46.05.91.05,1.35v.06a11.6,11.6,0,0,1-.08,1.34,1.84,1.84,0,0,1-1.49,1.54c-1.25.1-1.08-1.7-1.08-1.7l0,0a28.36,28.36,0,0,0-4.82-17.11,18.31,18.31,0,0,0-2.08-2.55c.56-1.22,3.59-.36,3.59-.36-.32-1.27-2.75-3.84-5.39-4.44-3.18-.73-3.92-1.09-4.79-1.73-2.6-1.92,2.3-2.45,2.3-2.45a8.94,8.94,0,0,0-7.78-2.64c-2.51.28-4.39-1.32-1.81-2.24,0,0-1.81-2.13-6.33-.62-2.2.74-6.79.89-2.71-1a10.59,10.59,0,0,0-9-.15c-3.13,1.38-4.22.35-3-.33a24.68,24.68,0,0,1,5.7-2.24s-17.42.34-19.15-5.56c0,0,1.75.54,4.36,1.12a28,28,0,0,0,3.86.8,47.24,47.24,0,0,0,9.05.44c4,0,8.34-.21,12.51-.55a31.35,31.35,0,0,0,8.35-1.48A7.45,7.45,0,0,0,956.08,85c1-1.95,1.06-3.84,1.06-6.27a8.44,8.44,0,0,0-1.54-4.57c-1.52-1.91-5.85-1.66-8.3-1.46a15,15,0,0,0,1.87-6.65,3.28,3.28,0,0,1-2.29,1.69,12.26,12.26,0,0,0,1.49-10.21c-.42,1.67-1.43,3.15-2.5,3.44,1.53-3.06,2.2-6.74,1.13-9.54a4.69,4.69,0,0,1-2.55,3c2.11-4.46,1.68-6.5.48-7.77-2.06.73-2.45,4.77-3.62,6.26-3.39,4.31-8.6,5.84-9.67,19.75h-7.82c-1-14-6-15.42-9.37-19.75-1.17-1.49-1.76-5.54-3.83-6.26-1.21,1.27-1.63,3.31.47,7.77a4.7,4.7,0,0,1-2.55-3c-1.07,2.8-.4,6.48,1.13,9.54-1.07-.29-2.09-1.76-2.5-3.44a12.26,12.26,0,0,0,1.48,10.21,3.29,3.29,0,0,1-2.29-1.69,12.26,12.26,0,0,0,1.82,6.8l-3,.39c-4.39.5-8.74,2.63-8.67,8.8,0,0,5.26-3.31,4.1-1.77-1.53,2-6.73,7.11-5.3,14.27,0,0,1.83-3,2.48-4,1.47-2.21,2.14-2.16,2.14-2.16-.92,4-5,8.13-5.45,15.53,0,0,4.53-7.19,5.28-7,1,.21.15,1-.85,2.55-1.36,2-4.94,9.71-4.43,14.13,0,0,3.32-5.32,5.28-5.29.92,0-.17,1.1-2,4.22-2,3.49-3.8,7.25-3.32,11.61,0,0,3.93-4.88,5.45-4.12.34.17-.93,2.16-2,3.9-4.49,7.22-3.13,11.74-3.13,11.74s4-5.56,5.44-4.95c.65.27-.34,1.71-1.46,3.52-2,3.16-3.68,7.49-3,10.54,0,0,3.65-6,4.85-4.2.21.33-.68,1.15-1.72,3.24-.87,1.73-3.65,6.84-.94,11.43,0,0,1.1-6.06,3.6-6.07a12.58,12.58,0,0,0-.14,7,11.23,11.23,0,0,0,3.06,4.41s-.28-5.29,1.6-5.42c2.35-.17,2.22,2.64,1.11,6.31a12.46,12.46,0,0,0,4.23-1.46c1.6-1,2.05-2.3,3-2.3,1.17,0,1.47,2.25-1.27,4.59,0,0,2.74,1,6.45-1.17,1.71-1,3.2-2.78,4.42-3s3.57,1.94-1.27,5.45c0,0,4.61.61,11-4.6,1.11,1.11.83,2.58-1.32,4.45a20.51,20.51,0,0,0,8.74-2.85c1.94-1.25,3.21-2.58,3.89-1.32s-1.74,4-1.74,4,5.33-1.76,7.16-3.1c4.48-3.27,4.5-4.19,5.34-4.12,1.68.14-1.26,4.51-1.26,4.51a18.76,18.76,0,0,0,10.12-7.25,26.31,26.31,0,0,0,3-5.38c11.52,5.2,21.7-1.73,21.7-1.73-2.7-.5-3.12-1-3.24-1.51,0-.37.23-.3.3-.36,6.85.56,7.88-2,7.88-2-3.5.06-4.35-1.61-4.45-2.1s.07-.3.48-.37a9.41,9.41,0,0,0,7.82-5.22c-3,1.42-4.66,0-4.66,0" transform="translate(-24.61 -21.27)"/><path class="cls-3" d="M943.68,84.54a5.06,5.06,0,1,1-3.89-6,5.07,5.07,0,0,1,3.89,6" transform="translate(-24.61 -21.27)"/><path class="cls-5" d="M940.71,84.34A2.23,2.23,0,1,1,939,81.69a2.23,2.23,0,0,1,1.71,2.65" transform="translate(-24.61 -21.27)"/><path class="cls-5" d="M947.38,81.45a10.87,10.87,0,0,1-3.75-.79,4.32,4.32,0,0,0-1.15-1.81,4.41,4.41,0,0,0,1.67-3.32,8.51,8.51,0,0,1-2.28,2.86A4.13,4.13,0,0,0,941,78a7.37,7.37,0,0,0-1.85-.39,10.78,10.78,0,0,1-.8-3.93,6.84,6.84,0,0,0,0,3.93,4.86,4.86,0,0,0-2.61,1,8.42,8.42,0,0,1-2.54-2.79c0,1.54,1.29,2.77,2,3.3a5.79,5.79,0,0,0-1,1.33,10.45,10.45,0,0,1-4.08.7,4.75,4.75,0,0,0,3.7.17,3.38,3.38,0,0,0-.21,1.25,5.61,5.61,0,0,1,5.82-3.33c3.79.42,4.45,5.13,4.45,5.13a8.68,8.68,0,0,0,0-2.85,4.71,4.71,0,0,0,3.54,0" transform="translate(-24.61 -21.27)"/><path class="cls-3" d="M924.7,84.28a5.06,5.06,0,1,1-4.4-5.64,5.07,5.07,0,0,1,4.4,5.64" transform="translate(-24.61 -21.27)"/><path class="cls-5" d="M922.1,84.1a2.23,2.23,0,1,1-1.94-2.49,2.23,2.23,0,0,1,1.94,2.49" transform="translate(-24.61 -21.27)"/><path class="cls-5" d="M928.11,80.87a10.89,10.89,0,0,1-3.81-.46A4.33,4.33,0,0,0,923,78.7a4.42,4.42,0,0,0,1.38-3.45,8.54,8.54,0,0,1-2,3,4.09,4.09,0,0,0-.87-.33,7.34,7.34,0,0,0-1.88-.23,10.78,10.78,0,0,1-1.14-3.85,6.8,6.8,0,0,0,.32,3.92,4.87,4.87,0,0,0-2.52,1.2,8.42,8.42,0,0,1-2.78-2.56,4.51,4.51,0,0,0,2.24,3.12,5.84,5.84,0,0,0-.86,1.41,10.47,10.47,0,0,1-4,1.05,4.76,4.76,0,0,0,3.7-.15,3.4,3.4,0,0,0-.1,1.27A5.61,5.61,0,0,1,920,79.33c3.81.09,4.88,4.73,4.88,4.73a8.71,8.71,0,0,0-.28-2.84,4.71,4.71,0,0,0,3.52-.35" transform="translate(-24.61 -21.27)"/><path class="cls-5" d="M948.88,109.54h0a2.63,2.63,0,0,0,2.92-2.65l0-1.59a2.71,2.71,0,0,0-2.29-2.58,4,4,0,0,0-.57,0c-1.27,0-5,.45-7.84,5.17-3.28-2.15-5.72-2.54-7-2.54a5.79,5.79,0,0,0-.82.05,2.83,2.83,0,0,0-1.48.71,15.3,15.3,0,0,0-2-.12,27.92,27.92,0,0,0-11.84,3c-5.6,2.65-12.14,7.21-12.9,19.05a39.39,39.39,0,0,0,2.29,12c1.1,3.22,1.86,5.3,2.14,6.42a4.93,4.93,0,0,0,1.59,3,5.72,5.72,0,0,0,3.53.93,17.19,17.19,0,0,1,3.49.46,32.9,32.9,0,0,0,8,1,26.1,26.1,0,0,0,9.52-1.68c15.92-6.21,14.6-23.94,14.59-24.12a2,2,0,0,0-2-1.81l-1,0h0c-4.9,0-6.7-1.55-10.63-4.93a5.53,5.53,0,0,1-1.66-3.59l.15.11a3,3,0,0,0,2,2.39,3.91,3.91,0,0,0,2.26,1.83,3.08,3.08,0,0,0,2.25,1.26,3.62,3.62,0,0,0,2.92,1.47l.39,0a3,3,0,0,0,1.63.47,3.68,3.68,0,0,0,2.84-1.54,2.64,2.64,0,0,0,.46-2.08,18,18,0,0,0-3.58-7.16c1-1.67,2.1-2.94,2.73-2.94" transform="translate(-24.61 -21.27)"/><path class="cls-26" d="M948.17,126.07s1.38,16.23-13.23,21.94c-5.2,2-11.27,1.84-16.16.6-3.14-.8-5.29-.25-6.21-1-1.21-1-.36-2.23-3.22-8.12-1.49-3.05-2.13-10-2-11.5.72-11.27,7.21-15.14,11.68-17.25,8.19-3.87,13.33-2.76,14.07-2.34s-2.09,8.65,2.2,12.34,6.54,5.6,12.92,5.35" transform="translate(-24.61 -21.27)"/><path class="cls-32" d="M932,148.91a24.5,24.5,0,0,1-8.85.49c-1.72-.19-5-.94-6.58-1.1-2.75-.29-4.15.26-4.68-1.54-.68-2.31-1-3.71-1.64-5.24a22,22,0,0,1-1.94-5.14,42.39,42.39,0,0,1-1-8.1,42.8,42.8,0,0,0,4.6,10.88,17,17,0,0,0,8.21,6.58,45.55,45.55,0,0,0,11.9,3.18" transform="translate(-24.61 -21.27)"/><path class="cls-21" d="M949.84,105.33a.7.7,0,0,0-.6-.67,2.6,2.6,0,0,0-.32,0c-1.12,0-4.69.48-7.15,6.12-3.78-3-6.43-3.49-7.72-3.49a3.92,3.92,0,0,0-.53,0,.81.81,0,0,0-.73.74v.1a14.18,14.18,0,0,0-3.35-.42,11.48,11.48,0,0,0-2.18.2l-.08,0a.69.69,0,0,0-.28,1.23l3.75,2.65a16.53,16.53,0,0,1-2.8,2.05.69.69,0,0,0,.09,1.21l4.76,2.14A11.14,11.14,0,0,1,932,119a11.86,11.86,0,0,0-.54,1.29,1,1,0,0,0,.12.9,1,1,0,0,0,.88.39,5.2,5.2,0,0,0,1-.14,5.38,5.38,0,0,1,.92-.14h.12a3.5,3.5,0,0,0,1.43.32,3,3,0,0,1,1.47.36h0a1.32,1.32,0,0,0-.57.93,1,1,0,0,0,.32.76,1.79,1.79,0,0,1,.29.52,1.53,1.53,0,0,0,1.76,1.16l.18,0a6.66,6.66,0,0,1,.86-.08c.49,0,.65.12.74.55a2.12,2.12,0,0,0,2.13,1.75,1.91,1.91,0,0,0,1.28-.44l.21-.21.33-.32a2,2,0,0,1,.16.37c.38,1.09,1.09,1.26,1.48,1.26a2.44,2.44,0,0,0,1.58-.78.68.68,0,0,0,.18-.53,23.84,23.84,0,0,0-1.18-5.81,2.24,2.24,0,0,0,.53-.5.69.69,0,0,0,.12-.54,17.46,17.46,0,0,0-4-7.32c1.1-2.19,3-5.12,5-5.12h.24a.69.69,0,0,0,.76-.69" transform="translate(-24.61 -21.27)"/><path class="cls-31" d="M902.54,109.12s5.62,4.23,9.92,5.27a30.39,30.39,0,0,0,6.89.91c2.19.08,2.89-.13,6.22,2.21,3,2.09.69,4.87-1,4.36s-2.88-1.68-4-2.12c0,0,3.79,3,3.94,4.19.28,2.14-1.32,2.81-4.26,1.65a16.15,16.15,0,0,1-2.61-1.47s3.09,1.42,3.31,3.08c.3,2.34-2.17,3.42-4.35,1.9a66.6,66.6,0,0,1-6.38-4.37,34.46,34.46,0,0,0-6.84-4" transform="translate(-24.61 -21.27)"/><path class="cls-33" d="M902.54,109.12s5.62,4.23,9.92,5.27a30.39,30.39,0,0,0,6.89.91c2.19.08,2.88-.13,6.22,2.21,3,2.09.69,4.87-1,4.36s-2.88-1.68-4-2.12c0,0,3.79,3,3.94,4.19.28,2.14-1.32,2.81-4.26,1.65a16.15,16.15,0,0,1-2.61-1.47s3.09,1.42,3.31,3.08c.3,2.34-2.17,3.42-4.35,1.9a66.6,66.6,0,0,1-6.38-4.37,34.46,34.46,0,0,0-6.84-4" transform="translate(-24.61 -21.27)"/><path class="cls-31" d="M954.33,118.91c-5.61,1.05-6.78.21-11.86-1.15,0,0-2.62-1-6.84,1-3.29,1.53-2.68,3.47-.92,3.57s3.53-.59,5-.25c0,0-4,.91-5.11,2.74s.74,3.28,3.71,2.2,2.14-.52,2.14-.52a12.54,12.54,0,0,0-2.7,1.72c-2,1.62.16,4.14,3.19,2.86s3.33-2.43,6.17-2.2a45.74,45.74,0,0,0,8.61-.79" transform="translate(-24.61 -21.27)"/><path class="cls-33" d="M954.33,118.91c-5.61,1.05-6.78.21-11.86-1.15,0,0-2.62-1-6.84,1-3.29,1.53-2.68,3.47-.92,3.57s3.53-.59,5-.25c0,0-4,.91-5.11,2.74s.74,3.28,3.71,2.2,2.14-.52,2.14-.52a12.54,12.54,0,0,0-2.7,1.72c-2,1.62.16,4.14,3.19,2.86s3.33-2.43,6.17-2.2a45.74,45.74,0,0,0,8.61-.79" transform="translate(-24.61 -21.27)"/><path class="cls-5" d="M942.57,72.76s1.45-9.54-1.29-11c-2-1.11-4,1.38-5.36,5.41a28.13,28.13,0,0,0-1.06,5.64" transform="translate(-24.61 -21.27)"/><path class="cls-5" d="M913,72.76s-1.45-9.54,1.29-11c2-1.11,4,1.38,5.36,5.41a28.13,28.13,0,0,1,1.06,5.64" transform="translate(-24.61 -21.27)"/><path class="cls-5" d="M677.26,156.67l-27.4-40a1.8,1.8,0,0,1,0-1.08s15.46-27.37,19.53-35c1-1.81,1.9-3.48,1.23-5.43a6.35,6.35,0,0,0-6.49-4.17H644.63c-5.05,0-6.63,2.31-7.5,4.44,0,.12-.11.28-.14.32L625.46,98.15V77.63a6.88,6.88,0,0,0-7.08-6.72c-.2,0-.41,0-.61,0H598c-3.57,0-7,4.16-7.11,7.41v31.21c0,.77,0,1.73,0,2.67h-4c0-.27,0-.52,0-.8A14,14,0,0,0,573.44,97,14,14,0,0,0,559,110.6a13.67,13.67,0,0,0,.45,3.89,8.66,8.66,0,0,0-1.39,4.54,8.56,8.56,0,0,0,1.22,4.77,13.82,13.82,0,0,0-.84,4.38A14,14,0,0,0,572,142.56h.45a14,14,0,0,0,14-13.58,13.26,13.26,0,0,0,0-1.42l4.52,0v32.23a6.94,6.94,0,0,0,1.82,5,5.45,5.45,0,0,0,3.94,1.65h21a7.83,7.83,0,0,0,7.44-7.12V134.6l19.67,28c1.59,2.32,5.37,3.91,7.92,3.95h0l20.42-.12h0a5,5,0,0,0,4.53-2.6c1.27-2.33.6-5.34-.55-7.15" transform="translate(-24.61 -21.27)"/><path class="cls-34" d="M599.35,74.49c-3.62.29-4.65,2.19-4.69,3.72v81.59c-.15,2.63,1.27,2.87,2.81,2.87h19.35c3.1.23,4.66-1.89,4.76-3.41V134.82c.1-1.54-.06-3.38,1.06-4.42a2.08,2.08,0,0,1,1.4-.54,4.36,4.36,0,0,1,3.91,2.23l20,28.52a6,6,0,0,0,4.33,2.35l18.33.08c6,.08,4.34-2.67,3.52-4L647,118.46a5,5,0,0,1-.18-4.75l19.18-34.58c1.62-2.95,0-4.59-1.53-4.68H648.11c-5.86-.22-6.87,1.41-7.64,2.72L627,103a45.06,45.06,0,0,1-3.27,5.23c-1.33,1.45-1.79.33-1.79.33s0-3.6,0-5.13v-25c0-2.4-1.55-3.93-3.08-3.92" transform="translate(-24.61 -21.27)"/><g class="cls-35"><polyline class="cls-36" points="580.95 59.92 560.28 59.65 560.4 50.78 581.07 51.06"/><polyline class="cls-37" points="601.99 60.21 581.32 59.94 581.44 51.07 602.11 51.35"/><polyline class="cls-38" points="623.03 60.49 602.36 60.21 602.48 51.35 623.15 51.63"/><polyline class="cls-36" points="644.07 60.78 623.4 60.49 623.52 51.63 644.19 51.91"/><polyline class="cls-37" points="590.43 69.44 569.75 69.16 569.87 60.3 590.55 60.58"/><polyline class="cls-38" points="611.46 69.72 590.79 69.44 590.91 60.59 611.59 60.86"/><polyline class="cls-39" points="632.51 70 611.83 69.73 611.95 60.87 632.63 61.14"/><polyline class="cls-38" points="653.54 70.29 632.88 70.01 633 61.15 653.66 61.43"/><polyline class="cls-40" points="580.7 78.76 560.02 78.48 560.14 69.62 580.82 69.9"/><polyline class="cls-38" points="601.73 79.05 581.07 78.77 581.19 69.91 601.85 70.18"/><polyline class="cls-41" points="622.78 79.32 602.11 79.05 602.23 70.19 622.9 70.47"/><polyline class="cls-37" points="643.82 79.61 623.15 79.33 623.27 70.47 643.94 70.75"/><polyline class="cls-42" points="590.18 88.18 569.5 87.9 569.62 79.04 590.3 79.32"/><polyline class="cls-36" points="611.22 88.46 590.54 88.18 590.66 79.33 611.33 79.61"/><polyline class="cls-38" points="632.25 88.74 611.58 88.47 611.7 79.61 632.38 79.89"/><polyline class="cls-43" points="580.45 97.25 559.78 96.97 559.9 88.11 580.57 88.38"/><polyline class="cls-40" points="601.49 97.53 580.82 97.25 580.94 88.39 601.61 88.67"/><polyline class="cls-36" points="622.53 97.82 601.86 97.54 601.98 88.67 622.65 88.95"/><polyline class="cls-38" points="643.57 98.09 622.9 97.82 623.02 88.95 643.69 89.23"/><polyline class="cls-42" points="589.93 106.73 569.25 106.45 569.37 97.59 590.05 97.87"/></g><polyline class="cls-44" points="610.97 107.01 590.29 106.74 590.41 97.88 611.08 98.16"/><g class="cls-35"><polyline class="cls-38" points="632 107.3 611.33 107.02 611.45 98.16 632.12 98.44"/><polyline class="cls-36" points="580.2 115.8 559.53 115.52 559.65 106.66 580.32 106.94"/><polyline class="cls-41" points="601.24 116.08 580.57 115.8 580.69 106.94 601.35 107.22"/><polyline class="cls-42" points="622.28 116.36 601.61 116.08 601.73 107.22 622.4 107.5"/><polyline class="cls-40" points="643.32 116.64 622.65 116.36 622.77 107.51 643.44 107.78"/><polyline class="cls-37" points="589.68 125.29 569 125.01 569.12 116.15 589.8 116.43"/><polyline class="cls-36" points="610.71 125.57 590.04 125.29 590.16 116.43 610.83 116.71"/><polyline class="cls-40" points="631.75 125.85 611.08 125.58 611.2 116.72 631.87 116.99"/><polyline class="cls-38" points="652.79 126.13 632.12 125.86 632.24 117 652.91 117.27"/><polyline class="cls-36" points="579.88 134.43 559.21 134.15 559.33 125.3 580 125.57"/><polyline class="cls-38" points="600.92 134.71 580.25 134.44 580.37 125.58 601.03 125.86"/><polyline class="cls-41" points="621.96 134.99 601.29 134.72 601.41 125.86 622.08 126.14"/><polyline class="cls-42" points="643 135.28 622.32 135 622.45 126.14 643.12 126.42"/><polyline class="cls-38" points="664.04 135.56 643.37 135.28 643.49 126.43 664.16 126.7"/><polyline class="cls-37" points="589.43 143.84 568.75 143.56 568.87 134.7 589.54 134.98"/><polyline class="cls-38" points="610.47 144.12 589.79 143.85 589.91 134.98 610.58 135.26"/><polyline class="cls-44" points="631.5 144.41 610.83 144.13 610.95 135.27 631.63 135.54"/><polyline class="cls-38" points="652.54 144.69 631.88 144.41 631.99 135.55 652.66 135.83"/></g><path class="cls-45" d="M590.95,115.08h-7.7a12.49,12.49,0,0,0,.72-3.83,11.24,11.24,0,0,0-10.9-11.54h-.18A11.22,11.22,0,0,0,562.3,115a5.32,5.32,0,0,0-1.72,4,5.19,5.19,0,0,0,1.69,4.25,11.08,11.08,0,0,0-1.31,4.9,11.25,11.25,0,0,0,10.9,11.55H572a11.28,11.28,0,0,0,11.38-10.9,11,11,0,0,0-.69-4.15h8.23" transform="translate(-24.61 -21.27)"/><path class="cls-3" d="M572.16,131.23a4,4,0,0,1-3.93-4.16,4.61,4.61,0,0,1,1.24-3.17l.19-.24-.08-.3a14.52,14.52,0,0,1-.61-3.88,13.74,13.74,0,0,1,.76-3.59l.09-.26-.14-.23c-1-1.65-1-2-1-3.21a4,4,0,0,1,4-3.93h.12a4.36,4.36,0,0,1,2.44.84,2.94,2.94,0,0,1,1.08,1.47,4.23,4.23,0,0,1,.36,1.28,9.56,9.56,0,0,1-.46,3.79,19.38,19.38,0,0,0-.68,4A22.05,22.05,0,0,0,576,124a10.54,10.54,0,0,1,.22,4.05v.07l0,.07,0,.07a3.43,3.43,0,0,1-1.63,2.43,4.3,4.3,0,0,1-2.24.58" transform="translate(-24.61 -21.27)"/><path class="cls-46" d="M572.71,108.85h.11a3.76,3.76,0,0,1,2.11.73,2.33,2.33,0,0,1,.87,1.19v.07a3.56,3.56,0,0,1,.3,1.06V112a9.29,9.29,0,0,1-.46,3.48,19.83,19.83,0,0,0-.7,4.16,22.55,22.55,0,0,0,.44,4.43,10.25,10.25,0,0,1,.23,3.79l0,.07V128c-.37,1.3-.68,1.68-1.37,2.1a3.69,3.69,0,0,1-1.92.49h-.14a3.44,3.44,0,0,1-3.34-3.54,4,4,0,0,1,1.11-2.82l.38-.48-.16-.59a13.88,13.88,0,0,1-.59-3.71,13.1,13.1,0,0,1,.73-3.42l.17-.52-.28-.47c-.93-1.58-1-1.8-.92-2.89a3.42,3.42,0,0,1,3.44-3.34m0-1.21a4.65,4.65,0,0,0-4.65,4.51c0,1.41.09,1.86,1.09,3.54a14.31,14.31,0,0,0-.79,3.76,15,15,0,0,0,.63,4.06,5.19,5.19,0,0,0-1.37,3.53,4.65,4.65,0,0,0,4.51,4.78h.17a4.88,4.88,0,0,0,2.55-.67,4,4,0,0,0,1.9-2.8l0-.19c.58-2.16-.73-5.31-.64-8.5.09-3,1.56-5.82,1.14-7.91a4.79,4.79,0,0,0-.4-1.42,3.5,3.5,0,0,0-1.29-1.74,5,5,0,0,0-2.77-1h-.14" transform="translate(-24.61 -21.27)"/><path class="cls-3" d="M570.91,103.2c-.85.2-.94-1-.25-1.18a8.7,8.7,0,0,1,9,2.26c.47.64-.6,1.42-1,.81-2.39-2.42-5.17-2.5-7.75-1.9" transform="translate(-24.61 -21.27)"/><path class="cls-5" d="M881.83,88.45a14.51,14.51,0,0,0-9.1-3.39h0c1.9-4.73,2.93-7.54,3-7.64.56-1.53,1-3.13.16-4.39a4.74,4.74,0,0,0-3.95-2H851.54a6.82,6.82,0,0,0-5.85,3.56l-13.47,26.83L816.29,74.18A6.87,6.87,0,0,0,810.46,71H787.84a4.62,4.62,0,0,0-4,2.41,4.5,4.5,0,0,0,.27,4.59l4.91,7.8a9.1,9.1,0,0,0-6.92,4c-5.47,9-.47,14.76,1.41,17l.38.46c1.42,1.74,5.38,4,12.2,7.52l1.68.88a12.1,12.1,0,0,1,1.18.88c1.47,1.18,3.29,2.65,5.68,2.65a5.58,5.58,0,0,0,3.8-1.52c.14-.13.26-.26.38-.4l5.09,8.08a14.06,14.06,0,0,1,1.22,2.69c.66,2.24,1.86,8.83-.42,12.4a5.67,5.67,0,0,1-4.31,2.5,20.24,20.24,0,0,1-2.93.22,21.71,21.71,0,0,1-13.6-5,4.79,4.79,0,0,0-3.29-1.37,4.6,4.6,0,0,0-4.3,3.17L781.6,153a5.72,5.72,0,0,0,2.68,6.88c.53.28,13,6.75,27,6.75,12.56,0,22.56-5.34,28.92-15.44a373.66,373.66,0,0,0,18.23-32.82,6.55,6.55,0,0,0,3.09.83h.25c3.33,0,5.7-2.16,7.44-3.74a13.79,13.79,0,0,1,1.34-1.13c.38-.24.54-.34.69-.42.71-.41,1-.56,8.12-5.64a15.38,15.38,0,0,0,6.26-11.15,10.49,10.49,0,0,0-3.81-8.68" transform="translate(-24.61 -21.27)"/><path class="cls-47" d="M795.76,90.18a5.17,5.17,0,0,1-.57-.08c-4.29-1.46-8.64-.83-10.2,1.74-4.57,7.48,0,11.64,1.53,13.51s10.92,6.51,12.91,7.59,4.5,4.5,6.74,2.46a15.5,15.5,0,0,0,3-4l.06-.09a14.47,14.47,0,0,0,1,1.74l6.4,10.16a17.18,17.18,0,0,1,1.6,3.53s5.17,17.35-7.48,19.2a24.64,24.64,0,0,1-19.35-5.73,1.18,1.18,0,0,0-2.08.49l-4.68,13.07a2.32,2.32,0,0,0,1.07,2.75s35.18,18.46,51.51-7.49c7.66-12.17,19.11-34.81,19.11-34.81l.88-1.75.18.24c1,1.39,2.24,3.23,4.33,3.3,3,.1,5.2-3.11,7.1-4.33s-.54.59,8.67-6c3.91-2.79,7.46-10,2.21-14.52-6.62-5.67-12.48-.4-13.17.77l.79-2L873,75.93A1.32,1.32,0,0,0,871.7,74H851.35a3.47,3.47,0,0,0-2.83,1.74l-15.38,30.65c-.48,1-1.32,1-1.86.06L813.44,75.88a3.77,3.77,0,0,0-2.94-1.68H787.69c-1.08,0-1.49.8-.91,1.71l7.95,12.62" transform="translate(-24.61 -21.27)"/><path class="cls-3" d="M827,108.68s-2.66,2-.85,3.53c2.46,2.11,5.52-2,3-5.82-2.13-3.24-7.69-4-10.12-.73,0,0,7.21-2,8,3" transform="translate(-24.61 -21.27)"/><path class="cls-3" d="M815.58,150.77s-1.53,2.13.19,2.84c2.78,1.15,3.35-3.26.86-5.05s-6.68-1.18-7.74,1.83c0,0,4.92-3.2,6.68.39" transform="translate(-24.61 -21.27)"/><path class="cls-3" d="M820.54,143.45s2.47.88,2.67-1c.33-3-4.06-2.31-5.09.58s.73,6.74,3.91,6.93c0,0-4.44-3.84-1.49-6.53" transform="translate(-24.61 -21.27)"/><path class="cls-3" d="M854,99.22s-1.53,2.13.19,2.84c2.78,1.15,3.35-3.26.87-5.05s-6.68-1.18-7.74,1.83c0,0,4.92-3.2,6.68.39" transform="translate(-24.61 -21.27)"/><path class="cls-3" d="M836.52,130.51s-2-1.74-2.85-.09c-1.42,2.66,2.9,3.66,4.94,1.37s1.84-6.53-1-7.89c0,0,2.68,5.22-1.06,6.61" transform="translate(-24.61 -21.27)"/><path class="cls-3" d="M790.86,82.38s3.72,1.06,5.43-1c1.45-1.7.85-2.76,0-5.19,0,0,4.15,2,1.47,7.23,0,0,4.76-.59,4.75,3.16s-6.28,3.59-5.48,1.14c.58-1.81,3,1.13,3.32-1.18s-4-2.12-7.69-1.41" transform="translate(-24.61 -21.27)"/><path class="cls-3" d="M836.24,100.27a25.11,25.11,0,0,0,6.66,1.21,1.73,1.73,0,0,0,1.56-.94,3.38,3.38,0,0,0,.32-1.95s1.86,1.27-.23,3.42c0,0,3.18.56,2.53,3.34-.58,2.49-4.7,1.94-3.63.12a.66.66,0,0,1,1.12-.15.59.59,0,0,0,.95-.13c.89-2-7.68-2.93-10.22-3" transform="translate(-24.61 -21.27)"/><path class="cls-3" d="M830.3,156.81c-.23.18-.87.65-.87.65a24,24,0,0,0-4.53-5,1.74,1.74,0,0,0-1.82-.19,3.41,3.41,0,0,0-1.43,1.36s-.72-2.14,2.24-2.6c0,0-2.2-2.37,0-4.19,2-1.64,4.92,1.28,3,2.09a.66.66,0,0,1-1-.56.59.59,0,0,0-.84-.46c-1.93,1.08,4.13,6.61,6.1,8.21l-.82.68" transform="translate(-24.61 -21.27)"/><path class="cls-3" d="M819.11,132c0-.48-.12-1.08-.12-1.08a23.85,23.85,0,0,0,6.71-1,1.74,1.74,0,0,0,1.16-1.41,3.42,3.42,0,0,0-.35-1.94s2.18.58.92,3.3c0,0,3.19-.53,3.5,2.3.28,2.54-3.79,3.39-3.38,1.32a.66.66,0,0,1,1-.51.59.59,0,0,0,.85-.44c.17-2.2-7.8-.16-10.22.6,0,0-.06-.87-.08-1.15" transform="translate(-24.61 -21.27)"/><path class="cls-3" d="M833.55,149.22a1.41,1.41,0,1,1-1.27-1.54,1.41,1.41,0,0,1,1.27,1.54" transform="translate(-24.61 -21.27)"/><path class="cls-3" d="M815.56,158.69a1.82,1.82,0,1,1-1.63-2,1.81,1.81,0,0,1,1.63,2" transform="translate(-24.61 -21.27)"/><path class="cls-3" d="M827.79,143a1,1,0,1,1-.9-1.09,1,1,0,0,1,.9,1.09" transform="translate(-24.61 -21.27)"/><path class="cls-3" d="M812.3,152.92a1,1,0,1,1-.9-1.09,1,1,0,0,1,.9,1.09" transform="translate(-24.61 -21.27)"/><path class="cls-3" d="M800.07,158.39a1,1,0,1,1-.9-1.09,1,1,0,0,1,.9,1.09" transform="translate(-24.61 -21.27)"/><path class="cls-3" d="M823.75,99.62a1.27,1.27,0,0,1-1.38,1.12,1.25,1.25,0,1,1,.25-2.49,1.27,1.27,0,0,1,1.13,1.37" transform="translate(-24.61 -21.27)"/><path class="cls-3" d="M861.56,99.32a1.27,1.27,0,0,1-1.38,1.12,1.25,1.25,0,0,1,.25-2.49,1.27,1.27,0,0,1,1.13,1.37" transform="translate(-24.61 -21.27)"/><path class="cls-3" d="M856.37,83.16A1.27,1.27,0,0,1,855,84.28a1.25,1.25,0,0,1,.25-2.49,1.27,1.27,0,0,1,1.13,1.38" transform="translate(-24.61 -21.27)"/><path class="cls-3" d="M870.72,76.91A1.27,1.27,0,0,1,869.34,78a1.25,1.25,0,0,1,.25-2.49,1.27,1.27,0,0,1,1.13,1.38" transform="translate(-24.61 -21.27)"/><path class="cls-3" d="M805.7,99.11a2,2,0,0,1-2.14,1.73,1.94,1.94,0,0,1,.39-3.86,2,2,0,0,1,1.76,2.13" transform="translate(-24.61 -21.27)"/><path class="cls-3" d="M811.28,108.35a1.27,1.27,0,0,1-1.38,1.12,1.25,1.25,0,0,1,.25-2.49,1.27,1.27,0,0,1,1.13,1.37" transform="translate(-24.61 -21.27)"/><path class="cls-3" d="M800.62,93a1,1,0,0,1-1.05.85,1,1,0,0,1-.86-1,1,1,0,0,1,1-.86,1,1,0,0,1,.87,1" transform="translate(-24.61 -21.27)"/><path class="cls-3" d="M822.92,126.92a1.27,1.27,0,0,1-1.38,1.12,1.25,1.25,0,0,1-1.12-1.36,1.26,1.26,0,0,1,1.37-1.13,1.28,1.28,0,0,1,1.13,1.38" transform="translate(-24.61 -21.27)"/><path class="cls-3" d="M845.4,128.49A1.27,1.27,0,0,1,844,129.6a1.25,1.25,0,0,1-1.12-1.36,1.26,1.26,0,0,1,1.37-1.13,1.28,1.28,0,0,1,1.13,1.38" transform="translate(-24.61 -21.27)"/><path class="cls-3" d="M858.23,105.63a1.27,1.27,0,0,1-1.38,1.12,1.25,1.25,0,0,1-1.12-1.36,1.26,1.26,0,0,1,1.37-1.13,1.28,1.28,0,0,1,1.13,1.38" transform="translate(-24.61 -21.27)"/><path class="cls-3" d="M820.79,120.2a1.68,1.68,0,0,1-1.83,1.48,1.65,1.65,0,0,1-1.48-1.8,1.67,1.67,0,0,1,1.81-1.5,1.69,1.69,0,0,1,1.5,1.81" transform="translate(-24.61 -21.27)"/><path class="cls-3" d="M804.77,78.91a2.24,2.24,0,1,1-2-2.43,2.23,2.23,0,0,1,2,2.43" transform="translate(-24.61 -21.27)"/><path class="cls-3" d="M820.79,93.71a1.88,1.88,0,1,1-1.69-2,1.88,1.88,0,0,1,1.69,2" transform="translate(-24.61 -21.27)"/><path class="cls-3" d="M822.5,157.69a2.07,2.07,0,1,1-1.86-2.26,2.06,2.06,0,0,1,1.86,2.26" transform="translate(-24.61 -21.27)"/><path class="cls-3" d="M843.43,133.64a1.62,1.62,0,1,1-1.45-1.77,1.62,1.62,0,0,1,1.45,1.77" transform="translate(-24.61 -21.27)"/><path class="cls-3" d="M794.79,145.72a1.31,1.31,0,1,1-1.17-1.43,1.31,1.31,0,0,1,1.17,1.43" transform="translate(-24.61 -21.27)"/><path class="cls-3" d="M826.11,136.9a1.69,1.69,0,1,1-1.52-1.84,1.68,1.68,0,0,1,1.52,1.84" transform="translate(-24.61 -21.27)"/><path class="cls-3" d="M803.35,162.26l-1.5-.26s3.67-5.7,1.87-6.14c-1.62-.39-1.48,2.31-1.48,2.31s-1.48-2-.1-3.29c2.18-2,4.2.39,3.64,1.57,0,0,2.21-2.26,3.93-.2,1.15,1.38-.59,2.75-.59,2.75a1.47,1.47,0,0,0-.64-2c-.84-.39-1.78.72-2.65,2.17a7.64,7.64,0,0,0-.91,3.34l-1.57-.24" transform="translate(-24.61 -21.27)"/><path class="cls-3" d="M866.08,74s-3,7-.88,7.16c1.87.12,1.18-2.84,1.18-2.84s2,2,.75,3.62c-2,2.6-4.71.39-4.32-1,0,0-2,2.93-4.31,1-1.54-1.31.12-3.16.12-3.16a1.66,1.66,0,0,0,1.1,2.1c1,.27,2.1-.52,2.71-2.67a13.94,13.94,0,0,0,.46-4.16" transform="translate(-24.61 -21.27)"/><path class="cls-3" d="M846.92,79s3,1.53,4.6-.1c2.91-3,4.53-2.56,5.79-1.55,0,0-1.92-.85-4.07,1.2-.79.75-1.8,2.55-3.71,2.41s2.48.21,2.24,3.17-3.29,3.82-4.48,2,.42-2.15,1-1.19,1.38.73,1.88-.21c.84-1.65-.61-2.63-1.81-3.16a5.52,5.52,0,0,0-2.53-.41L846.92,79" transform="translate(-24.61 -21.27)"/><path class="cls-3" d="M794,102.46c-1-1.25-1.12-3.11.3-3.76,0,0,.73.69,2-.09s1.36-2.38.3-3.63c-2.55-3-8.77,1.08-6.05,7.3,2.13,4.85,8.41,5.51,13.38,3.46,0,0-7.2.3-10-3.29" transform="translate(-24.61 -21.27)"/><path class="cls-3" d="M871.37,102.46c1-1.25,1.12-3.11-.3-3.76,0,0-.73.69-2-.09s-1.36-2.38-.3-3.63c2.55-3,8.77,1.08,6,7.3-2.12,4.85-8.41,5.51-13.38,3.46,0,0,7.2.3,10-3.29" transform="translate(-24.61 -21.27)"/><path class="cls-3" d="M850.79,124.83l-1.5,2.81s-4.28-8-5.69-5.39c-.71,1.31,1.38,2.2,1.38,2.2s-3.45.1-2.9-2.53c.5-2.42,2.7-2.32,4-1.28,0,0-1.65-3.38,1.15-3.86,2.23-.38,3.19,1.93,3.19,1.93a2.13,2.13,0,0,0-2.24-.42c-1,.55-.87,2.12.75,3.27,1.29.91,3.51.14,3.51.14l-1.64,3.13" transform="translate(-24.61 -21.27)"/><path class="cls-3" d="M807.69,90.07s2.28.72,1,3.25c-1,2-6.2,2-6.88-2.4-.85-5.45,5.3-7.85,9.21-6,4.45,2.16,3.67,9.62.89,11.09,0,0,1.95-4.92-.43-7.61-1.6-1.8-4.89-2.65-6.8.23-1.17,1.76-.2,3.79,1.62,3.91,1.24.08,2-1,1.44-2.51" transform="translate(-24.61 -21.27)"/><path class="cls-3" d="M828.21,120.69s2.27.72,1,3.25c-1,2-6.21,2-6.89-2.4-.85-5.45,5.3-7.85,9.21-6,4.45,2.16,3.66,9.62.89,11.09,0,0,1.95-4.92-.43-7.61-1.6-1.8-4.89-2.64-6.8.23-1.17,1.76-.2,3.79,1.63,3.91,1.24.08,2-1,1.44-2.52" transform="translate(-24.61 -21.27)"/><path class="cls-3" d="M817.83,112.26s1.84.58.78,2.63c-.85,1.63-5.15,1.7-5.59-1.95-.53-4.45,4.3-6.37,7.47-4.83,3.61,1.76,3,7.8.72,9,0,0,1.58-4-.35-6.17-1.3-1.46-4-2.15-5.52.19a1.93,1.93,0,0,0,1.32,3.17c1,.06,1.63-.78,1.17-2" transform="translate(-24.61 -21.27)"/><path class="cls-3" d="M850.78,110.73s.88-1.37,2.31,0c1.14,1.06.17,4.45-2.83,4.1-3.75-.43-4.21-4.92-2.25-7.15,2.23-2.54,7-.67,7.47,1.43,0,0-2.89-2.18-5.09-1.1a2.86,2.86,0,0,0-1.08,4.52,1.63,1.63,0,0,0,2.87-.36c.28-.8-.27-1.5-1.39-1.41" transform="translate(-24.61 -21.27)"/><path class="cls-3" d="M846.1,92s1.54,0,1.24,1.79c-.23,1.44-3.39,2.45-4.69-.08-1.61-3.16,1.66-5.87,4.43-5.49,3.15.43,4.17,5.14,2.78,6.6,0,0,.2-3.4-1.8-4.56a2.72,2.72,0,0,0-4.11,1.51,1.63,1.63,0,0,0,1.78,2.06c.77-.2,1-1,.37-1.82" transform="translate(-24.61 -21.27)"/><path class="cls-3" d="M803.21,150.58s1,0,.8,1.16c-.15.93-2.19,1.58-3-.05-1-2,1.07-3.79,2.86-3.54,2,.27,2.7,3.32,1.79,4.26,0,0,.13-2.2-1.16-2.95a1.76,1.76,0,0,0-2.65,1c-.21.65.41,1.52,1.15,1.33.5-.13.67-.64.24-1.18" transform="translate(-24.61 -21.27)"/><path class="cls-3" d="M839.24,111.32s-1.83.94-2.56-1.4c-.57-1.86,2.61-5,5.67-2.7,3.82,2.82,1.51,8-2,9.22-4,1.37-7.38-2.37-7.27-6.24,0,0,1.8,4.19,4.87,4.39a3.64,3.64,0,0,0,4-4.26c-.21-1.4-2.17-2.44-3.36-1.4-.81.71-.64,1.81.64,2.41" transform="translate(-24.61 -21.27)"/><path class="cls-3" d="M859.74,89.71s-2.06,1.06-2.89-1.59c-.65-2.1,2.94-5.61,6.41-3.06,4.32,3.19,1.71,9.06-2.28,10.42-4.55,1.55-9.12-4.14-8.21-7.06,0,0,2,4.74,5.51,5a4.11,4.11,0,0,0,4.54-4.82C862.57,87,860.35,85.81,859,87c-.91.8-.73,2,.73,2.72" transform="translate(-24.61 -21.27)"/><path class="cls-3" d="M813.83,100.9s-1.89-.8-.57-2.87c1.06-1.63,5.48-1.19,5.71,2.61.29,4.74-5.18,6.3-8.36,4.37-3.64-2.21-2.5-7.77.13-9.58,0,0-2.06,4.07-.24,6.56a3.64,3.64,0,0,0,5.85.35c.94-1.06.48-3.23-1.08-3.48-1.06-.16-1.8.67-1.44,2" transform="translate(-24.61 -21.27)"/><path class="cls-3" d="M793.82,152.43s-1.9-.79-.57-2.86c1.06-1.64,5.48-1.19,5.71,2.61.29,4.74-5.18,6.3-8.37,4.37-3.64-2.21-2.37-8.54.13-9.58,0,0-2.06,4.07-.24,6.56a3.64,3.64,0,0,0,5.85.35c.94-1.06.47-3.23-1.08-3.48-1.06-.16-1.8.67-1.43,2" transform="translate(-24.61 -21.27)"/><path class="cls-3" d="M834.8,140s1.84-.52,2.07,1.76c.18,1.81-3.3,4-5.67,1.4-3-3.29.12-7.59,3.57-8,3.93-.5,6.68,4.85,5.46,7.05,0,0-.85-4.16-3.62-4.92a3.39,3.39,0,0,0-4.47,3.14c-.07,1.31,1.53,2.63,2.8,1.91.86-.49.93-1.53-.14-2.32" transform="translate(-24.61 -21.27)"/><path class="cls-3" d="M810.76,80.74s-1.44.69-2-1.15c-.41-1.46,2.13-3.8,4.46-2,2.91,2.28.95,6.1-1.77,7.12-3.51,1.32-5.92-2.5-5.51-5,0,0,1.3,3.29,3.69,3.52A2.83,2.83,0,0,0,812.89,80a1.69,1.69,0,0,0-2.58-1.16c-.64.53-.54,1.39.44,1.88" transform="translate(-24.61 -21.27)"/><path class="cls-3" d="M842.52,97.52a1.27,1.27,0,0,1-1.38,1.12,1.25,1.25,0,1,1,.25-2.49,1.27,1.27,0,0,1,1.13,1.37" transform="translate(-24.61 -21.27)"/><path class="cls-3" d="M817.51,86.86a1.09,1.09,0,0,1-1.19,1,1.08,1.08,0,1,1,.21-2.15,1.1,1.1,0,0,1,1,1.18" transform="translate(-24.61 -21.27)"/><path class="cls-3" d="M794,78.43a1.26,1.26,0,0,1-1.38,1.12,1.25,1.25,0,0,1-1.12-1.36,1.26,1.26,0,0,1,2.5.24" transform="translate(-24.61 -21.27)"/><path class="cls-3" d="M840.14,120.17a1.42,1.42,0,1,1-1.28-1.55,1.42,1.42,0,0,1,1.28,1.55" transform="translate(-24.61 -21.27)"/><path class="cls-3" d="M851.63,102.6a1.42,1.42,0,1,1-1.28-1.55,1.42,1.42,0,0,1,1.28,1.55" transform="translate(-24.61 -21.27)"/><path class="cls-5" d="M772.35,159.48l-21.63-83.3A7.13,7.13,0,0,0,744,71h-3c.28-.82.54-1.58.81-2.24a35.61,35.61,0,0,1,4.15-7.06c2.12-3,4.12-5.88,4.12-9.42a17.09,17.09,0,1,0-34.17,0v.43c.2,4.15,2.43,7.51,4.8,11.06.79,1.18,1.6,2.4,2.4,3.73a37.92,37.92,0,0,1,1.69,3.54h-3.11A7.6,7.6,0,0,0,714.8,76l-29.31,83.59a5.23,5.23,0,0,0,5.06,7.14h0l19.39-.07a7.45,7.45,0,0,0,6.81-5L731.11,117l8.39,44a6.81,6.81,0,0,0,6.62,5.46l20.87-.07a5.45,5.45,0,0,0,5.35-6.95" transform="translate(-24.61 -21.27)"/><path class="cls-3" d="M690.36,163.34a1.8,1.8,0,0,1-1.82-2.55L717.85,77.2a4.34,4.34,0,0,1,3.62-2.76H744A3.66,3.66,0,0,1,747.38,77l21.44,83.4a2,2,0,0,1-2,2.64l-20.87.07a3.41,3.41,0,0,1-3.23-2.66l-8.75-45.87a3.14,3.14,0,0,0-2.75-2.66,3.7,3.7,0,0,0-3.08,2.6l-14.82,46.11a4,4,0,0,1-3.55,2.6" transform="translate(-24.61 -21.27)"/><g class="cls-48"><path class="cls-49" d="M721.44,81.77s-8.1-6.18-9.9-.37,3,12,13.77,12.51c0,0,8.92-7,7.22-13.65-1.89-7.33-9.12-6-11.09,1.51" transform="translate(-24.61 -21.27)"/><path class="cls-49" d="M749.57,97s.51-5.52-3.71-4.41c-2.83.74-3.1,9.4-3.1,9.4s10.18,1.06,10.61-2.21-1.78-3.41-3.79-2.78" transform="translate(-24.61 -21.27)"/></g><g class="cls-48"><path class="cls-49" d="M714.36,98.24s-3.67-3.51-5.09.44c-1.14,3.17,5.7,7.61,5.7,7.61s7.07-6,4.58-9.1c-1.36-1.68-4.2-.92-5.18,1" transform="translate(-24.61 -21.27)"/><path class="cls-49" d="M743.1,77s-2.31-4.9-4.92-1.51c-2.18,2.82,3,9.49,3,9.49s9-4.11,7.39-7.83c-1.28-3-4.38-1.65-5.5-.14" transform="translate(-24.61 -21.27)"/><path class="cls-49" d="M739,110.38s-2.43-3.21-4.07-.13c-1.44,2.71,4.36,6.52,4.36,6.52s5.95-4.82,3.84-7.46c-1.59-2-3.52-.45-4.12,1.07" transform="translate(-24.61 -21.27)"/><path class="cls-49" d="M699.32,144.86s3.22-2.72.7-4.72c-2.33-1.86-6.73,3.61-6.73,3.61s2.92,6.88,6,5.23c2.3-1.25,1.36-3.29.06-4.11" transform="translate(-24.61 -21.27)"/><path class="cls-49" d="M759.11,131.84s3.6-2.8.67-5.15c-1.82-1.45-7.83,4.21-7.83,4.21s3.82,8,7.3,5.77c2.43-1.56,1.31-3.72-.13-4.84" transform="translate(-24.61 -21.27)"/><path class="cls-49" d="M762.59,145.62s-.59-3.87-3.63-2.2c-2.68,1.48.74,7.72.74,7.72s7.4-.63,6.83-3.82a2.39,2.39,0,0,0-3.94-1.71" transform="translate(-24.61 -21.27)"/><path class="cls-49" d="M746.05,157.83s-.91-4-3.78-2.44c-1.79,1,.74,7.72.74,7.72s7.4-.6,7.11-3.91c-.19-2.16-2.78-2.26-4.06-1.37" transform="translate(-24.61 -21.27)"/><path class="cls-49" d="M702.83,130.72s-1.1-3.32-3.42-1.63c-1.46,1.05.7,6.48.7,6.48s6.73-1,6-3.93a1.9,1.9,0,0,0-3.26-.92" transform="translate(-24.61 -21.27)"/></g><g class="cls-48"><path class="cls-49" d="M732.15,100.22s-2.11-4.71-4.76-1.89c-2.33,2.47,1.8,8.84,1.8,8.84s8.33-1.9,7.68-5.58c-.51-2.87-3.4-2.7-4.71-1.37" transform="translate(-24.61 -21.27)"/><path class="cls-49" d="M713,116s.41-6.4-5.28-5.73-3.27,8.87,4.13,16c0,0,11-6.4,9.48-12.4-1.38-5.32-8.3-2.17-8.34,2.1" transform="translate(-24.61 -21.27)"/><path class="cls-49" d="M746.62,140.68s-7-6.73-8.66,2c-1,5.23,12.59,9.67,12.59,9.67s8-10,4.23-14.59c-3-3.68-7.94-2-8.17,2.89" transform="translate(-24.61 -21.27)"/><path class="cls-49" d="M705,154s-8.47-3.16-7.39,3.55c.89,5.57,14,2.93,14,2.93s2.95-10.17-2.43-13.31c-3.2-1.85-6.89,2.51-4.2,6.82" transform="translate(-24.61 -21.27)"/><path class="cls-49" d="M717,135.78s-8.27-1.9-6.89,3.87c1.15,4.83,12.17,3.38,12.17,3.38s4.59-9.7-.16-13.16c-2.89-2.1-7,1.51-5.12,5.9" transform="translate(-24.61 -21.27)"/><path class="cls-49" d="M749.48,119.23s-5.11-.5-3.59,2.91c1.3,2.92,9.28.24,9.28.24s-.27-6.29-3.19-7.61-4.35,2.43-2.5,4.46" transform="translate(-24.61 -21.27)"/><path class="cls-49" d="M739.95,127.35s1.8-5.13-2.1-4.42c-3.34.61-2.56,9.5-2.56,9.5s6.54,1.3,8.63-1.36-1.42-5.1-4-3.71" transform="translate(-24.61 -21.27)"/><path class="cls-49" d="M759.87,157.33s-3.64-2.65-4.68.61c-1,3,5.93,4.91,5.93,4.91s5.2-4,3.21-7c-1.54-2.28-4.13-.47-4.47,1.48" transform="translate(-24.61 -21.27)"/></g><path class="cls-3" d="M736.86,72.31c.63-1.9,1.14-3.51,1.72-4.94,2.8-6.88,8-10.76,8-15.18a13.64,13.64,0,1,0-27.29,0q0,.13,0,.27c.2,4.34,3.51,7.85,6.71,13.17a54,54,0,0,1,3,6.65" transform="translate(-24.61 -21.27)"/><path class="cls-50" d="M732.12,73c-3.06-4.28,7.63-5.78,4-6.12-13.45-1.22-4-7.34,1.84-4.28-2,2-10.52.53-10.08-3.42s8.21-2.67,10.64-1.71v1.11c-1.84.51-12.79,1.58-12.79-3.31,0-6.73,17.22-6.06,15.29-1.22-1.22,3.06-13.76-3.36-13.13,5.14" transform="translate(-24.61 -21.27)"/><polygon class="cls-3" points="524.13 62.46 521.8 61.29 519.22 68.63 522.05 132.71 523.55 132.96 526.22 121.79 528.47 91.71 524.13 62.46"/></g></g></svg>