<svg xmlns="http://www.w3.org/2000/svg" viewBox="0 0 35.09 46.9"><defs><style>.cls-1{fill:#034872;stroke:#034872;}.cls-1,.cls-2{stroke-miterlimit:10;}.cls-2,.cls-3{fill:#fff;}.cls-2{stroke:#b2b3b3;}.cls-4{fill:#55c7f1;}.cls-5{fill:#0a0203;}.cls-6{fill:#006aac;}.cls-7{fill:#abdcf5;}.cls-8{opacity:0.89;}.cls-11,.cls-9{fill:none;}.cls-10{opacity:0.35;}.cls-11{stroke:#a2c1e2;stroke-width:0.35px;}</style></defs><title>map-icon</title><g id="Слой_2" data-name="Слой 2"><g id="Слой_1-2" data-name="Слой 1"><polygon class="cls-1" points="20.89 45.01 23.02 32.81 16.54 33.41 20.89 45.01"/><rect class="cls-2" x="2.01" y="1.64" width="31.07" height="37.22" rx="4.59" ry="4.59" transform="translate(-2.17 2.1) rotate(-6.46)"/><g id="Слой_2-2" data-name="Слой 2"><g id="Layer_2" data-name="Layer 2"><path class="cls-3" d="M28.93,25.27a.43.43,0,0,1,0-.19.38.38,0,0,1-.06-.14c0-.24-.06-.47-.09-.71-.25-1.11-.45-2.24-.65-3.37a.43.43,0,0,1-.44-.42c0-1.55-.32-3.07-.51-4.6-.18-.8-.38-1.59-.62-2.36a9.17,9.17,0,0,0-2.07-3.68C23.89,9.13,23,9,22.33,8.42c-.9-.77-.23-1.51-.8-2.62l-.12-.1a.45.45,0,0,1-.19-.39c-.8,0-1.53.07-1.84.08-1,.18-2,.35-3.08.47l-.43.06-.28,0a37.62,37.62,0,0,1-4.29.44c-.61.14-1.22.26-1.84.37,0,0,0,0,0,0-.36,1.09-.86,2-1.17,3.13A1.09,1.09,0,0,1,9,11c-.08.76-.72.95-1.29,1.23q-.44,1.53-1,3a.5.5,0,0,1-.17.22v.71q.24,2.31.71,4.59A36.21,36.21,0,0,1,8.06,25a.43.43,0,0,1,.14.31c.07,2.08,1,4,1.31,6,.1.69.17,1.38.22,2.08.8.63,1.63,1,2.46,1.65a1.9,1.9,0,0,1,.74.93c2.42-.26,4.85-.53,7.28-.78L22,34.93a25.08,25.08,0,0,1,3.5-.83,10.37,10.37,0,0,0,3.4-2.72,7.23,7.23,0,0,1,.6-1.32C29.29,28.48,29,26.84,28.93,25.27Z"/><path class="cls-4" d="M9.21,24.22h0A.13.13,0,0,1,9,24.14a.15.15,0,0,1,0,0C9,24,9,22.71,14.34,21a31.53,31.53,0,0,1,12.53-1.72.15.15,0,0,1,.08.18.13.13,0,0,1-.11.09,31.51,31.51,0,0,0-12.43,1.71c-5.07,1.64-5.13,2.8-5.13,2.81a.13.13,0,0,1-.1.15h0Z"/><path class="cls-3" d="M15.94,23.13s3.34-1.82,5.14.47c.74.94,2,4.77-4,5.32Z"/><path class="cls-3" d="M16.65,22.94s2.55-1.33,3.9.42c.55.72,1.46,3.64-3.09,4Z"/><path class="cls-5" d="M25.33,21.25c-.83-1.36-2.89-3.56-7.35-3a14.27,14.27,0,0,0-1.88.39l-.4-1.88,6.38-1.53A1.27,1.27,0,0,0,23,13.73h0l-.49-2a1.22,1.22,0,0,0-1.32-1H21L10.58,13.59a1.3,1.3,0,0,0-.87,1.54l3.32,16a1.45,1.45,0,0,0,1.29,1.17,24.74,24.74,0,0,0,4-.2c3.72-.49,6.15-1.72,7.2-3.64a7.55,7.55,0,0,0-.15-7.18Z"/><path class="cls-6" d="M10.74,14.25a.62.62,0,0,0-.42.73l3.32,16a.76.76,0,0,0,.68.62s8.47.39,10.61-3.52-.15-11.44-9.33-8.52L15,16.88a.6.6,0,0,1,.42-.72l6.45-1.54a.59.59,0,0,0,.4-.72l-.46-2a.56.56,0,0,0-.66-.45h0Z"/><path class="cls-5" d="M18.12,21.55h0a7.18,7.18,0,0,0-2,.57l-.46.22.11.54,1,5.11.12.6.56-.07.63-.08c2.24-.3,3.61-1.14,4.09-2.5a3.58,3.58,0,0,0-.5-3.14,3.65,3.65,0,0,0-3.59-1.24"/><path class="cls-3" d="M16.41,22.75s3.23-1.57,4.83.52c.61.8,1.72,4.13-3.79,4.58Z"/><ellipse class="cls-7" cx="26.86" cy="29.05" rx="0.78" ry="0.85" transform="translate(-3.61 3.81) rotate(-7.6)"/><ellipse class="cls-3" cx="26.92" cy="28.74" rx="0.19" ry="0.21" transform="matrix(0.99, -0.13, 0.13, 0.99, -3.57, 3.81)"/><ellipse class="cls-7" cx="9.9" cy="21.57" rx="0.52" ry="0.57" transform="translate(-2.77 1.5) rotate(-7.6)"/><ellipse class="cls-3" cx="9.95" cy="21.36" rx="0.13" ry="0.14" transform="matrix(0.99, -0.13, 0.13, 0.99, -2.74, 1.5)"/><ellipse class="cls-7" cx="12.01" cy="11.99" rx="0.53" ry="0.58" transform="translate(-1.48 1.7) rotate(-7.6)"/><ellipse class="cls-3" cx="12.08" cy="11.8" rx="0.14" ry="0.15" transform="translate(-1.46 1.7) rotate(-7.6)"/><ellipse class="cls-7" cx="19.16" cy="25.75" rx="0.91" ry="0.99" transform="translate(-3.24 2.76) rotate(-7.6)"/><ellipse class="cls-3" cx="19.22" cy="25.36" rx="0.23" ry="0.25" transform="translate(-3.19 2.77) rotate(-7.6)"/><ellipse class="cls-7" cx="24.36" cy="17.74" rx="0.68" ry="0.74" transform="translate(-2.13 3.38) rotate(-7.6)"/><ellipse class="cls-3" cx="24.48" cy="17.44" rx="0.17" ry="0.19" transform="translate(-2.09 3.39) rotate(-7.6)"/><ellipse class="cls-7" cx="23.83" cy="13.49" rx="0.45" ry="0.49" transform="translate(-1.58 3.27) rotate(-7.6)"/><ellipse class="cls-3" cx="23.92" cy="13.31" rx="0.11" ry="0.13" transform="matrix(0.99, -0.13, 0.13, 0.99, -1.55, 3.28)"/><g class="cls-8"><ellipse class="cls-7" cx="19.99" cy="17.13" rx="0.6" ry="0.66" transform="translate(-2.09 2.8) rotate(-7.6)"/><ellipse class="cls-3" cx="20.08" cy="16.84" rx="0.15" ry="0.16" transform="translate(-2.05 2.81) rotate(-7.6)"/></g><path class="cls-9" d="M9.21,9.1A5.73,5.73,0,0,0,11.68,9h0c1-.13,2.17-.33,3.58-.63,5.09-1,5.71-1.7,5.79-1.83h0a.2.2,0,0,1,0-.07.21.21,0,0,1,0-.07c-.09-.18-1.33-.43-6,.52-2.55.5-5.47,1.18-5.88,1.93a.26.26,0,0,0,0,.21Z"/><path class="cls-9" d="M25.55,12.95A7,7,0,0,0,22.4,9.33l-.78-.39a4.52,4.52,0,0,1-1.17-.7,21.16,21.16,0,0,1-5.06,1.41l-2,.41c-.86.16-1.48.28-2,.35a3.89,3.89,0,0,1-1.05,0,5.6,5.6,0,0,1-1,1.54l-.25.32a7.21,7.21,0,0,0-1.43,4.63l3.26,15.54a2.94,2.94,0,0,0,1.83,1.93h0c1.62.7,4.74.69,8,0,3.72-.83,6.87-2.45,7.65-3.94a3,3,0,0,0,.46-2Z"/><path class="cls-4" d="M29.18,28.39,25.92,12.87A7.32,7.32,0,0,0,22.56,9l-.78-.39a5.61,5.61,0,0,1-1-.54L20.88,8a1.33,1.33,0,0,0,.53-1.44.33.33,0,0,0-.06-.17.22.22,0,0,0,0,0c0-.26-.25-1-6.41.22-4,.81-5.69,1.41-6,2.13a.68.68,0,0,0,0,.5.3.3,0,0,0,.07.17,1.84,1.84,0,0,0,.92.92l.16,0a6.07,6.07,0,0,1-.92,1.39L8.82,12A7.56,7.56,0,0,0,7.3,17l3.28,15.54a3.35,3.35,0,0,0,2.05,2.25,12.11,12.11,0,0,0,6,.37,16.56,16.56,0,0,0,2.12-.38c3.88-.86,7-2.51,7.89-4.12A3.42,3.42,0,0,0,29.18,28.39ZM9.49,9.57a10.58,10.58,0,0,0,2.24-.13h0c1-.13,2.19-.34,3.61-.63,3.73-.76,5.17-1.33,5.73-1.72a1.12,1.12,0,0,1-.42.58c-.66.52-2.54,1.09-5.32,1.59l-2,.38c-.86.16-1.48.28-1.94.34a2.67,2.67,0,0,1-1.42-.09A1.14,1.14,0,0,1,9.49,9.57Zm-.31-.68c.37-.74,3.3-1.42,5.81-1.94,4.65-.95,5.89-.7,6-.52a.21.21,0,0,0,0,.07.2.2,0,0,0,0,.07h0c-.08.14-.69.8-5.79,1.83-1.41.29-2.62.5-3.58.63h0a5.8,5.8,0,0,1-2.48.07h0A.25.25,0,0,1,9.18,8.88Zm19.2,21.55c-.78,1.48-3.93,3.1-7.65,3.94-3.19.72-6.32.72-8,0h0a2.94,2.94,0,0,1-1.81-1.92L7.69,16.94A7.21,7.21,0,0,1,9.11,12.3L9.35,12a5.61,5.61,0,0,0,1-1.57,3.89,3.89,0,0,0,1.05,0,18.77,18.77,0,0,0,2-.35l2-.38a21.16,21.16,0,0,0,5.06-1.41A4.53,4.53,0,0,0,21.63,9l.78.39A7,7,0,0,1,25.56,13l3.25,15.52A3,3,0,0,1,28.38,30.44Z"/><path class="cls-3" d="M11.36,10a18.48,18.48,0,0,0,1.94-.34l2-.38C18.1,8.75,20,8.18,20.61,7.66A1.12,1.12,0,0,0,21,7.09c-.56.38-2,1-5.73,1.72-1.41.29-2.64.5-3.61.63h0a10.57,10.57,0,0,1-2.21.14,1.14,1.14,0,0,0,.45.33A2.67,2.67,0,0,0,11.36,10Z"/><g class="cls-10"><path class="cls-11" d="M9.17,24"/></g><path class="cls-4" d="M15.87,25.05c-2.85.38-5.14.1-6.63-.79l0-.18A.08.08,0,0,1,9.31,24h0c1.86,1.09,5.15,1.19,9,.27,6.45-1.53,8.3-4.79,8.31-4.83s.19-.14.23-.08a.6.6,0,0,1,0,.12v.09s-2,3.41-8.51,5a25.08,25.08,0,0,1-2.54.48Z"/></g></g></g></g></svg>