<svg width="98" height="95" viewBox="0 0 98 95" fill="none" xmlns="http://www.w3.org/2000/svg">
<g clip-path="url(#clip0)">
<path d="M62.9779 17.7614C62.8172 17.3032 62.7554 16.8162 62.7966 16.3324C62.8378 15.8487 62.9811 15.3791 63.217 14.9547C63.4529 14.5304 63.7761 14.1608 64.1652 13.8705C64.5543 13.5801 65.0006 13.3755 65.4746 13.2702L67.493 12.823C68.2999 12.6672 69.1358 12.797 69.8575 13.19C70.5792 13.583 71.1417 14.2148 71.4486 14.977C71.5354 15.2111 71.6057 15.451 71.6589 15.695C72.021 17.2877 72.555 22.128 67.4101 27.1638C71.1072 30.6936 72.3205 33.6789 72.7064 35.3357C72.7874 35.6815 72.8443 36.0325 72.8768 36.3862C72.9342 37.1045 72.7798 37.824 72.4327 38.4555C72.7351 39.2671 72.9838 40.0977 73.1772 40.942C73.9086 44.0907 74.4406 49.4076 72.824 56.8525C71.0991 64.7568 67.2468 74.3804 52.4535 78.8327C50.332 79.4746 43.7845 80.1996 36.4984 79.4749C32.0822 79.0365 29.2265 78.6768 27.7196 78.6522C26.2126 78.6275 24.9047 78.6026 23.4688 77.5143C22.1713 76.5078 21.742 75.0257 21.2443 73.3181C20.8554 71.8333 20.3142 70.3925 19.6294 69.0188C18.0267 65.904 16.8116 62.6046 16.0114 59.1943C15.0006 55.0859 14.7654 50.8248 15.3178 46.6301C18.5137 24.5946 41.7013 20.7012 41.929 20.6536C43.6864 20.3051 44.2738 21.7298 44.508 23.0633C44.5876 23.5065 44.679 23.9396 44.7824 24.3627C46.2265 30.5839 48.7212 32.4062 54.1982 36.3728C55.6021 37.3964 57.4046 37.6071 59.2631 37.441L59.0814 37.2809C58.3621 37.3383 57.641 37.1936 56.9995 36.8631C56.358 36.5327 55.8216 36.0296 55.4506 35.4106C54.1939 35.056 53.1218 34.2314 52.4566 33.1078C51.922 32.8819 51.4426 32.543 51.0514 32.1144C50.6603 31.6857 50.3665 31.1774 50.1904 30.6244C49.5112 30.331 48.9104 29.882 48.4366 29.3137C47.9628 28.7454 47.6292 28.0737 47.4628 27.3527C47.4239 27.1878 47.3947 27.0206 47.3755 26.8522C46.8421 26.3257 46.4699 25.658 46.3028 24.9274C45.8302 22.9152 39.8711 21.7319 40.2563 21.2828C40.889 20.5472 47.251 19.6578 49.916 19.6659C53.4284 19.7544 56.8844 20.5699 60.0659 22.0608C61.8923 20.321 63.1893 18.5167 62.9889 17.7291" fill="#1D1D1B"/>
<path d="M42.21 23.5336C42.21 23.5336 21.2035 26.5661 18.2721 46.7994C17.231 54.0015 19.2588 61.6429 22.2722 67.4835C24.1951 71.2154 24.1508 74.1178 25.3783 75.0687C27.001 76.3051 28.3213 74.8718 36.6265 76.7624C40.9396 77.7479 49.886 76.5365 51.8247 75.9501C65.8849 71.6902 68.9061 62.3422 70.2705 56.0457C72.7617 44.5273 69.8446 38.3216 69.0962 37.493C68.3478 36.6644 59.1946 41.2912 53.2552 36.9507C47.3157 32.6101 43.7589 31.7035 42.2056 23.5374" fill="#753821"/>
<path d="M18.0203 50.812C18.0203 50.812 17.7335 55.6511 20.0055 62.1892C20.7507 64.3151 22.6555 68.2155 23.345 70.2124C24.5154 73.6169 24.2462 75.5763 26.6861 75.6986C29.8178 75.8778 31.6991 75.9375 33.8181 76.2323C36.094 76.6851 37.9397 77.2268 40.9123 77.1733C44.4588 77.1469 47.9945 76.7788 51.4704 76.074C46.3188 75.9038 41.2157 75.0202 36.3068 73.4484C31.0292 71.7409 27.6106 67.7987 25.5352 64.9622C21.9878 60.1181 20.0955 56.0157 17.9963 50.8017" fill="#8E4E20"/>
<path d="M68.039 15.301C68.2492 15.2564 68.4684 15.288 68.6574 15.3902C68.8464 15.4923 68.993 15.6584 69.0709 15.8586C69.1183 15.9918 69.1569 16.1279 69.1865 16.2661C69.5166 17.6945 69.9577 22.3531 63.5232 27.1417C68.4459 31.042 69.855 34.2672 70.234 35.9069C70.2856 36.1283 70.3225 36.3529 70.3444 36.5793C70.3755 36.8232 70.3206 37.0703 70.1893 37.2781C70.0579 37.4859 69.8582 37.6415 69.6246 37.718C69.5819 37.7282 69.5384 37.7343 69.4946 37.7363C70.1673 39.0515 70.6804 40.4423 71.0229 41.8793C71.2409 42.8054 71.3699 43.7503 71.4081 44.701L71.412 44.8049C71.4209 44.9807 71.3777 45.1552 71.2879 45.3065C71.1981 45.4579 71.0656 45.5794 70.907 45.6557C70.7484 45.7321 70.5708 45.7599 70.3965 45.7358C70.2222 45.7116 70.0588 45.6365 69.927 45.52L65.4502 41.5404C64.7125 42.861 64.1155 44.2555 63.6689 45.7008C63.6162 45.8542 63.5228 45.9903 63.3987 46.0947C63.2746 46.199 63.1245 46.2676 62.9644 46.2932C62.8043 46.3188 62.6402 46.3003 62.4898 46.2398C62.3393 46.1793 62.2082 46.079 62.1104 45.9497L57.9963 40.5366C57.2859 40.945 56.6109 41.4121 55.9784 41.9332C55.5079 42.3155 55.015 42.6694 54.5024 42.9931C54.3289 43.1058 54.1306 43.1743 53.9245 43.1927C53.7185 43.2112 53.5111 43.1789 53.3205 43.0988C53.1218 43.0089 52.9481 42.8719 52.8142 42.6998C52.6804 42.5278 52.5904 42.3257 52.552 42.1111C52.4741 41.6691 52.4403 41.2206 52.4509 40.772C52.4541 40.368 52.4222 39.9645 52.3554 39.5661C52.3306 39.4645 52.3055 39.4169 52.3138 39.4176C51.9198 38.9095 51.6375 38.324 51.4853 37.6994C51.3432 37.0474 51.0345 36.4435 50.5891 35.9466C50.5002 36.1741 50.3647 36.3805 50.1913 36.5525C50.0179 36.7245 49.8105 36.8585 49.5824 36.9456C49.4035 36.9931 49.2166 37.0021 49.034 36.9721C48.8514 36.942 48.6773 36.8736 48.523 36.7713C48.2862 36.6562 48.0316 36.582 47.7701 36.5517C47.0964 36.4258 45.9263 36.2382 45.7783 34.6631L45.7606 34.4253C45.7291 34.0555 45.6735 33.6881 45.5942 33.3255C45.4392 32.6909 45.253 32.5346 44.687 32.5626C44.0304 32.5968 43.3832 32.3958 42.8615 31.9957C42.3398 31.5956 41.9778 31.0226 41.8406 30.3797C41.6854 29.792 41.7501 29.1679 42.0225 28.6245C42.0807 28.5216 42.1478 28.411 42.2239 28.2929C42.3 28.1748 42.4534 27.9221 42.5487 27.7725C42.3795 27.7229 42.2058 27.6906 42.0302 27.6758C40.5341 27.5194 40.1154 26.6641 39.99 26.1729C39.8826 25.389 40.0708 24.5932 40.518 23.9405C40.5883 23.8344 40.6804 23.7446 40.7882 23.677C40.896 23.6094 41.017 23.5655 41.1431 23.5484C43.7015 23.1507 46.2994 23.0737 48.8769 23.3192C48.9904 23.0241 49.1502 22.749 49.3503 22.5042C49.4314 22.4096 49.5312 22.3328 49.6434 22.2786C49.7555 22.2244 49.8777 22.1938 50.0022 22.189C54.0247 22.0727 58.1968 23.9129 60.4655 25.1072C62.9261 23.0672 66.0703 19.7735 65.4702 17.1953C65.4482 17.0948 65.4204 16.9956 65.3869 16.8983C65.3449 16.7791 65.3286 16.6524 65.3391 16.5265C65.3497 16.4007 65.3868 16.2784 65.448 16.1679C65.5092 16.0574 65.5931 15.9611 65.6942 15.8854C65.7953 15.8097 65.9113 15.7563 66.0346 15.7287L68.039 15.301Z" fill="#239F38"/>
</g>
<defs>
<clipPath id="clip0">
<rect x="58.9814" width="58.8202" height="77.3246" transform="rotate(49.7099 58.9814 0)" fill="white"/>
</clipPath>
</defs>
</svg>
