<svg width="123" height="135" viewBox="0 0 123 135" fill="none" xmlns="http://www.w3.org/2000/svg">
<path d="M25.7205 37.0094C25.0367 37.0675 24.3484 36.98 23.7009 36.7527C23.0535 36.5254 22.4615 36.1635 21.9641 35.6907C21.4667 35.218 21.0752 34.6451 20.8153 34.01C20.5554 33.3749 20.4331 32.6919 20.4565 32.0061L20.5575 29.086C20.6294 27.9268 21.1023 26.8287 21.895 25.9799C22.6878 25.1311 23.7511 24.5845 24.9027 24.4338C25.2538 24.3978 25.6069 24.3864 25.9595 24.3996C28.267 24.4668 35.0795 25.4461 40.1532 34.2659C46.2899 30.4534 50.8037 29.8477 53.2074 29.9051C53.7092 29.9163 54.2096 29.9624 54.7051 30.0429C55.7084 30.2181 56.6384 30.6836 57.38 31.3817C58.5975 31.2546 59.8221 31.2077 61.0457 31.2413C65.613 31.3528 73.077 32.5032 82.694 37.3456C92.9015 42.4986 104.71 51.1702 105.577 72.9873C105.706 76.1172 104.385 85.3334 100.819 95.0483C98.6587 100.937 97.1577 104.718 96.5915 106.771C96.0254 108.825 95.5293 110.606 93.5327 112.186C91.6969 113.606 89.517 113.67 87.0045 113.748C84.8351 113.756 82.6723 113.987 80.5505 114.439C75.7218 115.532 70.7773 116.029 65.8277 115.919C59.8483 115.851 53.9341 114.668 48.3889 112.43C19.363 100.271 22.2268 67.1645 22.2422 66.836C22.3861 64.3079 24.5433 64.0074 26.4508 64.158C27.0854 64.2057 27.7105 64.2336 28.326 64.2416C37.3497 64.4632 40.7248 61.6931 48.0879 55.5994C49.9846 54.0398 50.9097 51.6475 51.339 49.0456L51.0558 49.2376C50.8802 50.2423 50.4274 51.1779 49.7486 51.939C49.0697 52.7002 48.1918 53.2566 47.2137 53.5455C46.2845 55.1401 44.7772 56.3159 43.0045 56.8292C42.5066 57.481 41.8735 58.0173 41.1487 58.4011C40.4238 58.785 39.6245 59.0074 38.8056 59.053C38.164 59.8789 37.3374 60.5424 36.3923 60.99C35.4472 61.4376 34.4101 61.6568 33.3647 61.6299C33.1252 61.6249 32.8862 61.6057 32.6489 61.5725C31.74 62.1165 30.6947 62.3898 29.6359 62.3604C26.7153 62.2963 22.9907 70.0332 22.5122 69.3473C21.7292 68.2217 22.7595 59.2011 23.7122 55.5572C25.0742 50.7818 27.411 46.3404 30.5754 42.5134C28.8397 39.3993 26.8288 36.987 25.6802 36.983" fill="#1D1D1B"/>
<path d="M26.2817 67.4688C26.2817 67.4688 23.0104 97.287 49.6635 108.447C59.1515 112.416 70.325 112.34 79.3823 110.28C85.1686 108.967 89.1247 110.053 90.8597 108.709C93.125 106.925 91.6299 104.612 97.1513 93.9145C100.024 88.3604 101.527 75.6896 101.409 72.8293C100.547 52.0834 88.8216 44.6465 80.6869 40.5548C65.8045 33.0765 56.2815 34.8761 54.8832 35.6075C53.4849 36.3389 56.5829 50.4993 48.5447 57.0939C40.5065 63.6884 38.0093 68.2355 26.2853 67.4762" fill="#753821"/>
<path d="M55.0663 110.209C55.0663 110.209 61.5872 112.311 71.3371 111.512C74.5095 111.243 80.52 110.014 83.4963 109.776C88.5688 109.377 91.1551 110.438 92.1844 107.142C93.5361 102.92 94.2823 100.366 95.4343 97.5709C96.858 94.6163 98.2515 92.2819 99.2283 88.195C100.445 83.3325 101.191 78.3639 101.454 73.3583C99.4011 80.348 96.3891 87.0193 92.5039 93.1817C88.3027 99.8006 81.7003 103.086 77.0853 104.924C69.2031 108.067 62.9205 109.208 55.0438 110.238" fill="#8E4E20"/>
<path d="M24.1421 29.214C24.1554 28.9106 24.2761 28.6219 24.4826 28.3993C24.6892 28.1767 24.9682 28.0348 25.2697 27.9989C25.4687 27.9811 25.6686 27.9763 25.8682 27.9846C27.9395 28.0376 34.4706 29.0797 38.7504 39.5769C45.8269 34.2182 50.7384 33.4293 53.1161 33.49C53.4374 33.4975 53.7578 33.5264 54.0753 33.5764C54.42 33.62 54.7388 33.7824 54.9768 34.0356C55.2148 34.2888 55.3571 34.617 55.3793 34.9637C55.3782 35.0257 55.3712 35.0875 55.3584 35.1481C57.3958 34.6921 59.4804 34.4813 61.5679 34.5203C62.9123 34.5491 64.2509 34.7064 65.5653 34.99L65.709 35.0215C65.9527 35.0713 66.1762 35.192 66.3516 35.3684C66.527 35.5448 66.6464 35.7691 66.6949 36.0131C66.7433 36.257 66.7187 36.5099 66.6241 36.7399C66.5294 36.97 66.369 37.167 66.1629 37.3062L59.1353 42.0267C60.682 43.5027 62.3794 44.8124 64.1995 45.9341C64.3908 46.0604 64.5441 46.2363 64.643 46.443C64.742 46.6497 64.7829 46.8794 64.7613 47.1075C64.7397 47.3357 64.6565 47.5537 64.5205 47.7381C64.3846 47.9226 64.201 48.0666 63.9895 48.1548L55.1283 51.8725C55.4362 52.989 55.8371 54.0777 56.3267 55.1273C56.6836 55.9063 56.9938 56.7058 57.2556 57.5217C57.3486 57.7988 57.3723 58.0945 57.3247 58.3829C57.2772 58.6714 57.1598 58.9438 56.9828 59.1764C56.7895 59.4164 56.5408 59.6058 56.258 59.7282C55.9752 59.8506 55.6669 59.9024 55.3596 59.8791C54.7273 59.8295 54.1016 59.7174 53.4914 59.5444C52.9397 59.3972 52.3763 59.2984 51.8074 59.249C51.6597 59.2471 51.5856 59.2646 51.5894 59.2535C50.755 59.6132 49.854 59.7927 48.9455 59.7803C48.0031 59.7444 47.0676 59.9535 46.2303 60.3874C46.5101 60.5895 46.7447 60.8478 46.9189 61.1459C47.0931 61.4439 47.203 61.775 47.2418 62.1181C47.2435 62.3796 47.1898 62.6386 47.0842 62.8778C46.9786 63.1171 46.8234 63.3312 46.6289 63.5061C46.3878 63.7896 46.1963 64.1117 46.0624 64.459C45.6521 65.3363 44.9819 66.8714 42.7742 66.5175L42.4426 66.4577C41.9254 66.3701 41.403 66.3164 40.8787 66.2969C39.9555 66.2848 39.6759 66.4843 39.5142 67.2689C39.329 68.1794 38.8253 68.9941 38.0935 69.5667C37.3617 70.1392 36.4497 70.4322 35.5214 70.3929C34.6623 70.3976 33.8311 70.0886 33.1838 69.5239C33.0634 69.4078 32.9358 69.2769 32.8011 69.1311C32.6664 68.9852 32.3748 68.686 32.2036 68.5027C32.0761 68.7167 31.9704 68.943 31.8882 69.1782C31.1456 71.1703 29.8272 71.4411 29.1107 71.4391C28 71.3092 26.9775 70.7705 26.2423 69.9279C26.122 69.7942 26.0315 69.6364 25.9771 69.465C25.9227 69.2936 25.9054 69.1125 25.9266 68.9339C26.2862 65.2924 27.0986 61.7099 28.3451 58.2695C27.9814 58.0099 27.6614 57.694 27.397 57.3338C27.2963 57.1893 27.2264 57.0257 27.1918 56.853C27.1572 56.6803 27.1587 56.5023 27.196 56.3302C28.4579 50.7845 32.4502 45.7252 34.886 43.0424C32.9636 38.9545 29.5671 33.4881 25.8269 33.3985C25.6815 33.3931 25.536 33.3961 25.3909 33.4076C25.2131 33.423 25.034 33.4005 24.8654 33.3416C24.6969 33.2828 24.5427 33.1888 24.4131 33.066C24.2835 32.9432 24.1814 32.7944 24.1135 32.6292C24.0456 32.4641 24.0135 32.2865 24.0192 32.108L24.1421 29.214Z" fill="#239F38"/>
</svg>
