<svg width="116" height="117" viewBox="0 0 116 117" fill="none" xmlns="http://www.w3.org/2000/svg">
<g clip-path="url(#clip0)">
<path fill-rule="evenodd" clip-rule="evenodd" d="M104.522 48.8223C105.557 49.7185 106.989 49.9165 108.32 49.749C109.651 49.5816 110.779 48.6832 111.441 47.5195L112.763 45.192C113.821 43.3301 113.244 40.5392 111.508 39.2449C111.508 39.2449 111.274 39.1122 110.574 38.7141C108.706 37.6526 102.47 35.0334 93.9334 39.7273C90.7791 33.3168 87.4391 30.4955 85.5708 29.4339C85.1037 29.1685 84.6366 28.9031 84.403 28.7704C83.3366 28.4724 82.5038 28.3071 81.4064 28.6072C80.6045 27.8437 79.6703 27.3129 78.5026 26.6494C74.7659 24.5263 68.0635 21.6417 57.6414 20.9541C46.3863 20.1011 32.3767 21.3776 20.894 38.8684C19.2058 41.2959 15.776 49.5073 13.95 59.2458C12.8077 65.0623 12.124 68.9842 11.6654 70.8789C11.2068 72.7735 10.5146 74.5354 11.356 76.8607C12.096 78.8207 13.8321 80.115 15.934 81.3092C17.5688 82.2381 19.0713 83.3997 20.9087 85.0595C24.35 88.2463 28.157 91.333 32.3608 93.7216C37.7323 96.7736 43.1657 98.6292 48.5287 99.5212C78.4727 103.912 91.8432 75.486 91.9755 75.2532C92.6676 73.4913 91.9276 71.5314 90.2928 70.6025C89.8257 70.3371 89.1251 69.9391 88.658 69.6737C81.1846 65.4274 79.7045 61.5076 76.674 52.7043C75.8327 50.379 76.19 48.1189 77.2789 45.6588C77.2789 45.6588 77.5124 45.7915 77.3802 46.0242C76.9525 47.3206 76.7274 49.3479 78.3003 51.4732C78.2694 52.0714 78.3397 53.035 78.7759 53.8986C79.212 54.7622 79.6482 55.6257 80.2166 56.2566C80.5908 58.3165 81.494 59.4455 82.6618 60.109C83.036 62.1689 84.1418 64.0288 85.7766 64.9577C86.0102 65.0904 86.2437 65.2231 86.4773 65.3558C86.9134 66.2193 87.7154 66.9829 88.6495 67.5136C90.985 68.8406 93.6777 67.9075 94.4093 67.7074C95.6389 67.1745 96.5336 66.1435 96.9613 64.847C98.5398 59.8941 98.2189 54.4777 97.5717 50.7232C100.762 49.4573 103.587 48.2915 104.522 48.8223Z" fill="black"/>
<path fill-rule="evenodd" clip-rule="evenodd" d="M89.1732 73.6612C89.1732 73.6612 77.125 99.7593 49.6797 95.8649C40.0201 94.379 30.8106 88.8384 24.1616 82.5975C19.9184 78.6472 16.2521 77.4877 15.512 75.5278C14.5694 72.837 17.0286 71.7712 17.7487 60.1728C18.0582 54.191 23.2072 42.9538 24.7632 40.7591C35.3511 24.2993 48.8317 23.9538 57.4559 24.5436C73.5055 25.6577 80.3881 32.0313 81.159 33.393C82.0623 34.522 70.3516 44.8019 73.9505 54.2359C77.3159 63.5373 79.0999 68.5535 89.1732 73.6612Z" fill="#794130"/>
<path fill-rule="evenodd" clip-rule="evenodd" d="M44.2153 94.6071C44.2153 94.6071 37.9181 93.1843 30.2731 87.609C27.8363 85.9166 23.3596 81.8336 21.1564 80.2739C17.2171 77.4199 14.5863 77.1566 15.239 73.8329C16.2885 69.8109 16.778 67.3181 17.2985 64.2271C17.5855 61.0034 17.4757 58.4779 18.7587 54.5887C21.3557 46.2119 24.1328 41.3242 24.1328 41.3242C24.1328 41.3242 21.3727 50.5319 21.6176 62.0628C21.7134 69.5065 25.7315 75.4841 28.5425 79.2365C33.7283 85.8776 38.2051 89.9607 44.2153 94.6071Z" fill="#91522E"/>
<path fill-rule="evenodd" clip-rule="evenodd" d="M109.859 43.2334C110.124 42.7679 109.921 42.037 109.454 41.7716C109.454 41.7716 109.221 41.6389 108.987 41.5063C107.352 40.5774 101.351 38.0909 92.7208 44.5794C89.5271 36.6071 85.7201 33.5203 83.8517 32.4588C83.3846 32.1934 83.1511 32.0607 83.1511 32.0607C82.4505 31.6626 81.7189 31.8627 81.3222 32.5609C81.3222 32.5609 81.3222 32.5609 81.1899 32.7937C79.5861 31.2666 77.85 29.9723 76.4487 29.1761C74.8139 28.2473 73.5139 27.8165 73.0469 27.5512L72.8133 27.4185C72.3462 27.1531 71.8482 27.4859 71.4824 27.5859C71.2179 28.0514 70.9534 28.5169 71.2883 29.015L74.513 36.3892C73.7814 36.5893 71.7189 36.9568 68.4578 37.2591C68.092 37.3592 67.7262 37.4592 67.4617 37.9247C67.1972 38.3902 67.2985 38.7556 67.6334 39.2538L73.0218 46.6258C72.3915 47.1913 71.2632 48.0897 70.2672 48.7553C69.6369 49.3208 68.7731 49.7537 68.2751 50.0865C67.6448 50.652 67.6138 51.2502 67.7151 51.6156C67.6842 52.2138 68.019 52.712 68.7197 53.11C69.1868 53.3754 69.6538 53.6408 70.4867 53.8062C70.9538 54.0716 71.5531 54.1042 72.0202 54.3696C72.2538 54.5023 72.2538 54.5023 72.2538 54.5023C72.6899 55.3659 73.3905 55.764 74.0912 56.162C75.0253 56.6928 75.5937 57.3237 76.1621 57.9545C75.5628 57.9218 74.8312 58.1219 74.4345 58.8202C74.3022 59.0529 74.0378 59.5184 74.2404 60.2493C74.3417 60.6148 74.2094 60.8475 74.3107 61.2129C74.1475 62.0439 74.0547 63.8384 76.0553 64.6673L76.2888 64.8C76.7559 65.0653 77.3552 65.098 77.8223 65.3634C78.523 65.7615 78.6243 66.1269 78.4611 66.9578C77.738 69.318 78.9761 70.9451 80.1438 71.6085C80.8444 72.0066 81.6773 72.172 82.4088 71.9719L82.7746 71.8718C83.1404 71.7718 83.5062 71.6717 83.5062 71.6717C83.5062 71.6717 83.6075 72.0372 83.4753 72.2699C83.0166 74.1645 84.0521 75.0607 84.7527 75.4588C85.9205 76.1223 87.6171 75.8548 87.7494 75.6221C88.1152 75.522 88.2474 75.2893 88.3797 75.0565C90.1298 71.4326 91.1483 68.0088 91.5365 65.1506C92.1359 65.1832 92.6339 64.8504 92.6339 64.8504C92.9997 64.7504 93.1319 64.5176 93.3964 64.0521C95.1071 58.8664 94.2179 52.8192 93.672 49.4302C97.1582 47.1006 102.839 44.1707 105.875 45.8958C106.109 46.0285 106.109 46.0285 106.342 46.1612C106.576 46.2939 107.043 46.5593 107.409 46.4592C107.774 46.3592 108.14 46.2591 108.039 45.8937L109.859 43.2334Z" fill="#30A048"/>
</g>
<defs>
<clipPath id="clip0">
<path d="M42.979 0L115.144 41.0029L72.1648 116.646L3.26633e-05 75.6426L42.979 0Z" fill="white"/>
</clipPath>
</defs>
</svg>
