<svg width="16" height="15" viewBox="0 0 16 15" fill="none" xmlns="http://www.w3.org/2000/svg">
<path d="M15.1626 12.9808C14.6632 14.3883 12.8651 15.0921 11.5664 14.9915C9.76835 14.7905 7.87035 13.8856 6.37194 12.8803C4.27416 11.3723 2.17637 8.95945 1.07754 6.44608C0.278381 4.63646 0.0785923 2.52523 1.27732 0.916673C1.7768 0.313465 2.17637 0.0118607 2.97553 0.0118607C3.97447 -0.088674 4.17426 0.514534 4.47394 1.51988C4.77363 2.22362 5.07331 2.92737 5.2731 3.63111C5.67268 4.93806 4.37405 5.03859 4.17426 6.14448C4.07437 6.84822 4.87352 7.75303 5.2731 8.2557C5.97236 9.26105 6.87141 10.0653 7.87035 10.6685C8.46972 11.0707 9.36877 11.6739 9.96813 11.2717C10.9671 10.7691 10.8672 9.05998 12.2657 9.56265C12.965 9.86426 13.6642 10.2664 14.3635 10.6685C15.6621 11.1712 15.5622 11.7744 15.1626 12.9808C15.4623 12.076 14.863 13.8856 15.1626 12.9808Z" fill="#4C85F7"/>
</svg>
