<svg width="409" height="698" viewBox="0 0 409 698" fill="none" xmlns="http://www.w3.org/2000/svg">
<mask id="mask0" mask-type="alpha" maskUnits="userSpaceOnUse" x="2" y="-22" width="451" height="710">
<path d="M247.554 158.68C247.554 163.396 250.694 167.169 254.88 169.056C259.067 170.942 264.3 170.942 268.487 169.056L336.519 132.269L418.158 158.68C423.391 160.566 427.578 159.623 431.764 156.793C435.951 153.964 436.998 150.191 436.998 145.474L424.438 48.3182C423.391 43.6019 420.251 39.8289 416.065 37.9423C413.971 36.9991 411.878 36.9991 410.831 36.9991C407.691 36.9991 405.598 37.9423 402.458 38.8856L332.332 84.1622L259.067 59.6374C254.88 57.7508 249.647 58.6941 245.46 61.5239C241.274 64.3537 239.181 68.1267 240.227 72.843L247.554 158.68Z" fill="#F8FBFF"/>
<path d="M280.218 47.5197C279.885 48.6355 280.362 49.7071 281.22 50.3921C282.077 51.0772 283.315 51.3756 284.439 51.168L303.126 46.3443L320.578 57.2477C321.683 57.9924 322.74 58.008 323.93 57.5772C325.12 57.1465 325.633 56.3136 325.966 55.1978L329.841 31.4971C329.926 30.3216 329.449 29.25 328.591 28.565C328.162 28.2224 327.667 28.1031 327.42 28.0434C326.677 27.8644 326.115 27.9682 325.306 28.0123L305.525 34.7249L289.921 24.7453C289.063 24.0603 287.759 23.985 286.569 24.4158C285.379 24.8465 284.618 25.6197 284.533 26.7952L280.218 47.5197Z" fill="#F8FBFF"/>
<path d="M25.639 515.52C25.3066 516.635 25.7836 517.707 26.6411 518.392C27.4986 519.077 28.7366 519.376 29.86 519.168L48.547 514.344L65.9994 525.248C67.1045 525.992 68.1614 526.008 69.3513 525.577C70.5411 525.147 71.0546 524.314 71.387 523.198L75.2623 499.497C75.347 498.322 74.8701 497.25 74.0126 496.565C73.5838 496.222 73.0886 496.103 72.841 496.043C72.0982 495.864 71.5365 495.968 70.7272 496.012L50.9467 502.725L35.3422 492.745C34.4847 492.06 33.1802 491.985 31.9904 492.416C30.8005 492.847 30.0394 493.62 29.9547 494.795L25.639 515.52Z" fill="#F8FBFF"/>
<path d="M21.2834 399.045C21.4771 400.187 22.3922 400.996 23.4833 401.314C24.5745 401.631 25.8415 401.458 26.7777 400.862L41.739 389.694L62.5897 393.377C63.9342 393.66 64.9091 393.292 65.8066 392.468C66.704 391.644 66.8025 390.695 66.6089 389.553L59.5785 366.447C59.1314 365.34 58.2163 364.531 57.1251 364.213C56.5796 364.055 56.0728 364.124 55.8193 364.159C55.0591 364.263 54.591 364.561 53.8695 364.894L38.75 378.186L20.0041 374.682C18.9129 374.365 17.6846 374.767 16.7872 375.591C15.8897 376.416 15.5378 377.399 15.9849 378.506L21.2834 399.045Z" fill="#F8FBFF"/>
<path d="M32.6989 669.016C32.8926 670.158 33.8078 670.967 34.8989 671.284C35.99 671.602 37.257 671.428 38.1932 670.832L53.1545 659.665L74.0052 663.347C75.3497 663.63 76.3246 663.263 77.2221 662.439C78.1196 661.614 78.218 660.666 78.0244 659.524L70.994 636.418C70.5469 635.311 69.6318 634.502 68.5407 634.184C67.9951 634.025 67.4883 634.095 67.2349 634.13C66.4746 634.234 66.0065 634.532 65.285 634.865L50.1655 648.157L31.4196 644.653C30.3285 644.336 29.1001 644.738 28.2027 645.562C27.3052 646.386 26.9533 647.369 27.4004 648.476L32.6989 669.016Z" fill="#F8FBFF"/>
<path d="M237.973 523.52C237.641 524.635 238.118 525.707 238.975 526.392C239.833 527.077 241.071 527.376 242.194 527.168L260.881 522.344L278.334 533.248C279.439 533.992 280.496 534.008 281.686 533.577C282.876 533.147 283.389 532.314 283.721 531.198L287.597 507.497C287.682 506.322 287.205 505.25 286.347 504.565C285.918 504.222 285.423 504.103 285.175 504.043C284.433 503.864 283.871 503.968 283.062 504.012L263.281 510.725L247.677 500.745C246.819 500.06 245.515 499.985 244.325 500.416C243.135 500.847 242.374 501.62 242.289 502.795L237.973 523.52Z" fill="#F8FBFF"/>
<path d="M176.161 472.008C176.309 473.594 177.483 474.784 178.95 475.312C180.417 475.841 182.177 475.708 183.526 474.968L205.254 460.873L233.537 467.688C235.356 468.189 236.734 467.766 238.054 466.709C239.373 465.651 239.607 464.355 239.459 462.769L232.194 430.413C231.695 428.853 230.521 427.664 229.054 427.135C228.32 426.871 227.616 426.924 227.264 426.951C226.208 427.03 225.534 427.4 224.507 427.797L202.34 444.8L176.933 438.408C175.466 437.879 173.735 438.329 172.416 439.387C171.097 440.444 170.511 441.766 171.01 443.326L176.161 472.008Z" fill="#F8FBFF"/>
<path d="M287.88 225.298C287.221 227.508 288.166 229.631 289.865 230.988C291.563 232.345 294.016 232.936 296.241 232.525L333.257 222.97L367.828 244.567C370.017 246.043 372.11 246.073 374.467 245.22C376.824 244.367 377.841 242.717 378.5 240.507L386.176 193.56C386.344 191.231 385.399 189.108 383.7 187.751C382.851 187.073 381.87 186.837 381.38 186.718C379.908 186.364 378.796 186.569 377.193 186.657L338.01 199.953L307.1 180.185C305.402 178.828 302.818 178.679 300.461 179.533C298.104 180.386 296.596 181.917 296.428 184.246L287.88 225.298Z" fill="#F8FBFF"/>
<path d="M241.91 356.517C243.115 359.42 246.013 361.092 249.072 361.387C252.131 361.682 255.352 360.6 257.446 358.573L289.914 321.858L346.913 321.226C350.616 321.305 352.952 319.858 354.805 317.25C356.658 314.643 356.338 312.104 355.132 309.201L322.564 252.002C320.714 249.316 317.817 247.643 314.758 247.348C313.228 247.2 311.94 247.633 311.296 247.85C309.363 248.499 308.316 249.513 306.625 250.743L275.039 293.116L223.676 293.177C220.617 292.882 217.637 294.545 215.784 297.152C213.93 299.76 213.606 302.515 215.456 305.202L241.91 356.517Z" fill="#F8FBFF"/>
<path d="M251.063 641.29C249.572 645.155 250.954 649.051 253.789 651.667C256.625 654.284 260.914 655.622 264.941 655.146L332.325 642.387L390.892 684.906C394.586 687.79 398.315 688.088 402.641 686.839C406.966 685.59 409.016 682.765 410.506 678.899L430.91 596.058C431.542 591.924 430.16 588.029 427.325 585.413C425.907 584.104 424.192 583.569 423.334 583.302C420.76 582.499 418.747 582.737 415.875 582.707L344.093 601.888L291.793 563.056C288.957 560.44 284.37 559.875 280.044 561.124C275.719 562.373 272.811 564.93 272.179 569.063L251.063 641.29Z" fill="#F8FBFF"/>
<path d="M302.312 480.86C303.896 484.672 307.7 486.868 311.718 487.256C315.735 487.643 319.965 486.222 322.715 483.56L365.352 435.345L440.204 434.516C445.067 434.619 448.134 432.719 450.568 429.295C453.002 425.87 452.581 422.536 450.998 418.724L408.229 343.609C405.8 340.082 401.995 337.885 397.978 337.498C395.969 337.304 394.277 337.872 393.431 338.157C390.893 339.01 389.518 340.341 387.297 341.956L345.818 397.601L278.367 397.681C274.35 397.293 270.437 399.477 268.003 402.902C265.569 406.326 265.144 409.944 267.573 413.472L302.312 480.86Z" fill="#F8FBFF"/>
<path d="M329.506 526.957C328.129 529.164 328.497 531.671 329.905 533.543C331.314 535.414 333.763 536.65 336.272 536.756L378.846 535.612L409.338 567.253C411.236 569.372 413.47 569.92 416.255 569.585C419.04 569.249 420.631 567.731 422.008 565.524L444.492 517.095C445.379 514.641 445.011 512.133 443.603 510.262C442.899 509.326 441.919 508.831 441.429 508.584C439.96 507.843 438.705 507.789 436.96 507.489L390.929 512.112L363.805 483.331C362.397 481.459 359.672 480.664 356.887 481C354.102 481.335 352.021 482.606 351.134 485.06L329.506 526.957Z" fill="#F8FBFF"/>
<path d="M284.664 372.408C284.332 373.524 284.809 374.596 285.667 375.281C286.524 375.966 287.762 376.264 288.885 376.057L307.572 371.233L325.025 382.136C326.13 382.881 327.187 382.897 328.377 382.466C329.567 382.035 330.08 381.202 330.412 380.086L334.288 356.386C334.372 355.21 333.895 354.139 333.038 353.454C332.609 353.111 332.114 352.992 331.866 352.932C331.124 352.753 330.562 352.857 329.753 352.901L309.972 359.614L294.368 349.634C293.51 348.949 292.206 348.874 291.016 349.304C289.826 349.735 289.065 350.508 288.98 351.684L284.664 372.408Z" fill="#F8FBFF"/>
<path d="M121.245 310.408C120.912 311.524 121.389 312.596 122.247 313.281C123.104 313.966 124.342 314.264 125.466 314.057L144.153 309.233L161.605 320.136C162.71 320.881 163.767 320.897 164.957 320.466C166.147 320.035 166.661 319.202 166.993 318.086L170.868 294.386C170.953 293.21 170.476 292.139 169.619 291.454C169.19 291.111 168.695 290.992 168.447 290.932C167.704 290.753 167.142 290.857 166.333 290.901L146.553 297.614L130.948 287.634C130.091 286.949 128.786 286.874 127.596 287.304C126.406 287.735 125.645 288.508 125.561 289.684L121.245 310.408Z" fill="#F8FBFF"/>
<path d="M182.888 263.983C182.852 265.648 183.933 267 185.397 267.691C186.861 268.383 188.709 268.415 190.201 267.774L214.498 255.198L243.125 265.019C244.959 265.717 246.444 265.41 247.943 264.436C249.443 263.462 249.841 262.136 249.876 260.471L246.171 226.091C245.837 224.419 244.756 223.068 243.292 222.376C242.56 222.031 241.821 222.018 241.451 222.012C240.343 221.992 239.597 222.313 238.481 222.627L213.381 238.187L187.696 229.083C186.232 228.392 184.377 228.693 182.878 229.667C181.378 230.64 180.611 231.96 180.945 233.631L182.888 263.983Z" fill="#F8FBFF"/>
<path d="M153.227 192.496C152.813 194.119 153.563 195.641 154.839 196.587C156.114 197.534 157.916 197.905 159.522 197.553L186.167 189.719L211.952 204.604C213.588 205.625 215.112 205.598 216.801 204.921C218.49 204.244 219.182 203.019 219.595 201.396L223.794 167.061C223.848 165.364 223.098 163.842 221.822 162.895C221.184 162.422 220.464 162.274 220.103 162.199C219.023 161.976 218.219 162.153 217.056 162.254L188.946 172.862L165.878 159.221C164.602 158.274 162.718 158.227 161.029 158.904C159.339 159.581 158.288 160.731 158.234 162.429L153.227 192.496Z" fill="#F8FBFF"/>
<path d="M70.9829 265.642C72.1925 267.26 74.237 267.902 76.1566 267.68C78.0763 267.458 79.871 266.372 80.823 264.857L94.7203 238.122L129.492 230.239C131.771 229.8 132.965 228.608 133.675 226.768C134.385 224.929 133.776 223.418 132.566 221.8L103.342 191.087C101.774 189.687 99.729 189.044 97.8094 189.266C96.8496 189.377 96.1317 189.811 95.7727 190.029C94.6959 190.68 94.2199 191.438 93.3849 192.413L80.947 222.493L49.5307 229.286C47.611 229.508 46.0582 230.917 45.3481 232.757C44.638 234.596 44.8878 236.324 46.4563 237.724L70.9829 265.642Z" fill="#F8FBFF"/>
<path d="M34.5325 140.408C34.2002 141.524 34.6771 142.596 35.5346 143.281C36.3921 143.966 37.6302 144.264 38.7535 144.057L57.4406 139.233L74.893 150.136C75.9981 150.881 77.055 150.897 78.2448 150.466C79.4347 150.035 79.9482 149.202 80.2805 148.086L84.1558 124.386C84.2406 123.21 83.7636 122.139 82.9061 121.454C82.4774 121.111 81.9822 120.992 81.7346 120.932C80.9917 120.753 80.43 120.857 79.6207 120.901L59.8402 127.614L44.2358 117.634C43.3783 116.949 42.0738 116.874 40.8839 117.304C39.6941 117.735 38.933 118.508 38.8482 119.684L34.5325 140.408Z" fill="#F8FBFF"/>
<path d="M3.59537 31.0338C2.67734 31.8415 2.48064 32.9822 2.8304 33.9647C3.18015 34.9471 4.07637 35.7714 5.16055 36.1077L23.972 40.5229L32.8119 57.9041C33.3409 59.0515 34.2415 59.5493 35.5092 59.7241C36.777 59.8989 37.6907 59.4176 38.6087 58.6099L55.3693 39.9934C56.1081 39.0209 56.3048 37.8802 55.955 36.8977C55.7801 36.4065 55.4216 36.0768 55.2424 35.9119C54.7047 35.4174 54.1626 35.2492 53.4412 34.9162L32.6189 31.6251L24.8457 15.8858C24.4959 14.9033 23.4161 14.2406 22.1483 14.0658C20.8806 13.891 19.7876 14.2075 19.0489 15.18L3.59537 31.0338Z" fill="#F8FBFF"/>
<path d="M16.7458 311.408C16.4135 312.524 16.8904 313.596 17.7479 314.281C18.6054 314.966 19.8435 315.264 20.9668 315.057L39.6539 310.233L57.1063 321.136C58.2114 321.881 59.2684 321.897 60.4582 321.466C61.6481 321.035 62.1616 320.202 62.4939 319.086L66.3692 295.386C66.454 294.21 65.977 293.139 65.1195 292.454C64.6908 292.111 64.1956 291.992 63.9479 291.932C63.2051 291.753 62.6434 291.857 61.8341 291.901L42.0536 298.614L26.4491 288.634C25.5916 287.949 24.2871 287.874 23.0972 288.304C21.9074 288.735 21.1463 289.508 21.0615 290.684L16.7458 311.408Z" fill="#F8FBFF"/>
<path d="M74.1914 472.485C74.8569 473.473 76.047 473.905 77.1901 473.822C78.3333 473.739 79.4295 473.142 80.0402 472.269L89.1 456.796L109.927 453.007C111.29 452.805 112.033 452.129 112.511 451.059C112.989 449.988 112.676 449.078 112.01 448.09L95.6706 429.173C94.7858 428.305 93.5958 427.873 92.4526 427.956C91.8811 427.997 91.4426 428.236 91.2233 428.356C90.5656 428.714 90.2602 429.151 89.7356 429.707L81.4352 447.197L62.6282 450.425C61.485 450.508 60.5219 451.303 60.0443 452.373C59.5666 453.444 59.6605 454.473 60.5452 455.342L74.1914 472.485Z" fill="#F8FBFF"/>
<path d="M177.101 624.089C177.92 625.305 179.385 625.837 180.793 625.735C182.2 625.633 183.549 624.898 184.301 623.823L195.454 604.775L221.093 600.111C222.77 599.862 223.685 599.031 224.273 597.713C224.861 596.395 224.476 595.275 223.657 594.058L203.542 570.771C202.453 569.702 200.988 569.171 199.581 569.273C198.877 569.324 198.338 569.618 198.068 569.765C197.258 570.206 196.882 570.744 196.236 571.428L186.018 592.959L162.866 596.932C161.459 597.034 160.274 598.013 159.686 599.331C159.098 600.649 159.213 601.916 160.302 602.985L177.101 624.089Z" fill="#F8FBFF"/>
<path d="M155.708 665.408C155.375 666.524 155.852 667.596 156.71 668.281C157.567 668.966 158.805 669.264 159.929 669.057L178.616 664.233L196.068 675.136C197.173 675.881 198.23 675.897 199.42 675.466C200.61 675.035 201.123 674.202 201.456 673.086L205.331 649.386C205.416 648.21 204.939 647.139 204.081 646.454C203.653 646.111 203.157 645.992 202.91 645.932C202.167 645.753 201.605 645.857 200.796 645.901L181.015 652.614L165.411 642.634C164.554 641.949 163.249 641.874 162.059 642.304C160.869 642.735 160.108 643.508 160.023 644.684L155.708 665.408Z" fill="#F8FBFF"/>
<path d="M71.198 78.6604C70.8594 79.9941 71.4764 81.2434 72.5248 82.0201C73.5733 82.7968 75.0531 83.1008 76.3724 82.8105L98.2516 76.3601L119.441 88.5714C120.785 89.4089 122.037 89.3853 123.424 88.8283C124.811 88.2714 125.378 87.2652 125.717 85.9316L129.14 57.7283C129.183 56.3339 128.566 55.0845 127.517 54.3078C126.993 53.9195 126.401 53.7979 126.105 53.7371C125.217 53.5547 124.558 53.6998 123.602 53.7841L100.522 62.5135L81.5645 51.3222C80.5161 50.5455 78.9685 50.5082 77.5814 51.0652C76.1944 51.6222 75.3316 52.5675 75.2889 53.962L71.198 78.6604Z" fill="#F8FBFF"/>
<path d="M109.885 526.413C108.972 528.047 109.33 529.847 110.416 531.156C111.502 532.466 113.316 533.285 115.132 533.287L145.832 531.189L169.017 553.127C170.465 554.601 172.099 554.929 174.098 554.604C176.096 554.279 177.189 553.135 178.102 551.5L192.551 515.859C193.101 514.06 192.743 512.261 191.657 510.952C191.114 510.297 190.388 509.969 190.025 509.805C188.937 509.314 188.029 509.313 186.758 509.148L153.69 513.86L133.042 493.887C131.956 492.578 129.96 492.085 127.961 492.41C125.963 492.736 124.507 493.716 123.957 495.514L109.885 526.413Z" fill="#F8FBFF"/>
<path d="M12.0299 591.043C10.7811 593.28 11.2711 595.742 12.757 597.533C14.2429 599.325 16.7247 600.446 19.2096 600.449L61.2131 597.579L92.9352 627.595C94.9175 629.611 97.1526 630.06 99.8873 629.615C102.622 629.17 104.117 627.605 105.366 625.369L125.135 576.604C125.888 574.143 125.398 571.681 123.912 569.889C123.169 568.993 122.176 568.545 121.68 568.321C120.191 567.648 118.948 567.647 117.209 567.421L71.9654 573.868L43.7145 546.541C42.2287 544.75 39.4971 544.076 36.7624 544.521C34.0278 544.966 32.036 546.306 31.2836 548.767L12.0299 591.043Z" fill="#F8FBFF"/>
<path d="M96.5133 384.248C95.8924 386.569 96.9409 388.76 98.7529 390.135C100.565 391.509 103.14 392.067 105.449 391.584L143.773 380.728L180.473 402.423C182.8 403.909 184.984 403.891 187.417 402.944C189.85 401.997 190.862 400.252 191.483 397.931L198.093 348.78C198.199 346.347 197.151 344.156 195.339 342.781C194.433 342.094 193.403 341.871 192.887 341.76C191.342 341.425 190.188 341.666 188.518 341.796L148.046 356.607L115.219 336.733C113.407 335.358 110.708 335.265 108.275 336.212C105.842 337.158 104.315 338.792 104.209 341.225L96.5133 384.248Z" fill="#F8FBFF"/>
<path d="M145.847 142.762C146.798 144.446 148.681 145.281 150.556 145.271C152.432 145.261 154.3 144.406 155.414 143.049L172.281 118.806L206.759 114.906C209.008 114.725 210.312 113.704 211.236 112.01C212.16 110.316 211.772 108.798 210.821 107.114L186.73 74.4767C185.405 72.9637 183.523 72.1292 181.647 72.1393C180.709 72.1443 179.962 72.4861 179.588 72.657C178.467 73.1697 177.91 73.8483 176.979 74.6978L161.078 102.314L129.971 105.52C128.095 105.53 126.417 106.722 125.493 108.416C124.57 110.11 124.584 111.798 125.909 113.311L145.847 142.762Z" fill="#F8FBFF"/>
<path d="M172.802 49.3775C173.754 51.0614 175.636 51.8959 177.512 51.8858C179.387 51.8758 181.256 51.0213 182.37 49.6641L199.237 25.4211L233.714 21.5207C235.964 21.3398 237.268 20.3194 238.192 18.6255C239.116 16.9315 238.728 15.4135 237.776 13.7296L213.686 -18.9081C212.361 -20.4211 210.478 -21.2555 208.603 -21.2455C207.665 -21.2405 206.918 -20.8987 206.544 -20.7278C205.423 -20.2151 204.866 -19.5365 203.935 -18.687L188.034 8.92883L156.926 12.1355C155.051 12.1456 153.373 13.3369 152.449 15.0308C151.525 16.7248 151.539 18.4137 152.865 19.9267L172.802 49.3775Z" fill="#F8FBFF"/>
</mask>
<g mask="url(#mask0)">
<rect x="-39.3223" y="-6" width="479.5" height="698" fill="url(#paint0_linear)"/>
</g>
<defs>
<linearGradient id="paint0_linear" x1="-57.8104" y1="318.5" x2="440.08" y2="331.302" gradientUnits="userSpaceOnUse">
<stop stop-color="#F1F6FF"/>
<stop offset="1" stop-color="white"/>
</linearGradient>
</defs>
</svg>
