<svg width="13" height="16" viewBox="0 0 13 16" fill="none" xmlns="http://www.w3.org/2000/svg">
<path fill-rule="evenodd" clip-rule="evenodd" d="M11.7866 12.2513L9.18665 13.5201V2.8286L11.7866 1.55963V12.2513ZM1.21346 2.8286L3.98679 1.5598V12.2515L1.21346 13.5203V2.8286ZM7.9733 13.5202L5.19996 12.2515V1.5598L7.9733 2.8286V13.5202ZM12.7624 0.0947859C12.5875 -0.0164941 12.3895 -0.0307074 12.2016 0.0569993L8.54031 1.77283L4.87379 0.0569993C4.86269 0.0517993 4.85333 0.0504126 4.84207 0.0459059C4.81728 0.0361993 4.79405 0.0282259 4.7684 0.0218126C4.74448 0.0159193 4.7216 0.0112393 4.69733 0.00811927C4.67203 0.00499927 4.64741 0.0036126 4.62193 0.0036126C4.5968 0.0036126 4.57253 0.00499927 4.54757 0.00811927C4.52296 0.0110659 4.49904 0.0159193 4.47477 0.0219859C4.44947 0.0283993 4.4252 0.0361993 4.40076 0.0457326C4.38932 0.0502393 4.37719 0.0517993 4.36592 0.0569993L0.39312 1.89277C0.179747 1.99244 0 2.20668 0 2.44241V14.4733C0 14.6806 0.14924 14.8737 0.324307 14.9852C0.423107 15.0481 0.55796 15.08 0.671667 15.08C0.759027 15.08 0.857653 15.0611 0.939293 15.0229L4.61708 13.3071L8.29157 15.0229C8.29244 15.0233 8.29487 15.0235 8.29591 15.024C8.33179 15.0405 8.36975 15.0524 8.40771 15.0616C8.41655 15.0639 8.42573 15.0656 8.43457 15.0673C8.47288 15.0748 8.51188 15.08 8.55088 15.08C8.58988 15.08 8.62871 15.0748 8.66701 15.0673C8.67603 15.0656 8.68487 15.0639 8.69371 15.0616C8.73167 15.0524 8.76893 15.0405 8.80481 15.024C8.80585 15.0235 8.80689 15.0233 8.80776 15.0229L12.6934 13.1872C12.9069 13.0875 13 12.8731 13 12.6375V0.606639C13 0.399333 12.9374 0.206239 12.7624 0.0947859Z" fill="#428CFD"/>
</svg>
