<svg width="1920" height="1029" viewBox="0 0 1920 1029" fill="none" xmlns="http://www.w3.org/2000/svg">
<path d="M743.268 90.3146C440.045 192.716 120.961 108.981 -0.677742 54.3141L-41 776.324C-4.70997 917.659 204.966 1150.73 753.348 952.326C1301.73 753.923 1786.94 869.658 1961 952.326L1938.82 194.316C1563.83 -51.6873 1122.3 -37.6871 743.268 90.3146Z" fill="#FE664D"/>
<path fill-rule="evenodd" clip-rule="evenodd" d="M48.419 486.031C48.419 486.031 22.3221 442.25 -2.23564 468.441L-5.96948 515.521C-1.29381 527.374 52.2465 570.56 52.2465 570.56C52.2465 570.56 123.283 520.121 106.956 483.392C94.1754 453.02 59.393 454.913 48.419 486.031Z" fill="#F75845"/>
<path fill-rule="evenodd" clip-rule="evenodd" d="M149.439 384.544C149.439 384.544 138.823 309.6 96.3494 342.256C59.8506 371.244 122.699 475.015 122.699 475.015C122.699 475.015 212.377 449.587 220.098 404.528C232.137 358.464 173.634 351.59 149.439 384.544Z" fill="#F75845"/>
<path fill-rule="evenodd" clip-rule="evenodd" d="M216.058 546.471C216.058 546.471 224.451 512.669 200.701 519.276C180.131 525.349 189.05 580.456 189.05 580.456C189.05 580.456 231.693 585.071 242.756 567.18C255.834 549.605 232.062 536.584 216.058 546.471Z" fill="#F75845"/>
<path fill-rule="evenodd" clip-rule="evenodd" d="M1880.71 251.629C1880.71 251.629 1899.61 175.497 1846.12 190.379C1799.79 204.058 1819.88 328.172 1819.88 328.172C1819.88 328.172 1915.92 338.566 1940.84 298.271C1970.29 258.686 1916.75 229.361 1880.71 251.629Z" fill="#F75845"/>
<path fill-rule="evenodd" clip-rule="evenodd" d="M19.4043 335.228C19.4043 335.228 -2.57347 318.91 -4.96815 338.137C-6.78776 354.894 35.8815 365.101 35.8815 365.101C35.8815 365.101 52.1334 335.569 42.5044 322.13C33.7144 307.325 17.0762 320.628 19.4043 335.228Z" fill="#F75845"/>
<path fill-rule="evenodd" clip-rule="evenodd" d="M179.518 147.776C179.518 147.776 161.94 134.725 160.024 150.103C158.569 163.506 192.697 171.67 192.697 171.67C192.697 171.67 205.695 148.049 197.994 137.3C190.964 125.459 177.656 136.099 179.518 147.776Z" fill="#F75845"/>
<path fill-rule="evenodd" clip-rule="evenodd" d="M215.121 627.798C215.121 627.798 170.932 594.99 166.117 633.647C162.459 667.339 248.251 687.863 248.251 687.863C248.251 687.863 280.928 628.483 261.567 601.463C243.894 571.696 210.44 598.442 215.121 627.798Z" fill="#F75845"/>
<path fill-rule="evenodd" clip-rule="evenodd" d="M266.717 752.583C266.717 752.583 264.772 670.337 214.778 700.195C171.7 726.852 226.367 846.846 226.367 846.846C226.367 846.846 326.398 830.783 340.453 783.125C359.296 734.93 297.018 720.082 266.717 752.583Z" fill="#F75845"/>
<path fill-rule="evenodd" clip-rule="evenodd" d="M110.952 857.514C110.952 857.514 123.332 803.887 85.9789 814.947C53.6385 825.08 69.1685 911.915 69.1685 911.915C69.1685 911.915 136.663 918.093 153.676 889.537C173.881 861.426 135.981 841.475 110.952 857.514Z" fill="#F75845"/>
<path fill-rule="evenodd" clip-rule="evenodd" d="M261.014 459.156C261.014 459.156 215.441 429.719 213.185 468.054C211.748 501.431 297.457 516.114 297.457 516.114C297.457 516.114 325.79 455.607 305.012 430.271C285.717 402.123 254.526 430.58 261.014 459.156Z" fill="#F75845"/>
<path fill-rule="evenodd" clip-rule="evenodd" d="M300.334 551.905C300.334 551.905 293.887 530.994 278.294 543.191C263.54 553.508 288.888 585.113 288.888 585.113C288.888 585.113 330.499 577.772 324.052 556.861C319.788 543.686 304.631 544.807 300.334 551.905Z" fill="#F75845"/>
<path fill-rule="evenodd" clip-rule="evenodd" d="M318.49 620.088C318.49 620.088 293.417 602.811 286.906 629.578C279.691 653.569 334.628 666.225 334.628 666.225C334.628 666.225 373.739 622.323 348.666 605.046C332.648 594.336 317.062 608.632 318.49 620.088Z" fill="#F75845"/>
<path fill-rule="evenodd" clip-rule="evenodd" d="M291.277 368.614C291.277 368.614 284.831 347.703 269.238 359.9C254.483 370.218 279.831 401.823 279.831 401.823C279.831 401.823 321.443 394.481 314.996 373.57C310.732 360.396 295.574 361.517 291.277 368.614Z" fill="#F75845"/>
<path fill-rule="evenodd" clip-rule="evenodd" d="M42.2325 143.032C42.2325 143.032 37.9355 127.691 26.3862 136.343C15.4809 143.637 33.3081 167.063 33.3081 167.063C33.3081 167.063 63.6639 162.349 59.3669 147.008C56.5125 137.34 45.4837 137.925 42.2325 143.032Z" fill="#F75845"/>
<path fill-rule="evenodd" clip-rule="evenodd" d="M105.273 122.995C105.273 122.995 83.919 111.117 80.8788 133.04C77.0553 152.795 121.822 158.657 121.822 158.657C121.822 158.657 149.453 120.494 128.1 108.617C114.484 101.291 103.217 113.939 105.273 122.995Z" fill="#F75845"/>
<path fill-rule="evenodd" clip-rule="evenodd" d="M202.059 226.828C202.059 226.828 128.192 186.262 118.013 261.886C105.099 330.056 259.686 349.47 259.686 349.47C259.686 349.47 354.502 217.426 280.636 176.86C233.541 151.847 194.834 195.647 202.059 226.828Z" fill="#F75845"/>
<path fill-rule="evenodd" clip-rule="evenodd" d="M84.526 662.381C84.526 662.381 84.4685 555.865 -5.56842 590.051C-89.0085 616.713 -16.2994 800.228 -16.2994 800.228C-16.2994 800.228 187.872 826.176 187.814 719.66C186.835 652.261 114.687 635.589 84.526 662.381Z" fill="#F75845"/>
<path fill-rule="evenodd" clip-rule="evenodd" d="M1768.77 544.274C1768.77 544.274 1762.72 514.864 1739.82 529.464C1718.31 541.609 1748.76 588.118 1748.76 588.118C1748.76 588.118 1806.56 583.58 1800.51 554.171C1796.42 535.615 1775.57 535.147 1768.77 544.274Z" fill="#F75845"/>
<path fill-rule="evenodd" clip-rule="evenodd" d="M1893.59 505.936C1893.59 505.936 1908 495.645 1923.44 489.471L1947.12 558.421C1931.68 574.887 1904.91 587.236 1866.82 588.265C1866.82 588.265 1806.08 540.926 1817.41 495.645C1830.79 446.248 1880.21 455.51 1893.59 505.936Z" fill="#F75845"/>
<path fill-rule="evenodd" clip-rule="evenodd" d="M173.724 482.832C173.724 482.832 171.665 469.453 160.341 475.628C149.016 481.803 163.429 507.53 163.429 507.53C163.429 507.53 191.225 500.327 189.166 490.036C187.107 479.745 181.96 478.715 173.724 482.832Z" fill="#F75845"/>
<path fill-rule="evenodd" clip-rule="evenodd" d="M32.7237 839.832C32.7237 839.832 30.6648 826.453 19.3406 832.628C8.01636 838.803 22.429 864.53 22.429 864.53C22.429 864.53 50.2248 857.327 48.1659 847.036C46.1069 836.745 40.9595 835.715 32.7237 839.832Z" fill="#F75845"/>
<path fill-rule="evenodd" clip-rule="evenodd" d="M46.7237 82.8319C46.7237 82.8319 44.6648 69.4534 33.3406 75.6281C22.0164 81.8027 36.429 107.53 36.429 107.53C36.429 107.53 64.2248 100.327 62.1659 90.0356C60.1069 79.7445 54.9595 78.7154 46.7237 82.8319Z" fill="#F75845"/>
<path fill-rule="evenodd" clip-rule="evenodd" d="M1767.29 311.01C1767.29 311.01 1748.91 299.301 1744.52 319.426C1740.14 339.551 1786.45 349.533 1786.45 349.533C1786.45 349.533 1806.85 308.563 1792.21 300.125C1777.57 291.688 1770.93 296.771 1767.29 311.01Z" fill="#F75845"/>
<path fill-rule="evenodd" clip-rule="evenodd" d="M1754.72 627.832C1754.72 627.832 1752.66 614.453 1741.34 620.628C1730.02 626.803 1744.43 652.53 1744.43 652.53C1744.43 652.53 1772.22 645.327 1770.17 635.036C1768.11 624.745 1762.96 623.715 1754.72 627.832Z" fill="#F75845"/>
<path fill-rule="evenodd" clip-rule="evenodd" d="M1678.61 637.335C1678.61 637.335 1673.66 605.017 1646.44 619.933C1619.21 634.849 1653.86 697 1653.86 697C1653.86 697 1720.69 679.598 1715.74 654.737C1710.79 629.877 1698.41 627.391 1678.61 637.335Z" fill="#F75845"/>
<path fill-rule="evenodd" clip-rule="evenodd" d="M1105.61 466.335C1105.61 466.335 1100.66 434.017 1073.44 448.933C1046.21 463.849 1080.86 526 1080.86 526C1080.86 526 1147.69 508.598 1142.74 483.737C1137.79 458.877 1125.41 456.391 1105.61 466.335Z" fill="#F75845"/>
<path fill-rule="evenodd" clip-rule="evenodd" d="M1781.83 241.75C1781.83 241.75 1778.36 219.407 1759.3 229.719C1740.25 240.032 1764.5 283 1764.5 283C1764.5 283 1811.28 270.969 1807.82 253.781C1804.35 236.594 1795.69 234.875 1781.83 241.75Z" fill="#F75845"/>
<path fill-rule="evenodd" clip-rule="evenodd" d="M1720.72 291.832C1720.72 291.832 1718.66 278.453 1707.34 284.628C1696.02 290.803 1710.43 316.53 1710.43 316.53C1710.43 316.53 1738.22 309.327 1736.17 299.036C1734.11 288.745 1728.96 287.715 1720.72 291.832Z" fill="#F75845"/>
<path fill-rule="evenodd" clip-rule="evenodd" d="M1648.44 564.853C1648.44 564.853 1645.71 546.898 1630.74 555.185C1615.77 563.472 1634.82 598 1634.82 598C1634.82 598 1671.58 588.332 1668.86 574.521C1666.13 560.709 1659.33 559.328 1648.44 564.853Z" fill="#F75845"/>
<path fill-rule="evenodd" clip-rule="evenodd" d="M1731.03 398.643C1731.03 398.643 1728.13 379.491 1712.13 388.331C1696.14 397.17 1716.49 434 1716.49 434C1716.49 434 1755.75 423.688 1752.85 408.956C1749.94 394.223 1742.67 392.75 1731.03 398.643Z" fill="#F75845"/>
<path fill-rule="evenodd" clip-rule="evenodd" d="M1654.03 446.643C1654.03 446.643 1651.13 427.491 1635.13 436.331C1619.14 445.17 1639.49 482 1639.49 482C1639.49 482 1678.75 471.688 1675.85 456.956C1672.94 442.223 1665.67 440.75 1654.03 446.643Z" fill="#F75845"/>
<path fill-rule="evenodd" clip-rule="evenodd" d="M1670.03 322.643C1670.03 322.643 1667.13 303.491 1651.13 312.331C1635.14 321.17 1655.49 358 1655.49 358C1655.49 358 1694.75 347.688 1691.85 332.956C1688.94 318.223 1681.67 316.75 1670.03 322.643Z" fill="#F75845"/>
<path fill-rule="evenodd" clip-rule="evenodd" d="M1739.71 115.878C1739.71 115.878 1727.18 110.743 1726.63 123.63C1726.08 136.516 1755.56 137.435 1755.56 137.435C1755.56 137.435 1763.72 109.906 1753.84 106.363C1743.96 102.82 1740.43 106.699 1739.71 115.878Z" fill="#F75845"/>
<path fill-rule="evenodd" clip-rule="evenodd" d="M1617.71 158.878C1617.71 158.878 1605.18 153.743 1604.63 166.63C1604.08 179.516 1633.56 180.435 1633.56 180.435C1633.56 180.435 1641.72 152.906 1631.84 149.363C1621.96 145.82 1618.43 149.699 1617.71 158.878Z" fill="#F75845"/>
<path fill-rule="evenodd" clip-rule="evenodd" d="M1696.71 592.878C1696.71 592.878 1684.18 587.743 1683.63 600.63C1683.08 613.516 1712.56 614.435 1712.56 614.435C1712.56 614.435 1720.72 586.906 1710.84 583.363C1700.96 579.82 1697.43 583.699 1696.71 592.878Z" fill="#F75845"/>
<path fill-rule="evenodd" clip-rule="evenodd" d="M1662.71 271.878C1662.71 271.878 1650.18 266.743 1649.63 279.63C1649.08 292.516 1678.56 293.435 1678.56 293.435C1678.56 293.435 1686.72 265.906 1676.84 262.363C1666.96 258.82 1663.43 262.699 1662.71 271.878Z" fill="#F75845"/>
<path fill-rule="evenodd" clip-rule="evenodd" d="M1769.71 494.878C1769.71 494.878 1757.18 489.743 1756.63 502.63C1756.08 515.516 1785.56 516.435 1785.56 516.435C1785.56 516.435 1793.72 488.906 1783.84 485.363C1773.96 481.82 1770.43 485.699 1769.71 494.878Z" fill="#F75845"/>
<path fill-rule="evenodd" clip-rule="evenodd" d="M1680.37 410.048C1680.37 410.048 1674.05 398.081 1665.37 407.623C1656.69 417.164 1678.73 436.756 1678.73 436.756C1678.73 436.756 1702.64 420.85 1697.32 411.8C1692.01 402.75 1686.81 403.463 1680.37 410.048Z" fill="#F75845"/>
<path fill-rule="evenodd" clip-rule="evenodd" d="M31.6498 399.045C31.6498 399.045 13.0786 387.471 9.28976 406.902C4.90355 424.363 44.7605 431.632 44.7605 431.632C44.7605 431.632 71.3862 398.823 52.8151 387.249C40.9618 380.09 30.2455 390.868 31.6498 399.045Z" fill="#F75845"/>
<path fill-rule="evenodd" clip-rule="evenodd" d="M41.2247 224.205C41.2247 224.205 -4.18338 195.906 -13.4474 243.416C-24.1721 286.11 73.2814 303.884 73.2814 303.884C73.2814 303.884 138.384 223.662 92.9755 195.363C63.9933 177.858 37.7911 204.211 41.2247 224.205Z" fill="#F75845"/>
<path fill-rule="evenodd" clip-rule="evenodd" d="M1819.16 612.54C1819.16 612.54 1800.16 601.686 1797.12 621.248C1793.4 638.864 1833.51 644.6 1833.51 644.6C1833.51 644.6 1858.86 610.794 1839.86 599.941C1827.74 593.241 1817.44 604.422 1819.16 612.54Z" fill="#F75845"/>
<path fill-rule="evenodd" clip-rule="evenodd" d="M1898.94 361.181C1898.94 361.181 1877.35 357.663 1881.34 377.052C1884.03 394.854 1923.61 386.192 1923.61 386.192C1923.61 386.192 1935.52 345.653 1913.92 342.135C1900.23 340.101 1894.5 354.177 1898.94 361.181Z" fill="#F75845"/>
<path fill-rule="evenodd" clip-rule="evenodd" d="M1723.83 460.932C1723.83 460.932 1706.16 448.026 1700.95 467.126C1695.3 484.218 1734.51 494.394 1734.51 494.394C1734.51 494.394 1763.48 463.628 1745.8 450.722C1734.51 442.712 1723.03 452.674 1723.83 460.932Z" fill="#F75845"/>
<path fill-rule="evenodd" clip-rule="evenodd" d="M1801.2 157.228C1801.2 157.228 1786.79 140.762 1777.52 158.257C1768.26 173.694 1804.29 192.218 1804.29 192.218C1804.29 192.218 1839.29 168.548 1824.88 152.083C1815.61 141.791 1802.23 148.995 1801.2 157.228Z" fill="#F75845"/>
<path fill-rule="evenodd" clip-rule="evenodd" d="M1881.2 858.228C1881.2 858.228 1866.79 841.762 1857.52 859.257C1848.26 874.694 1884.29 893.218 1884.29 893.218C1884.29 893.218 1919.29 869.548 1904.88 853.083C1895.61 842.791 1882.23 849.995 1881.2 858.228Z" fill="#F75845"/>
<path fill-rule="evenodd" clip-rule="evenodd" d="M1696.98 185.339C1696.98 185.339 1644.57 169.059 1649.3 209.929C1652.55 245.173 1732.17 257.53 1732.17 257.53C1732.17 257.53 1775.37 177.193 1742.12 156.33C1713.83 142.028 1694.69 166.043 1696.98 185.339Z" fill="#F75845"/>
<path fill-rule="evenodd" clip-rule="evenodd" d="M1807.03 418.575C1807.03 418.575 1787.87 389.273 1773.59 411.289C1760.87 429.936 1794.99 468.362 1794.99 468.362C1794.99 468.362 1848.88 446.422 1841 422.653C1832.91 404.126 1813.74 408.155 1807.03 418.575Z" fill="#F75845"/>
<path fill-rule="evenodd" clip-rule="evenodd" d="M1685.31 110.285C1685.31 110.285 1679.37 75.7847 1657.52 90.3121C1638.44 102.369 1654.48 151.189 1654.48 151.189C1654.48 151.189 1712.64 152.47 1714.87 127.529C1714.8 107.31 1695.61 103.39 1685.31 110.285Z" fill="#F75845"/>
<path fill-rule="evenodd" clip-rule="evenodd" d="M400.691 932.894C400.691 932.894 401.821 897.905 377.492 907.739C356.372 915.709 362.263 966.759 362.263 966.759C362.263 966.759 418.982 979.716 426.176 955.732C430.177 935.912 412.167 928.212 400.691 932.894Z" fill="#F75845"/>
<path fill-rule="evenodd" clip-rule="evenodd" d="M1849 674.785C1849 674.785 1752.24 634.334 1740.17 716.463C1728.1 787.159 1881.61 823.96 1881.61 823.96C1881.61 823.96 2010.88 670.559 1955.04 623.914C1905.73 591.095 1854.57 635.999 1849 674.785Z" fill="#F75845"/>
<path fill-rule="evenodd" clip-rule="evenodd" d="M1678.87 513.911C1678.87 513.911 1653.39 514.42 1658.77 533.865C1663.03 550.767 1700.77 543.874 1700.77 543.874C1700.77 543.874 1714.44 497.076 1697.45 492.188C1683.26 489.735 1676.3 504.741 1678.87 513.911Z" fill="#F75845"/>
<path fill-rule="evenodd" clip-rule="evenodd" d="M680.886 751.499C680.886 751.499 689.686 725.512 670.609 729.146C654.065 732.568 657.463 776.412 657.463 776.412C657.463 776.412 690.636 782.823 700.491 769.501C711.907 756.56 694.097 744.784 680.886 751.499Z" fill="#F75845"/>
<path fill-rule="evenodd" clip-rule="evenodd" d="M140.365 587.737C140.365 587.737 139.88 552.603 118.403 565.144C99.8921 576.348 122.735 627.826 122.735 627.826C122.735 627.826 165.525 621.387 171.728 601.092C179.979 580.587 153.443 573.984 140.365 587.737Z" fill="#F75845"/>
<path fill-rule="evenodd" clip-rule="evenodd" d="M206.552 891.902C206.552 891.902 175.345 875.752 176.269 900.606C177.414 922.212 233.58 926.36 233.58 926.36C233.58 926.36 248.091 885.595 233.124 870.55C218.938 853.601 200.596 873.882 206.552 891.902Z" fill="#F75845"/>
<path fill-rule="evenodd" clip-rule="evenodd" d="M282.886 867.499C282.886 867.499 291.686 841.512 272.609 845.146C256.064 848.568 259.462 892.412 259.462 892.412C259.462 892.412 292.636 898.823 302.49 885.501C313.907 872.56 296.096 860.784 282.886 867.499Z" fill="#F75845"/>
<path fill-rule="evenodd" clip-rule="evenodd" d="M300.886 695.499C300.886 695.499 309.686 669.512 290.609 673.146C274.064 676.568 277.462 720.412 277.462 720.412C277.462 720.412 310.636 726.823 320.49 713.501C331.907 700.56 314.096 688.784 300.886 695.499Z" fill="#F75845"/>
<path fill-rule="evenodd" clip-rule="evenodd" d="M310.279 917.42C310.279 917.42 290.719 905.608 290.257 921.775C290.076 935.844 326.345 940.935 326.345 940.935C326.345 940.935 337.503 915.103 328.433 904.701C319.952 893.097 307.184 905.473 310.279 917.42Z" fill="#F75845"/>
<path fill-rule="evenodd" clip-rule="evenodd" d="M351.215 994.436C351.215 994.436 351.389 971.586 337.251 979.441C325.061 986.467 339.195 1020.25 339.195 1020.25C339.195 1020.25 367.104 1016.66 371.42 1003.55C377.069 990.339 359.909 985.676 351.215 994.436Z" fill="#F75845"/>
<path fill-rule="evenodd" clip-rule="evenodd" d="M136.392 531.542C136.392 531.542 121.288 524.648 122.304 536.356C123.347 546.526 149.951 547.175 149.951 547.175C149.951 547.175 155.849 527.598 148.435 520.847C141.345 513.178 133.161 523.177 136.392 531.542Z" fill="#F75845"/>
<path fill-rule="evenodd" clip-rule="evenodd" d="M136.392 185.542C136.392 185.542 121.288 178.648 122.304 190.356C123.347 200.526 149.951 201.175 149.951 201.175C149.951 201.175 155.849 181.598 148.435 174.847C141.345 167.178 133.161 177.177 136.392 185.542Z" fill="#F75845"/>
<path fill-rule="evenodd" clip-rule="evenodd" d="M88.0314 574.824C88.0314 574.824 93.9746 559.322 82.3525 561.062C72.2666 562.736 73.2712 589.328 73.2712 589.328C73.2712 589.328 93.1766 593.999 99.4545 586.18C106.668 578.628 96.18 571.08 88.0314 574.824Z" fill="#F75845"/>
<path fill-rule="evenodd" clip-rule="evenodd" d="M164.348 805.981C164.348 805.981 156.186 785.678 141.66 799.128C127.814 810.636 155.7 840.026 155.7 840.026C155.7 840.026 196.558 829.253 188.396 808.949C183.052 796.174 168.04 798.551 164.348 805.981Z" fill="#F75845"/>
<path fill-rule="evenodd" clip-rule="evenodd" d="M139.186 938.074C139.186 938.074 119.929 927.682 117.361 947.312C114.074 965.013 154.307 969.778 154.307 969.778C154.307 969.778 178.831 935.37 159.574 924.979C147.296 918.574 137.274 930 139.186 938.074Z" fill="#F75845"/>
<path fill-rule="evenodd" clip-rule="evenodd" d="M206.967 970.908C225.016 936.861 253.093 968.905 253.093 968.905C255.099 952.883 281.17 938.863 299.219 958.891C317.246 979.466 295.588 1005.82 277.775 1022.05L221.051 1010.62C208.242 998.624 198.993 984.18 206.967 970.908Z" fill="#F75845"/>
</svg>
