<svg width="134" height="235" viewBox="0 0 134 235" fill="none" xmlns="http://www.w3.org/2000/svg">
<path d="M0.62512 225.933L0.986864 222.498L14.385 223.903L14.669 221.205L18.6246 221.62L17.5367 231.951L13.5811 231.536L13.9026 228.483L5.17473 227.568L6.00159 230.742L1.79076 230.3L0.62512 225.933Z" fill="#919396"/>
<path d="M17.043 217.372C15.1525 218.433 12.8878 218.765 10.2489 218.367C7.61009 217.97 5.55283 216.988 4.07714 215.42C2.5871 213.833 2.0436 211.707 2.44665 209.043C2.84971 206.378 3.99651 204.515 5.88705 203.454C7.76324 202.373 10.0208 202.032 12.6596 202.429C15.2985 202.826 17.3629 203.818 18.8529 205.405C20.3286 206.973 20.8649 209.089 20.4619 211.754C20.0588 214.419 18.9192 216.291 17.043 217.372ZM16.4021 211.143C16.7337 208.95 15.2503 207.606 11.9517 207.109C8.65315 206.613 6.83805 207.461 6.50643 209.653C6.1748 211.846 7.65827 213.191 10.9568 213.687C14.2554 214.183 16.0705 213.335 16.4021 211.143Z" fill="#919396"/>
<path d="M24.7279 187.708L23.0265 195.351L11.0021 192.689L12.6591 185.246C12.9853 183.78 13.5342 182.81 14.306 182.334C15.0648 181.838 15.8617 181.683 16.6967 181.868C18.0829 182.174 18.8819 183.033 19.0938 184.443C19.8876 183.081 21.0026 182.559 22.4389 182.877C23.3574 183.08 24.0552 183.567 24.5323 184.336C24.9926 185.102 25.0578 186.226 24.7279 187.708ZM19.1175 190.004L21.2718 190.481L21.7055 188.533C21.8983 187.667 21.6439 187.156 20.9425 187.001C20.2077 186.838 19.7421 187.198 19.5456 188.081L19.1175 190.004ZM14.6529 189.042L16.8072 189.519L17.1909 187.795C17.3836 186.929 17.1293 186.419 16.4279 186.264C15.693 186.101 15.2274 186.461 15.0309 187.343L14.6529 189.042Z" fill="#919396"/>
<path d="M27.2008 177.837L26.2107 181.52L14.3138 178.338L15.4435 174.137L21.0697 175.641L16.5798 169.911L17.5699 166.229L29.4668 169.41L28.3371 173.612L22.7109 172.107L27.2008 177.837Z" fill="#919396"/>
<path d="M34.1266 165.353L32.9188 169.131L26.8066 167.188L27.3443 165.506C25.7357 163.742 23.0062 162.31 19.1559 161.211L22.3896 151.095L31.0689 153.854L31.6378 152.075L37.7499 154.018L36.5422 157.796L33.4861 156.825L31.0705 164.381L34.1266 165.353ZM23.4197 158.404C25.7135 159.205 27.4736 160.159 28.7001 161.265L29.7443 157.998L24.121 156.21L23.4197 158.404Z" fill="#919396"/>
<path d="M34.4375 150.202C32.9048 151.036 31.1601 151.091 29.2032 150.367C27.2464 149.643 25.9677 148.47 25.3671 146.847C24.7564 145.202 24.7931 143.46 25.4771 141.621C26.1612 139.782 27.2695 138.445 28.8022 137.611C30.3248 136.756 32.0645 136.69 34.0213 137.413C35.9781 138.137 37.2619 139.322 37.8726 140.967C38.4732 142.59 38.4314 144.321 37.7474 146.16C37.0633 147.999 35.96 149.346 34.4375 150.202ZM34.0591 142.831C33.7147 142.285 33.1817 141.878 32.4599 141.611C31.7381 141.344 31.0682 141.306 30.4502 141.496C29.8322 141.686 29.3775 142.172 29.086 142.956C28.7946 143.74 28.821 144.404 29.1654 144.95C29.5098 145.496 30.0429 145.902 30.7646 146.169C31.4864 146.436 32.1563 146.475 32.7743 146.285C33.3923 146.095 33.847 145.608 34.1385 144.825C34.43 144.041 34.4035 143.376 34.0591 142.831Z" fill="#919396"/>
<path d="M43.4745 130.964L40.4265 138.179L29.0753 133.41L32.0437 126.383C32.6281 125 33.3427 124.143 34.1874 123.814C35.0231 123.461 35.8351 123.451 36.6234 123.782C37.9319 124.332 38.5637 125.319 38.5187 126.744C39.5445 125.546 40.7353 125.232 42.0911 125.801C42.9582 126.166 43.5573 126.769 43.8882 127.611C44.2035 128.447 44.0656 129.565 43.4745 130.964ZM37.5421 132.219L39.5758 133.074L40.3528 131.234C40.6981 130.417 40.5397 129.869 39.8775 129.591C39.1838 129.3 38.661 129.571 38.309 130.404L37.5421 132.219ZM33.3227 130.474L35.3565 131.329L36.0438 129.702C36.3891 128.884 36.2307 128.337 35.5685 128.058C34.8748 127.767 34.352 128.038 34 128.871L33.3227 130.474Z" fill="#919396"/>
<path d="M50.7763 115.303L49.0666 118.713L38.0496 113.22L40.0001 109.329L45.2103 111.927L41.9622 105.416L43.6719 102.006L54.6889 107.499L52.7383 111.39L47.5282 108.792L50.7763 115.303Z" fill="#919396"/>
<path d="M57.8798 101.811L55.7583 105.612L44.996 99.6376L47.1174 95.8373L50.9291 97.9531L52.801 94.5998L48.9893 92.484L51.1108 88.6836L61.8731 94.6577L59.7517 98.458L55.94 96.3422L54.0681 99.6955L57.8798 101.811Z" fill="#919396"/>
<path d="M66.715 86.8325L64.4382 90.5424L56.9963 86.001L55.1212 89.0563L52.0569 87.1863L58.0838 77.366L61.1481 79.2359L59.2731 82.2911L66.715 86.8325Z" fill="#919396"/>
<path d="M64.2878 79.1542C63.3347 78.5194 62.6093 77.7902 62.1118 76.9665C61.6001 76.1334 61.3304 75.3076 61.3026 74.4891C61.2606 73.6612 61.3395 72.883 61.5394 72.1547C61.7392 71.4263 62.0387 70.7643 62.4378 70.1686C63.0078 69.3175 63.6442 68.644 64.3468 68.1479C65.0494 67.6519 65.7423 67.3545 66.4257 67.2558C67.1185 67.1429 67.8302 67.1554 68.5607 67.2933C69.277 67.4217 69.9434 67.7015 70.5599 68.1325C71.1716 68.54 71.7524 69.0089 72.3023 69.5393L67.8274 76.2197C69.1366 76.538 70.3898 75.8035 71.5869 74.0164C72.3185 72.9242 72.8105 71.8366 73.0629 70.7535L75.7516 72.5443C75.4136 73.8781 74.76 75.2683 73.7909 76.7151C72.6223 78.4596 71.1766 79.589 69.4539 80.103C67.717 80.6075 65.9949 80.2913 64.2878 79.1542ZM67.9168 71.3872C67.6229 71.0889 67.1912 70.9348 66.6219 70.9247C66.0478 70.8911 65.547 71.1934 65.1195 71.8316C64.7774 72.3423 64.6441 72.8791 64.7196 73.4421C64.795 74.0052 65.0959 74.462 65.6223 74.8126L67.9168 71.3872Z" fill="#919396"/>
<path d="M73.7321 60.6324C74.8 61.5172 75.6994 62.3425 76.4305 63.1083C77.1579 63.8504 77.7815 64.6329 78.3011 65.4558C78.8171 66.2549 79.0796 67.0383 79.0888 67.8058C79.108 68.5596 78.8702 69.2737 78.3753 69.9482C77.9813 70.4851 77.4366 70.9964 76.7409 71.4822L73.9451 69.4424C74.1794 69.2963 74.3572 69.1407 74.4784 68.9755C74.6602 68.7278 74.7408 68.459 74.7203 68.1692C74.6859 67.8694 74.5416 67.5316 74.2873 67.1559C74.0431 66.7665 73.7719 66.3995 73.4735 66.055C73.1613 65.7004 72.7148 65.2689 72.1339 64.7606C71.5493 64.2284 71.0255 63.7723 70.5624 63.3922C70.0856 63.002 69.4619 62.4942 68.6914 61.8686L74.9033 53.4029L84.8442 60.6555L82.2685 64.1657L75.02 58.8773L73.7321 60.6324Z" fill="#919396"/>
<path d="M82.9793 48.6777C84.0068 49.6088 84.8688 50.473 85.5651 51.2704C86.2589 52.0438 86.847 52.8531 87.3296 53.6981C87.8096 54.5192 88.0371 55.3134 88.0121 56.0806C87.9979 56.8344 87.7286 57.5374 87.2042 58.1894C86.7868 58.7083 86.2198 59.1951 85.5033 59.6497L82.8008 57.4884C83.0414 57.3529 83.2259 57.2053 83.3543 57.0456C83.547 56.8061 83.6394 56.5411 83.6318 56.2508C83.6107 55.9497 83.4816 55.6059 83.2442 55.2193C83.0176 54.8195 82.7629 54.4409 82.4801 54.0835C82.184 53.7155 81.757 53.2648 81.1993 52.7313C80.6389 52.1738 80.1358 51.695 79.6901 51.2948C79.2311 50.884 78.6306 50.3491 77.8886 49.6902L84.4704 41.507L94.0795 49.1914L91.3504 52.5844L84.3438 46.9812L82.9793 48.6777Z" fill="#919396"/>
<path d="M90.5257 43.948C89.663 43.1955 89.0384 42.3787 88.6521 41.4978C88.2528 40.6056 88.0926 39.752 88.1713 38.9368C88.2371 38.1104 88.4164 37.349 88.7092 36.6526C89.002 35.9562 89.3849 35.3384 89.8579 34.7992C90.5337 34.029 91.2522 33.4433 92.0133 33.0421C92.7744 32.6409 93.5002 32.4355 94.1906 32.4258C94.8922 32.4034 95.5963 32.5076 96.3028 32.7387C96.9965 32.9585 97.6209 33.3219 98.1762 33.829C98.7299 34.3119 99.2449 34.8519 99.7214 35.4488L94.4165 41.4952C95.6735 41.9797 97.0115 41.4133 98.4306 39.7957C99.2979 38.8073 99.927 37.7923 100.318 36.7509L102.751 38.8737C102.243 40.1526 101.415 41.4468 100.266 42.7562C98.8804 44.3352 97.3002 45.2684 95.5252 45.5557C93.7373 45.8317 92.0708 45.2958 90.5257 43.948ZM95.1327 36.715C94.88 36.3812 94.472 36.1726 93.9087 36.0892C93.3439 35.9817 92.808 36.2168 92.3012 36.7945C91.8957 37.2567 91.6938 37.7717 91.6955 38.3398C91.6972 38.9078 91.9363 39.3996 92.4127 39.8152L95.1327 36.715Z" fill="#919396"/>
<path d="M107.685 34.145L104.677 37.2954L95.7551 28.8274L98.7625 25.677L101.885 28.6408L102.557 27.9366L101.292 23.027L104.653 19.506L106.28 26.5604L113.752 27.7887L110.409 31.2912L104.938 30.2671L104.302 30.9343L107.685 34.145Z" fill="#919396"/>
<path d="M119.634 22.2073L116.501 25.2337L110.43 18.9855L107.85 21.4779L105.35 18.9051L113.643 10.8939L116.143 13.4667L113.563 15.9591L119.634 22.2073Z" fill="#919396"/>
<path d="M130.112 7.98835C130.454 8.37026 130.835 8.37389 131.256 7.99924C131.384 7.88571 131.488 7.75876 131.569 7.61839L133.363 9.62342C133.048 10.2458 132.585 10.8295 131.972 11.3744C130.951 12.2827 129.921 12.5924 128.884 12.3037C128.599 13.8822 127.864 15.1994 126.677 16.2552C125.77 17.0613 124.783 17.4822 123.715 17.5179C122.646 17.5537 121.725 17.1387 120.951 16.273C120.461 15.7256 120.155 15.1404 120.033 14.5173C119.9 13.8815 119.935 13.2794 120.137 12.711C120.352 12.1313 120.631 11.5976 120.973 11.1097C121.329 10.6105 121.75 10.1452 122.235 9.71377C122.924 9.1007 123.651 8.58036 124.414 8.15274L124.124 7.82811C123.816 7.48439 123.405 7.35828 122.891 7.44978C122.379 7.51719 121.809 7.82904 121.184 8.38535C120.214 9.24818 119.352 10.4374 118.599 11.9529L116.156 9.22221C117.043 7.70223 118.054 6.43703 119.19 5.4266C120.761 4.03017 122.245 3.29327 123.642 3.21592C125.04 3.13857 126.434 3.87645 127.823 5.42955L130.112 7.98835ZM124.063 13.0255C124.29 13.2801 124.586 13.4057 124.95 13.4023C125.302 13.3861 125.644 13.2305 125.976 12.9353C126.55 12.4244 126.912 11.8168 127.062 11.1125L125.951 9.87133C125.504 10.0633 125.064 10.3523 124.63 10.7383C123.659 11.6011 123.47 12.3635 124.063 13.0255Z" fill="#919396"/>
</svg>
