<svg width="1920" height="840" viewBox="0 0 1920 840" fill="none" xmlns="http://www.w3.org/2000/svg">
<mask id="mask0" mask-type="alpha" maskUnits="userSpaceOnUse" x="1573" y="0" width="392" height="821">
<g opacity="0.55">
<path fill-rule="evenodd" clip-rule="evenodd" d="M1930.31 734.666C1925.33 747.178 1911.16 753.29 1898.65 748.316C1886.14 743.343 1880.03 729.168 1885.01 716.656C1889.98 704.143 1904.16 698.032 1916.66 703.005C1929.17 707.978 1935.28 722.153 1930.31 734.666ZM1919.49 721.282C1918.15 724.651 1914.33 726.297 1910.96 724.958C1907.6 723.619 1905.95 719.802 1907.29 716.434C1908.63 713.065 1912.45 711.419 1915.81 712.758C1919.18 714.097 1920.83 717.914 1919.49 721.282Z" fill="#DAF1FD"/>
<path fill-rule="evenodd" clip-rule="evenodd" d="M1640.67 488.456C1635.84 503.351 1619.85 511.511 1604.96 506.682C1590.07 501.854 1581.92 485.865 1586.75 470.97C1591.58 456.075 1607.56 447.914 1622.45 452.743C1637.34 457.572 1645.5 473.561 1640.67 488.456ZM1627.11 473.74C1625.81 477.751 1621.5 479.948 1617.49 478.648C1613.48 477.347 1611.29 473.043 1612.59 469.033C1613.89 465.022 1618.19 462.825 1622.2 464.125C1626.21 465.425 1628.41 469.73 1627.11 473.74Z" fill="#DAF1FD"/>
<path fill-rule="evenodd" clip-rule="evenodd" d="M1854.11 662.203C1843.94 687.804 1814.94 700.309 1789.34 690.133C1763.75 679.958 1751.25 650.955 1761.43 625.354C1771.61 599.754 1800.61 587.249 1826.2 597.425C1851.8 607.6 1864.29 636.603 1854.11 662.203ZM1831.98 634.821C1829.23 641.713 1821.43 645.08 1814.54 642.34C1807.65 639.601 1804.28 631.792 1807.02 624.9C1809.76 618.007 1817.57 614.641 1824.46 617.38C1831.35 620.12 1834.72 627.928 1831.98 634.821Z" fill="#DAF1FD"/>
<path fill-rule="evenodd" clip-rule="evenodd" d="M1774.74 481.461C1767.35 500.064 1746.27 509.15 1727.68 501.756C1709.08 494.362 1700 473.287 1707.39 454.684C1714.79 436.081 1735.86 426.994 1754.46 434.388C1773.06 441.783 1782.14 462.858 1774.74 481.461ZM1758.65 461.563C1756.66 466.572 1750.99 469.018 1745.98 467.027C1740.98 465.036 1738.53 459.362 1740.52 454.354C1742.51 449.345 1748.19 446.899 1753.19 448.89C1758.2 450.881 1760.65 456.555 1758.65 461.563Z" fill="#DAF1FD"/>
<path fill-rule="evenodd" clip-rule="evenodd" d="M1681.03 381.31C1691.17 384.108 1702.33 378.309 1705.3 367.524C1708.1 357.374 1702.3 346.219 1691.52 343.246C1681.37 340.448 1670.22 346.247 1667.25 357.032C1664.27 367.816 1670.24 378.337 1681.03 381.31ZM1695.81 357.399C1695.04 360.201 1692.14 361.847 1689.34 361.075C1686.53 360.302 1684.89 357.403 1685.66 354.601C1686.43 351.798 1689.33 350.152 1692.13 350.924C1694.94 351.697 1696.58 354.596 1695.81 357.399Z" fill="#DAF1FD"/>
<path fill-rule="evenodd" clip-rule="evenodd" d="M1595.03 641.31C1605.17 644.108 1616.33 638.309 1619.3 627.524C1622.1 617.374 1616.3 606.219 1605.52 603.246C1595.37 600.448 1584.22 606.247 1581.25 617.032C1578.27 627.816 1584.24 638.337 1595.03 641.31ZM1609.81 617.399C1609.04 620.201 1606.14 621.847 1603.34 621.075C1600.53 620.302 1598.89 617.403 1599.66 614.601C1600.43 611.798 1603.33 610.152 1606.13 610.924C1608.94 611.697 1610.58 614.596 1609.81 617.399Z" fill="#DAF1FD"/>
<path fill-rule="evenodd" clip-rule="evenodd" d="M1668.03 618.31C1678.17 621.108 1689.33 615.309 1692.3 604.524C1695.1 594.374 1689.3 583.219 1678.52 580.246C1668.37 577.448 1657.22 583.247 1654.25 594.032C1651.27 604.816 1657.24 615.337 1668.03 618.31ZM1682.81 594.399C1682.04 597.201 1679.14 598.847 1676.34 598.075C1673.53 597.302 1671.89 594.403 1672.66 591.601C1673.43 588.798 1676.33 587.152 1679.13 587.924C1681.94 588.697 1683.58 591.596 1682.81 594.399Z" fill="#DAF1FD"/>
<path fill-rule="evenodd" clip-rule="evenodd" d="M1808.55 213.24C1805.62 221.871 1796.25 226.492 1787.62 223.561C1779 220.631 1774.38 211.258 1777.31 202.628C1780.24 193.997 1789.61 189.376 1798.24 192.306C1806.87 195.237 1811.49 204.609 1808.55 213.24ZM1802.93 205.266C1802.16 207.518 1799.72 208.723 1797.47 207.959C1795.22 207.194 1794.01 204.749 1794.78 202.498C1795.54 200.246 1797.99 199.041 1800.24 199.805C1802.49 200.57 1803.69 203.015 1802.93 205.266Z" fill="#DAF1FD"/>
<path fill-rule="evenodd" clip-rule="evenodd" d="M1716.55 697.24C1713.62 705.871 1704.25 710.492 1695.62 707.561C1686.99 704.631 1682.38 695.258 1685.31 686.628C1688.24 677.997 1697.61 673.376 1706.24 676.306C1714.87 679.237 1719.49 688.609 1716.55 697.24ZM1710.93 689.266C1710.16 691.518 1707.72 692.723 1705.47 691.959C1703.22 691.194 1702.01 688.749 1702.78 686.498C1703.54 684.246 1705.99 683.041 1708.24 683.805C1710.49 684.57 1711.69 687.015 1710.93 689.266Z" fill="#DAF1FD"/>
<path fill-rule="evenodd" clip-rule="evenodd" d="M1605.55 356.24C1602.62 364.871 1593.25 369.492 1584.62 366.561C1575.99 363.631 1571.38 354.258 1574.31 345.628C1577.24 336.997 1586.61 332.376 1595.24 335.306C1603.87 338.237 1608.49 347.609 1605.55 356.24ZM1599.93 348.266C1599.16 350.518 1596.72 351.723 1594.47 350.959C1592.22 350.194 1591.01 347.749 1591.78 345.498C1592.54 343.246 1594.99 342.041 1597.24 342.805C1599.49 343.57 1600.69 346.015 1599.93 348.266Z" fill="#DAF1FD"/>
<path fill-rule="evenodd" clip-rule="evenodd" d="M1809.14 335.726C1811.73 349.933 1802.32 363.555 1788.12 366.15C1773.92 368.745 1760.3 359.331 1757.7 345.124C1755.1 330.916 1764.51 317.295 1778.72 314.699C1792.92 312.104 1806.54 321.518 1809.14 335.726ZM1795.2 329.024C1795.88 332.73 1793.42 336.284 1789.72 336.961C1786.01 337.638 1782.46 335.182 1781.78 331.476C1781.11 327.769 1783.56 324.216 1787.27 323.539C1790.97 322.862 1794.53 325.318 1795.2 329.024Z" fill="#DAF1FD"/>
<path fill-rule="evenodd" clip-rule="evenodd" d="M1673.16 48.5806C1681.56 62.8888 1676.77 81.2953 1662.47 89.6927C1648.16 98.0901 1629.76 93.2985 1621.36 78.9903C1612.96 64.6821 1617.75 46.2756 1632.05 37.8782C1646.36 29.4808 1664.76 34.2724 1673.16 48.5806ZM1655.48 46.8406C1657.67 50.5732 1656.43 55.3749 1652.69 57.5655C1648.96 59.7561 1644.16 58.5061 1641.97 54.7735C1639.78 51.041 1641.03 46.2393 1644.76 44.0486C1648.49 41.858 1653.29 43.108 1655.48 46.8406Z" fill="#DAF1FD"/>
<path fill-rule="evenodd" clip-rule="evenodd" d="M1693.28 232.286C1693.67 247.907 1681.33 260.893 1665.71 261.289C1650.1 261.686 1637.11 249.343 1636.72 233.721C1636.32 218.1 1648.66 205.114 1664.28 204.718C1679.9 204.321 1692.88 216.664 1693.28 232.286ZM1679.5 222.789C1679.6 226.864 1676.39 230.252 1672.31 230.355C1668.24 230.459 1664.85 227.239 1664.75 223.164C1664.64 219.088 1667.86 215.701 1671.94 215.597C1676.01 215.494 1679.4 218.714 1679.5 222.789Z" fill="#DAF1FD"/>
<path fill-rule="evenodd" clip-rule="evenodd" d="M1635.28 768.286C1635.67 783.908 1623.33 796.893 1607.71 797.29C1592.1 797.686 1579.11 785.344 1578.72 769.722C1578.32 754.1 1590.66 741.115 1606.28 740.718C1621.9 740.322 1634.88 752.664 1635.28 768.286ZM1621.5 758.79C1621.6 762.865 1618.39 766.252 1614.31 766.356C1610.24 766.459 1606.85 763.239 1606.75 759.164C1606.64 755.089 1609.86 751.701 1613.94 751.598C1618.01 751.494 1621.4 754.714 1621.5 758.79Z" fill="#DAF1FD"/>
<path fill-rule="evenodd" clip-rule="evenodd" d="M1801.28 790.286C1801.67 805.908 1789.33 818.893 1773.71 819.29C1758.1 819.686 1745.11 807.344 1744.72 791.722C1744.32 776.1 1756.66 763.114 1772.28 762.718C1787.9 762.321 1800.88 774.664 1801.28 790.286ZM1787.5 780.789C1787.6 784.865 1784.39 788.252 1780.31 788.356C1776.24 788.459 1772.85 785.239 1772.75 781.164C1772.64 777.089 1775.86 773.701 1779.94 773.598C1784.01 773.494 1787.4 776.714 1787.5 780.789Z" fill="#DAF1FD"/>
<path fill-rule="evenodd" clip-rule="evenodd" d="M1906.55 299.24C1903.62 307.871 1894.25 312.492 1885.62 309.561C1876.99 306.631 1872.38 297.258 1875.31 288.628C1878.24 279.997 1887.61 275.376 1896.24 278.306C1904.87 281.237 1909.49 290.609 1906.55 299.24ZM1900.93 291.266C1900.16 293.518 1897.72 294.723 1895.47 293.959C1893.22 293.194 1892.01 290.749 1892.78 288.498C1893.54 286.246 1895.99 285.041 1898.24 285.805C1900.49 286.57 1901.69 289.015 1900.93 291.266Z" fill="#DAF1FD"/>
<path fill-rule="evenodd" clip-rule="evenodd" d="M1894.71 88.0458C1894.71 93.4974 1890.29 97.9167 1884.84 97.9167C1879.39 97.9167 1874.97 93.4974 1874.97 88.0458C1874.97 82.5942 1879.39 78.1748 1884.84 78.1748C1890.29 78.1748 1894.71 82.5942 1894.71 88.0458ZM1890.1 84.7558C1890.1 86.2096 1888.93 87.3881 1887.47 87.3881C1886.02 87.3881 1884.84 86.2096 1884.84 84.7558C1884.84 83.302 1886.02 82.1235 1887.47 82.1235C1888.93 82.1235 1890.1 83.302 1890.1 84.7558Z" fill="#DAF1FD"/>
<path fill-rule="evenodd" clip-rule="evenodd" d="M1716.74 147.871C1716.74 153.323 1712.32 157.742 1706.87 157.742C1701.42 157.742 1697 153.323 1697 147.871C1697 142.419 1701.42 138 1706.87 138C1712.32 138 1716.74 142.419 1716.74 147.871ZM1712.13 144.581C1712.13 146.035 1710.95 147.213 1709.5 147.213C1708.05 147.213 1706.87 146.035 1706.87 144.581C1706.87 143.127 1708.05 141.949 1709.5 141.949C1710.95 141.949 1712.13 143.127 1712.13 144.581Z" fill="#DAF1FD"/>
<path fill-rule="evenodd" clip-rule="evenodd" d="M1891.88 222.025C1913.68 230.693 1939.8 220.558 1949.01 197.389C1957.68 175.582 1947.55 149.46 1924.39 140.251C1902.59 131.584 1876.47 141.718 1867.26 164.887C1858.04 188.057 1868.71 212.817 1891.88 222.025ZM1930.44 172.648C1928.05 178.669 1921.23 181.611 1915.21 179.217C1909.19 176.824 1906.25 170.002 1908.64 163.98C1911.04 157.959 1917.86 155.017 1923.88 157.411C1929.9 159.804 1932.84 166.626 1930.44 172.648Z" fill="#DAF1FD"/>
<path fill-rule="evenodd" clip-rule="evenodd" d="M1755.88 98.0255C1777.68 106.693 1803.8 96.5584 1813.01 73.3889C1821.68 51.5823 1811.55 25.4596 1788.39 16.2508C1766.59 7.5837 1740.47 17.7179 1731.26 40.8874C1722.04 64.0569 1732.71 88.8167 1755.88 98.0255ZM1794.44 48.6475C1792.05 54.6692 1785.23 57.6106 1779.21 55.2172C1773.19 52.8239 1770.25 46.0021 1772.64 39.9804C1775.03 33.9587 1781.86 31.0173 1787.88 33.4107C1793.9 35.804 1796.84 42.6258 1794.44 48.6475Z" fill="#DAF1FD"/>
<path fill-rule="evenodd" clip-rule="evenodd" d="M1884.61 557.238C1916.4 562.569 1948.54 541.397 1954.21 507.612C1959.54 475.814 1938.38 443.66 1904.6 437.996C1872.81 432.665 1840.66 453.836 1835 487.621C1829.33 521.406 1850.83 551.573 1884.61 557.238ZM1922.11 479.755C1920.64 488.536 1912.33 494.461 1903.55 492.989C1894.77 491.517 1888.85 483.205 1890.32 474.424C1891.79 465.644 1900.1 459.719 1908.88 461.191C1917.66 462.663 1923.58 470.975 1922.11 479.755Z" fill="#DAF1FD"/>
</g>
</mask>
<g mask="url(#mask0)">
<rect x="1953" y="904" width="473" height="966" transform="rotate(-180 1953 904)" fill="url(#paint0_linear)"/>
</g>
<mask id="mask1" mask-type="alpha" maskUnits="userSpaceOnUse" x="-36" y="19" width="382" height="807">
<g opacity="0.55">
<path fill-rule="evenodd" clip-rule="evenodd" d="M-11.0432 104.342C-6.06857 91.8298 8.10477 85.7183 20.6139 90.6916C33.123 95.6649 39.231 109.84 34.2564 122.352C29.2817 134.865 15.1084 140.976 2.59924 136.003C-9.90988 131.029 -16.0178 116.855 -11.0432 104.342ZM-0.222889 117.725C1.11643 114.357 4.93234 112.711 8.30018 114.05C11.668 115.389 13.3125 119.206 11.9732 122.574C10.6338 125.943 6.81792 127.588 3.45008 126.249C0.0822375 124.91 -1.56221 121.094 -0.222889 117.725Z" fill="#DAF1FD"/>
<path fill-rule="evenodd" clip-rule="evenodd" d="M278.593 350.552C283.423 335.657 299.41 327.497 314.301 332.325C329.192 337.154 337.348 353.143 332.518 368.038C327.688 382.933 311.701 391.093 296.81 386.265C281.919 381.436 273.763 365.447 278.593 350.552ZM292.158 365.267C293.458 361.257 297.763 359.06 301.772 360.36C305.781 361.66 307.977 365.965 306.676 369.975C305.376 373.985 301.072 376.182 297.063 374.882C293.053 373.582 290.858 369.278 292.158 365.267Z" fill="#DAF1FD"/>
<path fill-rule="evenodd" clip-rule="evenodd" d="M65.1498 176.804C75.328 151.204 104.327 138.699 129.921 148.875C155.516 159.05 168.013 188.053 157.834 213.654C147.656 239.254 118.657 251.759 93.0627 241.583C67.4685 231.408 54.9715 202.405 65.1498 176.804ZM87.2884 204.187C90.0287 197.294 97.8363 193.928 104.727 196.667C111.618 199.407 114.982 207.215 112.242 214.108C109.502 221 101.694 224.367 94.8035 221.627C87.9127 218.888 84.5481 211.079 87.2884 204.187Z" fill="#DAF1FD"/>
<path fill-rule="evenodd" clip-rule="evenodd" d="M144.521 357.547C151.918 338.944 172.99 329.857 191.589 337.252C210.187 344.646 219.268 365.721 211.872 384.324C204.476 402.927 183.403 412.014 164.805 404.619C146.206 397.225 137.125 376.15 144.521 357.547ZM160.609 377.445C162.6 372.436 168.274 369.99 173.281 371.981C178.288 373.971 180.733 379.645 178.742 384.654C176.75 389.662 171.077 392.109 166.07 390.118C161.063 388.127 158.618 382.453 160.609 377.445Z" fill="#DAF1FD"/>
<path fill-rule="evenodd" clip-rule="evenodd" d="M238.237 457.698C228.089 454.9 216.936 460.699 213.962 471.483C211.164 481.634 216.96 492.789 227.742 495.761C237.889 498.56 249.042 492.761 252.016 481.976C254.99 471.191 249.019 460.671 238.237 457.698ZM223.455 481.609C224.228 478.806 227.126 477.161 229.928 477.933C232.73 478.706 234.375 481.604 233.602 484.407C232.829 487.21 229.931 488.856 227.129 488.083C224.327 487.311 222.682 484.412 223.455 481.609Z" fill="#DAF1FD"/>
<path fill-rule="evenodd" clip-rule="evenodd" d="M324.237 197.698C314.089 194.9 302.936 200.699 299.962 211.483C297.164 221.634 302.96 232.789 313.742 235.761C323.889 238.56 335.042 232.761 338.016 221.976C340.99 211.191 335.019 200.671 324.237 197.698ZM309.455 221.609C310.228 218.806 313.126 217.161 315.928 217.933C318.73 218.706 320.375 221.604 319.602 224.407C318.829 227.21 315.931 228.856 313.129 228.083C310.327 227.311 308.682 224.412 309.455 221.609Z" fill="#DAF1FD"/>
<path fill-rule="evenodd" clip-rule="evenodd" d="M251.237 220.698C241.089 217.9 229.936 223.699 226.963 234.483C224.164 244.634 229.96 255.789 240.742 258.761C250.889 261.559 262.042 255.761 265.016 244.976C267.99 234.191 262.019 223.671 251.237 220.698ZM236.455 244.609C237.228 241.806 240.126 240.16 242.928 240.933C245.73 241.706 247.375 244.604 246.602 247.407C245.83 250.21 242.931 251.856 240.129 251.083C237.327 250.311 235.682 247.412 236.455 244.609Z" fill="#DAF1FD"/>
<path fill-rule="evenodd" clip-rule="evenodd" d="M110.709 625.768C113.64 617.137 123.012 612.516 131.64 615.447C140.269 618.377 144.887 627.749 141.956 636.38C139.025 645.011 129.654 649.632 121.025 646.702C112.397 643.771 107.778 634.399 110.709 625.768ZM116.335 633.742C117.1 631.49 119.544 630.285 121.795 631.049C124.046 631.814 125.251 634.259 124.486 636.51C123.722 638.762 121.277 639.967 119.026 639.203C116.775 638.438 115.57 635.993 116.335 633.742Z" fill="#DAF1FD"/>
<path fill-rule="evenodd" clip-rule="evenodd" d="M202.709 141.768C205.64 133.137 215.012 128.516 223.64 131.447C232.269 134.377 236.887 143.749 233.956 152.38C231.025 161.011 221.654 165.632 213.025 162.702C204.397 159.771 199.778 150.399 202.709 141.768ZM208.335 149.742C209.1 147.49 211.544 146.285 213.795 147.049C216.046 147.814 217.251 150.259 216.486 152.51C215.722 154.762 213.277 155.967 211.026 155.203C208.775 154.438 207.57 151.993 208.335 149.742Z" fill="#DAF1FD"/>
<path fill-rule="evenodd" clip-rule="evenodd" d="M313.709 482.768C316.64 474.137 326.012 469.516 334.64 472.447C343.269 475.377 347.887 484.749 344.956 493.38C342.025 502.011 332.654 506.632 324.025 503.702C315.397 500.771 310.778 491.399 313.709 482.768ZM319.335 490.742C320.1 488.49 322.544 487.285 324.795 488.049C327.046 488.814 328.251 491.259 327.486 493.51C326.722 495.762 324.277 496.967 322.026 496.203C319.775 495.438 318.57 492.993 319.335 490.742Z" fill="#DAF1FD"/>
<path fill-rule="evenodd" clip-rule="evenodd" d="M110.126 503.282C107.53 489.074 116.941 475.453 131.145 472.858C145.349 470.263 158.968 479.676 161.563 493.884C164.159 508.092 154.749 521.713 140.545 524.308C126.341 526.904 112.722 517.49 110.126 503.282ZM124.061 509.984C123.384 506.278 125.839 502.724 129.545 502.047C133.25 501.37 136.803 503.826 137.48 507.532C138.157 511.239 135.702 514.792 131.997 515.469C128.291 516.146 124.739 513.69 124.061 509.984Z" fill="#DAF1FD"/>
<path fill-rule="evenodd" clip-rule="evenodd" d="M246.103 790.427C237.704 776.119 242.491 757.712 256.795 749.315C271.1 740.918 289.505 745.709 297.905 760.018C306.304 774.326 301.517 792.732 287.213 801.13C272.908 809.527 254.503 804.735 246.103 790.427ZM263.781 792.167C261.59 788.435 262.839 783.633 266.57 781.442C270.302 779.252 275.103 780.502 277.294 784.234C279.486 787.967 278.237 792.769 274.505 794.959C270.774 797.15 265.972 795.9 263.781 792.167Z" fill="#DAF1FD"/>
<path fill-rule="evenodd" clip-rule="evenodd" d="M225.988 606.722C225.592 591.1 237.931 578.115 253.549 577.718C269.167 577.322 282.149 589.664 282.546 605.286C282.942 620.908 270.603 633.894 254.985 634.29C239.367 634.687 226.385 622.344 225.988 606.722ZM239.763 616.219C239.659 612.144 242.878 608.756 246.952 608.653C251.027 608.549 254.413 611.769 254.517 615.844C254.62 619.919 251.401 623.307 247.327 623.41C243.253 623.514 239.866 620.294 239.763 616.219Z" fill="#DAF1FD"/>
<path fill-rule="evenodd" clip-rule="evenodd" d="M283.988 70.7217C283.592 55.0998 295.931 42.1144 311.549 41.7178C327.167 41.3213 340.149 53.6639 340.546 69.2858C340.942 84.9077 328.603 97.8932 312.985 98.2897C297.367 98.6862 284.385 86.3436 283.988 70.7217ZM297.763 80.2183C297.659 76.143 300.878 72.7555 304.952 72.6521C309.027 72.5486 312.413 75.7684 312.517 79.8437C312.62 83.919 309.401 87.3065 305.327 87.4099C301.253 87.5134 297.866 84.2936 297.763 80.2183Z" fill="#DAF1FD"/>
<path fill-rule="evenodd" clip-rule="evenodd" d="M117.988 48.722C117.592 33.1001 129.931 20.1146 145.549 19.7181C161.167 19.3216 174.149 31.6642 174.546 47.2861C174.942 62.908 162.603 75.8935 146.985 76.29C131.367 76.6865 118.385 64.3438 117.988 48.722ZM131.763 58.2185C131.659 54.1433 134.878 50.7557 138.952 50.6523C143.027 50.5489 146.413 53.7687 146.517 57.844C146.62 61.9192 143.401 65.3067 139.327 65.4102C135.253 65.5136 131.866 62.2938 131.763 58.2185Z" fill="#DAF1FD"/>
<path fill-rule="evenodd" clip-rule="evenodd" d="M12.7092 539.768C15.6404 531.137 25.0116 526.516 33.6402 529.447C42.2689 532.377 46.8875 541.749 43.9562 550.38C41.0249 559.011 31.6538 563.632 23.0252 560.702C14.3965 557.771 9.77789 548.399 12.7092 539.768ZM18.335 547.742C19.0996 545.49 21.5443 544.285 23.7952 545.049C26.0462 545.814 27.2511 548.259 26.4864 550.51C25.7217 552.762 23.277 553.967 21.0261 553.203C18.7751 552.438 17.5703 549.993 18.335 547.742Z" fill="#DAF1FD"/>
<path fill-rule="evenodd" clip-rule="evenodd" d="M24.5534 750.962C24.5534 745.51 28.9717 741.091 34.4219 741.091C39.872 741.091 44.2903 745.51 44.2903 750.962C44.2903 756.414 39.872 760.833 34.4219 760.833C28.9717 760.833 24.5534 756.414 24.5534 750.962ZM29.1587 754.252C29.1587 752.798 30.3369 751.62 31.7903 751.62C33.2437 751.62 34.4219 752.798 34.4219 754.252C34.4219 755.706 33.2437 756.884 31.7903 756.884C30.3369 756.884 29.1587 755.706 29.1587 754.252Z" fill="#DAF1FD"/>
<path fill-rule="evenodd" clip-rule="evenodd" d="M202.527 691.137C202.527 685.685 206.945 681.266 212.395 681.266C217.845 681.266 222.264 685.685 222.264 691.137C222.264 696.588 217.845 701.008 212.395 701.008C206.945 701.008 202.527 696.588 202.527 691.137ZM207.132 694.427C207.132 692.973 208.31 691.795 209.764 691.795C211.217 691.795 212.395 692.973 212.395 694.427C212.395 695.881 211.217 697.059 209.764 697.059C208.31 697.059 207.132 695.881 207.132 694.427Z" fill="#DAF1FD"/>
<path fill-rule="evenodd" clip-rule="evenodd" d="M27.3868 616.982C5.5859 608.315 -20.5338 618.449 -29.7449 641.619C-38.4143 663.425 -28.2866 689.548 -5.12312 698.757C16.6778 707.424 42.7975 697.29 52.0086 674.12C61.2198 650.951 50.5504 626.191 27.3868 616.982ZM-11.1783 666.36C-8.78434 660.339 -1.96333 657.397 4.05683 659.791C10.077 662.184 13.0166 669.006 10.6226 675.027C8.22866 681.049 1.40768 683.99 -4.61249 681.597C-10.6326 679.204 -13.5723 672.382 -11.1783 666.36Z" fill="#DAF1FD"/>
<path fill-rule="evenodd" clip-rule="evenodd" d="M163.387 740.982C141.586 732.315 115.466 742.449 106.255 765.619C97.5857 787.425 107.713 813.548 130.877 822.757C152.678 831.424 178.797 821.29 188.009 798.12C197.22 774.951 186.55 750.191 163.387 740.982ZM124.822 790.36C127.216 784.339 134.037 781.397 140.057 783.791C146.077 786.184 149.017 793.006 146.623 799.027C144.229 805.049 137.408 807.99 131.388 805.597C125.367 803.204 122.428 796.382 124.822 790.36Z" fill="#DAF1FD"/>
<path fill-rule="evenodd" clip-rule="evenodd" d="M34.6582 281.77C2.86855 276.439 -29.28 297.61 -34.9456 331.396C-40.2779 363.194 -19.1146 395.348 14.662 401.012C46.4516 406.343 78.6001 385.172 84.2657 351.387C89.9313 317.602 68.4347 287.434 34.6582 281.77ZM-2.84759 359.253C-1.37511 350.472 6.93495 344.547 15.7134 346.019C24.4919 347.491 30.4145 355.803 28.942 364.583C27.4696 373.364 19.1595 379.289 10.3811 377.817C1.60262 376.345 -4.32007 368.033 -2.84759 359.253Z" fill="#DAF1FD"/>
</g>
</mask>
<g mask="url(#mask1)">
<rect x="-33.7363" y="-64.9922" width="473" height="966" fill="url(#paint1_linear)"/>
</g>
<defs>
<linearGradient id="paint0_linear" x1="1917.5" y1="1486.5" x2="2454" y2="1487" gradientUnits="userSpaceOnUse">
<stop stop-color="#C9EBFF"/>
<stop offset="1" stop-color="white"/>
</linearGradient>
<linearGradient id="paint1_linear" x1="-69.2363" y1="517.508" x2="467.264" y2="518.008" gradientUnits="userSpaceOnUse">
<stop stop-color="#C9EBFF"/>
<stop offset="1" stop-color="white"/>
</linearGradient>
</defs>
</svg>
