<svg width="31" height="30" viewBox="0 0 31 30" fill="none" xmlns="http://www.w3.org/2000/svg">
<rect width="30.2493" height="29.6364" rx="8" fill="#4C85F7"/>
<path d="M21.739 15.6132C21.433 15.2478 21.5216 15.0858 21.739 14.7595C21.7426 14.7562 24.2666 11.4588 24.5254 10.3403L24.5266 10.3391C24.6566 9.9313 24.5266 9.63184 23.9015 9.63184H21.8335C21.3077 9.63184 21.0643 9.88884 20.9355 10.176C20.9355 10.176 19.8826 12.5583 18.3937 14.1025C17.9127 14.5484 17.6917 14.6925 17.4282 14.6925C17.2982 14.6925 17.0985 14.5495 17.0985 14.1416V10.3391C17.0985 9.85084 16.9508 9.63184 16.516 9.63184H13.2652C12.9355 9.63184 12.7393 9.85978 12.7393 10.0721C12.7393 10.5347 13.4838 10.642 13.5606 11.9459V14.7752C13.5606 15.3942 13.4412 15.5082 13.1777 15.5082C12.4758 15.5082 10.7694 13.1159 9.75911 10.3794C9.55586 9.84861 9.35497 9.63295 8.82558 9.63295H6.75881C6.16916 9.63295 6.0498 9.88995 6.0498 10.1771C6.0498 10.6855 6.75172 13.2108 9.31716 16.5485C11.0271 18.8268 13.4341 20.0616 15.6238 20.0616C16.9402 20.0616 17.1009 19.7878 17.1009 19.3151C17.1009 17.1385 16.9816 16.9329 17.6409 16.9329C17.947 16.9329 18.4728 17.0759 19.7018 18.1743C21.1056 19.4783 21.3372 20.0616 22.1231 20.0616H24.191C24.7807 20.0616 25.0796 19.7878 24.9071 19.247C24.5148 18.1106 21.8584 15.7697 21.739 15.6132Z" fill="white"/>
</svg>
