<svg width="31" height="30" viewBox="0 0 31 30" fill="none" xmlns="http://www.w3.org/2000/svg">
<rect x="0.75" width="30.2493" height="29.6364" rx="8" fill="#DF3131"/>
<path d="M24.5706 10.7424C24.4673 10.3838 24.2647 10.0568 23.9832 9.79413C23.7016 9.53143 23.351 9.34224 22.9663 9.24551C21.5504 8.89063 15.8746 8.89062 15.8746 8.89062C15.8746 8.89062 10.1988 8.89062 8.78289 9.24362C8.39806 9.34004 8.04723 9.52912 7.76563 9.79187C7.48403 10.0546 7.28158 10.3818 7.1786 10.7405C6.7998 12.0619 6.7998 14.8179 6.7998 14.8179C6.7998 14.8179 6.7998 17.5739 7.1786 18.8934C7.38724 19.622 8.00302 20.1959 8.78289 20.3903C10.1988 20.7452 15.8746 20.7452 15.8746 20.7452C15.8746 20.7452 21.5504 20.7452 22.9663 20.3903C23.7482 20.1959 24.362 19.622 24.5706 18.8934C24.9494 17.5739 24.9494 14.8179 24.9494 14.8179C24.9494 14.8179 24.9494 12.0619 24.5706 10.7424ZM14.0718 17.3474V12.2884L18.7712 14.799L14.0718 17.3474Z" fill="white"/>
</svg>
